<?xml version="1.0" encoding="utf-8"?>
<!-- Generator: Adobe Illustrator 24.0.0, SVG Export Plug-In . SVG Version: 6.00 Build 0)  -->
<svg version="1.1" id="Layer_1" xmlns="http://www.w3.org/2000/svg" xmlns:xlink="http://www.w3.org/1999/xlink" x="0px" y="0px"
	 viewBox="0 0 377 143" style="enable-background:new 0 0 377 143;" xml:space="preserve">
<style type="text/css">
	.st0{fill:#FFFFFF;}
	.st1{fill:#FEC013;}
</style>
<g id="Group_42" transform="translate(-1341 -405.999)">
	<path id="Path_3" class="st0" d="M1664.8,539.1c-0.2,0.4-0.4,0.7-0.5,1.1L1664.8,539.1z"/>
	<path id="Path_4" class="st0" d="M1640.6,507.6c0-0.2,0-0.5,0.1-0.7v-0.3h-0.5c-0.1,0-0.1-0.1-0.2-0.1s-0.3,0-0.4,0.1
		c-0.1,0-0.2,0-0.4,0c-0.3,0-0.6-0.1-0.9-0.1c0,0.2,0,0.4,0,0.7c0-0.1,0-0.2,0-0.1v0.7c0,0.1,0,0.1,0,0.1s0,0,0-0.2v0.9
		c0,0.3,0,0.4,0.1,0.2c-0.1,0,0-0.4,0-0.6c0.1,0,0,0.5,0.1,0.7v0.1v0.1c-0.1,0.6,0,1.3-0.1,1.7c0,0.1,0.1,0.2,0,0.4h-0.1v0.7
		l0.1-0.3c0,0.6-0.1,1.3-0.2,1.9c0.2,0.2-0.1,1.2,0.1,1.7v-0.5c0,1,0.1,1.2,0,2.1c-0.1-0.8,0-0.8-0.2-2c0.1,1.2-0.1,2,0,3.1
		c0-0.1,0.1-0.3,0.1-0.1c-0.1,0.2,0,1-0.1,0.9c0,0.3,0.1,0.4,0.1,0.6l-0.1,1.1l0,0c0.2,1.9-0.2,3.6-0.1,5.5h0.1l-0.1,0.5
		c0.1-0.4,0.1,0.2,0.1,0.2l-0.1,1.2c0,0,0.1,0,0.1-0.3c0,0.5,0,0.9-0.1,1.4v-0.1v0.4h0.1c0,0.6,0,1.2-0.1,1.8l0.1-0.1l-0.1,0.7
		l0.1-0.4c0,0.8-0.1,2-0.1,2.2v-0.1c0,0.1,0,0.2,0,0.4l0.1-0.1c0,1.2,0.1,1.5,0.1,2.9c0,0.4,0-0.2,0.1-0.2c0,0.3,0,0.5,0,0.8
		c0.1-0.1,0.1-0.7,0.1-0.2c0,0.3,0.1-0.2,0.1,0.3l-0.1,0.2c0,0.3,0.1,0.1,0.1,0.5c-0.1,0.5-0.1-0.7-0.2,0.2c0.1,0.6,0.2,1.2,0.2,1.8
		c0.1,0.7,0.2-0.4,0.2,0.6v-0.3v0.8l0,0l0,0v0.8h0.2c0.4,0,0.8,0,1.2,0v-0.2v-0.2v-0.1l0,0v-1l0,0c-0.1-0.3-0.1-0.6,0-0.9
		c0.1,0.1,0,0.7,0,0.9c0.1-0.7,0.1-1.5,0.1-2.2v0.2c0-0.6,0-1.2,0-1.8c0,0.2,0.1,0.2,0.1,0.1c-0.1-1.2,0-2.4-0.1-3.8l0.1-0.4h-0.1
		c0-0.6,0.1-0.2,0.1-0.5v0.1c0.1-0.8-0.1-0.4,0-0.9c-0.1,0.2,0,0.8-0.1,0.7c0.1-0.8,0-2,0.2-2.1c-0.1-1.4,0-3.2,0.1-4.5
		c0-0.2,0,0.1-0.1,0c0.1-0.5-0.1-1.6,0-1.6c0-0.1-0.1-0.3-0.1-0.4c0-0.4,0.1-0.7,0.1-1.1v0.3l0,0V522l0,0c0-1,0-2.1,0.1-3
		c-0.1,0.5-0.1-0.1-0.2,0.1c0.1-0.8,0.2-1.6,0.1-2.4c0,0-0.1-0.1-0.1,0l0.1-0.5v0.1c0-0.9,0.1-1.9,0.1-2.5c0,0.4,0,0.4-0.1,0.4
		c0-0.7,0-1.3,0.1-2v0.1c0-0.2,0-0.4,0-0.6h-0.1c0-0.4,0-0.9,0.1-1.4c-0.1-0.2,0.1-1.1,0-1.7c0-0.2-0.1,0.4-0.1-0.1
		c0,0,0.1-0.1,0.1-0.2C1640.6,507.8,1640.6,507.7,1640.6,507.6z M1638.3,511v-0.3C1638.4,510.8,1638.4,511,1638.3,511z
		 M1638.8,509.6v-0.1l0,0v0.4V509.6z M1638.9,534.1v-0.2h0.1L1638.9,534.1z M1639,533.6l0.1-0.4
		C1639.1,533.3,1639.1,533.8,1639,533.6L1639,533.6z M1639,537c0-0.2,0-0.4,0-0.6c0,0,0,0.2,0,0.3c0-0.2,0-0.3,0-0.5
		c0.1,0.2,0.1,0.1,0.2,0.1C1639.2,537,1639.1,536.9,1639,537C1639,537.1,1639,537.1,1639,537C1639,537.1,1639,537,1639,537L1639,537
		z M1640.1,508.4c0,0.9-0.1,0.5-0.2,0.5c0.1-0.2,0.1-1.2,0.2-1v1.1c0,0.1,0,0.2,0,0.3C1640,508.9,1640.2,509.2,1640.1,508.4
		L1640.1,508.4z M1638.8,517L1638.8,517L1638.8,517L1638.8,517z M1639,537.4l0.1-0.2L1639,537.4L1639,537.4z M1639.3,541.3
		L1639.3,541.3L1639.3,541.3L1639.3,541.3z M1640.2,532.8c0-0.2,0.1-0.5,0-0.7v0.1v-0.4c0-0.1,0-0.2,0.1-0.3c0,0.9,0,1.9-0.1,2.9
		V532.8z M1640.2,528.8L1640.2,528.8v0.3V528.8z M1640.2,527.6v-1.1v-0.2C1640.3,526.7,1640.3,527.2,1640.2,527.6L1640.2,527.6z
		 M1640.2,522.7c0,0.2,0,0.4,0,0.6c0,0.1,0,0.1,0,0.2V522.7z M1640.2,518.3L1640.2,518.3c0-0.1,0-0.2,0.1-0.2
		C1640.2,518.4,1640.2,518.2,1640.2,518.3L1640.2,518.3z M1640.3,515.1c-0.1,0.4,0,0.3,0,0.5l-0.1-0.1c0-0.3,0.1-0.7,0.2-1
		C1640.5,515.1,1640.3,515.2,1640.3,515.1L1640.3,515.1z M1638.9,507.6v0.5c0,0,0,0-0.1-0.1C1638.8,507.9,1638.8,507.7,1638.9,507.6
		L1638.9,507.6z M1638.6,515.5L1638.6,515.5v-0.3c0,0.4,0,0.8-0.1,1.2c0-0.2,0.1-0.9,0-0.8L1638.6,515.5z M1638.4,512.3
		c0-0.1,0.1-0.6,0.1-0.6c-0.1,0.4,0.1,0.7,0,0.8C1638.5,512.4,1638.5,512.3,1638.4,512.3C1638.4,512.2,1638.4,512.5,1638.4,512.3
		L1638.4,512.3z M1638.5,519.7c0,0.3,0.1,0.4,0,0.7C1638.4,520.1,1638.4,519.9,1638.5,519.7L1638.5,519.7z M1638.4,532.6
		c-0.1-0.4,0.1-0.3,0.1-0.7C1638.5,532.4,1638.4,532.3,1638.4,532.6L1638.4,532.6z M1638.5,531.9c0-0.2,0-0.4,0-0.5
		C1638.5,531.6,1638.5,531.7,1638.5,531.9L1638.5,531.9z M1638.5,521.2c0-0.2,0-0.8,0-0.6c0,0.5,0.1-0.2,0.1,0.1v-0.3
		c0.1,0.4-0.1,0.3-0.1,0.6v-0.2C1638.5,520.7,1638.5,521.1,1638.5,521.2L1638.5,521.2z M1638.7,510.1c0-0.2,0-0.3,0.1-0.3
		c0-0.1,0-0.3,0-0.4C1638.8,509.9,1638.8,509.9,1638.7,510.1L1638.7,510.1z M1638.9,511.1v0.3c0,0,0,0.1-0.1,0
		C1638.8,511.4,1638.9,511.3,1638.9,511.1L1638.9,511.1z M1638.8,525.6c0,0.1,0,0,0.1-0.2v0.6
		C1638.8,525.9,1638.8,525.8,1638.8,525.6L1638.8,525.6z M1638.8,537.7v-0.2c0,0,0,0,0-0.1V537.7
		C1638.8,537.8,1638.8,537.8,1638.8,537.7L1638.8,537.7z M1639.4,541.3L1639.4,541.3L1639.4,541.3L1639.4,541.3L1639.4,541.3z
		 M1640.2,539.3V539v-0.1C1640.2,539,1640.2,539.2,1640.2,539.3L1640.2,539.3z M1640.2,538.5v-0.6c0,0.3,0,0.5,0,0.7v-1.3
		c0,0,0-0.1,0.1-0.1C1640.3,537.7,1640.3,538.1,1640.2,538.5L1640.2,538.5z M1640.3,535.9v-0.2c0,0.2-0.1,0.4-0.1,0.6L1640.3,535.9
		L1640.3,535.9c-0.1-0.4-0.1-0.9,0-1.4c0,0.3,0,0.6-0.1,0.9c0-0.2,0-0.5,0.1-0.5C1640.4,535.2,1640.4,535.6,1640.3,535.9
		L1640.3,535.9z M1640.4,533.4l-0.1,0.2v-0.4L1640.4,533.4z M1640.3,526.1c0-0.6,0-1.1-0.1-1.7v-0.1v0.1c0,0,0,0,0.1,0
		c0,0.2,0,0.4,0,0.6c0-0.1,0-0.3,0.1-0.4c0.1,0.4-0.2,1.3,0.1,1C1640.4,525.8,1640.3,526.3,1640.3,526.1L1640.3,526.1z
		 M1640.4,519.4c0-0.3,0-1,0-0.9C1640.5,518.8,1640.5,519.1,1640.4,519.4L1640.4,519.4z M1640.5,519.5v-0.2
		C1640.6,519.5,1640.5,519.6,1640.5,519.5v0.2C1640.4,519.2,1640.5,519.5,1640.5,519.5L1640.5,519.5z M1640.5,514.1v0.7
		C1640.5,514.5,1640.3,514.4,1640.5,514.1L1640.5,514.1z"/>
	<path id="Path_5" class="st0" d="M1565.4,537.6c0.4-0.2,0.8-0.4,1.1-0.7C1566.2,537.1,1565.8,537.4,1565.4,537.6z"/>
	<path id="Path_6" class="st0" d="M1573,524.2v-0.9c0-0.4,0-0.8,0-1.3c0,0.1,0,0.2,0,0.2c-0.1-0.5-0.1-1-0.1-1.5l-0.1-0.1
		c-0.2-1.1-0.4-2.1-0.7-3.1c-0.1-0.2-0.3-0.8-0.6-1.5c-0.1-0.4-0.3-0.7-0.5-1.1c-0.2-0.3-0.3-0.6-0.5-1c-0.3-0.4,0.5,0.9-0.2-0.2
		c-0.1-0.3-0.3-0.6-0.5-0.9c-0.3-0.3-0.5-0.7-0.5-0.8c-0.3-0.3-0.5-0.6-0.8-0.9l-0.1-0.3c-0.4-0.3-0.7-0.6-1-0.9
		c-0.4-0.4-0.9-0.8-1.4-1.1c0.1,0.1,0.2,0.2,0.1,0.1c-0.4-0.3-1.4-0.9-0.6-0.5c-0.6-0.3-1.1-0.6-1.7-0.9s-1-0.3-0.4-0.1
		c0.5,0.2,0.9,0.4,1.4,0.7c-0.1,0.1-1.2-0.5-1.5-0.5l-0.3-0.1h-0.2c-1.3-0.5-2.6-0.9-4-1.1c-0.3,0-0.6,0-0.8,0v-0.1
		c-0.5,0-1.1-0.1-1.6,0c0.3,0,0.5,0.1,0.8,0.1c-1.5,0-3,0.1-4.4,0.3c-0.3,0.2-2.8,0.7-3.8,1.5l1-0.5c-0.5,0.3-1,0.5-1.3,0.6
		l-0.9,0.6c-0.3,0.2-0.6,0.4-0.9,0.6c-0.2,0.2-0.5,0.3-0.8,0.6c1.1-1,2.2-1.8,3.5-2.4c-2.3,1-4.3,2.6-5.9,4.5
		c0.1-0.1,0.6-0.6,0.2-0.1c-0.4,0.3-1.4,2-1.3,1.6c-0.4,0.7-0.4,0.9-0.6,1.3c-0.2,0.4-0.4,0.8-0.6,1.2s-0.4,0.8-0.5,1.2v-0.1
		c-0.6,2.1-1,4.2-1.1,6.4s0.2,4.4,0.9,6.4V530c0.1,0.3,0.1,0.5,0.2,0.8c0,0,0.3,0.6,0.4,0.7c0.4,0.9,0.8,1.8,1.3,2.6
		c0.1,0,0-0.2-0.3-0.8c0.3,0.5,0.6,0.9,0.9,1.4c0.3,0.4,0.6,0.9,0.9,1.3l-0.2-0.3l0.6,0.8v-0.1c1,1,2.1,1.9,3.3,2.7l-0.1-0.2
		l0.7,0.5c0.2,0.2,0.5,0.3,0.8,0.4c-0.3-0.2-0.6-0.3-0.8-0.5c0.4,0.2,0.9,0.4,1.4,0.7s1,0.4,1.5,0.6c1,0.3,1.8,0.5,2,0.6l-0.2-0.1
		l0.9,0.2l-0.2-0.1c1.1,0.2,2.2,0.3,3.3,0.2c1.2,0,2.4-0.2,3.5-0.3c0.9-0.2-0.5,0.1-0.5,0c0.5-0.1,1.6-0.3,1.8-0.3
		c-0.3,0-1.6,0.3-0.6,0c0.7-0.1-0.5,0,0.7-0.3h0.5c0.7-0.2,0.1-0.1,1.2-0.5c1.2-0.4-1.4,0.7,0.5,0c1.2-0.6,2.4-1.4,3.5-2.2
		c1.3-1.1-0.8,0.4,1-1c-0.2,0.2-0.4,0.3-0.6,0.4c0.3-0.3,0.7-0.6,1-0.9c0.1-0.1,0.3-0.3,0.4-0.4c-0.1,0.1-0.2,0.2-0.3,0.3
		c0.2-0.2,0.4-0.4,0.6-0.6l-0.9-0.9l0,0l0,0l0,0c-0.1,0.1-0.3,0.2-0.4,0.4l0,0l-0.1,0.1c-0.2,0.2-0.4,0.4-0.7,0.6
		c-0.1,0.1-0.3,0.3-0.5,0.4l-0.1,0.1c-0.3,0.2-0.5,0.4-0.8,0.6c-0.8,0.6-1.7,1-2.6,1.4l0.1-0.1c-0.2,0.1-0.4,0.2-0.6,0.3
		c-0.3,0.1-0.6,0.2-0.9,0.3c-0.2,0.1-0.3,0.1-0.5,0.1c0.1-0.1,1.5-0.5,2-0.8c-0.8,0.3-1.7,0.6-2.6,0.8c-0.6,0.1-1.2,0.2-2.3,0.4h0.4
		c-1.4,0.2-2.8,0.2-4.1,0c0.4,0,0.4,0,0.3-0.1c-1.4-0.1-2.7-0.3-4.1-0.8c-0.7-0.2-1.3-0.5-2-0.9s-1.3-0.8-1.9-1.2
		c-0.2-0.2-0.5-0.4-0.7-0.7h-0.1c-1.1-1-0.2-0.3-0.9-1c0.2,0.3,0.2,0.2,0.2,0.3c-0.3-0.3-0.5-0.7-0.8-1c-0.2-0.1-0.4-0.3-0.5-0.5
		c0.2,0.5,1.2,1.5,0.8,1.2c-0.6-0.8-1.2-1.6-1.7-2.4c-0.3-0.5-0.6-1.1-0.7-1.7c-0.7-1.6-1.1-3.3-1.3-5.1c0-0.2,0-0.4,0-0.7v-0.5
		v-0.1V524h0.1h0.3h2.3c0.4,0-0.2,0-0.1-0.1c1.1,0.1,3.7-0.1,3.8,0c0.3,0,0.6-0.1,0.9-0.1c0.7,0,1.6,0.1,2.5,0.1h-0.7h0.1h0.9l0,0
		c2.3,0,4.9,0,6.9,0.1c-1.1-0.1,0-0.1-0.2-0.1c1.1,0.1,3.5,0.1,5.5,0.1c0,0,0.1-0.1-0.1-0.1l1.2,0.1h-0.2c2.1,0,4.4,0.1,5.8,0.1
		c-0.9,0-0.9-0.1-1-0.1h2.4h0.4h0.1v-0.1L1573,524.2z M1561,540.6c1.4-0.4,1.3-0.3,1.5-0.3s0.3-0.1,0.3,0c-0.1,0-0.2,0-0.3,0
		c-0.3,0.1-0.8,0.2-1.3,0.3c0.3,0,0.5-0.1,0.8-0.2C1561.7,540.5,1561.3,540.6,1561,540.6C1561.3,540.6,1560.9,540.6,1561,540.6z
		 M1562.7,540.1c0.2-0.1,0.4-0.1,0.6-0.2v0.1C1563.1,540,1562.9,540,1562.7,540.1L1562.7,540.1z M1559.9,507.3
		c0.2,0,0.3,0.1,0.5,0.1s0.4,0.1,0.6,0.1h0.1h-0.1C1560.7,507.5,1560.3,507.4,1559.9,507.3L1559.9,507.3z M1570.8,515.7
		c0.1,0.1,0.1,0.3,0.2,0.4c0.1,0.2,0.1,0.3,0.2,0.5l0.1,0.2c-0.6-0.9-0.1-0.4-1-1.9c0.5,0.9,0.6,1.2,0.6,1.3s-0.1-0.1-0.2-0.1
		c-0.2-0.5-0.4-1-0.7-1.4c-0.3-0.5-0.5-0.8-0.3-0.7C1570.1,514.3,1570.5,515,1570.8,515.7L1570.8,515.7z M1541.8,521.1
		c0-0.1,0-0.1,0-0.2v-0.1l0,0c0.1-0.3,0.1-0.7,0.2-1l0,0c0-0.3,0.1-0.6,0.3-0.9c0.1,0.1-0.2,0.7-0.2,1c0.1-0.4,0.2-0.8,0.4-1.2
		c0.1-0.3,0.2-0.5,0.4-1l-0.1,0.2c0.1-0.3,0.2-0.6,0.4-0.9c0.2-0.3,0.3-0.5,0.5-0.8c-0.1,0.2,0,0.2,0,0.1c0.6-1.2,1.3-2.3,2.2-3.3
		l0.4-0.2v-0.1c0.5-0.5,0.2,0,0.5-0.3c-0.1,0.1-0.1,0.1-0.2,0.1c0.7-0.5,0.3-0.4,0.7-0.6c-0.2,0.1-0.7,0.6-0.6,0.3
		c0.7-0.5,1.7-1.3,1.9-1.2c1.3-0.9,2.7-1.5,4.2-1.8c0.2-0.1-0.1,0-0.1,0c0.3,0,0.7-0.1,1-0.2c0.2-0.1,0.4-0.1,0.7-0.1
		c0.1,0,0.3-0.1,0.4-0.2c0.3,0,0.7,0,1.1,0h-0.3l0,0h0.4l0,0h0.8h0.8c0.5,0,1,0.1,1.5,0.2c-0.5-0.1,0.1-0.1-0.1-0.2
		c0.4,0.2,1.5,0.4,2.4,0.7c0,0,0.1,0,0-0.1l0.5,0.2l-0.1-0.1c0.5,0.1,0.9,0.3,1.3,0.6c0.4,0.2,0.7,0.4,1,0.6
		c-0.3-0.2-0.3-0.2-0.3-0.3l0.9,0.5c0.3,0.2,0.6,0.4,0.9,0.7v-0.1c0.2,0.1,0.3,0.3,0.5,0.5h0.1c0.4,0.3,0.7,0.6,1,1
		c0.4,0.4,0.7,0.9,1,1.4c0.1,0.2-0.2-0.4,0.1,0.1c-0.1,0.2,0.4,0.6,0.3,0.8l0.3,0.4v0.1c0.4,0.3,0.2,0.6,0.6,1.2v-0.1
		c0.1,0.2,0.3,0.6,0.1,0.3c0.1,0.3,0.5,1.4,0.4,0.9c0,0.1-0.2-0.4-0.2-0.6c0.1,0,0.2,0.5,0.4,0.6v0.1l0.1,0.1
		c0.2,0.6,0.3,1.2,0.4,1.8c0,0,0.1,0.1,0.1,0.4h-0.1l0.1,0.7l0.1-0.3c0.1,0.3,0.1,0.7,0.1,1v0.2c0,0.1,0,0.2,0,0.2l0,0l0.1,0.1h-0.1
		c-0.1,0-0.3,0-0.4,0c-0.2,0-0.3,0-0.5,0h0.5c-1.1,0-1.3,0.1-2.3,0c0.9-0.1,0.9,0,2.1-0.2c-1.3,0.1-2.2-0.1-3.3,0
		c0.1,0,0.4,0.1,0.1,0.1c-0.2-0.1-1.1,0-0.9-0.1c-0.4,0-0.4,0.1-0.6,0.1l-1.2-0.1l0,0c-2,0.2-3.8-0.2-5.8-0.1v0.1l-0.5-0.1
		c0.4,0.1-0.2,0.1-0.2,0.1l-1.3-0.1c0,0,0,0.2,0.4,0.1c-0.5,0-1,0-1.4-0.1h0.1h-0.4v0.1c-0.6,0-1.3,0-1.9-0.1l0.1,0.1l-0.8-0.1
		l0.4,0.1c-0.9,0-2.2-0.1-2.3-0.1h0.1c-0.1,0-0.3,0-0.4,0l0.1,0.1c-1.3,0-1.6,0.1-3.1,0.1c-0.4,0,0.2,0,0.2,0c-0.3,0-0.6,0-0.8,0
		c0.1,0.1,0.7,0.1,0.3,0.1c-0.3,0,0.2,0.1-0.4,0.1l-0.2-0.1c-0.3,0-0.1,0.1-0.6,0.1c-0.6-0.1,0.7-0.1-0.2-0.1
		c-0.6,0.1-1.3,0.2-1.9,0.2c-0.8,0.1,0.4,0.2-0.7,0.2h0.4h-0.8h-0.1l0,0h-0.8c0-0.1,0-0.1,0-0.2
		C1541.7,522.3,1541.8,521.5,1541.8,521.1z M1542.9,517.4L1542.9,517.4c0,0.1-0.2,0.9-0.4,1.1c0.1-0.2,0.1-0.4,0.2-0.6
		c-0.1,0.2-0.2,0.5-0.3,0.7C1542.5,518.2,1542.7,517.8,1542.9,517.4z M1543.5,516.1L1543.5,516.1c0.2-0.5,0.6-0.9,0.9-1.3
		c-0.1,0.3-0.5,0.7-0.5,0.8c0.1-0.1,0.3-0.4,0.4-0.4c-0.2,0.3-0.4,0.6-0.6,0.9v-0.2c-0.1,0.2-0.2,0.4-0.4,0.5
		C1543.4,516.3,1543.4,516.2,1543.5,516.1L1543.5,516.1z M1542.3,519C1542.3,519,1542.3,518.9,1542.3,519c0,0,0,0.2,0,0.3
		C1542.2,519.2,1542.3,519.1,1542.3,519L1542.3,519z M1545,514l0.3-0.3l-0.1,0.2L1545,514z M1548.6,510.6L1548.6,510.6
		c-0.1,0.1-0.2,0.2-0.3,0.2C1548.4,510.7,1548.5,510.7,1548.6,510.6L1548.6,510.6z M1569,522.5L1569,522.5L1569,522.5l0.4,0.1
		c-0.4,0-0.9,0-1.3-0.1C1568.4,522.6,1569.1,522.7,1569,522.5z M1570.6,518.8c0.2,0.4,0.1,0.4,0.1,0.7c-0.1-0.2-0.1-0.3,0-0.3
		C1570.6,519.1,1570.6,518.9,1570.6,518.8L1570.6,518.8z M1570.5,520.4v-0.3C1570.5,520.2,1570.5,520.3,1570.5,520.4L1570.5,520.4z
		 M1570.1,517.3L1570.1,517.3c-0.1-0.2-0.1-0.3-0.2-0.5C1570,517,1570,517.1,1570.1,517.3L1570.1,517.3z M1570.6,518.7L1570.6,518.7
		l0.1,0.5c0-0.1-0.1-0.2-0.1-0.3V518.7z M1571.1,520.8C1571.1,520.9,1571,520.9,1571.1,520.8c0-0.1,0-0.2-0.1-0.4
		C1571,520.6,1571,520.7,1571.1,520.8L1571.1,520.8z M1570.7,521c0,0.4,0.2,0.7,0.1,0.8c0-0.1,0-0.2,0-0.3c0,0.1-0.1,0.4-0.1,0.2
		S1570.7,521.1,1570.7,521L1570.7,521z M1569.4,515.7L1569.4,515.7L1569.4,515.7z M1568.5,514.3c-0.2-0.3-0.5-0.7-0.7-1
		c-0.1-0.1-0.1-0.2-0.2-0.2c0.5,0.3,0.1,0.1,0.7,0.8c-0.6-0.8-0.3-0.5-0.2-0.6C1568.1,513.5,1568.8,514.3,1568.5,514.3L1568.5,514.3
		z M1562.1,509.4h0.2c0.3,0.2,0.6,0.4,0.9,0.6c-0.5-0.2-0.6-0.4-0.5-0.4C1562.3,509.4,1562.3,509.5,1562.1,509.4L1562.1,509.4z
		 M1563.6,510.2l-0.7-0.3C1563.2,510,1563.3,510,1563.6,510.2z M1559.5,508.6c0.1,0,0.2,0.1,0.2,0.1
		C1559.3,508.6,1559.5,508.6,1559.5,508.6L1559.5,508.6z M1557.9,508.7c0.5,0,0.2,0,0.2,0c0.1,0,0.2,0,0.2,0.1c-0.2,0-0.3,0-0.2-0.1
		H1557.9z M1558.2,508.7c0.3,0,1,0.1,0.9,0.1C1558.8,508.8,1558.5,508.8,1558.2,508.7L1558.2,508.7z M1554.7,508.5
		c-0.2,0.1-0.4,0.1-0.6,0.1c-0.1,0-0.1,0-0.2,0C1554.2,508.6,1554.5,508.5,1554.7,508.5L1554.7,508.5z M1551.2,509.4
		c0.5-0.1,1.3-0.5,1.7-0.6l0.1-0.1c0,0-0.1,0-0.1,0.1l0,0c-0.2,0-0.4,0.1-0.6,0.1c0.2,0,0.3,0,0.5-0.1c-0.4,0.2-1.4,0.2-1,0.4
		C1551.7,509.4,1551.1,509.5,1551.2,509.4L1551.2,509.4z M1557.9,522.8c0.1,0,0.3-0.1,0.4-0.1c-0.1,0,0,0,0.2,0.1H1557.9z
		 M1550.2,523.1c-0.1,0-0.6,0-0.4-0.1L1550.2,523.1z M1549.5,523l-0.2-0.1L1549.5,523L1549.5,523z M1546.9,523.1
		c-0.7,0.1-0.6-0.1-0.7-0.1s-0.1,0-0.1-0.1c0.1,0,0.1,0,0.1,0.1C1546.4,523,1546.6,523,1546.9,523.1c0-0.2-0.2-0.1-0.4-0.1
		C1546.7,523,1546.8,523,1546.9,523.1C1546.8,523.1,1546.9,523,1546.9,523.1L1546.9,523.1z M1546,523.1h-0.3V523L1546,523.1z
		 M1545.3,522.8L1545.3,522.8h0.3h0.1H1545.3z M1550.9,522.3c0.4-0.1,0.4,0.1,0.8,0.1C1551.1,522.5,1551.2,522.3,1550.9,522.3
		L1550.9,522.3z M1552.2,522.5c-0.2,0-0.4,0-0.6,0C1551.8,522.4,1552,522.4,1552.2,522.5L1552.2,522.5z M1563.5,522.6h0.3
		c-0.5,0.1-0.3-0.1-0.6-0.1L1563.5,522.6c0.1-0.2-0.4-0.1-0.5-0.2c0.3,0,0.8,0,0.6,0C1563.1,522.5,1563.9,522.6,1563.5,522.6
		L1563.5,522.6z M1563.9,522.4c0.2-0.1,0.5,0,0.7,0C1564.3,522.4,1564.2,522.5,1563.9,522.4L1563.9,522.4z M1567.5,522.8
		L1567.5,522.8L1567.5,522.8L1567.5,522.8z M1550.8,509.5c0.1,0,0.1,0,0.2-0.1c-0.3,0.2-0.6,0.3-0.9,0.4c-0.1,0-0.3,0.1-0.4,0.1
		C1550.1,509.8,1550.5,509.6,1550.8,509.5z M1545.5,513.2c0.2-0.1,0.4-0.3,0.5-0.5l-0.1,0.1c0.1-0.1,0.2-0.2,0.3-0.3
		c0.1,0,0.2-0.1,0.2-0.2c-0.8,0.8-1.5,1.6-2.2,2.5C1544.6,514.3,1545,513.7,1545.5,513.2L1545.5,513.2z M1548.5,509.2
		c-0.1,0-0.1,0.1-0.2,0.1L1548.5,509.2z M1554.9,541l-0.9-0.2C1554.2,540.8,1555.2,541,1554.9,541L1554.9,541z M1555.5,541.1
		l0.5,0.1L1555.5,541.1L1555.5,541.1z M1542.1,528.8c0,0.1,0.1,0.3,0.1,0.4C1542.2,529.1,1542.2,528.9,1542.1,528.8z M1541.6,524.9
		v-0.4c0.1,0.7,0.1,1.9,0.3,3.1C1541.7,526.7,1541.6,525.8,1541.6,524.9L1541.6,524.9z M1541.5,524.2L1541.5,524.2L1541.5,524.2
		L1541.5,524.2z M1564.3,508.8c0.3,0.2,0.5,0.4,0.9,0.6C1564.9,509.2,1564.5,509,1564.3,508.8
		C1564.2,508.8,1564.3,508.8,1564.3,508.8L1564.3,508.8z M1559.7,507.2c0.5,0.1,0.6,0.1,0.6,0.1c0.2,0.1,0.6,0.1,0.8,0.2
		C1560.1,507.4,1560.2,507.3,1559.7,507.2l-0.5-0.1C1559.4,507.1,1559.5,507.1,1559.7,507.2L1559.7,507.2z M1558.4,506.6
		c-0.2,0-0.5,0-0.7,0H1558.4z M1556.6,507c0.2,0,0.5,0.1,0.7,0.1c-0.2,0-0.4,0-0.6,0C1556.7,507,1556.6,507,1556.6,507
		C1556.4,507,1556.4,507,1556.6,507L1556.6,507z M1554.7,506.7c0.5,0,1,0,1.5,0c-0.4,0-0.8,0-1.2,0.1c-0.3,0.1-0.5,0.1-0.6,0.1
		l0.7-0.1C1554.9,506.7,1554.2,506.7,1554.7,506.7L1554.7,506.7z M1547.4,509.5l0.2-0.1L1547.4,509.5l0.9-0.4l-2.3,1.5
		C1546.4,510.2,1547.7,509.4,1547.4,509.5L1547.4,509.5z M1545.3,511.5c-0.1,0.1-0.1,0.1-0.2,0.2l0,0
		C1545.1,511.6,1545.2,511.6,1545.3,511.5L1545.3,511.5z M1541.3,516.7c-0.4,0.7-0.3,1-0.6,1.5
		C1540.8,517.7,1541,517.1,1541.3,516.7L1541.3,516.7z M1540.6,518.8c-0.2,1.2,0.2-0.5,0.1,0.2c0-0.2,0.1-0.4,0.2-0.6
		c-0.2,1-0.3,0.7-0.4,1.4l0.1-0.5c0-0.4-0.2,0.7-0.3,0.8C1540.3,519.6,1540.4,519.2,1540.6,518.8L1540.6,518.8z M1540,524
		c0,0.1,0,0.3,0,0.4C1540,524.3,1540,524.2,1540,524L1540,524z M1541.1,530.2c0.1,0.2,0-0.1-0.1-0.4c0.1,0.4,0.3,0.9,0.4,1.3
		C1541.4,531,1541.3,530.6,1541.1,530.2L1541.1,530.2z M1549.7,540.2c0.7,0.3,0.8,0.3,1.2,0.4
		C1550.4,540.6,1550.1,540.4,1549.7,540.2L1549.7,540.2z M1550.7,540.7c1.1,0.3,0.9,0.4,1.6,0.6
		C1551.7,541.1,1551.2,541,1550.7,540.7L1550.7,540.7z M1564.1,540l-0.4,0.2c-0.1,0-0.1,0-0.1,0c0.2-0.1,0.5-0.2,0.7-0.3
		C1564.3,539.8,1564.3,539.8,1564.1,540L1564.1,540z M1568.6,535.4L1568.6,535.4L1568.6,535.4z M1568.5,535.4L1568.5,535.4
		L1568.5,535.4L1568.5,535.4L1568.5,535.4z M1562.2,539.2c-0.2,0-0.3,0.1-0.5,0.1c-0.1,0-0.1,0-0.2,0
		C1561.7,539.3,1561.9,539.3,1562.2,539.2L1562.2,539.2z M1560.7,539.6c-0.5,0.1-0.9,0.2-1.4,0.2
		C1559.8,539.7,1560.2,539.7,1560.7,539.6c-0.9,0.2-1.8,0.3-2.7,0.4c-0.1,0-0.2,0-0.2-0.1C1558.4,539.9,1560.1,539.6,1560.7,539.6
		L1560.7,539.6z M1552.5,539.3c0.5,0.1,0.9,0.2,1.2,0.3c0.3,0.1,0.7,0.1,1,0.2h-0.4c0.8,0.2,1.2,0.2,1.5,0.3c-0.2,0-0.5,0-0.7,0l0,0
		c-1.2-0.1-2.3-0.4-3.4-0.9c0.7,0.2,1.7,0.5,1.9,0.6C1553.2,539.5,1552.8,539.4,1552.5,539.3L1552.5,539.3z M1549.3,538
		c0.1,0.1,0.3,0.2,0.4,0.3c-0.3-0.1-0.6-0.3-0.8-0.5L1549.3,538z M1550,538.5c0.7,0.4,1.5,0.6,2.2,0.9c-1.5-0.4-2.9-1.1-4.1-1.9
		c-0.1,0-0.1-0.1-0.2-0.1l0,0c-0.1-0.1-0.2-0.2-0.3-0.3c-0.2-0.2-0.5-0.4-0.8-0.7c0.1,0.1,0.1,0.2,0.2,0.3c-0.3-0.2-0.5-0.5-0.8-0.7
		c0-0.1-0.2-0.2-0.4-0.5C1547,536.7,1548.4,537.7,1550,538.5L1550,538.5z M1542.6,530.3l0.1,0.2c0.1,0.2,0.1,0.3,0.2,0.5
		C1542.8,530.7,1542.7,530.5,1542.6,530.3L1542.6,530.3z M1542.6,529.3c-0.1-0.2-0.1-0.4-0.1-0.5
		C1542.5,529,1542.5,529.2,1542.6,529.3L1542.6,529.3z M1545.5,524.2c-0.4,0-0.9,0-1.3,0c0.2,0,0.8,0,1,0.1c-0.9,0.1-3-0.2-2.4,0.1
		c-0.2,0-0.7,0-0.9-0.1c-0.1,0-0.3,0-0.3,0c0,0.1,0,0,0-0.1c0.4,0,1.2,0,1.9,0C1544.3,524.2,1545,524.2,1545.5,524.2
		c0-0.1,0.2-0.1,0.3-0.1C1545.7,524.2,1545.5,524.2,1545.5,524.2C1545.4,524.2,1545.4,524.2,1545.5,524.2s0.2,0,0.4,0
		C1545.7,524.3,1545.6,524.3,1545.5,524.2L1545.5,524.2z M1548.1,524.2c-0.1,0-0.2,0-0.4,0h1.7
		C1549.2,524.2,1548.4,524.2,1548.1,524.2L1548.1,524.2z M1556.8,524.5h-0.4C1557.5,524.4,1556.9,524.5,1556.8,524.5h0.5
		C1556.8,524.5,1556.7,524.5,1556.8,524.5L1556.8,524.5z M1557.1,524.4h2C1558.5,524.4,1557.8,524.4,1557.1,524.4L1557.1,524.4z
		 M1560.2,524.2c-0.8,0-0.4-0.1-0.5-0.1l0,0C1560.1,524.2,1560.3,524.2,1560.2,524.2L1560.2,524.2z M1566.9,524.2
		c-0.4,0-0.8,0-1.2,0l0.3-0.1c0.8,0,1.5,0.1,2.3,0.2C1567.1,524.4,1566.8,524.3,1566.9,524.2L1566.9,524.2z M1567.9,524.5
		c-0.1,0-0.3,0-0.5,0H1567.9c0.5-0.1,1.1-0.1,1.6,0H1567.9z"/>
	<path id="Path_7" class="st0" d="M1605.4,537.9c0-0.4,0-0.9,0-1.3V537.9z"/>
	<path id="Path_8" class="st0" d="M1565.8,537.5L1565.8,537.5c-0.2,0.1-0.4,0.2-0.6,0.3C1565.4,537.7,1565.6,537.6,1565.8,537.5z"/>
	<path id="Path_9" class="st0" d="M1664.9,533.7L1664.9,533.7c0.1-0.2,0.1-0.2,0.1-0.2L1664.9,533.7z"/>
	<path id="Path_10" class="st0" d="M1492.4,538c0,0-0.1,0-0.3-0.2C1492.2,537.9,1492.3,537.9,1492.4,538z"/>
	<path id="Path_11" class="st0" d="M1509.6,540.4c0.2-0.1,0.3-0.1,0.5-0.2C1510,540.2,1509.8,540.3,1509.6,540.4z"/>
	<path id="Path_12" class="st0" d="M1487.5,517.5L1487.5,517.5l-0.1,0.3L1487.5,517.5z"/>
	<path id="Path_13" class="st0" d="M1512.5,503.4c0.2,0,0.4,0,0.7,0.1C1512.9,503.5,1512.7,503.5,1512.5,503.4z"/>
	<path id="Path_14" class="st0" d="M1512.1,539.1l-0.3,0.2C1511.7,539.3,1511.8,539.2,1512.1,539.1z"/>
	<path id="Path_15" class="st0" d="M1666.5,529.7c-0.1,0.2-0.2,0.4-0.3,0.6L1666.5,529.7z"/>
	<path id="Path_16" class="st0" d="M1515,506.2c0.2,0,0.3,0,0.5,0.1C1515.6,506.3,1515.4,506.3,1515,506.2z"/>
	<path id="Path_17" class="st0" d="M1511.8,511.4l0.1,0.1C1511.6,511.3,1511.6,511.3,1511.8,511.4z"/>
	<path id="Path_18" class="st0" d="M1512.2,539.2c0.2-0.1,0.4-0.3,0.6-0.4C1512.6,539,1512.4,539.1,1512.2,539.2z"/>
	<path id="Path_19" class="st0" d="M1664.5,539.4L1664.5,539.4l0.3-0.6L1664.5,539.4z"/>
	<path id="Path_20" class="st0" d="M1615.9,510.4L1615.9,510.4v0.5V510.4z"/>
	<path id="Path_21" class="st0" d="M1512.1,539.2c-0.2,0.1-0.4,0.2-0.7,0.4C1511.6,539.4,1511.8,539.3,1512.1,539.2L1512.1,539.2z"
		/>
	<path id="Path_22" class="st0" d="M1516.6,504.3l0.2,0.1L1516.6,504.3L1516.6,504.3z"/>
	<path id="Path_23" class="st0" d="M1512.2,539.2c-0.1,0.1-0.2,0.1-0.4,0.3C1511.9,539.4,1512,539.3,1512.2,539.2z"/>
	<path id="Path_24" class="st0" d="M1615.7,509.8v0.9C1615.7,510.4,1615.7,510.1,1615.7,509.8z"/>
	<path id="Path_25" class="st0" d="M1617.9,531.8c0,0.1-0.1,0.2-0.1,0.4C1617.8,532.2,1617.9,532.1,1617.9,531.8z"/>
	<path id="Path_26" class="st0" d="M1615.5,525.3c0,0,0,0.1,0,0.2C1615.5,525.4,1615.5,525.3,1615.5,525.3z"/>
	<path id="Path_27" class="st0" d="M1618,534.9L1618,534.9C1618,534.8,1618,534.8,1618,534.9z"/>
	<path id="Path_28" class="st0" d="M1618.7,540.4L1618.7,540.4c0,0-0.1-0.1-0.2-0.1C1618.6,540.3,1618.7,540.4,1618.7,540.4z"/>
	<path id="Path_29" class="st0" d="M1659.8,530.3c0,0.2,0.1,0.3,0.1,0.5C1659.9,530.9,1659.9,530.7,1659.8,530.3z"/>
	<path id="Path_30" class="st0" d="M1627,538.7c-0.1,0-0.3,0.1-0.4,0.2L1627,538.7z"/>
	<path id="Path_31" class="st0" d="M1624,539.5L1624,539.5C1624.1,539.5,1624.2,539.5,1624,539.5L1624,539.5z"/>
	<path id="Path_32" class="st0" d="M1706.7,532.7L1706.7,532.7c-0.2,0.1-0.4,0.2-0.6,0.3C1706.3,532.9,1706.5,532.8,1706.7,532.7z"
		/>
	<path id="Path_33" class="st0" d="M1605.5,537.4v0.8V537.4L1605.5,537.4z"/>
	<path id="Path_34" class="st0" d="M1713.8,524.1v-0.2v-0.8c0-0.4,0-0.8,0-1.3c0,0.1,0,0.1,0,0.2c-0.1-0.5-0.1-1-0.1-1.5l-0.1-0.1
		c-0.2-1-0.4-2.1-0.7-3.1c-0.1-0.2-0.3-0.8-0.6-1.5c-0.1-0.4-0.3-0.7-0.5-1.1c-0.1-0.3-0.3-0.6-0.5-0.9c-0.2-0.4,0.5,0.9-0.2-0.2
		c-0.1-0.3-0.3-0.6-0.5-0.8c-0.3-0.3-0.5-0.7-0.5-0.8c-0.3-0.3-0.5-0.6-0.8-0.8l-0.1-0.2c-0.4-0.3-0.7-0.6-1-0.9
		c-0.4-0.4-0.8-0.8-1.3-1.1c0.1,0.1,0.2,0.1,0.1,0.1c-0.4-0.3-1.3-0.9-0.6-0.5c-0.5-0.3-1.1-0.6-1.7-0.9c-0.6-0.2-0.9-0.3-0.4-0.1
		c0.5,0.2,0.9,0.4,1.4,0.7c-0.1,0.1-1.1-0.5-1.5-0.5l-0.3-0.1h-0.2c-1.3-0.5-2.6-0.8-3.9-1.1c-0.3,0-0.6,0-0.8,0v-0.1
		c-0.5,0-1.1,0-1.6,0c0.2,0,0.5,0.1,0.7,0.1c-1.5,0-2.9,0.1-4.4,0.3c-0.3,0.2-2.7,0.7-3.8,1.5l1-0.4c-0.5,0.3-1,0.4-1.3,0.6
		l-0.9,0.6c-0.3,0.2-0.6,0.4-0.9,0.6c-0.2,0.2-0.5,0.3-0.7,0.6c1-0.9,2.2-1.7,3.5-2.4c-2.2,1-4.2,2.5-5.8,4.5
		c0.1-0.1,0.6-0.6,0.2-0.1c-0.4,0.3-1.4,1.9-1.3,1.6c-0.4,0.7-0.4,0.9-0.6,1.3c-0.2,0.4-0.4,0.8-0.6,1.2s-0.4,0.8-0.5,1.2v-0.1
		c-0.6,2-1,4.2-1,6.3c-0.1,2.2,0.2,4.3,0.9,6.3v-0.1c0.1,0.3,0.1,0.5,0.2,0.8c0,0,0.3,0.6,0.4,0.7c0.3,0.9,0.8,1.8,1.3,2.6
		c0.1,0,0-0.2-0.3-0.8c0.3,0.5,0.6,0.9,0.9,1.4c0.3,0.4,0.6,0.8,0.9,1.2l-0.2-0.3l0.6,0.8v-0.1c1,1,2.1,1.8,3.2,2.6l-0.1-0.2
		l0.7,0.5c0.2,0.1,0.5,0.3,0.7,0.4c-0.3-0.2-0.6-0.3-0.8-0.5c0.4,0.2,0.9,0.4,1.4,0.7c0.5,0.2,1,0.4,1.5,0.6
		c0.9,0.3,1.8,0.5,1.9,0.6l-0.2-0.1l0.9,0.2l-0.2-0.1c1.1,0.2,2.2,0.3,3.2,0.2c1.2,0,2.3-0.2,3.5-0.3c0.8-0.2-0.5,0.1-0.5,0
		c0.5-0.1,1.5-0.3,1.8-0.3c-0.3,0-1.5,0.3-0.6,0c0.7-0.1-0.5,0,0.7-0.2h0.5c0.7-0.2,0.1-0.1,1.2-0.5c1.2-0.4-1.4,0.7,0.5,0
		c1.2-0.6,2.4-1.4,3.5-2.2c1.3-1.1-0.8,0.4,1-1c-0.2,0.1-0.4,0.3-0.6,0.4c0.3-0.3,0.6-0.5,0.9-0.8c0.1-0.1,0.3-0.3,0.4-0.4
		c-0.1,0.1-0.2,0.2-0.3,0.3c0.2-0.2,0.4-0.4,0.6-0.6l-0.9-0.9l0,0l0,0l0,0c-0.1,0.1-0.3,0.2-0.4,0.4l0,0l-0.1,0.1
		c-0.2,0.2-0.4,0.4-0.7,0.6c-0.1,0.1-0.3,0.3-0.5,0.4l-0.1,0.1c-0.3,0.2-0.5,0.4-0.7,0.6c-0.8,0.6-1.7,1-2.6,1.4l0.1-0.1
		c-0.2,0.1-0.4,0.2-0.5,0.3c-0.3,0.1-0.6,0.2-0.9,0.3c-0.2,0.1-0.3,0.1-0.5,0.1c0.1-0.1,1.4-0.5,2-0.8c-0.8,0.3-1.7,0.6-2.5,0.8
		c-0.6,0.1-1.2,0.2-2.3,0.4h0.4c-1.3,0.2-2.7,0.2-4.1,0.1c0.3,0,0.4,0,0.3-0.1c-1.4-0.1-2.7-0.3-4-0.8c-0.7-0.2-1.3-0.5-1.9-0.8
		c-0.7-0.4-1.3-0.8-1.9-1.2c-0.2-0.2-0.4-0.4-0.7-0.7h-0.1c-1.1-1-0.2-0.3-0.9-1c0.2,0.3,0.2,0.2,0.2,0.3c-0.2-0.3-0.5-0.7-0.8-0.9
		c-0.2-0.1-0.3-0.3-0.4-0.5c0.2,0.5,1.2,1.5,0.8,1.2c-0.6-0.7-1.2-1.6-1.7-2.4c-0.3-0.5-0.6-1.1-0.7-1.7c-0.7-1.6-1.1-3.3-1.3-5
		c0-0.2,0-0.4,0-0.6v-0.5v-0.1v-0.1h0.1h0.3h2.3c0.4,0-0.2,0-0.1-0.1c1.1,0.1,3.7-0.1,3.7,0c0.3,0,0.6-0.1,0.9-0.1
		c0.7,0,1.5,0.1,2.4,0.1h-0.7h0.1h0.9l0,0c2.2,0,4.8,0,6.8,0.1c-1-0.1,0-0.1-0.2-0.1c1.1,0.1,3.4,0.1,5.4,0.1c0,0,0.1-0.1-0.1-0.1
		l1.2,0.1h-0.2c2.1,0,4.3,0.1,5.7,0.1c-0.8,0-0.9-0.1-0.9-0.1h2.4h0.4C1713.7,524.2,1713.8,524.2,1713.8,524.1L1713.8,524.1z
		 M1701.9,540c1.3-0.4,1.3-0.3,1.4-0.3c0.2,0,0.3-0.1,0.3,0c-0.1,0-0.2,0-0.3,0C1703,539.8,1702.5,539.9,1701.9,540
		c0.4,0,0.6-0.1,0.9-0.2C1702.5,539.9,1702.1,540,1701.9,540C1702.3,540,1701.9,540.1,1701.9,540z M1703.7,539.5
		c0.2-0.1,0.4-0.1,0.6-0.2v0.1C1704.1,539.5,1703.9,539.5,1703.7,539.5L1703.7,539.5z M1700.9,507.3c0.2,0,0.3,0.1,0.5,0.1
		s0.4,0.1,0.6,0.1h0.1h-0.1C1701.6,507.5,1701.3,507.4,1700.9,507.3L1700.9,507.3z M1711.6,515.5c0.1,0.1,0.1,0.2,0.2,0.4
		c0.1,0.1,0.1,0.3,0.2,0.5l0.1,0.2c-0.6-0.9-0.1-0.4-1-1.9c0.5,0.9,0.6,1.2,0.6,1.2c0,0.1-0.1-0.1-0.2-0.1c-0.2-0.5-0.4-0.9-0.6-1.4
		c-0.3-0.5-0.5-0.8-0.3-0.7C1710.9,514.2,1711.3,514.8,1711.6,515.5L1711.6,515.5z M1683.1,520.9
		C1683.1,520.8,1683.1,520.8,1683.1,520.9v-0.2l0,0c0.1-0.3,0.1-0.7,0.2-1l0,0c0-0.3,0.1-0.6,0.3-0.9c0.1,0.1-0.2,0.7-0.2,1
		c0.1-0.4,0.2-0.8,0.4-1.1c0.1-0.3,0.2-0.5,0.4-1l-0.1,0.1c0.1-0.3,0.2-0.6,0.4-0.9c0.2-0.3,0.3-0.5,0.5-0.8c-0.1,0.1,0,0.2,0,0.1
		c0.5-1.2,1.3-2.3,2.2-3.2l0.4-0.2v-0.1c0.5-0.5,0.2,0,0.5-0.3c-0.1,0.1-0.1,0.1-0.2,0.1c0.7-0.5,0.3-0.3,0.6-0.6
		c-0.2,0.1-0.7,0.5-0.6,0.3c0.6-0.5,1.6-1.2,1.8-1.2c1.3-0.8,2.7-1.4,4.2-1.8c0.2-0.1-0.1,0-0.1,0c0.3,0,0.7-0.1,1-0.2
		c0.2-0.1,0.4-0.1,0.6-0.1c0.1,0,0.3-0.1,0.4-0.2c0.3,0,0.7,0,1.1,0h-0.3l0,0h0.4l0,0h0.8h0.8c0.5,0,1,0.1,1.5,0.2
		c-0.5-0.1,0.1-0.1-0.1-0.2c0.4,0.2,1.5,0.4,2.4,0.7c0,0,0.1,0,0-0.1l0.5,0.2l-0.1-0.1c0.4,0.1,0.9,0.3,1.3,0.6
		c0.4,0.2,0.7,0.4,1,0.6c-0.3-0.2-0.3-0.2-0.3-0.3l0.8,0.5c0.3,0.2,0.5,0.4,0.8,0.7v-0.1c0.2,0.1,0.3,0.3,0.5,0.4h0.1
		c0.7,0.7,1.4,1.5,2,2.3c0.1,0.2-0.2-0.4,0.1,0.1c-0.1,0.2,0.4,0.6,0.3,0.8l0.3,0.4v0.1c0.4,0.3,0.2,0.6,0.6,1.2v-0.1
		c0.1,0.2,0.2,0.6,0.1,0.3c0.1,0.3,0.5,1.4,0.4,0.9c0,0.1-0.2-0.4-0.2-0.6c0.1,0,0.2,0.5,0.4,0.6v0.1l0.1,0.1
		c0.2,0.6,0.3,1.2,0.3,1.7c0,0,0.1,0.1,0.1,0.4h-0.1l0.1,0.7l0.1-0.3c0.1,0.3,0.1,0.7,0.1,1v0.2c0,0.1,0,0.2,0,0.2l0,0l0.1,0.1h-0.1
		c-0.1,0-0.3,0-0.4,0c-0.2,0-0.3,0-0.5,0h0.5c-1.1,0-1.2,0.1-2.2,0c0.8-0.1,0.8,0,2.1-0.2c-1.2,0.1-2.1-0.1-3.3,0
		c0.1,0,0.4,0.1,0.1,0.1c-0.2-0.1-1.1,0-0.9-0.1c-0.4,0-0.4,0.1-0.6,0.1l-1.2-0.1l0,0c-2,0.2-3.7-0.1-5.7-0.1v0.1l-0.5-0.1
		c0.4,0.1-0.2,0.1-0.2,0.1l-1.3-0.1c0,0,0,0.1,0.4,0.1c-0.5,0-0.9,0-1.4-0.1h0.1h-0.4v0.1c-0.6,0-1.2,0-1.8-0.1l0.1,0.1l-0.8-0.1
		l0.4,0.1c-0.8,0-2.1-0.1-2.3-0.1h0.1c-0.1,0-0.3,0-0.4,0l0.1,0.1c-1.3,0-1.6,0.1-3,0.1c-0.4,0,0.2,0,0.2,0c-0.3,0-0.5,0-0.8,0
		c0.1,0.1,0.7,0.1,0.3,0.1c-0.3,0,0.2,0.1-0.3,0.1l-0.2-0.1c-0.3,0-0.1,0.1-0.6,0.1c-0.6,0,0.7-0.1-0.2-0.1
		c-0.6,0.1-1.2,0.2-1.9,0.2c-0.8,0.1,0.4,0.2-0.7,0.1h0.4h-0.8h-0.1l0,0h-0.8c0-0.1,0-0.1,0-0.2C1683,522,1683,521.3,1683.1,520.9
		L1683.1,520.9z M1684.1,517.2L1684.1,517.2c0,0.1-0.2,0.9-0.4,1.1c0.1-0.2,0.1-0.4,0.2-0.6c-0.1,0.2-0.2,0.5-0.3,0.7
		C1683.8,518,1684,517.6,1684.1,517.2L1684.1,517.2z M1684.7,516L1684.7,516c0.2-0.5,0.5-0.9,0.9-1.3c-0.1,0.3-0.5,0.6-0.5,0.7
		c0.1-0.1,0.3-0.4,0.4-0.4c-0.2,0.3-0.4,0.6-0.6,0.9v-0.2c-0.1,0.2-0.2,0.4-0.4,0.5C1684.6,516.2,1684.7,516.1,1684.7,516
		L1684.7,516z M1683.6,518.8C1683.6,518.8,1683.6,518.7,1683.6,518.8c0.1,0,0,0.2,0,0.3C1683.5,519,1683.6,518.9,1683.6,518.8
		L1683.6,518.8z M1686.2,513.9l0.3-0.3l-0.1,0.2L1686.2,513.9z M1689.8,510.5L1689.8,510.5c-0.1,0.1-0.2,0.2-0.3,0.2
		C1689.6,510.7,1689.7,510.6,1689.8,510.5L1689.8,510.5z M1709.8,522.3L1709.8,522.3L1709.8,522.3l0.4,0.1c-0.4,0-0.8,0-1.2-0.1
		C1709.2,522.3,1709.9,522.4,1709.8,522.3L1709.8,522.3z M1711.4,518.6c0.2,0.4,0.1,0.4,0.1,0.6c-0.1-0.2-0.1-0.3,0-0.3
		C1711.4,518.9,1711.4,518.7,1711.4,518.6L1711.4,518.6z M1711.3,520.2v-0.3C1711.3,520,1711.3,520.1,1711.3,520.2L1711.3,520.2z
		 M1710.9,517.1L1710.9,517.1c-0.1-0.2-0.1-0.3-0.2-0.5C1710.8,516.8,1710.9,517,1710.9,517.1L1710.9,517.1z M1711.4,518.5
		L1711.4,518.5l0.1,0.5c0-0.1-0.1-0.2-0.1-0.3V518.5z M1711.9,520.6C1711.9,520.6,1711.8,520.6,1711.9,520.6c0-0.1,0-0.2-0.1-0.4
		C1711.8,520.4,1711.8,520.5,1711.9,520.6L1711.9,520.6z M1711.5,520.8c0,0.4,0.2,0.7,0.1,0.8c0-0.1,0-0.2,0-0.3
		c0,0.1-0.1,0.4-0.1,0.2S1711.5,520.8,1711.5,520.8L1711.5,520.8z M1710.2,515.6L1710.2,515.6L1710.2,515.6z M1709.4,514.1
		c-0.2-0.3-0.5-0.7-0.7-1c-0.1-0.1-0.1-0.2-0.2-0.2c0.5,0.2,0.1,0.1,0.7,0.7c-0.6-0.8-0.3-0.5-0.2-0.5
		C1708.9,513.3,1709.6,514.2,1709.4,514.1L1709.4,514.1z M1703,509.4h0.2c0.3,0.2,0.6,0.4,0.9,0.6c-0.5-0.2-0.6-0.4-0.5-0.4
		C1703.2,509.3,1703.2,509.4,1703,509.4L1703,509.4z M1704.5,510.2l-0.7-0.2C1704.1,510,1704.2,509.9,1704.5,510.2L1704.5,510.2z
		 M1700.5,508.6c0.1,0,0.2,0.1,0.2,0.1C1700.3,508.6,1700.5,508.6,1700.5,508.6L1700.5,508.6z M1698.9,508.7c0.5,0,0.2,0,0.2,0
		c0.1,0,0.2,0,0.2,0.1c-0.2,0-0.2,0-0.2-0.1H1698.9z M1699.3,508.6c0.3,0,1,0.1,0.9,0.1C1699.9,508.8,1699.6,508.7,1699.3,508.6
		L1699.3,508.6z M1695.8,508.5c-0.2,0.1-0.4,0.1-0.6,0.1c-0.1,0-0.1,0-0.2,0C1695.3,508.5,1695.5,508.5,1695.8,508.5L1695.8,508.5z
		 M1692.4,509.4c0.5-0.1,1.3-0.5,1.7-0.6c0,0,0.1,0,0.1-0.1c0,0-0.1,0-0.1,0.1l0,0c-0.2,0-0.4,0.1-0.6,0.1c0.2,0,0.3,0,0.5,0
		c-0.4,0.2-1.3,0.2-1,0.4C1692.8,509.3,1692.2,509.5,1692.4,509.4L1692.4,509.4z M1699,522.5c0.1,0,0.3-0.1,0.4-0.1
		c-0.1,0,0,0,0.2,0.1H1699z M1691.4,522.8c-0.1,0-0.6,0-0.4-0.1L1691.4,522.8z M1690.6,522.7l-0.2-0.1L1690.6,522.7L1690.6,522.7z
		 M1688.1,522.9c-0.6,0-0.6-0.1-0.7-0.1s-0.1,0-0.1-0.1c0.1,0,0.1,0,0.1,0.1C1687.6,522.8,1687.8,522.8,1688.1,522.9
		c-0.1-0.2-0.3-0.1-0.5-0.1C1687.8,522.8,1687.9,522.8,1688.1,522.9C1688,522.8,1688.1,522.8,1688.1,522.9L1688.1,522.9z
		 M1687.3,522.8h-0.3v-0.1L1687.3,522.8z M1686.6,522.5C1686.5,522.5,1686.6,522.5,1686.6,522.5h0.3c0,0,0,0,0.1,0H1686.6z
		 M1692,522.1c0.4-0.1,0.4,0.1,0.8,0.1C1692.3,522.2,1692.4,522.1,1692,522.1L1692,522.1z M1693.3,522.2c-0.2,0-0.4,0-0.6,0
		C1692.9,522.2,1693.1,522.2,1693.3,522.2L1693.3,522.2z M1704.5,522.3h0.3c-0.5,0.1-0.3-0.1-0.6-0.1L1704.5,522.3
		c0.1-0.2-0.4-0.1-0.5-0.2c0.2,0,0.8,0,0.6,0C1704,522.2,1704.8,522.3,1704.5,522.3L1704.5,522.3z M1704.8,522.1
		c0.2-0.1,0.5,0,0.7,0C1705.2,522.1,1705.1,522.2,1704.8,522.1L1704.8,522.1z M1708.4,522.5L1708.4,522.5L1708.4,522.5L1708.4,522.5
		z M1692,509.4c0.1,0,0.1,0,0.2-0.1c-0.3,0.2-0.6,0.3-0.9,0.4c-0.1,0-0.3,0.1-0.4,0.1C1691.3,509.7,1691.6,509.5,1692,509.4z
		 M1686.7,513.1c0.2-0.1,0.4-0.3,0.5-0.5l-0.1,0.1c0.1-0.1,0.2-0.2,0.3-0.3c0.1,0,0.2-0.1,0.2-0.1c-0.8,0.8-1.5,1.6-2.2,2.5
		C1685.8,514.1,1686.2,513.6,1686.7,513.1L1686.7,513.1z M1689.6,509.2l-0.2,0.1L1689.6,509.2z M1695.9,540.4l-0.9-0.2
		C1695.3,540.3,1696.2,540.4,1695.9,540.4L1695.9,540.4z M1696.5,540.5l0.5,0.1L1696.5,540.5L1696.5,540.5z M1683.4,528.4
		c0,0.1,0.1,0.3,0.1,0.4C1683.5,528.7,1683.4,528.6,1683.4,528.4L1683.4,528.4z M1682.9,524.6v-0.4c0.1,0.7,0.1,1.9,0.3,3.1
		C1683,526.4,1682.9,525.5,1682.9,524.6L1682.9,524.6z M1682.8,523.9L1682.8,523.9L1682.8,523.9L1682.8,523.9z M1705.3,508.7
		c0.3,0.2,0.5,0.4,0.8,0.6c-0.3-0.2-0.7-0.4-1-0.6C1705.1,508.7,1705.2,508.7,1705.3,508.7L1705.3,508.7z M1700.6,507.2
		c0.5,0.1,0.6,0.1,0.6,0.1c0.2,0.1,0.6,0.1,0.8,0.2C1701.1,507.3,1701.2,507.3,1700.6,507.2l-0.4-0.1
		C1700.4,507.1,1700.5,507.1,1700.6,507.2L1700.6,507.2z M1699.4,506.6c-0.2,0-0.5,0-0.7,0H1699.4z M1697.6,507
		c0.2,0,0.5,0.1,0.7,0.1c-0.2,0-0.4,0-0.6,0C1697.7,507,1697.6,507,1697.6,507C1697.5,507,1697.5,507,1697.6,507L1697.6,507z
		 M1695.8,506.6c0.5,0,1,0,1.4,0c-0.4,0-0.8,0-1.2,0.1c-0.3,0.1-0.5,0.1-0.6,0l0.7-0.1C1696,506.7,1695.3,506.7,1695.8,506.6
		L1695.8,506.6z M1688.6,509.4l0.2-0.1L1688.6,509.4l0.9-0.4l-2.3,1.5C1687.6,510.1,1688.9,509.4,1688.6,509.4L1688.6,509.4z
		 M1686.5,511.4c-0.1,0.1-0.1,0.1-0.2,0.2l0,0C1686.4,511.5,1686.4,511.5,1686.5,511.4L1686.5,511.4z M1682.6,516.5
		c-0.4,0.6-0.3,1-0.6,1.5C1682.1,517.5,1682.3,517,1682.6,516.5L1682.6,516.5z M1681.9,518.5c-0.2,1.1,0.2-0.5,0.1,0.2
		c0-0.2,0.1-0.4,0.2-0.6c-0.2,1-0.3,0.7-0.4,1.3l0.1-0.5c0-0.4-0.2,0.7-0.3,0.8C1681.6,519.4,1681.7,519,1681.9,518.5L1681.9,518.5z
		 M1681.3,523.7c0,0.1,0,0.3,0,0.4C1681.4,524,1681.3,523.9,1681.3,523.7L1681.3,523.7z M1682.4,529.8c0.1,0.2,0-0.1-0.1-0.4
		c0.1,0.4,0.3,0.8,0.4,1.2C1682.7,530.6,1682.6,530.2,1682.4,529.8L1682.4,529.8z M1690.8,539.7c0.7,0.3,0.7,0.2,1.2,0.4
		C1691.6,540,1691.2,539.9,1690.8,539.7L1690.8,539.7z M1691.8,540.1c1.1,0.3,0.9,0.4,1.6,0.6
		C1692.9,540.6,1692.3,540.4,1691.8,540.1L1691.8,540.1z M1705,539.4l-0.4,0.1c-0.1,0-0.1,0-0.1,0c0.2-0.1,0.5-0.2,0.7-0.3
		C1705.2,539.3,1705.2,539.3,1705,539.4L1705,539.4z M1709.5,534.9L1709.5,534.9L1709.5,534.9z M1709.3,534.9
		C1709.3,534.9,1709.4,534.9,1709.3,534.9L1709.3,534.9L1709.3,534.9L1709.3,534.9z M1703.1,538.7c-0.2,0-0.3,0.1-0.5,0.1
		c-0.1,0-0.1,0-0.2,0C1702.7,538.8,1702.9,538.7,1703.1,538.7L1703.1,538.7z M1701.6,539c-0.4,0.1-0.9,0.2-1.4,0.2
		C1700.7,539.2,1701.2,539.1,1701.6,539c-0.9,0.2-1.7,0.3-2.6,0.4c-0.1,0-0.2,0-0.2-0.1C1699.4,539.4,1701.1,539,1701.6,539
		L1701.6,539z M1693.6,538.7c0.5,0.1,0.8,0.2,1.2,0.3c0.3,0.1,0.6,0.1,1,0.2h-0.4c0.8,0.2,1.2,0.2,1.4,0.2c-0.2,0-0.5,0-0.7,0l0,0
		c-1.2-0.1-2.3-0.4-3.4-0.8c0.7,0.2,1.7,0.5,1.9,0.6C1694.3,539,1694,538.9,1693.6,538.7L1693.6,538.7z M1690.4,537.5
		c0.1,0.1,0.2,0.2,0.4,0.3c-0.3-0.1-0.5-0.3-0.8-0.4L1690.4,537.5z M1691.1,538c0.7,0.3,1.4,0.6,2.2,0.9c-1.5-0.4-2.8-1-4.1-1.9
		c-0.1,0-0.1-0.1-0.2-0.1l0,0c-0.1-0.1-0.2-0.2-0.3-0.3c-0.2-0.2-0.5-0.4-0.8-0.7c0.1,0.1,0.1,0.2,0.2,0.3c-0.3-0.2-0.5-0.5-0.8-0.7
		c0-0.1-0.2-0.2-0.4-0.5C1688.2,536.2,1689.6,537.2,1691.1,538L1691.1,538z M1683.9,529.9l0.1,0.2c0.1,0.2,0.1,0.3,0.2,0.5
		C1684.1,530.3,1684,530.1,1683.9,529.9L1683.9,529.9z M1683.9,528.9c-0.1-0.2-0.1-0.3-0.1-0.4
		C1683.8,528.7,1683.8,528.8,1683.9,528.9L1683.9,528.9z M1686.7,523.9c-0.4,0-0.8,0-1.3,0c0.2,0,0.8,0,1,0.1
		c-0.9,0.1-3-0.2-2.4,0.1c-0.2,0-0.6,0-0.8-0.1c-0.1,0-0.3,0-0.3,0s0,0,0-0.1c0.4,0,1.2,0,1.9,0
		C1685.6,523.9,1686.3,523.9,1686.7,523.9c0-0.1,0.1-0.1,0.3-0.1C1686.9,523.9,1686.8,523.9,1686.7,523.9
		C1686.6,523.9,1686.7,523.9,1686.7,523.9c0.1,0,0.2,0,0.3,0C1687,524,1686.8,524,1686.7,523.9L1686.7,523.9z M1689.3,523.9
		c-0.1,0-0.2,0-0.4,0h1.7C1690.3,523.9,1689.6,523.9,1689.3,523.9L1689.3,523.9z M1697.8,524.2h-0.4
		C1698.5,524.1,1697.9,524.2,1697.8,524.2h0.5C1697.8,524.2,1697.8,524.2,1697.8,524.2L1697.8,524.2z M1698.2,524.1h2
		C1699.5,524.1,1698.8,524.1,1698.2,524.1L1698.2,524.1z M1701.2,523.9c-0.7,0-0.3-0.1-0.5-0.1l0,0
		C1701.1,523.9,1701.3,523.9,1701.2,523.9L1701.2,523.9z M1707.8,523.9c-0.4,0-0.8,0-1.1,0l0.3-0.1c0.8,0,1.5,0.1,2.3,0.2
		C1708,524.1,1707.7,524,1707.8,523.9L1707.8,523.9z M1708.7,524.2c-0.1,0-0.3,0-0.5,0H1708.7c0.5-0.1,1-0.1,1.6,0H1708.7z"/>
	<path id="Path_35" class="st0" d="M1706.3,532.7c0.4-0.2,0.8-0.4,1.1-0.7C1707,532.3,1706.7,532.5,1706.3,532.7z"/>
	<path id="Path_36" class="st0" d="M1579.5,529.8v0.2C1579.4,529.9,1579.5,529.9,1579.5,529.8z"/>
	<path id="Path_37" class="st0" d="M1661.2,534.4L1661.2,534.4C1661.2,534.2,1661.2,534.2,1661.2,534.4z"/>
	<path id="Path_38" class="st0" d="M1607.2,525.9L1607.2,525.9c-0.1-1.6,0-0.4,0-1.4c0,0.4,0,0.3,0,0.4c0-0.7,0-1.3-0.1-2
		c-0.1,0.5,0,2-0.1,1.5c0-1.6,0-3.3,0.2-4.9c0-1.8-0.2-3.6-0.7-5.4c-0.5-1.7-1.4-3.2-2.6-4.4c-0.3-0.2,0.2,0.2,0,0.1
		c-0.3-0.3-0.5-0.5-0.8-0.7s-0.7-0.5-1.1-0.7l-1-0.5c-0.3-0.1-0.4-0.2-0.4-0.2c-0.3-0.1-0.6-0.2-0.9-0.2c-0.8-0.3-1.6-0.5-2.4-0.6
		c0.2,0,0.4,0.1,0.7,0.1h-0.1c-0.3-0.1-0.6-0.1-0.9-0.2l0,0l-0.9-0.1h-0.9c-0.6,0-1.2,0-1.8,0c-1.2,0.1-2.3,0.2-3.4,0.5
		c1.1-0.2-0.1,0.1,0.2,0.1c-0.8,0.1-1.6,0.3-2.3,0.6c-1,0.4-2,0.9-2.9,1.4c0,0-0.1,0.1,0.1,0c-0.4,0.2-0.7,0.4-1,0.6l0.2-0.1
		c-0.4,0.3-0.9,0.6-1.3,0.9l-0.7,0.5l-1,0.7l0.7,1l0.4,0.5l0.2,0.2l0.1,0.1l0.1-0.1l1.3-1l-0.8,0.5c-0.1,0.1-0.1,0.1-0.2,0.1
		l0.6-0.5l0.4-0.3c0.3-0.2,0.6-0.4,0.9-0.6c0.7-0.4,1.4-0.8,2.1-1.2c-0.1,0-0.1,0.1-0.2,0c0.4-0.2,0.9-0.4,1.3-0.6v-0.1
		c0.9-0.4,1.9-0.7,2.9-0.9c1.2-0.3,2.5-0.4,3.7-0.3c0.5,0-1-0.1,0.3-0.1c0.3,0.1,0.6,0.1,0.9,0.1c0.4,0,0.8,0.1,0.8,0.2
		c0.4,0,0.7,0.1,1.1,0.1c0.1,0,0.1,0.1,0.2,0.1c0.9,0.2,1.8,0.5,2.6,1c-0.1,0-0.2-0.1-0.1-0.1c0.4,0.2,1.2,0.8,0.5,0.4
		c0.5,0.3,0.9,0.7,1.3,1.1s0.6,0.7,0.3,0.2c0,0.1-0.6-0.7-1-1c0.2,0.1,0.4,0.2,0.5,0.4c0.2,0.2,0.4,0.4,0.6,0.5
		c0.1,0.1,0.1,0.2,0.2,0.2l0.1,0.1c0.7,1,1.2,2.3,1.4,3.5c0.1,0.2,0.2,0.5,0.2,0.8h-0.1c0.1,0.5,0.1,1,0.1,1.5l0.1-0.7
		c0.1,0.7,0.1,1.5,0,2.2c0,0.7-0.1,1.3-0.1,2c0,0.1,0,0.2,0.1,0.3v0.1c-0.1,0,0,0-0.2,0h-0.8c-0.5,0-1,0-1.5,0h1.1
		c-2.4,0-2.7,0.1-4.9,0c1.9-0.1,1.9,0,4.6-0.2c-2.7,0.1-4.7-0.1-7.2,0c0.2,0,0.8,0.1,0.2,0.1c-0.5-0.1-2.3,0-2-0.1
		c-0.8,0-0.9,0.1-1.4,0.1c-0.9,0-1.8,0-2.6,0h0.1c-2.2,0.2-4.3,0.8-6.3,1.8c-1,0.5-1.9,1.2-2.6,2c-0.8,0.9-1.4,1.9-1.7,3l0.1-0.1
		c-0.1,0.3-0.2,0.6-0.3,1c0.1-0.5-0.1,0.6,0,0.7c-0.1,1-0.1,2,0,3c0.1,0.1,0.1-0.1,0-0.9c0.1,1.1,0.4,2.2,0.8,3.2
		c0-0.1-0.1-0.2-0.1-0.3c0.1,0.3,0.3,0.6,0.4,0.9h0.1c0.4,0.7,0.9,1.4,1.5,2c0.5,0.6,1.1,1,1.3,1.2l-0.1-0.2c0.4,0.4,0.9,0.7,1.4,1
		c-0.3-0.2-0.6-0.4-0.8-0.6c0.4,0.3,0.9,0.5,1.4,0.8c0.5,0.2,1,0.4,1.5,0.6c0.4,0.1,0.9,0.3,1.3,0.4c0.2,0.1,0.5,0.1,0.7,0.1
		l-0.2-0.1c0.3,0,0.6,0.1,0.9,0.1l-0.2-0.1c1.1,0.1,2.2,0.1,3.3,0c1.2-0.1,2.3-0.3,3.5-0.6c0.8-0.2-0.5,0.1-0.5,0.1
		c0.2-0.1,0.6-0.2,1-0.3s0.7-0.2,0.8-0.2c-0.3,0-1.5,0.4-0.6,0c0.7-0.2-0.5,0.1,0.7-0.3l0.5-0.1c0.6-0.3,0.1-0.1,1.1-0.6
		c1.2-0.5-1.4,0.8,0.5-0.1c1.2-0.8,2.3-1.6,3.2-2.6c1.1-1.3-0.7,0.5,0.9-1.2c-0.2,0.2-0.4,0.4-0.5,0.6c0.4-0.4,0.8-0.9,1.1-1.4
		l0.1-0.1l-0.1,0.1c0.4-0.5,0.7-1,1-1.5v0.3c0,0.7,0,2.2,0,3.1v0.5v0.1l0,0v2.2v-0.1c0,0.3,0.1,1,0,1.5c0.2,0,0.4,0,0.6,0
		c-0.2,0-0.5,0.1-0.7,0.1v-1.7v1.7l1.7,0.1v-1.1c0-0.3,0-0.8,0-1.3v0.4c-0.1-1.4,0-2.9,0-4.2c0,0.4,0.1,0.4,0.1,0.3
		c-0.1-2.8-0.1-5.5-0.1-8.7L1607.2,525.9z M1606.9,528.6l0.1,0.5l-0.1,0.5V528.6z M1606.9,531.4v-3.8c0-0.5,0.1-1.1,0-1.6
		c0,0.1,0,0.2,0,0.3v-1c0-0.1,0-0.2,0-0.6C1606.9,526.8,1606.9,529.1,1606.9,531.4L1606.9,531.4z M1604.6,513.9l-0.1-0.2
		c-0.1-0.2-0.1-0.3-0.2-0.4l0,0v0.1c0.1,0.2,0.2,0.5,0.3,0.7L1604.6,513.9z M1592.8,508.5c-0.3,0-0.5,0.1-0.8,0.1
		c1-0.3,0.4-0.1,2.2-0.2c-2.1,0.1-1.3,0-1.2-0.1c0.2,0,1,0,1.6,0s1,0.1,0.8,0.2c-0.3,0-0.5,0-0.8,0
		C1594,508.4,1593.4,508.4,1592.8,508.5L1592.8,508.5z M1605.5,530.6C1605.5,530.6,1605.5,530.7,1605.5,530.6
		c-0.3,0.5-0.5,0.9-0.6,1.3c0,0.1-0.1,0.1-0.1,0.2v0.1l0,0c-0.1,0.3-0.3,0.5-0.4,0.8v-0.1c-0.1,0.3-0.3,0.5-0.5,0.7
		c0-0.1,0.3-0.6,0.4-0.8c-0.6,0.9-0.7,0.9-1.2,1.7l0.1-0.1c-0.3,0.5-0.7,0.9-1.1,1.3c0.1-0.1,0.1-0.2,0-0.1
		c-0.8,0.9-1.7,1.6-2.7,2.2l-0.4,0.1v0.1c-0.5,0.3-0.2,0-0.5,0.2c0.1-0.1,0.1,0,0.2,0c-0.7,0.2-0.3,0.2-0.7,0.4
		c0.2,0,0.7-0.3,0.6-0.1c-0.7,0.3-1.8,0.7-1.9,0.5c-1.3,0.4-2.7,0.7-4.1,0.7c-0.2,0,0.1,0,0,0c-0.5-0.1-1.5,0.1-1.5,0
		c-0.1,0-0.3,0-0.4,0.1c-0.3-0.1-0.6-0.1-1-0.1l0.3,0.1l0,0l-0.4-0.1l0,0c-0.9-0.1-1.8-0.3-2.6-0.7c0.4,0.2-0.1,0.1,0,0.2
		c-0.3-0.3-1.2-0.7-1.9-1.1c0,0-0.1,0,0,0.1c-0.1-0.1-0.2-0.2-0.3-0.3v0.1c-0.6-0.5-1.1-1-1.5-1.6c0.2,0.3,0.2,0.3,0.2,0.3
		c-0.4-0.5-0.7-1-0.9-1.6v0.1c-0.1-0.2-0.2-0.4-0.2-0.6h-0.1c-0.1-0.4-0.2-0.8-0.3-1.2c-0.1-0.5-0.1-1-0.1-1.5
		c0-0.2-0.1,0.4-0.1-0.1c0.1-0.1,0-0.7,0.2-0.7c0-0.1,0-0.3,0-0.4l0.1-0.1c-0.1-0.4,0.2-0.5,0.3-1.1c0,0-0.1,0.1-0.1,0
		c0.1-0.2,0.3-0.5,0.2-0.2c0.1-0.1,0.2-0.4,0.3-0.6s0.2-0.3,0-0.2c0.1,0-0.2,0.3-0.3,0.5c-0.1-0.1,0.2-0.4,0.2-0.6l0.1-0.1v-0.1
		c0.3-0.4,0.7-0.8,1.1-1.1c0,0,0.1-0.1,0.2-0.2l0.1,0.1l0.5-0.4h-0.3c0.2-0.2,0.5-0.3,0.8-0.4c0.2-0.1,0.5-0.2,0.7-0.3
		c0.1-0.2,1-0.4,1.4-0.6c-0.1,0-0.3,0.1-0.4,0.1c0.6-0.2,1.2-0.4,1.9-0.5c-0.6,0.1-1.2,0.3-1.7,0.6c0.9-0.3,1.8-0.5,2.8-0.6
		c-0.1,0-0.3,0-0.1-0.1c0.2,0,0.9-0.1,0.8,0c0.3-0.1,0.3-0.2,0.5-0.2c0.3,0,0.7,0,1.1,0.1l0,0c1.8-0.3,3.4,0.1,5.2,0v-0.1l0.5,0.1
		c-0.4-0.1,0.2-0.1,0.2-0.1l1.2,0.1c0,0,0-0.2-0.3-0.1c0.4,0,0.9,0,1.3,0.1h-0.1h0.4v-0.1c0.6,0,1.1,0,1.7,0.1l-0.1-0.1l0.7,0.1
		l-0.4-0.1c0.8,0,1.9,0.1,2.1,0.1h-0.1c0.1,0,0.2,0,0.4,0l-0.1-0.1c0.2,0,0.5,0,0.7,0c0,0.1,0,0.2,0,0.2c0,0.3,0,0.5,0,0.9
		s0-0.2,0-0.2c0,0.2,0,0.5,0,0.7c0.1-0.1,0.1-0.6,0.1-0.2c0,0.3,0.1-0.2,0.1,0.3l-0.1,0.2c0,0.3,0.1,0.1,0.1,0.5
		c0,0.5-0.1-0.6-0.1,0.2c0.1,0.6,0.2,1.1,0.2,1.7c0.1,0.7,0.2-0.4,0.2,0.6v-0.3v0.8l0,0l0,0L1605.5,530.6z M1603.1,534.9
		C1603.1,534.9,1603,535,1603.1,534.9s0.4-0.8,0.6-0.9l-0.3,0.5c0.2-0.2,0.3-0.4,0.5-0.6C1603.6,534.2,1603.3,534.6,1603.1,534.9
		L1603.1,534.9z M1599.8,537.8c-0.2,0.1-0.4,0.2-0.6,0.3h0.1c-0.1,0.1-0.2,0.1-0.4,0.2c-0.1,0-0.2,0-0.2,0.1c0.8-0.4,1.6-1,2.4-1.5
		C1600.7,537.2,1600.3,537.5,1599.8,537.8L1599.8,537.8z M1598.4,539.8c-0.1,0-0.2,0.1-0.3,0.1c-0.3,0.1-0.8,0.3-1.3,0.5
		c0.3,0,0.5-0.1,0.8-0.2c-0.3,0.1-0.7,0.2-1,0.3c0.5-0.2,0.1-0.1,0.1-0.2c1.3-0.5,1.3-0.4,1.4-0.4
		C1598.3,539.8,1598.4,539.8,1598.4,539.8L1598.4,539.8z M1598.4,539.6l0.5-0.3v0.1L1598.4,539.6z M1585.4,509.7
		c0.5-0.3,0.9-0.5,1.4-0.7C1586.3,509.2,1585.9,509.4,1585.4,509.7L1585.4,509.7z M1603.8,524.4c-0.4,0.1-0.3-0.1-0.7-0.1
		C1603.6,524.3,1603.5,524.4,1603.8,524.4L1603.8,524.4z M1602.6,524.3c0.2,0,0.3,0,0.5,0C1603,524.3,1602.8,524.3,1602.6,524.3
		L1602.6,524.3z M1597.1,524c0.1,0,0,0-0.2-0.1h0.6C1597.5,524,1597.3,524,1597.1,524z M1592.5,524.2h-0.2c0.4-0.1,0.3,0.1,0.6,0
		h-0.2c-0.2,0.1,0.3,0,0.3,0.1C1592.8,524.3,1592.3,524.3,1592.5,524.2C1592.8,524.3,1592.1,524.2,1592.5,524.2L1592.5,524.2z
		 M1592.2,524.4c-0.2,0.1-0.4,0.1-0.7,0C1591.8,524.4,1591.9,524.3,1592.2,524.4L1592.2,524.4z M1589,524.3L1589,524.3L1589,524.3
		L1589,524.3z M1587.7,524.8L1587.7,524.8L1587.7,524.8h-0.4c0.4-0.1,0.7-0.2,1.1-0.2C1588.2,524.6,1587.6,524.6,1587.7,524.8
		L1587.7,524.8z M1585,526.1c-0.1,0-0.5,0.2-0.5,0.2C1584.8,526.2,1585,525.9,1585,526.1C1585,526,1584.9,526.1,1585,526.1
		C1584.9,526.1,1585.1,526,1585,526.1L1585,526.1z M1584.1,526.1c-0.1,0-0.2,0.1-0.4,0.2C1583.8,526.2,1584,526.1,1584.1,526.1
		C1584.1,526,1584.2,526.1,1584.1,526.1L1584.1,526.1z M1582,528.6c-0.1,0.1-0.2,0.2-0.3,0.3C1581.8,528.8,1581.9,528.6,1582,528.6
		C1582,528.5,1582,528.5,1582,528.6L1582,528.6z M1584.4,537.8L1584.4,537.8c-0.3-0.2-0.5-0.5-0.6-0.8c0.4,0.3,0.4,0.5,0.3,0.5
		C1584.3,537.8,1584.3,537.7,1584.4,537.8L1584.4,537.8z M1583.5,536.7c0.1,0.2,0.3,0.3,0.5,0.4
		C1583.7,536.9,1583.6,537,1583.5,536.7z M1585.1,538.3L1585.1,538.3L1585.1,538.3z M1586.3,539
		C1586.6,539.1,1586.4,539.1,1586.3,539L1586.3,539L1586.3,539L1586.3,539z M1587.9,539.3c-0.4-0.1-0.2-0.1-0.2-0.1l-0.2-0.1
		c0.2,0.1,0.2,0.1,0.2,0.1L1587.9,539.3z M1587.6,539.2c-0.3-0.1-0.5-0.1-0.8-0.2C1587.1,539.1,1587.3,539.1,1587.6,539.2
		L1587.6,539.2z M1592.3,539.8c0.4-0.1,1.2,0.1,1-0.2c0.2,0,0.7,0,0.5,0.1C1593.4,539.7,1592.5,539.8,1592.3,539.8l-0.2,0.1
		L1592.3,539.8C1592.2,539.9,1592.2,539.9,1592.3,539.8c0.1,0,0.3,0,0.4-0.1C1592.7,539.8,1592.4,539.8,1592.3,539.8L1592.3,539.8z
		 M1594,539.8c0.4-0.1,0.8-0.2,1.2-0.2c-0.3,0.1-0.7,0.1-1,0.2H1594z M1596.4,539.3L1596.4,539.3l0.3-0.1L1596.4,539.3z M1591.2,540
		c-0.2,0-0.4,0-0.6,0C1590.8,540,1591,540,1591.2,540h0.2C1591.3,540,1591.3,540,1591.2,540L1591.2,540z M1581.4,532.8
		c-0.2-0.4,0-0.2-0.1-0.9c0,0.8-0.1,0.5-0.2,0.5c0.1-0.2,0-1.2,0.2-1c0,0.4,0,0.7,0.1,1.1C1581.4,532.6,1581.4,532.7,1581.4,532.8
		L1581.4,532.8z M1582.7,527.3L1582.7,527.3c0.1-0.1,0.1-0.2,0.2-0.2C1582.8,527.2,1582.8,527.2,1582.7,527.3L1582.7,527.3z
		 M1583.2,527c-0.1,0.1-0.2,0.2-0.2,0.1c-0.1,0.1-0.2,0.2-0.2,0.3C1583,527,1583,527.1,1583.2,527L1583.2,527z M1584,526.7
		c-0.1,0-0.1,0.1-0.2,0.2C1583.9,526.8,1584,526.7,1584,526.7L1584,526.7z M1583.7,526.3c-0.1,0-0.1,0.1-0.2,0.1L1583.7,526.3z
		 M1605.3,523.9h-0.2v-0.1C1605.1,523.8,1605.2,523.9,1605.3,523.9L1605.3,523.9z M1604.8,523.7l-0.4-0.1
		C1604.5,523.7,1604.9,523.7,1604.8,523.7L1604.8,523.7z M1605.5,527C1605.5,526.9,1605.5,526.9,1605.5,527v0.3c0,0,0,0,0-0.1V527z
		 M1590.6,541.1c-0.3,0-0.6-0.1-0.9-0.1C1589.9,541,1590.9,541,1590.6,541.1z M1600.1,537.5l0.1-0.2h0.2L1600.1,537.5z
		 M1601.3,536.5c0.2-0.2,0.4-0.4,0.7-0.6l-0.1,0.1c0.2-0.1,0.3-0.2,0.5-0.3c-0.1,0.1-0.1,0.1-0.2,0.2l0,0c-0.3,0.4-0.7,0.7-1.2,0.9
		c0.2-0.2,0.6-0.4,0.7-0.5C1601.6,536.3,1601.4,536.5,1601.3,536.5L1601.3,536.5z M1603.9,533.7L1603.9,533.7c0,0,0.1-0.1,0.2-0.3
		C1604,533.5,1604,533.6,1603.9,533.7L1603.9,533.7z M1605.6,526.6C1605.6,526.5,1605.6,526.5,1605.6,526.6c0.1-0.3,0.1-0.5,0.1-0.7
		c-0.1,0,0,0.2,0,0.3c0-0.1,0-0.3,0-0.5c0.1,0.2,0.1,0.1,0.2,0.1c0.1,0.6,0,0.6-0.1,0.6C1605.6,526.5,1605.6,526.6,1605.6,526.6
		L1605.6,526.6z M1605.8,526.6v0.3h-0.1L1605.8,526.6z M1605.4,517.1c0,0.2,0,0.5,0.1,0.7c0,0.1,0,0.1-0.1,0
		C1605.4,517.5,1605.4,517.3,1605.4,517.1L1605.4,517.1z M1605.3,516.5c0-0.2-0.1-0.4-0.1-0.6
		C1605.2,516.1,1605.3,516.3,1605.3,516.5L1605.3,516.5z M1591.7,541.3h-0.5v-0.1L1591.7,541.3z M1606.9,518.8v0.5v-0.8V518.8z
		 M1606,513.7c0.1,0.3,0.2,0.7,0.3,1.1c0,0.3,0.1,0.5,0.1,0.8c-0.2-0.8-0.4-1.6-0.8-2.4c0-0.1-0.1-0.2-0.1-0.4
		C1605.8,513.1,1605.9,513.4,1606,513.7L1606,513.7z M1602.9,509.4c0.3,0.3,0.8,0.7,1,0.9c-0.2-0.3-0.5-0.5-0.7-0.8
		c0.2,0.2,0.5,0.4,0.7,0.6l0.6,0.7c0.3,0.5,0.5,0.8,0.5,0.5c0.3,0.3,0.8,1.6,0.6,1.2c-0.1-0.2-0.3-0.5-0.5-0.8s-0.4-0.6-0.7-0.9
		c-0.3-0.3-0.5-0.5-0.7-0.8L1602.9,509.4c0,0.1-0.1,0-0.3-0.1C1602.8,509.4,1602.9,509.4,1602.9,509.4
		C1603,509.5,1603,509.5,1602.9,509.4s-0.2-0.2-0.3-0.2C1602.8,509.3,1602.9,509.3,1602.9,509.4L1602.9,509.4z M1599.7,507.8
		c0.3,0.1,0.8,0.3,1,0.4c0.1,0,0.1,0.1,0.2,0.1c-0.5-0.2-1-0.4-1.5-0.5C1599.5,507.7,1599.6,507.8,1599.7,507.8L1599.7,507.8z
		 M1592.1,506.9h0.4C1591.4,507,1592,506.9,1592.1,506.9c-0.2,0-0.3,0-0.5,0C1592.1,506.8,1592.1,506.9,1592.1,506.9L1592.1,506.9z
		 M1591.8,507c-0.5,0.1-1.8,0.4-2,0.5C1590.4,507.3,1591.1,507.1,1591.8,507L1591.8,507z M1588.8,508c0.8-0.2,0.3,0,0.5-0.1l0,0
		C1588.9,508,1588.7,508,1588.8,508L1588.8,508z M1585.6,509.4L1585.6,509.4L1585.6,509.4L1585.6,509.4z M1582.9,511.1
		c0.3-0.2,0.6-0.4,0.9-0.7l-0.2,0.2c-0.5,0.3-0.8,0.5-1.1,0.7l-0.4,0.2c-0.2,0.1-0.4,0.3-0.7,0.4c0.2-0.2,0.5-0.4,0.8-0.6
		c0.1-0.1,0.3-0.2,0.4-0.2C1582.8,511.1,1582.9,511.1,1582.9,511.1L1582.9,511.1z M1581.6,512.4l-0.2-0.2l-0.1-0.1
		c-0.1,0,0-0.1,0.1-0.1l0.5-0.4l0.3-0.2c0.1-0.1,0.1-0.1,0.2-0.2l-0.5,0.4c-0.2,0.1-0.3,0.3-0.4,0.4l-0.1,0.1c0,0,0,0.1,0.1,0.1
		L1581.6,512.4c0.4,0.3,0.6,0.7,0.8,1L1581.6,512.4z M1598.1,508.7l0.2,0.1L1598.1,508.7z M1602.1,510.7c-0.2-0.3-0.5-0.5-0.8-0.7
		C1601.6,510.2,1601.9,510.4,1602.1,510.7C1602.3,510.7,1602.2,510.7,1602.1,510.7L1602.1,510.7z M1604.8,516.6
		c0-0.2-0.1-0.4-0.1-0.6C1604.8,516.2,1604.8,516.4,1604.8,516.6L1604.8,516.6z M1604.8,514.7c-0.1-0.5-0.2-0.6-0.1-0.6
		c-0.1-0.2-0.3-0.6-0.3-0.8C1604.6,513.8,1604.7,514.2,1604.8,514.7l0.1,0.4C1604.8,515,1604.8,514.8,1604.8,514.7L1604.8,514.7z
		 M1605.1,518.1c0,0.6,0,1.2,0,1.8c0-0.3,0-0.5,0-0.7c0,0.2-0.1,0.8-0.1,0.3C1605,519.2,1605,518.1,1605.1,518.1L1605.1,518.1z
		 M1600.9,522.4l0.2,0.1L1600.9,522.4l1,0.1c-0.9,0-1.8,0-2.8-0.1C1599.6,522.4,1601.1,522.5,1600.9,522.4L1600.9,522.4z
		 M1597.9,522.6h-0.3h-0.1C1597.7,522.6,1597.8,522.6,1597.9,522.6L1597.9,522.6z M1591.4,522.3c-0.7,0-1,0.1-1.6,0.1
		C1590.3,522.2,1590.9,522.2,1591.4,522.3z M1589.3,522.5c-1.2,0.2,0.6,0-0.2,0.2l0.6-0.1c-1,0.2-0.7,0-1.4,0.2
		c0.2,0,0.3-0.1,0.5-0.1c0.4-0.1-0.7,0.1-0.8,0.1C1588.4,522.6,1588.8,522.5,1589.3,522.5L1589.3,522.5z M1583.9,524.4l0.4-0.2
		C1584.2,524.3,1584,524.3,1583.9,524.4z M1580.3,529c0,0.2,0,0,0.2-0.3c-0.1,0.4-0.2,0.8-0.3,1.2
		C1580.2,529.6,1580.2,529.3,1580.3,529z M1585.4,540.5c0.7,0.2,0.8,0.3,1.2,0.5C1586.2,540.8,1585.8,540.7,1585.4,540.5
		L1585.4,540.5z M1586.4,541c1.2,0.3,0.9,0.4,1.6,0.5C1587.1,541.4,1587.3,541.2,1586.4,541L1586.4,541z M1599.7,539.4
		c-0.1,0.1-0.3,0.1-0.4,0.2h-0.1c0.2-0.1,0.5-0.2,0.7-0.4C1599.9,539.2,1599.9,539.3,1599.7,539.4L1599.7,539.4z M1605.6,541.3
		L1605.6,541.3L1605.6,541.3h0.7c0.1,0,0.2,0,0.3,0H1605.6z M1607,540.9v-1.4v1.8v-3c0-0.1,0-0.3,0.1-0.3
		C1606.9,538.5,1607.1,540.3,1607,540.9L1607,540.9z M1607,534.8v-0.4c0,0.8-0.1,1.2-0.1,1.5v-0.7l0,0c0-1.2,0-2.9,0.1-3.5
		c0.1,0.8-0.1,1.8,0,2c0-0.4,0-0.8,0.1-1.2C1607.1,533.3,1607.1,534.1,1607,534.8L1607,534.8z"/>
	<path id="Path_39" class="st0" d="M1525.3,539L1525.3,539C1525.3,539.1,1525.3,539.2,1525.3,539L1525.3,539z"/>
	<path id="Path_40" class="st0" d="M1604.6,532.3l0.2-0.2l0,0L1604.6,532.3z"/>
	<path id="Path_41" class="st0" d="M1589.6,539.5L1589.6,539.5L1589.6,539.5L1589.6,539.5z"/>
	<path id="Path_42" class="st0" d="M1697.6,501L1697.6,501L1697.6,501L1697.6,501z"/>
	<path id="Path_43" class="st0" d="M1581.9,533.1L1581.9,533.1C1581.9,533.2,1581.9,533.2,1581.9,533.1
		C1581.9,533.2,1581.9,533.1,1581.9,533.1z"/>
	<path id="Path_44" class="st0" d="M1683.3,516.3c-0.1,0.3-0.1,0.2-0.1,0.6C1683.2,516.7,1683.3,516.5,1683.3,516.3z"/>
	<path id="Path_45" class="st0" d="M1584,526.9c-0.1,0-0.1,0-0.2,0.1C1583.8,527,1583.9,527,1584,526.9z"/>
	<path id="Path_46" class="st0" d="M1683.3,516.2l-0.1,0.3l0,0L1683.3,516.2z"/>
	<path id="Path_47" class="st0" d="M1542.1,520.9c-0.1,0.3-0.1,0.2-0.1,0.6C1542,521.3,1542,521.1,1542.1,520.9z"/>
	<path id="Path_48" class="st0" d="M1567,513L1567,513C1566.9,513,1566.9,513,1567,513L1567,513z"/>
	<path id="Path_49" class="st0" d="M1565.5,511.6c0.1,0.1,0.2,0.1,0.2,0.2L1565.5,511.6z"/>
	<path id="Path_50" class="st0" d="M1604.9,531.6c-0.1,0.2-0.2,0.3-0.3,0.5C1604.7,531.9,1604.8,531.9,1604.9,531.6z"/>
	<path id="Path_51" class="st0" d="M1561.5,505.3L1561.5,505.3L1561.5,505.3L1561.5,505.3z"/>
	<path id="Path_52" class="st0" d="M1570.3,520.3c0-0.1,0-0.2,0-0.3C1570.3,520,1570.3,520.1,1570.3,520.3z"/>
	<path id="Path_53" class="st0" d="M1569.9,518.2L1569.9,518.2C1569.9,518.3,1569.9,518.2,1569.9,518.2z"/>
	<path id="Path_54" class="st0" d="M1582.7,528.1L1582.7,528.1C1582.8,528.1,1582.7,528.1,1582.7,528.1z"/>
	<path id="Path_55" class="st0" d="M1572.9,522c0-0.2,0-0.5-0.1-0.7L1572.9,522z"/>
	<path id="Path_56" class="st0" d="M1707.9,508.6L1707.9,508.6C1707.8,508.5,1707.8,508.5,1707.9,508.6L1707.9,508.6z"/>
	<path id="Path_57" class="st0" d="M1706.4,507.2c0.1,0.1,0.1,0.1,0.2,0.2L1706.4,507.2z"/>
	<path id="Path_58" class="st0" d="M1568.2,504.2L1568.2,504.2C1568,504.1,1568.1,504.2,1568.2,504.2z"/>
	<path id="Path_59" class="st0" d="M1604.6,516.3c0-0.2,0-0.3,0-0.5C1604.6,515.7,1604.6,515.9,1604.6,516.3z"/>
	<path id="Path_61" class="st0" d="M1572.1,517.6l-0.1-0.2L1572.1,517.6C1572,517.6,1572,517.6,1572.1,517.6z"/>
	<path id="Path_62" class="st0" d="M1525,513.9v-0.5V513.9L1525,513.9z"/>
	<path id="Path_63" class="st0" d="M1525.1,513.6c0,0.3,0,0.6,0,0.9V513.6z"/>
	<path id="Path_64" class="st0" d="M1538.6,508.8v-1.4v-0.7v-0.2h-0.1h-0.3c-0.5,0-1,0.1-1.5,0l0.1,0.1h-1.1h0.6
		c-1.1,0.1-2.2,0.3-3.3,0.7h0.1c-0.2,0.1-0.4,0.1-0.5,0.2h0.2c-0.7,0.2-1.3,0.5-1.9,0.9c-0.3,0.2-0.5,0.3-0.8,0.5s-0.7,0.4-1.1,0.8
		s0.3-0.2,0.3-0.2c-0.2,0.2-0.8,0.7-0.9,0.8c0.2-0.1,0.8-0.7,0.4-0.2c-0.4,0.3,0.3-0.2-0.3,0.4l-0.3,0.1c-0.3,0.4,0,0.1-0.5,0.7
		c-0.6,0.6,0.6-0.8-0.3,0.1c-0.4,0.5-0.7,1.2-1.3,2.3c-0.5,1,0.4-0.4-0.3,0.9c0.1-0.1,0.1-0.2,0.2-0.3c-0.2,0.3-0.3,0.6-0.4,0.9l0,0
		l0,0c-0.1,0.3-0.3,0.7-0.4,1V516c0-0.5,0-1.4,0-2v-0.3v-0.1l0,0v-1.4v0.1c-0.1-0.4-0.1-0.9,0-1.3c0.1,0.5,0.1,0.9,0,1.4
		c0-1.7,0.2-1.8,0.1-3.3v0.3c0-0.4,0-0.8,0-1.2l0.1-1.4h-0.4c0.3,0,0.4-0.1,0.3-0.1h-1.7v2.4v2.3l-0.1,0.6h0.1
		c0,0.9-0.1,0.4-0.1,0.7v-0.1c-0.1,1.2,0.1,0.6,0,1.3c0.1-0.3,0-1.3,0.1-1c0,1-0.1,2.1-0.2,3.1c0.1,2.1,0,4.8-0.1,6.6
		c0,0.2,0-0.2,0.1-0.1c-0.1,0.7,0.1,2.4,0,2.4c0,0.2,0.1,0.4,0.1,0.6c-0.1,0.5-0.1,1-0.1,1.6v-0.4l0,0v0.6l0,0c0,1.4,0,3.1-0.1,4.4
		c0.1-0.8,0.1,0.2,0.2-0.2c-0.1,1.2-0.2,2.4-0.1,3.6c0,0,0.1,0.1,0.1-0.1l-0.1,0.8v-0.1c0,1.3-0.1,2.8-0.1,3.7
		c0-0.5,0.1-0.6,0.1-0.6v2.8h1c-0.1,0-0.2,0-0.2,0c0.4,0,0.9,0,1.3,0v-0.2l-0.1-0.1v-0.7v-0.5c0-0.3,0-0.7,0-1
		c-0.1-0.3,0.1-1.7,0-2.4c0-0.3-0.1,0.7-0.1-0.2c0.2-0.1,0-1.1,0.2-1.2l-0.1-0.7l0.1-0.2c-0.2-0.6,0.1-1,0-1.9v0.1
		c0-0.3,0-1,0.1-0.5c0-0.5,0-2.2-0.1-1.4c0,0.3,0,0.6,0,0.9c-0.1,0,0-0.8-0.1-1c0,0,0-0.1,0-0.2l-0.1-0.1c0.1-0.9,0-1.9,0.1-2.6
		c0-0.2-0.1-0.4,0-0.5h0.1v-1l-0.1,0.5c0-1.1,0.1-1.9,0.2-2.8c-0.1-0.3-0.1-0.7,0-1.1c0-0.5,0.1-1,0.1-1.4l-0.1,0.7
		c0.1-1,0.2-2,0.4-3c-0.1,0.6-0.1,0.9-0.2,1.2c-0.1,0.5-0.1,1.1-0.1,1.6c0.1-1.5,0.4-2.9,0.9-4.3c-0.1,0.1-0.2,0.4-0.1,0.1
		c0.1-0.2,0.2-0.5,0.3-0.8c0.1-0.3,0.2-0.5,0.2-0.4c0.2-0.4,0.1-0.6,0.2-0.8c0.3-0.5,0.6-0.9,0.9-1.3l0,0c0.6-1.1,1.5-2.1,2.5-2.9
		c1-0.8,2.2-1.4,3.4-1.8h-0.1c0.2-0.1,0.4-0.1,0.7-0.1c-0.5,0.1,0.2-0.1,0.2-0.2l0.9-0.2l0.9-0.1c0-0.1-0.1-0.1-0.5-0.1
		c0.3-0.1,0.7-0.1,1-0.1c0.4,0,0.5,0,1.2,0h-0.4h0.6h0.3h0.1C1538.7,508.9,1538.6,508.8,1538.6,508.8L1538.6,508.8z M1525.4,527.2
		v0.4C1525.4,527.5,1525.4,527.3,1525.4,527.2z M1525.6,518.4l-0.1,0.2L1525.6,518.4L1525.6,518.4z M1524.9,538.5
		c-0.2-0.7,0-0.3,0-1.4c0,1.3-0.1,0.8-0.2,0.8c0.1-0.2,0-1.8,0.2-1.5v1.7C1524.9,538.2,1524.9,538.3,1524.9,538.5L1524.9,538.5z
		 M1524.9,529.2v0.2l0,0v-0.6V529.2z M1523.6,511c0,0.3-0.1,0.7,0,1v-0.2v0.6c0,0,0,0.1-0.1,0.4c0-1.4,0-2.9,0.1-4.4V511z
		 M1523.5,516.7L1523.5,516.7v-0.4V516.7z M1523.6,518.6v1.6v0.3C1523.5,519.9,1523.5,519.2,1523.6,518.6L1523.6,518.6z
		 M1523.6,525.8c0-0.3,0-0.6,0-0.9c0-0.1,0-0.2,0-0.3V525.8z M1523.6,532.4L1523.6,532.4c0,0.2,0,0.4-0.1,0.3
		C1523.5,532.2,1523.6,532.4,1523.6,532.4L1523.6,532.4z M1523.5,537c0-0.2,0-0.5,0-0.7l0.1,0.2c0,0.5-0.1,1-0.2,1.5
		C1523.3,537.1,1523.4,536.9,1523.5,537L1523.5,537z M1524.9,532.3v-0.8c0,0,0,0,0.1,0.1C1524.9,531.8,1524.9,532.1,1524.9,532.3
		L1524.9,532.3z M1524.9,527v-0.5c0-0.1,0-0.1,0.1,0C1524.9,526.6,1524.9,526.8,1524.9,527L1524.9,527z M1528.6,510.8
		c0.2-0.2,0.3-0.3,0.5-0.5c-0.2,0.3,0,0.1,0,0.2c-0.6,0.6-0.7,0.5-0.8,0.6c-0.1,0.1-0.2,0.1-0.2,0.1c0-0.1,0.1-0.1,0.2-0.1
		c0.2-0.2,0.5-0.4,0.7-0.6C1528.9,510.5,1528.7,510.7,1528.6,510.8L1528.6,510.8z M1531.6,508.5l0.3-0.1l0.1,0.1H1531.6z
		 M1532.9,508.2c-0.1,0-0.7,0.3-0.6,0.2C1532.5,508.3,1532.7,508.3,1532.9,508.2L1532.9,508.2z M1528.2,511.3l-0.3,0.3l-0.1-0.1
		L1528.2,511.3z M1532.7,507.1c0.3-0.1,0.5-0.1,0.8-0.2C1533.2,507,1532.9,507.1,1532.7,507.1z M1534.7,507
		c-0.4,0.1-0.7,0.2-1.1,0.2C1533.9,507.1,1534.3,507,1534.7,507L1534.7,507z M1527.4,511.7c0.1-0.1,0.1-0.1,0.2-0.2h0.1
		c-0.1,0.1-0.2,0.3-0.3,0.4C1527.4,511.9,1527.4,511.9,1527.4,511.7L1527.4,511.7z M1524.9,511.5V511c0,0,0-0.1,0-0.2
		C1524.9,511,1524.9,511.3,1524.9,511.5L1524.9,511.5z M1525,508.4c0,0.6,0,1.2,0,1.9v-0.9c0,0.4,0,0.8,0,1.1v-1.9
		C1524.9,508.5,1524.9,508.4,1525,508.4L1525,508.4z M1523.4,506.8c0.3,0,0.6,0.1,0.9,0.1h-0.3c0.3,0,0.6,0,0.9,0.1v0.1V507h-0.4
		l0,0h-1c0,0.4,0,0.9-0.1,1.3c0-0.5,0-0.9,0.1-1.4l0,0l0,0c0,0.3,0,0.8-0.1,0.8C1523.4,507.5,1523.4,507.2,1523.4,506.8
		L1523.4,506.8z M1523.4,510l0.1-0.3v0.6L1523.4,510z M1523.5,520.7c0,0.7,0,2,0.1,2.5c0,0.1,0,0.1,0,0.2c0-0.1,0-0.1,0-0.2
		c0,0,0,0-0.1,0c0,0.1,0,0.2,0,0.2c0-0.1,0-0.2,0-0.2c0-0.3,0-0.6,0-0.8c0,0.1,0,0.5-0.1,0.7c-0.1-0.6,0.2-1.9-0.1-1.5
		C1523.4,521.3,1523.4,520.4,1523.5,520.7z M1523.3,530.7v1.3C1523.3,531.6,1523.3,531.1,1523.3,530.7z M1523.2,530.5v0.3
		C1523.2,530.5,1523.2,530.4,1523.2,530.5v-0.3C1523.3,530.9,1523.3,530.6,1523.2,530.5L1523.2,530.5z M1523.3,538.6v-1
		C1523.3,537.9,1523.4,538.2,1523.3,538.6L1523.3,538.6z M1525,528.5c0,0.3,0,0.4-0.1,0.4c0,0.1,0,0.4,0,0.5
		C1524.9,529.1,1524.9,528.8,1525,528.5v-0.3C1525,528.3,1525,528.4,1525,528.5L1525,528.5z M1525.3,526.3c0.1-0.6-0.1-1,0-1.2
		c0,0.2,0,0.3,0,0.5c0-0.1,0.1-0.5,0.1-0.2C1525.4,525.7,1525.3,526,1525.3,526.3L1525.3,526.3z M1525.4,520.5L1525.4,520.5
		L1525.4,520.5c-0.1,0.2-0.2,0.4-0.2,0.6c0.1-0.6,0.2-1.2,0.4-1.7C1525.5,519.7,1525.2,520.6,1525.4,520.5L1525.4,520.5z
		 M1527.4,514.9c0.3-0.4,0.2-0.6,0.6-0.8C1527.8,514.4,1527.6,514.7,1527.4,514.9L1527.4,514.9z M1528,513.8c0.4-0.6-0.3,0.2,0-0.2
		l-0.2,0.3c0.3-0.6,0.3-0.3,0.6-0.7c-0.1,0.1-0.1,0.2-0.2,0.2c-0.1,0.2,0.3-0.3,0.4-0.3C1528.3,513.4,1527.9,514,1528,513.8
		L1528,513.8z M1533.5,509.2c0.1-0.1,0,0-0.3,0c0.3-0.1,0.5-0.2,0.8-0.3C1534,509,1533.7,509.1,1533.5,509.2L1533.5,509.2z"/>
	<path id="Path_65" class="st0" d="M1540.8,531.2c0,0.1,0,0.2,0.1,0.3C1540.9,531.4,1540.9,531.3,1540.8,531.2z"/>
	<path id="Path_66" class="st0" d="M1552,524.5L1552,524.5h-0.3H1552z"/>
	<path id="Path_67" class="st0" d="M1563.6,503.1c0.2,0,0.3,0.1,0.5,0.1C1564.2,503.2,1564,503.1,1563.6,503.1z"/>
	<path id="Path_69" class="st0" d="M1542,520.7l-0.1,0.3l0,0L1542,520.7z"/>
	<path id="Path_70" class="st0" d="M1699.7,498.8c0.2,0,0.3,0.1,0.5,0.1C1700.3,498.9,1700.1,498.8,1699.7,498.8z"/>
	<path id="Path_71" class="st0" d="M1587,510.7c0.2-0.1,0.4-0.2,0.6-0.3L1587,510.7z"/>
	<path id="Path_72" class="st0" d="M1523.2,527.4L1523.2,527.4v-0.2V527.4z"/>
	<path id="Path_73" class="st0" d="M1682.1,526.5c0,0.1,0,0.2,0.1,0.3C1682.2,526.7,1682.2,526.6,1682.1,526.5z"/>
	<path id="Path_74" class="st0" d="M1675.6,507.3c0,0.1-0.1,0.2-0.1,0.2c-0.1,0.3-0.2,0.5-0.2,0.8c-0.3,0.6-0.6,1.3-0.9,2.1l0.2-0.5
		v0.1l-0.4,0.8l0,0c-0.8,1.9-1.7,4.1-2.4,5.8c0.4-0.9,0.1,0.1,0.2-0.1c-0.7,1.5-1.4,3-2,4.6c0,0,0,0.1,0.1,0l-0.5,1l0.1-0.1
		c-0.7,1.8-1.6,3.6-2,4.8c0.3-0.7,0.3-0.7,0.4-0.8c-0.5,1.3-1,2.5-1.6,3.9c0-0.1,0.1-0.1,0.1-0.1c-0.1,0.4-0.4,0.8-0.5,1.2l0.1,0.1
		c-0.3,0.7-0.7,1.7-1.1,2.6c-0.1,0.4-1,2.2-1.3,3.2c-0.2,0.4,0.4-0.8,0,0.3c-0.1,0-0.3,0.4-0.4,0.8l-0.1,0.3v0.1h-0.1
		c0,0.1,0,0.2-0.1,0.4v-0.1v-0.1c0,0.1-0.1,0-0.1-0.1c-0.1-0.4-0.2-0.8-0.4-1.1c0,0.1,0.1,0.2,0,0.1c-0.1-0.4-0.5-1.3-0.2-0.6
		c-0.3-0.7-1.1-2.9-0.8-1.9c0.2,0.4,0.4,0.8,0.5,1.2c-0.1,0-0.5-1-0.6-1.2l-0.1-0.3l-0.1-0.1c-0.4-1.3-1-2.5-1.2-3.4
		c-0.1-0.2-0.2-0.4-0.3-0.7l0.1-0.1l-0.5-1.3l0.1,0.7c-0.6-1.4-0.9-2.5-1.3-3.7c-0.3-0.2-0.9-2.3-1.4-3.3l0.3,0.9
		c-0.8-2-1-2.3-1.7-4.1c0.7,1.5,0.7,1.6,1.7,3.8c-1-2.3-1.5-4-2.5-6c0,0.2,0.2,0.7,0,0.2c-0.1-0.4-0.8-2-0.6-1.7
		c-0.3-0.6-0.4-0.7-0.6-1.1l-0.8-2.2v0.1c-0.4-0.9-0.8-1.8-1.2-2.7l-1.2-3h-2.8l1.1,2.8c0.3,0.6,0.5,1.3,0.8,1.9v-0.1l0.3,1
		c-0.3-0.7,0.2,0.3,0.3,0.3l0.9,2.4c0.1,0,0.1-0.1-0.2-0.7c0.4,0.9,0.7,1.9,1,2.7l-0.1-0.3l0.3,0.8h0.1c0.5,1.3,1.2,2.9,1.3,3.4V521
		l0.5,1.4l-0.3-0.8c0.7,1.6,1.6,4,1.7,4.3v-0.2c0.1,0.2,0.2,0.5,0.3,0.7v-0.2c1,2.4,1.3,3,2.4,5.6c0.3,0.7-0.1-0.4-0.1-0.4
		c0.2,0.5,0.4,1,0.6,1.5c0-0.2-0.5-1.3-0.1-0.5c0.2,0.6-0.1-0.4,0.3,0.6l0.1,0.5c0.2,0.3,0.4,0.7,0.5,1c0.4,1.1-0.7-1.2,0,0.5
		c0.4,0.9,1,1.7,1.6,3.4c0.6,1.4-0.1-0.8,0.6,1.2l-0.2-0.7l0.6,1.5l0.1,0.1v-0.1l0.6,1.5h0.4c0.3,0,0.7,0,1.1,0l0.6-1.5l0.2-0.5
		l0.1-0.1l0,0l0.7-1.8v0.1c0.2-0.6,0.4-1.2,0.7-1.8c-0.2,0.6-0.4,1.2-0.7,1.8c1-2.3,1.1-2.3,1.9-4.2l-0.2,0.3
		c0.4-1.2,1.1-2.4,1.5-3.5c-0.1,0.3-0.1,0.4,0,0.2c0.9-2.4,1.9-4.7,2.9-7.4l0.4-0.8l-0.1-0.1c0.5-1.3,0.2-0.2,0.6-1.1
		c-0.1,0.3-0.1,0.3-0.2,0.3c0.3-0.6,0.5-1.1,0.7-1.7c-0.2,0.4-0.7,1.6-0.6,1.2c0.5-1.4,1.2-2.7,1.9-4c1.1-2.8,2.6-6.3,3.6-8.6
		c0.1-0.2,0-0.2,0,0c0,0.1-0.1,0.2-0.1,0.1c0.1-0.1,0.2-0.4,0.3-0.7l0.4-0.9h-2.5L1675.6,507.3z M1664.9,535.5c-0.2,0.3-1,2.3-1,1.9
		l0.9-2.2c0.1-0.2,0.2-0.4,0.3-0.6c-0.2,1-0.2,0.3-0.7,1.9C1665,534.7,1664.9,535.4,1664.9,535.5z M1658.7,529.2
		c0,0.2,0.1,0.5,0.2,0.7L1658.7,529.2C1658.6,529.2,1658.6,529.1,1658.7,529.2L1658.7,529.2z M1660.1,532.9l0.1,0.3v-0.1l-0.3-0.8
		L1660.1,532.9z M1656.3,526.3l-0.3-0.8C1656.1,525.7,1656.4,526.6,1656.3,526.3L1656.3,526.3z M1656.4,526.9l0.1,0.5L1656.4,526.9
		L1656.4,526.9z M1659,533.1c0-0.1-0.1-0.2-0.1-0.3c-0.1-0.4-0.3-0.8-0.5-1.2c0.1,0.2,0.1,0.5,0.2,0.7c-0.1-0.2-0.3-0.5-0.4-0.9
		c0.3,0.4,0.1,0.1,0.2,0.1c0.5,1.2,0.4,1.2,0.4,1.3C1659,533,1659,533.1,1659,533.1L1659,533.1z M1659.2,533.6l-0.1-0.5
		L1659.2,533.6L1659.2,533.6z M1672.7,514.6l0.2-0.3C1672.5,515.3,1672.7,514.8,1672.7,514.6l-0.2,0.4
		C1672.6,514.6,1672.7,514.6,1672.7,514.6L1672.7,514.6z M1672.6,515l-0.7,1.7C1672.2,516.1,1672.4,515.5,1672.6,515L1672.6,515z
		 M1672,517.3L1672,517.3c-0.1,0.3-0.2,0.4-0.2,0.4C1672,517,1671.9,517.3,1672,517.3L1672,517.3z M1669.5,523.3
		c0.2-0.3,0.3-0.6,0.4-1v0.3c-0.3,0.6-0.6,1.3-1,1.9C1669.2,523.4,1669.5,523.1,1669.5,523.3L1669.5,523.3z M1668.9,524
		c-0.1,0.5-0.2,0.9-0.5,1.4L1668.9,524z M1661.7,536.9l-0.4-1c0,0,0.1,0,0.1,0.1C1661.5,536.3,1661.6,536.6,1661.7,536.9
		L1661.7,536.9z M1660.2,533.1c-0.2-0.4-0.3-0.8-0.4-1.2l-0.1-0.4c0.1,0.2,0.1,0.3,0.1,0.4c0.2,0.4,0.2,0.5,0.1,0.5
		C1660,532.5,1660.2,532.9,1660.2,533.1L1660.2,533.1z M1659.7,530.6c-0.1-0.3-0.3-0.5-0.2-0.6L1659.7,530.6z M1658.5,527.6
		c0.1,0.4,0.3,0.8,0.4,1.2c-0.3-0.8-0.7-1.3-0.6-1.5c0.1,0.3,0.1,0.4,0.2,0.6C1658.5,527.7,1658.3,527.2,1658.5,527.6L1658.5,527.6z
		 M1655.7,521.2v0.2V521.2l0.2,0.8c-0.3-0.8-0.6-1.5-0.8-2.4C1655.2,520.1,1655.6,521.5,1655.7,521.2L1655.7,521.2z M1654.4,518.8
		l-0.1-0.2l0,0C1654.4,518.6,1654.4,518.7,1654.4,518.8L1654.4,518.8z M1652.6,513.2c-0.2-0.4-0.4-0.9-0.5-1.4
		C1652.3,512.3,1652.5,512.7,1652.6,513.2L1652.6,513.2z M1651.8,511.4c-0.4-1,0.1,0.5-0.2-0.1l0.2,0.5c-0.4-0.8-0.2-0.6-0.4-1.2
		l0.2,0.4c0.2,0.3-0.2-0.6-0.2-0.7C1651.6,510.7,1652,511.8,1651.8,511.4L1651.8,511.4z M1649.6,510.8c0.1,0.2,0,0-0.1-0.4l0.4,1.1
		C1649.9,511.5,1649.8,511.1,1649.6,510.8L1649.6,510.8z M1654.4,523.2c-0.2-0.3-0.3-0.7-0.4-1
		C1654.1,522.5,1654.3,522.9,1654.4,523.2L1654.4,523.2z M1654.3,523.1c0.2,0.5,0.4,0.9,0.5,1.4
		C1654.6,524.1,1654.4,523.6,1654.3,523.1L1654.3,523.1z M1659.3,534.3l-0.1-0.4v-0.1l0.3,0.7
		C1659.4,534.6,1659.4,534.5,1659.3,534.3L1659.3,534.3z M1665.7,536.2l0.2-0.6c0-0.1,0.1-0.1,0.1-0.2
		C1666,535.6,1665.9,535.9,1665.7,536.2L1665.7,536.2z M1666.4,534.7l0.5-1.2c-0.2,0.5-0.5,1-0.6,1.5l1-2.5c0.1-0.1,0.1-0.2,0.2-0.2
		C1667.2,532.7,1666.7,534.2,1666.4,534.7L1666.4,534.7z M1669.4,527.7c-0.2,0.6-0.5,1.3-0.8,1.9l0.1-0.3c-0.2,0.4-0.4,0.8-0.6,1.2
		l0.2-0.6l0,0c0.4-1,0.8-2,1.3-2.9c-0.2,0.7-0.7,1.5-0.7,1.7C1669,528.4,1669.2,528.1,1669.4,527.7L1669.4,527.7z M1670.6,524.8
		l-0.2,0.4l0.3-0.8L1670.6,524.8z M1669.6,526.7l1.3-3.2c0.2-0.4,0.4-0.9,0.6-1.3l-0.1,0.2l0.3-0.8c0,0,0.1-0.2,0.3-0.5
		C1671.3,522.9,1670.5,524.8,1669.6,526.7L1669.6,526.7z M1674,516.1l-0.2,0.5l0.2-0.7V516.1z M1675.1,513.4l0.9-2.1l0.2-0.3
		C1675.8,511.8,1675.5,512.7,1675.1,513.4L1675.1,513.4z M1677.7,507.3c-0.2,0.4-0.3,0.8-0.5,1.2c0.1-0.1,0.1-0.3,0.2-0.4
		c0.1-0.2,0.2-0.4,0.3-0.5c-0.2,0.5-0.4,1.1-0.7,1.6c-0.2,0.5-0.3,0.8-0.1,0.6c-0.2,0.3-0.7,1.4-0.6,1
		C1676.7,509.8,1677.3,508.1,1677.7,507.3c-0.1,0-0.1-0.1,0-0.2C1677.6,507.2,1677.6,507.3,1677.7,507.3
		C1677.6,507.4,1677.6,507.4,1677.7,507.3s0.1-0.3,0.2-0.4C1677.8,507,1677.8,507.2,1677.7,507.3L1677.7,507.3z M1676.1,507.2
		l-0.6,1.4c0.1-0.2,0.3-0.9,0.4-1.2L1676.1,507.2z"/>
	<path id="Path_75" class="st0" d="M1693.1,519.9L1693.1,519.9h-0.3H1693.1z"/>
	<path id="Path_76" class="st0" d="M1523.2,512.8L1523.2,512.8C1523.2,512.9,1523.2,512.8,1523.2,512.8z"/>
	<path id="Path_77" class="st0" d="M1595.4,505.7l0.2-0.1L1595.4,505.7C1595.4,505.7,1595.3,505.7,1595.4,505.7z"/>
	<path id="Path_78" class="st0" d="M1516.4,512.6C1516.4,512.6,1516.4,512.5,1516.4,512.6l-0.1-0.3c-0.2-0.2-0.4-0.5-0.7-0.8
		c-0.1,0-0.2-0.1-0.3-0.1c-0.3-0.3-0.5-0.6-0.8-0.8c-0.2,0.1-1.3-1-1.5-0.9c-1.1-0.7,0.2,0-0.2-0.2c-1.1-0.6-2.2-1.2-3.4-1.6
		c-1-0.3-2-0.6-3-0.7l-0.1-0.1c-0.5-0.1-1-0.1-1.4-0.1c0,0,0.1,0,0.2,0c-0.8-0.1-1.6-0.1-2.4,0l-1.1,0.1c-0.4,0-0.7,0.1-1.1,0.1
		c0.1-0.1,0.1-0.1,0.9-0.2c-1.9,0.2-3.7,0.7-5.4,1.5l0.1-0.1l-1,0.5c0.2-0.1,0.1-0.1,0-0.1c-0.9,0.5-1.8,1-2.6,1.7
		c-0.4,0.3-0.7,0.6-1,0.9c-0.2,0.2-0.5,0.5-0.6,0.8c0.3-0.4-0.7,0.6,0.1-0.3c-1.5,1.7-2.7,3.6-3.5,5.8l0,0l-0.3,0.9v0.1l0.2-0.6
		c-0.1,0.4-0.3,0.8-0.4,1.2l-0.2,1.1c-0.1,0.3-0.2,0.5-0.3,0.8c0,0.5-0.1,0.9-0.2,1.4c-0.1,0.7-0.1,1.5-0.1,2.2c0,0.1,0-0.5-0.1-0.1
		c0,1.6,0.3,3.2,0.7,4.8c0.5,1.7,1.1,3.3,2,4.8c0.4,0.4,0.8,0.9,1.2,1.4c0.3,0.4,0.7,0.7,1,1.1s0.7,0.7,1.1,1
		c0.3,0.4-0.8-0.6-1.1-0.9c0.7,0.7,0,0.3,1.4,1.4l0,0c0.2,0.2-0.1-0.3,0.8,0.5v0.1c0.3,0.2,0.5,0.3,0.8,0.4c2.4,1.5,5.1,2.4,7.9,2.6
		c0.2,0,0.1-0.1-0.2-0.1c0.7,0,1.3,0,2,0s1.4-0.1,2.1-0.2l-0.4,0.1c0.8-0.1,1.5-0.2,2.3-0.4c0.5-0.2,1-0.3,1.9-0.7
		c-0.5,0.2-1,0.4-1.5,0.4c0.2-0.1,1.5-0.5,1.9-0.7h-0.1c0.8-0.3,1.5-0.7,2.3-1.1l-0.1,0.1c0.1-0.1,0.3-0.2,0.4-0.3l0,0
		c0.4-0.2,0.8-0.5,1.2-0.8c0.3-0.2,0.5-0.4,0.8-0.7l0,0c0.1-0.1,0.1-0.1,0.2-0.2s0.1-0.1,0.2-0.2l-0.9-0.9c-0.5,0.5-1.1,0.9-1.7,1.4
		c0.2-0.2,0.4-0.3,0.6-0.5c-1.8,1.3,0.1-0.2-1.2,0.7c-1.1,0.7-2.3,1.2-3.6,1.4c-1.8,0.6,0.7-0.1-0.4,0.3c-0.4,0.1-0.8,0.2-1.2,0.2
		c-0.1,0.1-0.3,0.1-0.4,0.2c-1.2,0.2-0.1-0.1-0.7,0c-0.9,0,0.3-0.1,0.5-0.2c-0.5,0.1-1.1,0.2-1.7,0.2c0,0,1.2-0.1,0.4-0.1
		c-1.1,0.1-2.2,0.1-3.2,0l-1.3-0.2l-1.6-0.4c0.1,0,0.2,0,0.2,0c-0.3-0.1-0.5-0.1-0.8-0.2h0.2c-0.6-0.2-1.2-0.4-1.7-0.7
		c-0.4-0.2-0.9-0.4-1.3-0.7c-0.4-0.2-0.8-0.5-1.2-0.8l0.7,0.5c-0.4-0.3-0.8-0.6-1.3-0.8c0.1,0,0.1,0,0.2,0c-0.4-0.3-0.8-0.6-1.2-1
		c-0.5-0.5-1-1.1-1.4-1.7h0.1c-0.2-0.2-0.4-0.5-0.5-0.7l0.2,0.2c-0.2-0.4-0.5-0.8-0.7-1.2s-0.4-0.9-0.6-1.4c0.2,0.6,0.4,0.7,0.4,0.6
		c-0.2-0.4-0.4-0.8-0.5-1.2c-0.2-0.4-0.3-0.8-0.4-1.2c0-0.1-0.2-1.2,0-0.4c-0.1-0.3-0.2-0.6-0.3-1l0.1,0.1c-0.3-1.9-0.3-3.9-0.1-5.8
		c0.2-1.9,0.8-3.8,1.9-5.5v0.1c0.4-0.7,0.8-1.4,1.2-2c0.3-0.3,0.4-0.4,0.9-0.9c-0.3,0.2,1-1,1.3-1.3c0.5-0.3,0,0.1-0.1,0.2
		c1.7-1.3,3.7-2.3,5.9-2.7c-0.8,0.1-1.6,0.3-2.3,0.6c-0.5,0.2-0.9,0.4-1.7,0.7c0.6-0.4,1.3-0.7,2-0.9c0.3-0.1,0.6-0.2,0.9-0.3
		l1.3-0.3l-1,0.3c1.2-0.3,2.4-0.4,3.6-0.4c1.3-0.1,2.7-0.1,4,0.2c-0.2,0-0.5,0-0.7,0c0.5,0.1,0.9,0.2,1.4,0.3v-0.1
		c0.3,0,0.5,0.1,0.7,0.3c1.2,0.3,2.3,0.8,3.4,1.5l0.1,0.1l0.3,0.1c0.2,0.2,1,0.9,1,1c-0.3-0.3-1.2-0.8-1.1-0.8
		c-0.5-0.3-0.2-0.1,0.2,0.3c0.5,0.3,0.9,0.7,1.3,1.1c-0.3-0.3-0.2-0.3-0.1-0.1l0.3,0.3l0.2,0.1l0.2,0.2c0.1,0.1-0.1-0.1-0.2-0.2
		l0.6,0.6l0.3,0.3c0,0,0,0.1,0.1,0l0.1-0.1l0.1-0.1l0.9-1L1516.4,512.6L1516.4,512.6z M1515,513.3L1515,513.3
		C1515.1,513.3,1515,513.3,1515,513.3L1515,513.3z M1513,510.1c0.1,0.2-0.3-0.1-0.7-0.3c-0.4-0.3-0.9-0.5-1.3-0.7
		c-0.1-0.1-0.7-0.6,1.1,0.4c-1.4-0.9-1-0.4-1.8-1l0,0l0.3,0.1C1511.3,509.1,1512.2,509.6,1513,510.1L1513,510.1z M1509.9,509.9
		L1509.9,509.9c0.2,0.1,0.4,0.2,0.7,0.3h0.1C1510.4,510.1,1510.2,510,1509.9,509.9L1509.9,509.9z M1509.6,509.7L1509.6,509.7
		C1509.5,509.7,1509.6,509.7,1509.6,509.7L1509.6,509.7z M1488.3,528.3c-0.1-0.4-0.2-0.8-0.2-1.2c0.1,0.4,0.1,0.6,0.1,0.4
		C1488.3,527.9,1488.4,528.2,1488.3,528.3L1488.3,528.3z M1500.1,540L1500.1,540h0.5H1500.1z M1498.6,539.7l0.9,0.1
		C1499.8,540,1498.8,539.8,1498.6,539.7L1498.6,539.7z M1505.3,540.1l1-0.1c-0.3,0-0.5,0.1-0.7,0.1c0.5,0,0.9-0.1,1.3-0.2
		c0.1-0.1,0.2-0.1,0.3-0.1c0,0-0.1,0.1-0.3,0.1c-0.1,0.1,0,0.2-1.4,0.4C1505.4,540.2,1505.8,540.2,1505.3,540.1L1505.3,540.1z
		 M1507.8,539.7L1507.8,539.7l-0.5,0.2L1507.8,539.7z M1488.4,532.2c-0.1-0.1-0.1-0.2-0.1-0.3C1488.3,532,1488.3,532.1,1488.4,532.2
		z M1492.5,511.1c0.1-0.1,0.1-0.2,0.2-0.2C1492.6,510.9,1492.6,511,1492.5,511.1L1492.5,511.1z M1513.3,512.1V512
		c0.2,0.2,0.5,0.4,0.7,0.6C1513.8,512.4,1513.5,512.2,1513.3,512.1L1513.3,512.1z M1508.9,509.6c0.1,0,0.3,0.1,0.4,0.1
		c0.4,0.1,0.9,0.3,1.3,0.5c-0.2-0.1-0.5-0.3-0.7-0.3c0,0.1-0.1,0-0.5-0.2L1508.9,509.6z M1507.5,509.5c0.1,0,0.3,0.1,0.6,0.2
		L1507.5,509.5z M1506.4,508.8c0.2,0,0.4,0.1,0.5,0.1C1506.8,508.9,1506.6,508.9,1506.4,508.8L1506.4,508.8L1506.4,508.8z
		 M1505.1,509c-0.2,0-0.4,0-0.7,0c0.2-0.1,0.8,0.1,1.7,0.2c0,0.1-1-0.1-1.3,0C1504.3,509,1504.9,509,1505.1,509L1505.1,509z
		 M1496.1,510.4c0.3-0.1,0.6-0.3,0.9-0.5c0.5-0.2,0.9-0.4,1.4-0.5l-0.8,0.3l0.2-0.1l-0.2,0.1c0.1-0.1-0.2,0-0.5,0.1L1496.1,510.4z
		 M1494.8,510.9L1494.8,510.9c0.1-0.1,0.2-0.1,0.2-0.2C1495,510.8,1494.9,510.8,1494.8,510.9L1494.8,510.9z M1490.2,516.5
		c0.2-0.5,0.4-0.9,0.7-1.3C1490.8,515.6,1490.5,516.1,1490.2,516.5L1490.2,516.5z M1489.4,518c0-0.1,0.4-1,0.2-0.7l-0.2,0.4
		c0.3-0.6,0-0.4,0.5-1.2c-0.1,0.2-0.2,0.3-0.3,0.5c0.3-0.6-0.3,0.9,0.2-0.1C1490.1,516.5,1489.7,517.6,1489.4,518L1489.4,518z
		 M1496.1,538.1c-0.4-0.1-0.7-0.3-1-0.6C1495.5,537.7,1496,538.1,1496.1,538.1L1496.1,538.1z M1497.5,538.6c-0.5-0.1-1-0.3-1.4-0.6
		C1496.5,538.2,1497,538.4,1497.5,538.6L1497.5,538.6z M1508.6,539.2c-0.3,0.1-0.5,0.2-0.8,0.3c0,0,0.1,0,0.1-0.1l0.4-0.2
		C1508.5,539.3,1508.5,539.2,1508.6,539.2L1508.6,539.2z M1514.5,537.2L1514.5,537.2L1514.5,537.2L1514.5,537.2L1514.5,537.2z
		 M1507.8,540.9c0.1,0,0.2-0.1,0.2-0.1c0.4-0.1,0.8-0.2,1.1-0.4C1508.8,540.6,1508.3,540.8,1507.8,540.9L1507.8,540.9z
		 M1504.3,541.5c0-0.1,0.2-0.1,0.3-0.1c1.1-0.1,2.1-0.3,3.2-0.5c-0.7,0.2-1.4,0.3-2.1,0.5c0.4-0.1,0.9-0.1,1.3-0.2
		C1506.1,541.3,1505.2,541.5,1504.3,541.5L1504.3,541.5z M1500.3,541.3c-0.6-0.1-1.3-0.2-1.9-0.4c0.3,0,0.9,0.1,1.5,0.3l1.9,0.2l0,0
		c0.2,0,0.4,0,0.7,0h-0.3c-0.4,0-0.7,0-1.1,0l0.4,0.1c-0.7,0-1.5-0.1-2.2-0.3C1499.1,541.1,1499.9,541.3,1500.3,541.3L1500.3,541.3z
		 M1496.8,540.2c-0.9-0.4-1.8-0.8-2.7-1.4c0.2,0.1,0.4,0.2,0.6,0.3c1,0.6,2.2,1.1,3.3,1.5C1497.6,540.5,1497.2,540.4,1496.8,540.2
		L1496.8,540.2z M1495.6,539.8l0.8,0.4l-0.5-0.1L1495.6,539.8z M1492.4,537.6c0.3,0.2,0.5,0.3,0.5,0.3c0.3,0.2,0.5,0.4,0.8,0.6
		c-0.1,0-0.2-0.1-0.3-0.1c0.1,0.1,0.2,0.1,0.2,0.2C1493.2,538.3,1492.8,538,1492.4,537.6z M1488.8,533.1l0.3,0.7l-0.3-0.5V533.1z
		 M1486.9,527.9c0,0.1,0.1,0.2,0.1,0.3c0.2,0.8,0.4,1.6,0.6,2.4c-0.1-0.2-0.2-0.4-0.3-0.7C1487.2,529.2,1487,528.5,1486.9,527.9
		L1486.9,527.9z M1486.7,523.5c0,0.1,0,0.2,0,0.3c-0.1,1.2,0,2.5,0.2,3.7c0,0.5-0.2-0.8-0.3-1.2c0.3,0.5-0.1-1.4,0-2.3
		c0,0.3,0,0.7,0.1,1c0-0.3,0-0.8,0-1.2C1486.7,523.7,1486.7,523.6,1486.7,523.5c0,0.1,0,0.2,0,0.3s0,0.1,0.1,0.1
		C1486.7,523.7,1486.7,523.6,1486.7,523.5L1486.7,523.5z M1487.2,520c-0.1,0.5-0.2,1.1-0.3,1.7c0-0.1,0-0.3,0-0.4
		C1486.9,520.8,1487,520.4,1487.2,520L1487.2,520z M1490,513l-0.3,0.4c0.1-0.1,0.4-0.5-0.2,0.4l0.2-0.4
		C1489.7,513.5,1489.7,513.4,1490,513L1490,513z M1491.3,511.8c-0.1,0.1-1,1.1-1.3,1.5C1490.4,512.7,1490.8,512.2,1491.3,511.8
		L1491.3,511.8z M1491.9,511.5L1491.9,511.5c0-0.1-0.3,0.2,0.2-0.3C1492.2,511.2,1492.1,511.3,1491.9,511.5L1491.9,511.5z
		 M1494.9,509.2L1494.9,509.2L1494.9,509.2L1494.9,509.2z M1499,507.5c-0.9,0.3-0.9,0.4-2.1,0.9h-0.3c0.4-0.1,0.7-0.2,1.1-0.3
		C1497.5,508,1497.8,507.7,1499,507.5L1499,507.5z M1500,507.2c-0.5,0.2-1,0.3-1.5,0.3c-0.2,0-0.3,0.1-0.5,0.1
		c0.2-0.1,0.3-0.1,0.5-0.1C1499,507.4,1499.5,507.2,1500,507.2L1500,507.2z M1515.5,512.3c-0.2-0.2-0.4-0.4-0.7-0.7
		c0.1,0.1,0.3,0.3,0.4,0.4L1515.5,512.3z"/>
	<path id="Path_79" class="st0" d="M1524.9,541.8h-0.7C1524.4,541.8,1524.7,541.8,1524.9,541.8z"/>
	<path id="Path_80" class="st0" d="M1603.1,512.2L1603.1,512.2C1603.2,512.4,1603.1,512.3,1603.1,512.2z"/>
	<path id="Path_81" class="st0" d="M1525.4,530.5L1525.4,530.5C1525.4,530.4,1525.4,530.4,1525.4,530.5z"/>
	<path id="Path_82" class="st0" d="M1525.5,527.5c0,0.1-0.1,0.2-0.1,0.3C1525.5,527.9,1525.5,527.8,1525.5,527.5z"/>
	<path id="Path_83" class="st0" d="M1674.3,510.6L1674.3,510.6l0.1-0.2L1674.3,510.6z"/>
	<path id="Path_84" class="st0" d="M1640.5,521.6L1640.5,521.6L1640.5,521.6L1640.5,521.6z"/>
	<path id="Path_85" class="st0" d="M1640.5,531.5L1640.5,531.5L1640.5,531.5z"/>
	<path id="Path_86" class="st0" d="M1641,505.3L1641,505.3C1641,505.4,1641,505.4,1641,505.3z"/>
	<path id="Path_87" class="st0" d="M1638.2,510.8c0-0.1,0.1-0.2,0.1-0.2C1638.3,510.6,1638.2,510.6,1638.2,510.8z"/>
	<path id="Path_88" class="st0" d="M1601.1,503.4L1601.1,503.4h0.3H1601.1z"/>
	<path id="Path_89" class="st0" d="M1704.2,500L1704.2,500C1704,499.9,1704,499.9,1704.2,500z"/>
	<path id="Path_91" class="st0" d="M1630.3,538.5l-0.5-0.6l-0.4-0.5c0.2,0.2,0.3,0.5,0.5,0.7c0,0.1,0.1,0.1,0.1,0.2l-0.7-1
		c0,0,0-0.1,0,0h-0.1l-0.1,0.1l-0.2,0.2c-0.1,0.1-0.3,0.3-0.5,0.3c-0.4,0.3-0.9,0.6-1.4,0.8c0.1,0,0.1,0,0.1,0
		c-0.3,0.1-0.6,0.3-0.9,0.3v0.1c-0.7,0.2-1.3,0.4-2,0.4c-0.3,0.1-0.7,0.1-1,0.1c-0.5,0-0.9-0.1-1.4-0.2c-0.3-0.1,0.6,0.2-0.2,0
		c-0.1-0.2-1-0.4-1-0.6c-0.2-0.1-0.4-0.2-0.6-0.4l-0.1-0.2c-0.6-0.3-0.6-0.7-1.1-1.5v0.1c-0.1-0.3-0.4-0.9-0.1-0.4
		c-0.2-0.4-0.6-2.1-0.5-1.3c0.1,0.3,0.2,0.6,0.3,0.9c-0.1,0-0.3-0.7-0.4-0.9c0,0,0-0.1,0-0.2l-0.1-0.1c-0.1-0.9-0.2-1.8-0.1-2.7
		c0-0.2-0.1-0.4,0-0.6h0.1v-1.1l-0.1,0.5c0-1.2,0.1-2,0.2-3c-0.2-0.2,0.1-1.9-0.1-2.7v0.8c0-1.6-0.1-1.9,0-3.4
		c0.1,1.3,0,1.3,0.2,3.1c-0.1-1.9,0.1-3.2,0-4.9c0,0.1-0.1,0.5-0.1,0.1c0.1-0.3,0-1.6,0.1-1.4c0-0.5-0.1-0.6-0.1-0.9l0.1-1.8v0.1
		c-0.1-1.3-0.1-2.7,0-4l0.1-2c0-0.5,0-1.2,0-1.4l0,0v-0.1c0,0,0.2,0,0.3,0h0.4c-0.6-0.1,0.3-0.1,0.3-0.1l1.9,0.1
		c0,0-0.1-0.1-0.5-0.1c0.7-0.1,1.5,0.1,2.1,0.1h-0.2h0.6v-0.1c0.9,0,1.9,0,2.8,0.1l-0.1-0.1l1.1,0.1l-0.6-0.1c0.6,0,1.3,0,1.9,0h2
		V509v0.2c0-0.4,0-0.7,0-1.1l-0.1,0.3v-1.5h-1.4h-0.8c-0.6,0-1.2,0-2.1,0c-0.6,0,0.3,0,0.3,0c-0.4,0-0.8,0-1.2,0
		c0.2,0.1,1.1,0.1,0.4,0.1c-0.5,0,0.3,0.1-0.5,0.1l-0.3-0.1c-0.5,0-0.1,0.1-0.9,0.1c-0.9-0.1,1.1-0.1-0.3-0.1
		c-0.9,0.1-1.9,0.2-2.8,0.2c-1.2,0.1,0.6,0.2-1,0.2h0.5h-1.2h-0.1h0.1h-2.6v0.3c0,0.5,0,1.5,0,2.1v0.4v0.1l0,0v1.5v-0.1
		c0.1,0.5,0.1,1,0,1.4c-0.1-0.5-0.1-1,0-1.5c0,1.9-0.2,1.9-0.1,3.5v-0.3c0.1,1-0.1,2,0,2.9c0-0.2-0.1-0.3-0.1-0.2
		c0.1,1.9,0,3.8,0.1,6l-0.1,0.7h0.1c0,1-0.1,0.4-0.1,0.8v-0.1c-0.1,1.2,0.1,0.7,0,1.4c0.1-0.3,0-1.3,0.1-1c0,1.1-0.1,2.2-0.2,3.3
		c0,1.2,0,2.4,0,3.7c0,1.2,0.1,2.3,0.4,3.5c0.1,0.3,0-0.2,0-0.1c0.1,0.5,0.3,1.1,0.5,1.5c0.2,0.3,0.3,0.6,0.5,0.9
		c0.1,0.2,0.3,0.3,0.5,0.5c0.3,0.5,0.7,1,1.2,1.4l-0.3-0.3h0.1c0.2,0.2,0.3,0.3,0.5,0.5l0,0c1.4,0.9,3,1.4,4.7,1.4
		c-0.8,0,0.2-0.1-0.2-0.1c1.3,0.1,2.7-0.1,3.9-0.7c0,0,0.1-0.1-0.1-0.1c0.3-0.1,0.5-0.2,0.8-0.3h-0.1c0.7-0.3,1.4-0.7,2-1.1l0.7-0.5
		l0.2-0.1c0-0.1-0.1-0.1-0.1-0.2L1630.3,538.5z M1622.9,540c0.2,0,0.4,0,0.6,0C1623.3,540.1,1623.1,540.1,1622.9,540
		c-0.1,0-0.3,0-0.9,0c1.4,0.1,0.9,0.2,0.8,0.3c-0.1,0-0.7-0.1-1.1-0.2c-0.4-0.1-0.6-0.2-0.5-0.3C1621.7,539.9,1622.3,540,1622.9,540
		L1622.9,540z M1617.5,524.3l-0.1,0.2L1617.5,524.3l-0.1,0.7c0-0.6,0-1.3,0.1-1.9C1617.5,523.4,1617.3,524.5,1617.5,524.3
		L1617.5,524.3z M1617.4,532.6c0,0.1,0,0.2,0,0.3c0,0.3,0,0.4,0,0.4c0,0.2,0,0.4,0,0.6c-0.1-0.3-0.1-0.7,0-1V532.6z M1617.2,531.3
		v-0.5c0-0.1,0-0.1,0.1,0C1617.2,530.9,1617.2,531.1,1617.2,531.3L1617.2,531.3z M1617.2,522.3v-0.2l0,0
		C1617.2,522.1,1617.2,522.2,1617.2,522.3L1617.2,522.3z M1617.3,533.9L1617.3,533.9c0-0.2,0-0.4-0.1-0.6
		C1617.3,533.5,1617.3,533.7,1617.3,533.9L1617.3,533.9z M1617.4,516.2v0.4c-0.1-0.7,0.1-0.5,0.1-1v0.3c0.1,0.3,0-0.5,0.1-0.6
		c0,0.4,0,1.2,0,0.9C1617.5,515.5,1617.5,516.7,1617.4,516.2L1617.4,516.2z M1624.5,507.9c0.2,0,0.5,0,0.7,0
		c-0.4,0.1-0.1,0.1-0.1,0.2c-1,0-0.9-0.1-1-0.1s-0.2,0-0.2-0.1c0.1,0,0.2,0,0.2,0.1c0.3,0,0.6,0,1,0
		C1624.9,507.9,1624.7,507.8,1624.5,507.9L1624.5,507.9z M1628.6,507.7h0.3v0.1C1628.8,507.8,1628.7,507.8,1628.6,507.7
		L1628.6,507.7z M1629,508.4c0-0.1,0-0.2,0-0.3c0-0.1,0-0.2,0.1-0.2L1629,508.4z M1623.4,508v-0.1l0.4,0.1H1623.4z M1619.7,539
		c-0.1-0.1-0.2-0.2-0.3-0.3C1619.5,538.8,1619.6,538.9,1619.7,539L1619.7,539z M1619.3,538.6c-0.2-0.2-0.4-0.4-0.6-0.6
		C1618.9,538.2,1619.1,538.4,1619.3,538.6L1619.3,538.6z M1617.9,536.2c0,0.3,0.1,0.5,0.2,0.7c-0.1-0.3-0.2-0.5-0.3-0.8
		C1617.8,536.1,1617.9,536.1,1617.9,536.2L1617.9,536.2z M1617.7,531.6v0.5C1617.7,531.8,1617.7,531.6,1617.7,531.6L1617.7,531.6z
		 M1617.7,529.5c0,0.3-0.1,0.7-0.1,1c0.1-0.6-0.1-1.1,0-1.2c0,0.2,0,0.3,0,0.5C1617.7,529.7,1617.7,529.2,1617.7,529.5L1617.7,529.5
		z M1617.6,517.8c0-0.4,0-0.7,0-1.1C1617.7,517.1,1617.7,517.5,1617.6,517.8L1617.6,517.8z M1617.8,509.1c0.1,0,0-0.1-0.3-0.1h0.9
		C1618.4,509.1,1618.1,509.1,1617.8,509.1L1617.8,509.1z M1627,509.4c0.3,0,0.6,0,0.9,0C1627.5,509.4,1627.3,509.4,1627,509.4
		L1627,509.4z M1628.5,509.5c-0.1,0-0.1,0-0.2,0c-0.2,0-0.4-0.1-0.6-0.1C1628,509.4,1628.2,509.4,1628.5,509.5L1628.5,509.5
		c0.2,0,0.4,0,0.5,0C1628.8,509.5,1628.6,509.5,1628.5,509.5L1628.5,509.5z M1622.9,507.7h0.3c0.1,0,0.1,0,0.1,0H1622.9
		C1622.7,507.7,1622.8,507.7,1622.9,507.7L1622.9,507.7z M1615.9,523.4c0,0.4-0.1,0.7,0,1.1v-0.2v0.7c0,0,0,0.2,0,0.4
		c0-1.5,0-3.1,0-4.6V523.4z M1615.9,513v0.5c0,0.1,0,0.1,0,0.2C1615.9,513.4,1615.9,513.2,1615.9,513L1615.9,513z M1615.9,514.2v1
		c0-0.4,0-0.9,0-1.2v2.1c0,0.1,0,0.2-0.1,0.2C1615.8,515.6,1615.8,514.9,1615.9,514.2L1615.9,514.2z M1615.8,518.4v0.3
		c0-0.3,0-0.7,0.1-1v0.5l0,0c0,0.8,0,1.6-0.1,2.4c-0.1-0.5,0.1-1.2,0.1-1.4c0,0.3,0,0.8-0.1,0.8
		C1615.7,519.4,1615.7,518.9,1615.8,518.4L1615.8,518.4z M1615.8,522.6l-0.1-0.3l0.1-0.3V522.6z M1615.8,529v0.5v-0.2V529z
		 M1615.9,531.6v0.4c0,0.5,0,1,0.1,1.4c0,0.1,0,0.2,0,0.2C1615.8,532.9,1615.8,532.2,1615.9,531.6L1615.9,531.6z M1616.5,536.4
		C1616.4,536.4,1616.4,536.4,1616.5,536.4c0,0.1,0,0.2,0,0.3C1616.4,536.7,1616.4,536.6,1616.5,536.4c-0.1-0.2-0.2-0.6-0.3-0.8
		c0,0.2,0.1,0.5,0.1,0.7c-0.1-0.4-0.2-0.8-0.3-1.2c0-0.4-0.1-0.6-0.2-0.4c0-0.3,0-1.2,0-0.9C1616,534.7,1616.2,535.6,1616.5,536.4
		c0,0.1,0.1,0.1,0.1,0.2C1616.5,536.6,1616.5,536.5,1616.5,536.4L1616.5,536.4z M1617.2,538.1c0-0.1-0.1-0.1-0.1-0.2
		c0.2,0.3,0.4,0.7,0.6,1C1617.5,538.6,1617.3,538.4,1617.2,538.1L1617.2,538.1z M1621.9,541.6l-0.3-0.1
		C1622.4,541.6,1622,541.6,1621.9,541.6l0.4,0.1C1621.9,541.6,1621.9,541.6,1621.9,541.6L1621.9,541.6z M1622.2,541.5
		c0.5,0,0.9,0,1.4,0C1623.1,541.6,1622.6,541.6,1622.2,541.5L1622.2,541.5z M1624.3,541.3c-0.5,0-0.2,0-0.3,0l0,0
		C1624.2,541.3,1624.4,541.3,1624.3,541.3L1624.3,541.3z M1626.7,540.8L1626.7,540.8L1626.7,540.8L1626.7,540.8z M1628.7,539.8
		c-0.2,0.1-0.5,0.2-0.7,0.4l0.1-0.2c0.8-0.4,0.8-0.3,1.5-0.7C1628.9,540,1628.6,539.9,1628.7,539.8L1628.7,539.8z M1630.2,539.1
		l-0.3,0.2l-0.5,0.4c0.1-0.1,0.1-0.1,0.2-0.2l0.2-0.2c0.1-0.1,0.2-0.1,0.3-0.2c0.1-0.1,0.4-0.1,0.2-0.3c0,0,0.1,0.1,0.1,0.2
		L1630.2,539.1z"/>
	<path id="Path_92" class="st0" d="M1640.6,511.5v0.3C1640.6,511.7,1640.6,511.6,1640.6,511.5z"/>
	<path id="Path_93" class="st0" d="M1640.2,541L1640.2,541v-0.3V541z"/>
	<path id="Path_95" class="st0" d="M1643.2,506.2L1643.2,506.2C1643.2,506.3,1643.2,506.3,1643.2,506.2L1643.2,506.2z"/>
	<path id="Path_96" class="st0" d="M1640.3,541.5L1640.3,541.5L1640.3,541.5v-0.7C1640.3,541,1640.3,541.3,1640.3,541.5z"/>
</g>
<g>
	<path class="st1" d="M90.2,25.3c-8.2,0-13.6,1.4-19.2,4c-3.4,1.6-4.9,5.6-3.3,9c0.1,0.2,0.2,0.4,0.3,0.5l1.7,2.9
		c5.9-4,11.9-6.1,17.6-6.1c9.4,0,14.3,4.5,14.3,12v1.8H83.5C69.2,49.6,61,56.6,61,67.5C61,78,69.1,86,82,86c8.6,0,15.5-2.6,19.7-7.9
		v1c0,3.5,2.8,6.3,6.3,6.3h6.3l-0.1-39.2C114.2,33.1,105.5,25.3,90.2,25.3z M101.6,64.4c-0.7,6.5-7.7,11.3-16.9,11.3
		c-7.2,0-11.6-3.5-11.6-8.9c0-5.7,3.9-8,12.3-8h16.2C101.6,58.8,101.6,64.4,101.6,64.4z"/>
	<path class="st1" d="M302.4,9.9v75.5h6.5c3.6,0,6.5-2.9,6.5-6.5V2.2h-5.2C305.9,2.2,302.4,5.6,302.4,9.9z"/>
	<path class="st1" d="M47.3,71.2c-4.1,2.5-8.7,3.7-13.5,3.6c-10.3,0-17.7-7.7-17.7-19.1s7.4-19.1,17.7-19.1
		c6.4-0.3,12.6,2.2,17.1,6.7L58,35c-5.5-6.3-13.9-9.8-24.7-9.8c-17.7,0-30.1,12.3-30.1,30.4c0,18,12.3,30.2,30.1,30.2
		c11.3,0,20-4,25.4-11.1L56,72C53.6,69.8,50,69.4,47.3,71.2z"/>
	<path class="st1" d="M163.6,34.9h0.4c-0.1,1.6-0.4,3.1-0.8,4.7c0,0.2,0,0.3-0.1,0.5v0.1l-0.4,4.4c3.8,0.2,7.6,0.5,11.2,0.9
		c-0.1,0.8-0.8,2-0.3,2.5c1.7,1.2,5,2,6.3,3.1c-1.3-11.2-7.4-19.6-16.4-23.5L163.6,34.9z"/>
	<path class="st1" d="M176.2,62.4c0.9,0.5,2,0.7,3.2,0.9c0.5-2.3,0.7-4.8,0.7-7.4c0-1.2-0.1-2.4-0.2-3.5c-1.3,0.5-6.2,0.4-5.8,1.2
		c-1.8-0.2-4.7-0.1-3,0.9c0.5,0.9,2.9,0.3,3.4,1.6s-0.8,2.4-0.4,3.7l2.3,0.2C177,60.8,175.7,62.3,176.2,62.4z"/>
	<path class="st1" d="M348.3,25.3c-17.7,0.1-30.2,12.3-30.2,30.4c0,18,12.1,30.2,30.5,30.2c10.3,0,18.9-3.7,24.7-10.1l-3.6-3.8
		c-1.7-1.8-4.5-2.1-6.6-0.7c-4,2.7-8.7,4.2-13.5,4.2c-9.4,0-16.5-5.7-18.5-14.9h45.1C377.8,39,369.3,25.3,348.3,25.3z M330.9,51.1
		c1.5-9.5,8.1-15.5,17.5-15.5c9.8,0,16.2,5.8,16.6,15.5H330.9z"/>
	<path class="st1" d="M271.1,25.3c-9.3,0-16.5,3.8-20.9,10.8V2.2h-5.6c-4,0-7.3,3.3-7.3,7.3v76h6.5c3.6,0,6.5-2.9,6.5-6.5v-3.9
		c4.4,7,11.6,10.8,21.1,10.8c17.1,0,28.3-12.2,28.3-30.1C299.6,37.6,288,25.3,271.1,25.3z M268.4,74.9c-10.7,0-18.2-8-18.2-19.5
		c0-11.2,7.5-19.3,18.2-19.3c10.7,0,18.2,8.2,18.2,19.3C286.6,66.8,279.1,74.9,268.4,74.9z"/>
	<path class="st1" d="M154.3,85.4c-1-2.3-3.9-2.5-6.4-2.2c-0.8,0.1-0.5-1.4-0.2-2.4c-3.2,1.4-4-2-7.1-1.1c0.4-1.5,1.3-3.6,1.3-5.1
		c-0.3-1-0.7-2-1.3-2.8c-0.3-1.3,0.4-7.5,0.2-9.1c-7-0.6-14-1.5-20.9-2.6c-2.3-0.7-0.4-2.1,1.5-3.2c-0.6,0.3-0.5-0.9-1.1-0.5
		c0.4-1.9,2-3.2,3.9-3.3l-1.8-0.2c-0.5-0.5,0.1-1.2,0.2-2.1c0.6,0.1,1.2,0.1,1.2-0.3l0.2-1.6l-2.3-0.2c0.8,0.1,1.6,0.2,1-1l0.3-0.9
		c1.2-0.3,2.9,0.7,4.1,0.4l0.1-1.2c-1.1-0.5-2.9-0.3-4.1-0.4c0.6-0.3,0.7-0.8,0.8-1.6c1.8-0.2,3.4,1.2,5.3,0.1l-1.7-0.2
		c1.4-1.9,4.1,0,5.9-0.2c2.1-0.3,7.8,0.3,10,0.5c0.1-1-0.4-1.1-0.2-2c3.7,0.7,0.9-1.3,1.1-1.6c0-0.1,0-0.1,0-0.2l0.6-11.4l11.8-3.3
		c-1.6-0.2-3.2-0.4-4.9-0.4c-9.3,0-16.5,3.8-20.9,10.8v-3.9c0-3.6-2.9-6.5-6.4-6.5l0,0H118V100c0,4.5,3.6,8.1,8.1,8.1h4.8v-33
		c4.4,7,11.6,10.8,21.1,10.8c0.8,0,1.6,0,2.5-0.1C154.3,85.7,154.3,85.5,154.3,85.4z"/>
	<path class="st1" d="M210.9,25.3c-8.3,0-13.7,1.4-19.3,4c-3.3,1.6-4.7,5.5-3.2,8.8c0.1,0.2,0.2,0.3,0.3,0.5l1.8,3.1
		c5.9-4,11.9-6.1,17.6-6.1c9.4,0,14.2,4.5,14.2,12v1.8h-18.1c-12.5,0.1-20.3,5.4-22.1,13.9c0.1,0,0.3,0,0.4,0
		c-0.1,0.8,0.4,1.7-0.8,2c-0.1,0.7-0.1,1.3-0.1,2c0,10.5,8.1,18.5,21,18.5c8.6,0,15.5-2.6,19.8-7.9v1c0,3.5,2.8,6.3,6.3,6.3h6.3
		L234.9,46C235,33.1,226.3,25.3,210.9,25.3z M222.4,64.4c-0.7,6.5-7.7,11.3-16.9,11.3c-7.2,0-11.6-3.5-11.6-8.9c0-5.7,3.9-8,12.3-8
		h16.2V64.4z"/>
	<path class="st1" d="M158.7,64.1c-0.1,1.1-0.2,2.2-0.1,3.3c-1.6,7.8-0.1,11.3-1.9,18.1c11.3-1.7,19.3-9.2,22.2-20.2
		C172.2,64.9,165.5,64.5,158.7,64.1z"/>
</g>
</svg>
