<svg xmlns="http://www.w3.org/2000/svg" width="182.148" height="28.326" viewBox="0 0 182.148 28.326"><g transform="translate(0)"><path d="M108.2,127.237a1.125,1.125,0,0,1,.079-.561l-.022-.278-.437.032a.771.771,0,0,0-.129-.072,2.775,2.775,0,0,1-.36.045,2.379,2.379,0,0,1-.29,0c-.218-.012-.442-.045-.742-.057-.007.149-.01.333,0,.549.015-.042.02-.139.032-.087l-.025.539c0,.06-.007.072-.015.072s-.015,0-.022-.161l-.007.7c0,.211.012.34.05.132-.04.03,0-.348.01-.511.062.02.037.427.107.529a.8.8,0,0,0-.03.107l.04.057c-.07.509-.02,1.025-.109,1.4a.588.588,0,0,1,.03.286l-.077.007,0,.541.112-.253a14.8,14.8,0,0,1-.124,1.5c.129.127-.05.951.067,1.375l.035-.382c-.025.814.055.943.01,1.7-.045-.643-.017-.648-.124-1.586.055.943-.074,1.629,0,2.49.03-.057.05-.273.082-.062-.067.169,0,.812-.077.685.027.266.1.313.112.477l-.1.9.017-.027c.181,1.529-.124,2.852-.045,4.387l.04-.03-.06.382c.04-.3.052.132.087.154l-.089.983c.037.022.119-.035.1-.276a7.945,7.945,0,0,1-.05,1.082l.035-.112-.03.328.052,0a9.26,9.26,0,0,1-.052,1.413l.082-.065-.065.576.055-.33c.017.645-.047,1.626-.045,1.763l.03-.057a1.2,1.2,0,0,1-.015.3l.047-.084c-.012.973.092,1.239.042,2.324.012.3.015-.164.042-.169a2.1,2.1,0,0,1-.02.626c.075-.087.052-.544.109-.2-.035.246.067-.169.052.266l-.092.169c.015.243.072.05.065.432-.042.434-.107-.534-.122.169a6.982,6.982,0,0,1,.166,1.423c.05.588.146-.31.122.5l.032-.268v.633l0,.037,0-.037v.626h.124a6.511,6.511,0,0,0,.941,0l0-.151v-.179l0-.05c0-.01,0,0,0,0v-.765l.035.032a2.1,2.1,0,0,1,0-.73c.072.045.027.536.032.752a14.573,14.573,0,0,0,.1-1.765l-.025.137a11.055,11.055,0,0,1,.037-1.452c.017.124.05.149.062.089-.065-.968-.015-1.919-.055-3.024l.082-.333-.062-.02c-.025-.487.065-.2.079-.39a.083.083,0,0,1-.025.06c.072-.626-.057-.348-.037-.7-.067.169-.025.678-.114.521.072-.626.032-1.6.184-1.691-.062-1.159.035-2.6.047-3.575-.027-.134-.022.082-.042.032.087-.387-.062-1.3.017-1.3a.888.888,0,0,0-.1-.315,7.61,7.61,0,0,0,.065-.859l-.02.231-.012-.025.032-.328,0,.012c.022-.782,0-1.688.087-2.4-.052.41-.094-.1-.127.089a7.728,7.728,0,0,0,.114-1.929c-.025,0-.045-.052-.067.032l.052-.407-.032.052c-.022-.727.117-1.522.057-2-.015.3-.04.3-.082.328,0-.521,0-1.015.042-1.624-.007.032-.017.052-.027.055a3.636,3.636,0,0,1,.035-.516l-.062-.022c.03-.313,0-.715.047-1.087-.07-.144.065-.9.035-1.326.015-.164-.072.357-.067-.1a.162.162,0,0,0,.06-.122A2.011,2.011,0,0,0,108.2,127.237Zm-1.83,2.738,0-.233C106.388,129.864,106.42,129.951,106.373,129.975Zm.407-1.09v-.107l.01.025-.01.34ZM106.8,148.5l.015-.164.077-.007Zm.139-.39.057-.333C107,147.862,106.984,148.215,106.942,148.111Zm-.015,2.681a1.656,1.656,0,0,0,0-.489c-.04.03-.015.161-.025.273a2,2,0,0,1-.017-.38c.074.186.074.05.137.072.04.494-.04.472-.1.524-.012.065-.03.107-.05.109A.153.153,0,0,1,106.927,150.792Zm.879-22.852c0,.715-.089.437-.149.407.079-.137.042-.948.184-.814v.911c0,.084,0,.169,0,.251C107.691,128.327,107.865,128.558,107.805,127.94Zm-1.025,6.83-.012.017.012-.107Zm.154,16.343.084-.194,0,.216Zm.189,3.108-.012.015v-.015Zm.717-6.8a1.975,1.975,0,0,0,.035-.576l-.035.1V146.6a1.5,1.5,0,0,0,.04-.211c.03.75,0,1.547-.04,2.336Zm.027-3.145.032.079,0,.189Zm-.027-1.02v-.874l.022-.137A2.646,2.646,0,0,1,107.84,143.255Zm0-3.885a3,3,0,0,1,.025.469c-.01.042-.015.1-.025.144Zm0-3.567v-.012c.015-.1.037-.179.065-.146C107.882,135.9,107.858,135.765,107.84,135.8Zm.074-2.488c-.042.3.017.241.027.4l-.07-.1a3.538,3.538,0,0,1,.166-.8C108.076,133.248,107.962,133.364,107.915,133.315Zm-1.135-6.067v.4c-.02-.015-.04-.012-.072-.055A1.464,1.464,0,0,0,106.78,127.247Zm-.174,6.336,0,.077.032-.325a3.032,3.032,0,0,1-.077.953c0-.191.119-.715-.007-.623ZM106.38,131c.037-.114.045-.492.1-.5-.055.328.092.561-.017.623a1.194,1.194,0,0,0,.007-.243C106.438,130.944,106.39,131.165,106.38,131Zm.079,5.926c-.037.253.057.355-.035.561A.915.915,0,0,1,106.46,136.929Zm-.074,10.33c-.047-.318.052-.273.067-.574C106.507,147.088,106.4,147.016,106.385,147.259Zm.114-.521a1.49,1.49,0,0,1-.012-.432A1.125,1.125,0,0,1,106.5,146.738Zm-.03-8.6c-.022-.189.017-.626.03-.464.027.4.082-.2.109.072l0-.214c.057.345-.062.246-.047.489l-.01-.161C106.495,137.731,106.51,138.108,106.47,138.138Zm.214-8.831c0-.169-.01-.218.04-.2.022-.082,0-.216.015-.3C106.783,129.139,106.7,129.117,106.683,129.308Zm.1.807v.271c-.012.037-.032.042-.057-.007A.474.474,0,0,0,106.78,130.115Zm-.055,11.546c.01.07.04-.022.055-.159v.464C106.753,141.949,106.76,141.8,106.726,141.661Zm.017,9.709.015-.161c.007-.03.015-.04.022-.045v.278C106.768,151.467,106.755,151.455,106.743,151.37Zm.253,2.85Zm.184,0h.047l0,.037C107.207,154.27,107.195,154.243,107.18,154.22Zm.66-1.576V152.4a.2.2,0,0,0,.02-.084C107.85,152.418,107.845,152.532,107.84,152.644Zm.035-.631,0-.489c-.015.211-.022.4-.03.586v-1c.015-.04.03-.094.065-.1A6.476,6.476,0,0,1,107.875,152.013Zm.077-2.093-.025-.132a2.525,2.525,0,0,1-.087.506v-.238l.01.01a5.616,5.616,0,0,1,.1-1.226,4.856,4.856,0,0,1-.04.705c.025-.134.025-.4.077-.41A2.766,2.766,0,0,1,107.952,149.921Zm.032-2-.067.169,0-.325Zm-.07-5.809a10.875,10.875,0,0,0-.05-1.346.19.19,0,0,1-.022-.112.716.716,0,0,1,.022.112c.012.017.03.007.045-.022a1.848,1.848,0,0,0,.012.447,3.259,3.259,0,0,0,.045-.357c.074.32-.146,1.043.067.837C108.007,141.8,107.952,142.267,107.915,142.108Zm.124-5.395c0-.216-.017-.782-.012-.705A2.252,2.252,0,0,1,108.039,136.713Zm.079.117.03-.181c0,.179-.015.2-.03.181l-.027.149C108.061,136.589,108.091,136.79,108.118,136.83Zm-.045-4.394.037.549C108.074,132.773,107.972,132.731,108.074,132.436Z" transform="translate(15.372 -126.319)" fill="#fff"/><path d="M101.186,140.537l-.02-.69c-.015-.328,0-.673-.037-1.03,0,.079,0,.129-.01.132-.057-.372-.082-.824-.114-1.209l-.07-.042a20.346,20.346,0,0,0-.571-2.493c-.067-.159-.258-.65-.474-1.229a6.755,6.755,0,0,0-.395-.866,5.926,5.926,0,0,0-.422-.762c-.2-.333.4.742-.194-.166a2.13,2.13,0,0,0-.372-.685c-.206-.278-.427-.534-.395-.616a7.015,7.015,0,0,0-.678-.68l-.1-.2a8.2,8.2,0,0,1-.814-.712,5.359,5.359,0,0,0-1.087-.857c.045.05.154.122.094.1-.323-.221-1.092-.715-.474-.37a12.923,12.923,0,0,0-1.375-.727c-.472-.2-.77-.278-.315-.077a5.647,5.647,0,0,1,1.11.531c-.079.042-.931-.439-1.189-.437l-.226-.114-.144-.01a15.375,15.375,0,0,0-3.2-.859,6.268,6.268,0,0,1-.68-.012l-.012-.079a10.189,10.189,0,0,0-1.291-.02,5.673,5.673,0,0,1,.6.1,17.842,17.842,0,0,0-3.553.266,16.031,16.031,0,0,0-3.059,1.192l.837-.36c-.439.206-.789.365-1.08.519l-.745.469a5.966,5.966,0,0,0-.7.494c-.171.142-.377.276-.6.449a12.362,12.362,0,0,1,2.825-1.914,12.682,12.682,0,0,0-4.7,3.627c.114-.087.472-.462.164-.062-.338.246-1.14,1.574-1.038,1.271-.3.571-.29.705-.474,1.048-.2.3-.33.633-.5.948a7.071,7.071,0,0,0-.432.983l.037-.057a20.527,20.527,0,0,0-.849,5.122,14.2,14.2,0,0,0,.755,5.154l.017-.082c.062.213.114.432.176.648.01-.035.256.516.305.541a13.749,13.749,0,0,0,1.025,2.118c.065.02.035-.127-.256-.621.223.385.489.752.73,1.12a7.049,7.049,0,0,0,.755,1l-.149-.226.494.613.032-.045a18.382,18.382,0,0,0,2.612,2.135l-.087-.151.571.385c.194.122.4.221.6.333a7.7,7.7,0,0,1-.675-.4c.333.191.737.357,1.13.559s.827.32,1.207.474c.772.263,1.43.4,1.586.452l-.129-.062.7.129-.191-.074a13.411,13.411,0,0,0,2.644.179,22.232,22.232,0,0,0,2.825-.278c.685-.139-.382.055-.4.025.372-.089,1.254-.241,1.445-.281-.213-.01-1.259.231-.474,0,.571-.1-.395.035.591-.2l.41-.015c.534-.2.092-.094.936-.387.973-.333-1.137.551.415-.032a20.078,20.078,0,0,0,2.83-1.773c1.05-.881-.631.355.837-.832-.151.122-.315.226-.469.343.268-.218.524-.447.772-.683.119-.1.241-.209.35-.323-.117.107-.194.176-.256.231.154-.151.32-.293.467-.454l-.717-.715,0,0,0,0-.027-.027c-.094.107-.206.2-.305.3l-.007.007-.119.119c-.159.149-.338.32-.539.5-.119.1-.243.209-.367.31l-.082.065c-.211.169-.42.325-.6.454a11.65,11.65,0,0,1-2.1,1.137l.047-.052a3.594,3.594,0,0,1-.444.206c-.246.094-.492.181-.745.263a1.892,1.892,0,0,1-.395.087c.087-.084,1.172-.395,1.619-.611a9.713,9.713,0,0,1-2.056.611c-.5.087-.953.179-1.862.31l.31-.01a12.706,12.706,0,0,1-3.312.042c.283,0,.34-.032.211-.052a10.98,10.98,0,0,1-3.242-.643,12.873,12.873,0,0,1-1.584-.685,13.819,13.819,0,0,1-1.527-.986,5.445,5.445,0,0,1-.529-.541l-.074.015c-.906-.824-.151-.226-.69-.794.194.226.151.194.184.246a5.527,5.527,0,0,0-.673-.767,1.18,1.18,0,0,1-.367-.422c.134.375.976,1.189.66.991a12.382,12.382,0,0,1-1.353-1.959,3.7,3.7,0,0,1-.546-1.358,12.3,12.3,0,0,1-1.023-4.054c-.02-.176-.012-.355-.022-.529l-.01-.427,0-.114v-.055l.06,0,.258.007,1.864.022c.308-.027-.191-.022-.074-.042.891.087,2.991-.062,3.006.017a3.784,3.784,0,0,0,.73-.1c.571.037,1.256.057,1.984.067l-.531-.02.057-.012.755.032-.027,0c1.81.022,3.9,0,5.541.089-.852-.047.02-.087-.124-.117.876.114,2.8.117,4.374.1-.007-.025.117-.047-.072-.067l.938.052-.124-.032c1.686-.022,3.52.114,4.632.057-.688-.015-.693-.042-.762-.082l1.959.007.36,0c.022-.007.072.012.077-.012l0-.089Zm-9.652,13.115c1.082-.3,1.05-.233,1.179-.206.149-.035.246-.047.256-.03a.616.616,0,0,1-.256.03c-.256.052-.673.171-1.08.281a2.326,2.326,0,0,0,.611-.127,5.031,5.031,0,0,1-.837.219C91.8,153.657,91.5,153.724,91.533,153.652Zm1.427-.382c.154-.055.31-.1.462-.166l-.015.1C93.261,153.235,93.11,153.248,92.961,153.27Zm-2.269-26.211a3.477,3.477,0,0,1,.395.079c.159.035.31.077.467.117.037.01.074.022.112.03l-.057,0c-.31-.072-.611-.179-.926-.221Zm8.736,6.683c.045.1.089.2.137.305.052.122.1.246.151.37l.055.134c-.474-.72-.055-.325-.78-1.557.392.725.482.961.462,1.01s-.114-.1-.156-.119a12.037,12.037,0,0,0-.529-1.144c-.228-.372-.395-.673-.251-.578A12.808,12.808,0,0,1,99.428,133.742ZM76.2,138.119c.007-.042.017-.082.025-.122l.015-.052c0-.01,0,0,0,0,.047-.268.1-.534.161-.794l.025.04a1.9,1.9,0,0,1,.206-.747c.065.07-.151.549-.174.78a5.164,5.164,0,0,1,.335-.933c.092-.216.166-.415.305-.812l-.077.122a4.235,4.235,0,0,1,.288-.732c.124-.228.268-.437.367-.641-.042.122-.027.159.012.112a9.958,9.958,0,0,1,1.753-2.612l.3-.194-.03-.062c.372-.425.139-.03.4-.278-.1.089-.092.067-.124.075.541-.372.236-.281.526-.506-.176.062-.551.447-.487.273.521-.4,1.338-1.015,1.5-.941a9.951,9.951,0,0,1,3.386-1.447c.129-.055-.087,0-.042-.032a3.576,3.576,0,0,0,.8-.174,1.146,1.146,0,0,1,.521-.077.864.864,0,0,0,.313-.144c.261,0,.569-.017.9-.012l-.241-.01.025-.012.343.017-.012,0,.631-.017.645.037a5.088,5.088,0,0,1,1.2.179c-.412-.107.119-.079-.074-.137.36.156,1.231.328,1.926.536,0-.027.062-.027-.012-.077l.382.186-.042-.047a4.441,4.441,0,0,1,1.03.462c.323.161.591.345.817.449-.256-.169-.243-.194-.251-.246l.69.42c.226.151.442.34.685.539-.022-.027-.035-.047-.03-.055a1.847,1.847,0,0,1,.39.36l.057-.03a6.113,6.113,0,0,1,.772.814,6.293,6.293,0,0,1,.834,1.082c.087.144-.159-.34.119.045-.062.124.343.514.228.628l.256.328-.017.114c.305.233.181.506.449.951,0-.032-.017-.084,0-.065.065.156.2.516.052.256.1.256.39,1.154.318.732-.027.042-.129-.335-.171-.5.065,0,.186.4.285.477,0,.015.007.07.012.112l.057.045a9.909,9.909,0,0,1,.281,1.418c.025.017.055.107.084.285l-.074.022.1.546.065-.276a2.823,2.823,0,0,1,.079.814l0,.186c0,.055,0,.146-.01.132l-.027.027c.03.022.06.057.047.062a.175.175,0,0,1-.067-.01,1.519,1.519,0,0,0-.31-.012,1.6,1.6,0,0,0-.4.04l.4.035c-.866-.022-1.005.055-1.812.01.685-.042.69-.017,1.688-.124-1,.055-1.733-.072-2.649,0,.062.032.29.052.067.084-.179-.067-.864,0-.727-.077-.286.027-.335.1-.509.112l-.956-.1.03.015c-1.626.181-3.034-.122-4.665-.045l.032.042-.41-.062c.32.042-.139.052-.164.089l-1.043-.092c-.025.037.037.122.293.1a8.97,8.97,0,0,1-1.152-.05l.117.037-.348-.03,0,.052a10.023,10.023,0,0,1-1.5-.055l.067.084-.611-.067.35.057c-.688.017-1.73-.047-1.877-.047l.062.03a1.247,1.247,0,0,1-.318-.012l.089.045c-1.033-.012-1.316.094-2.47.045-.315.01.174.015.179.04a2.463,2.463,0,0,1-.663-.017c.092.072.578.05.209.109-.263-.037.179.067-.283.052l-.181-.094c-.256.017-.052.074-.457.065-.464-.04.566-.107-.179-.119a8.141,8.141,0,0,1-1.514.166c-.626.047.33.144-.536.122l.285.03H76.73l-.06,0,.04,0h-.665c0-.045.01-.087.015-.134C76.129,139.047,76.161,138.432,76.2,138.119Zm.854-3c.03-.035.065-.082.1-.07-.1.179-.278.8-.4.983a5,5,0,0,1,.171-.492,4.015,4.015,0,0,0-.231.573C76.8,135.77,76.921,135.44,77.055,135.115Zm.474-1.01,0,.012a4.149,4.149,0,0,1,.747-1.063c-.1.266-.415.524-.432.608.1-.109.251-.35.3-.325a5.817,5.817,0,0,1-.452.693l.04-.136a2.246,2.246,0,0,1-.318.437C77.452,134.256,77.489,134.179,77.529,134.1Zm-.928,2.3a.239.239,0,0,0,.045-.079c-.04.1-.079.218-.119.33C76.548,136.572,76.576,136.49,76.6,136.406Zm2.123-4.012.213-.268-.052.169Zm2.952-2.716-.06.07a1.2,1.2,0,0,0-.169.1A1.73,1.73,0,0,1,81.675,129.678Zm16.268,9.56.089.047-.084,0,.348.03a3.371,3.371,0,0,1-1.015-.074C97.484,139.251,98.04,139.363,97.943,139.239Zm1.269-3c.134.325.052.325.084.521-.045-.171-.067-.218-.015-.213C99.279,136.458,99.217,136.329,99.212,136.24Zm-.07,1.274-.037-.238C99.137,137.394,99.187,137.476,99.142,137.513Zm-.283-2.455c-.025-.01-.042,0-.087-.027a1.417,1.417,0,0,0-.089-.41C98.745,134.763,98.8,134.911,98.859,135.058Zm.385,1.139.017.022.084.353c-.022-.087-.047-.176-.072-.263Zm.377,1.663c0,.04-.022.05-.057,0a.511.511,0,0,0,0-.286C99.587,137.672,99.607,137.764,99.622,137.861Zm-.273.176c.012.343.161.569.067.646a1.461,1.461,0,0,0-.017-.253c-.025.062-.047.3-.074.132C99.353,138.439,99.306,138.049,99.348,138.037Zm-1.063-4.265-.045-.082Zm-.708-1.162c-.184-.268-.375-.531-.581-.78a1.659,1.659,0,0,0-.174-.2c.37.2.1.112.529.608-.449-.618-.218-.425-.142-.444C97.236,131.962,97.779,132.647,97.578,132.61Zm-5.136-3.88.127-.03a2.715,2.715,0,0,1,.708.484c-.425-.154-.492-.31-.425-.333C92.573,128.688,92.606,128.78,92.442,128.73Zm1.179.65-.534-.2C93.3,129.234,93.388,129.164,93.621,129.38Zm-3.27-1.306c.107.03.181.062.142.084-.268-.062-.119-.065-.156-.087Zm-1.274.107c.41-.015.2.007.154.032.062.015.124.022.184.042-.181-.02-.2-.027-.184-.042Zm.281-.042c.226.022.817.092.732.087A2.438,2.438,0,0,1,89.359,128.139Zm-2.8-.149a3.816,3.816,0,0,1-.492.094,1.34,1.34,0,0,0-.174,0C86.111,128.045,86.335,128.017,86.558,127.99Zm-2.8.735c.37-.119,1.063-.37,1.351-.454a.222.222,0,0,1,.107-.047.514.514,0,0,1-.107.047c-.015.017,0,.032.032.04a2.059,2.059,0,0,0-.457.119,3.2,3.2,0,0,0,.377-.04c-.313.124-1.095.166-.827.3C84.093,128.71,83.609,128.812,83.758,128.725Zm5.357,10.732a2.651,2.651,0,0,1,.325-.055c-.077.01.022.04.169.055Zm-6.182.218c-.089,0-.464-.015-.353-.057Zm-.586-.1-.181-.094.174.015Zm-2.061.132c-.526.04-.5-.042-.559-.1-.07-.012-.114-.03-.117-.05a.175.175,0,0,1,.117.05,1.967,1.967,0,0,0,.521.007c-.032-.042-.174-.015-.29-.025a2.021,2.021,0,0,1,.4-.017C80.166,139.643,80.31,139.641,80.287,139.705Zm-.693-.01-.228,0,.022-.087Zm-.556-.238c-.027-.01-.015-.025.074-.037l.171.015c.032.007.042.015.047.022Zm4.446-.392c.34-.047.29.052.611.067C83.669,139.184,83.743,139.075,83.485,139.065Zm1.015.1a1.269,1.269,0,0,1-.459.012A1.687,1.687,0,0,1,84.5,139.167Zm9.1.119.226,0c-.367.06-.261-.062-.519-.045l.171-.012c.137-.052-.263-.035-.3-.077.2-.02.665.02.494.03C93.249,139.2,93.887,139.261,93.6,139.286Zm.271-.181a1.016,1.016,0,0,1,.6.035C94.2,139.1,94.1,139.194,93.874,139.1Zm2.892.353-.017-.012.114.012ZM83.43,128.765c.057-.015.117-.032.169-.042a2.563,2.563,0,0,1-.712.323c-.1.027-.206.065-.308.1C82.854,129.008,83.14,128.879,83.43,128.765Zm-4.3,3.014a2.08,2.08,0,0,0,.427-.4l-.1.057c.087-.092.169-.189.261-.276a2.1,2.1,0,0,0,.189-.122,18.208,18.208,0,0,0-1.76,2.028A11.4,11.4,0,0,1,79.128,131.778Zm2.4-3.185-.154.074Zm5.129,25.429-.742-.166C86.1,153.878,86.888,154.015,86.653,154.022Zm.492.079.39.112-.377-.032Zm-10.685-9.853c.025.1.05.209.079.313C76.509,144.46,76.484,144.353,76.459,144.248Zm-.442-3.116.01-.3c.082.576.107,1.539.221,2.488A15.088,15.088,0,0,1,76.017,141.133Zm-.025-.591,0-.022h0ZM94.247,128.2c.211.132.439.305.685.477q-.4-.25-.827-.469A.34.34,0,0,1,94.247,128.2Zm-3.756-1.271c.39.055.5.07.449.112.181.067.487.117.668.184-.747-.146-.683-.216-1.117-.3l-.362-.057C90.287,126.9,90.4,126.913,90.491,126.933Zm-.978-.442a1.6,1.6,0,0,1-.551-.032Zm-1.5.285a4.035,4.035,0,0,0,.6.072c-.156,0-.305-.022-.462-.022-.05,0-.1.007-.149.007C87.906,126.821,87.9,126.8,88.011,126.776Zm-1.482-.256a7.47,7.47,0,0,1,1.174.025,6.829,6.829,0,0,0-.966.057c-.248.047-.42.084-.5.04l.573-.065C86.672,126.548,86.151,126.59,86.528,126.52ZM80.7,128.757l.194-.062-.154.1.665-.37-1.879,1.2C79.888,129.346,80.938,128.722,80.7,128.757Zm-1.718,1.656c-.047.045-.1.084-.142.132l-.037.017C78.862,130.507,78.927,130.465,78.986,130.413Zm-3.193,4.121c-.3.529-.236.8-.492,1.234A3.4,3.4,0,0,1,75.794,134.534Zm-.559,1.666c-.194.933.186-.422.067.191a4.017,4.017,0,0,1,.139-.477c-.191.782-.209.539-.335,1.095l.074-.375c.017-.305-.166.561-.223.623A5.15,5.15,0,0,1,75.235,136.2Zm-.449,4.193a2.045,2.045,0,0,0,0,.33C74.786,140.659,74.773,140.554,74.786,140.393Zm.857,4.975c.069.151.022-.045-.06-.35.1.343.211.683.338,1.01C75.881,146,75.784,145.678,75.642,145.368Zm6.859,8.021c.531.206.6.2.953.357A4.307,4.307,0,0,1,82.5,153.389Zm.824.362c.911.276.725.305,1.281.462A4.392,4.392,0,0,1,83.326,153.752Zm10.7-.583-.355.122c-.107.03-.117.02-.119.01.2-.074.4-.142.588-.223C94.227,153.054,94.222,153.072,94.031,153.168Zm3.63-3.672,0,0,0,0Zm-.1.03a.306.306,0,0,1,.05.025l-.027.027-.035-.037Zm-5.047,3.039c-.127.04-.256.072-.385.109a.942.942,0,0,0-.156.027C92.142,152.667,92.325,152.617,92.509,152.565Zm-1.214.281c-.365.087-.737.139-1.11.2.385-.04.757-.1,1.1-.166a15.013,15.013,0,0,1-2.123.283c-.077-.007-.154-.017-.159-.045C89.45,153.144,90.838,152.88,91.295,152.846Zm-6.542-.236c.395.062.688.154.961.216s.521.112.8.156l-.305-.017c.65.134.948.169,1.164.2-.191-.012-.387-.015-.576-.032l.035,0a9.414,9.414,0,0,1-2.733-.68c.586.159,1.38.434,1.557.452A5.021,5.021,0,0,1,84.753,152.61Zm-2.574-1.02a3.155,3.155,0,0,0,.31.233,5.248,5.248,0,0,1-.65-.365Zm.576.415a11.894,11.894,0,0,0,1.78.7,11.581,11.581,0,0,1-3.319-1.532c-.047-.037-.1-.07-.146-.109l0,0c-.092-.079-.181-.166-.281-.246-.186-.176-.425-.323-.673-.554a2.338,2.338,0,0,0,.176.211c-.216-.181-.415-.377-.616-.573-.035-.042-.129-.151-.32-.375A12.468,12.468,0,0,0,82.755,152Zm-5.911-6.6.087.166c.045.137.112.266.164.4A4.818,4.818,0,0,1,76.844,145.405Zm-.022-.74c-.042-.132-.087-.285-.1-.36C76.747,144.427,76.784,144.546,76.822,144.666Zm2.344-4.076a9.781,9.781,0,0,0-1.03.012c.132.03.633.025.827.045-.742.074-2.411-.146-1.934.065-.159-.012-.524-.032-.69-.055-.1,0-.221-.04-.236-.015,0,.042-.037.01-.017-.047.338,0,.961,0,1.557-.007s1.152-.025,1.475-.045a1.082,1.082,0,0,1,.256-.02,2.538,2.538,0,0,1-.256.02c-.037.015-.017.032.05.047a1.86,1.86,0,0,1,.283.025A1.423,1.423,0,0,1,79.165,140.589Zm2.083-.045-.288-.025h1.373C82.107,140.542,81.464,140.544,81.248,140.544Zm6.954.253-.345-.027c.9-.032.437,0,.345.027l.415.03C88.207,140.825,88.16,140.81,88.2,140.8Zm.266-.079,1.629-.012A11.933,11.933,0,0,1,88.467,140.718Zm2.473-.134c-.6-.025-.283-.047-.367-.065H90.6C90.841,140.535,91.014,140.557,90.94,140.584Zm5.382.01a4.254,4.254,0,0,0-.933.027l.238-.069a17.886,17.886,0,0,1,1.845.166C96.474,140.755,96.2,140.641,96.322,140.594Zm.762.2c-.109.007-.243.012-.412.012l.412-.012a3.676,3.676,0,0,1,1.266-.037Z" transform="translate(-31.726 -126.327)" fill="#fff"/><path d="M145.911,140.481l0-.178-.02-.679c-.015-.322,0-.662-.037-1.013a.3.3,0,0,1-.01.129c-.056-.366-.081-.811-.112-1.189l-.068-.041a20.012,20.012,0,0,0-.562-2.451c-.066-.156-.254-.64-.466-1.206a6.522,6.522,0,0,0-.388-.855,5.833,5.833,0,0,0-.415-.75c-.2-.327.4.73-.19-.164a2.1,2.1,0,0,0-.366-.674c-.2-.273-.42-.525-.388-.606a6.905,6.905,0,0,0-.667-.669l-.1-.2a8.052,8.052,0,0,1-.8-.7,5.272,5.272,0,0,0-1.069-.842c.044.049.151.12.093.1-.317-.217-1.074-.7-.466-.364a12.71,12.71,0,0,0-1.353-.715c-.464-.2-.757-.273-.31-.076a5.553,5.553,0,0,1,1.091.522c-.078.042-.916-.432-1.17-.43l-.222-.112-.142-.01a15.119,15.119,0,0,0-3.15-.845,6.168,6.168,0,0,1-.669-.012l-.012-.078a10.021,10.021,0,0,0-1.27-.02,5.581,5.581,0,0,1,.593.1,17.548,17.548,0,0,0-3.494.261,15.766,15.766,0,0,0-3.008,1.172l.823-.354c-.432.2-.776.359-1.062.51l-.732.461a5.867,5.867,0,0,0-.686.486c-.168.139-.371.271-.591.442a12.157,12.157,0,0,1,2.779-1.882,12.473,12.473,0,0,0-4.62,3.567c.112-.085.464-.454.161-.061-.332.242-1.121,1.548-1.021,1.25-.3.562-.286.693-.466,1.03-.193.3-.325.623-.491.933a6.954,6.954,0,0,0-.425.967l.037-.056a20.19,20.19,0,0,0-.835,5.037,13.967,13.967,0,0,0,.742,5.069l.017-.081c.059.21.112.425.173.637.01-.032.251.508.3.532a13.523,13.523,0,0,0,1.008,2.083c.063.02.034-.125-.251-.613.22.381.481.742.715,1.1a7.134,7.134,0,0,0,.745.986l-.146-.222.486.6.032-.044a18.079,18.079,0,0,0,2.569,2.1l-.085-.149.562.378c.19.12.393.217.591.327a7.577,7.577,0,0,1-.664-.4c.327.188.725.352,1.111.549s.813.315,1.187.466c.759.259,1.406.4,1.56.444l-.127-.061.689.127-.188-.073a13.191,13.191,0,0,0,2.6.176,21.869,21.869,0,0,0,2.779-.273c.674-.137-.376.054-.393.024.366-.088,1.233-.237,1.421-.276-.21-.01-1.238.227-.466,0,.562-.1-.388.034.581-.2l.4-.015c.525-.2.09-.093.92-.381.957-.327-1.118.542.408-.032a19.744,19.744,0,0,0,2.783-1.743c1.033-.867-.623.349.823-.818-.149.12-.31.222-.461.337.264-.215.515-.439.759-.671.117-.1.237-.205.344-.317-.115.1-.19.173-.252.227.151-.149.313-.288.459-.447l-.706-.7,0,0,0,0-.027-.027c-.093.105-.2.2-.3.3l-.007.007-.117.117c-.154.146-.332.315-.53.491-.117.1-.239.205-.361.305l-.081.063c-.208.166-.413.32-.591.447a11.458,11.458,0,0,1-2.061,1.118l.046-.051a3.535,3.535,0,0,1-.437.2c-.242.093-.483.178-.732.259a1.861,1.861,0,0,1-.388.085c.085-.083,1.152-.388,1.592-.6a9.551,9.551,0,0,1-2.022.6c-.491.085-.938.176-1.831.305l.305-.01a12.5,12.5,0,0,1-3.257.041c.278,0,.335-.032.208-.051a10.8,10.8,0,0,1-3.189-.632,12.662,12.662,0,0,1-1.558-.674,13.591,13.591,0,0,1-1.5-.969,5.35,5.35,0,0,1-.52-.532l-.073.015c-.891-.811-.149-.222-.681-.781.193.222.151.19.183.242a5.169,5.169,0,0,0-.664-.754,1.192,1.192,0,0,1-.359-.415c.132.369.96,1.17.649.974a12.179,12.179,0,0,1-1.331-1.926,3.589,3.589,0,0,1-.537-1.336,12.094,12.094,0,0,1-1.006-3.987c-.02-.173-.012-.349-.022-.52l-.01-.42,0-.112v-.054l.056,0,.256.007,1.834.022c.3-.027-.188-.022-.073-.042.877.085,2.942-.061,2.957.017a3.719,3.719,0,0,0,.718-.1c.562.037,1.235.056,1.951.066l-.522-.02.056-.012.742.032-.027,0c1.78.022,3.836,0,5.45.088-.838-.046.02-.085-.122-.115.862.112,2.752.115,4.3.1,0-.024.117-.046-.068-.066l.923.051-.122-.032c1.658-.022,3.462.112,4.556.056-.676-.015-.681-.041-.75-.081l1.926.007.354,0c.022,0,.071.012.076-.012Zm-9.5,12.721c1.065-.3,1.033-.23,1.16-.2.147-.034.242-.046.251-.029a.606.606,0,0,1-.251.029c-.251.051-.662.168-1.062.276a2.29,2.29,0,0,0,.6-.125,4.951,4.951,0,0,1-.823.215C136.676,153.207,136.378,153.273,136.413,153.2Zm1.4-.376c.151-.054.305-.1.454-.164l-.015.1C138.112,152.792,137.963,152.8,137.817,152.826Zm-2.232-25.779a3.417,3.417,0,0,1,.388.078c.154.034.3.076.454.115l.115.029-.056,0c-.305-.071-.6-.176-.911-.217Zm8.592,6.573q.066.143.132.3c.054.12.1.242.151.361l.054.134c-.466-.708-.054-.32-.767-1.531.386.713.474.945.454.994s-.112-.1-.154-.117a11.841,11.841,0,0,0-.52-1.126c-.225-.366-.388-.662-.247-.569A12.6,12.6,0,0,1,144.177,133.62Zm-22.844,4.3c.007-.042.017-.081.024-.12l.015-.051c0-.01,0,0,0,0,.046-.264.1-.525.159-.781l.024.039a1.872,1.872,0,0,1,.2-.735c.063.068-.149.54-.171.767a5.077,5.077,0,0,1,.33-.918c.09-.212.164-.408.3-.8l-.076.12a4.163,4.163,0,0,1,.283-.72c.122-.225.264-.427.361-.63-.041.12-.027.156.012.11a9.8,9.8,0,0,1,1.724-2.569l.293-.19-.029-.061c.366-.418.137-.029.4-.273-.1.09-.09.066-.122.073.532-.366.232-.276.518-.5-.173.061-.542.439-.479.269.513-.4,1.316-1,1.475-.925a9.787,9.787,0,0,1,3.33-1.423c.127-.054-.085,0-.041-.032a3.517,3.517,0,0,0,.791-.171,1.127,1.127,0,0,1,.513-.076.873.873,0,0,0,.308-.142c.256,0,.559-.017.881-.012l-.237-.01.024-.012.337.017-.012,0,.62-.017.635.037a5,5,0,0,1,1.182.176c-.405-.1.117-.078-.073-.134.354.154,1.211.322,1.895.527,0-.027.061-.027-.012-.076l.376.183-.042-.046a4.369,4.369,0,0,1,1.013.454c.317.159.581.339.8.442-.251-.166-.242-.19-.247-.242l.679.413c.222.149.435.335.674.53-.022-.027-.034-.046-.029-.054a1.816,1.816,0,0,1,.383.354l.056-.029a11.984,11.984,0,0,1,1.58,1.865c.085.142-.156-.334.117.044-.061.122.337.505.225.618l.251.322-.017.112c.3.229.178.5.442.935,0-.032-.017-.083,0-.063.063.154.2.508.051.252.1.251.383,1.135.313.718-.027.044-.127-.327-.168-.488.063,0,.183.393.281.469,0,.015.007.068.012.11l.056.044a10.1,10.1,0,0,1,.276,1.394c.024.017.054.1.083.281l-.073.022.1.537.063-.271a2.779,2.779,0,0,1,.078.8l0,.183c0,.054,0,.144-.01.129l-.027.027c.029.022.059.056.046.061a.172.172,0,0,1-.066-.01,1.493,1.493,0,0,0-.305-.012,1.577,1.577,0,0,0-.391.039l.4.034c-.852-.022-.986.054-1.782.01.674-.042.679-.017,1.66-.122-.986.054-1.7-.071-2.605,0,.061.032.288.051.066.083-.176-.066-.85,0-.715-.076-.281.027-.33.1-.5.11l-.94-.1.029.015c-1.6.178-2.984-.12-4.588-.044l.032.042-.4-.061c.315.042-.134.051-.161.088l-1.025-.09c-.024.037.037.12.288.1a8.814,8.814,0,0,1-1.133-.049l.115.037-.342-.029,0,.051a9.86,9.86,0,0,1-1.477-.054l.066.083-.6-.066.344.056c-.676.017-1.7-.046-1.846-.046l.061.029a1.227,1.227,0,0,1-.313-.012l.09.044c-1.018-.012-1.3.093-2.432.044-.31.01.171.015.176.039a2.422,2.422,0,0,1-.652-.017c.09.071.569.049.205.107-.259-.037.176.066-.278.051l-.178-.093c-.251.017-.049.073-.449.063-.457-.039.559-.1-.176-.117a8.007,8.007,0,0,1-1.489.164c-.615.046.325.142-.527.12l.281.029h-.642l-.059,0,.039,0h-.654c0-.044.01-.085.015-.132C121.262,138.838,121.294,138.232,121.333,137.925Zm.84-2.954c.029-.034.063-.081.1-.068-.1.176-.273.791-.4.967a4.351,4.351,0,0,1,.166-.483,4.143,4.143,0,0,0-.227.566C121.919,135.615,122.041,135.29,122.173,134.97Zm.466-.994,0,.012a4.02,4.02,0,0,1,.732-1.045c-.1.261-.408.515-.425.6.1-.107.247-.344.293-.32a5.717,5.717,0,0,1-.444.681l.039-.134a2.209,2.209,0,0,1-.312.43C122.564,134.125,122.6,134.05,122.64,133.976Zm-.913,2.263a.234.234,0,0,0,.044-.078c-.039.1-.078.215-.117.325C121.675,136.4,121.7,136.323,121.726,136.24Zm2.088-3.946.21-.264-.051.166Zm2.9-2.671-.059.068a1.17,1.17,0,0,0-.166.1A1.7,1.7,0,0,1,126.717,129.623Zm16,9.4.088.046-.083,0,.342.029a3.314,3.314,0,0,1-1-.073C142.265,139.038,142.812,139.148,142.717,139.026Zm1.248-2.95c.132.32.051.32.083.513-.044-.168-.066-.215-.015-.21C144.031,136.291,143.969,136.164,143.965,136.076Zm-.068,1.253-.037-.234C143.891,137.212,143.94,137.292,143.9,137.329Zm-.278-2.415c-.024-.01-.042,0-.085-.029a1.428,1.428,0,0,0-.088-.4C143.506,134.624,143.562,134.77,143.618,134.914Zm.378,1.121.017.022.083.347c-.022-.088-.046-.173-.071-.261Zm.371,1.636c0,.039-.022.049-.056,0a.5.5,0,0,0,0-.281C144.333,137.485,144.353,137.575,144.367,137.671Zm-.269.173c.012.337.159.559.066.635a1.44,1.44,0,0,0-.017-.249c-.024.061-.046.293-.073.129C144.1,138.24,144.057,137.856,144.1,137.844Zm-1.045-4.195-.044-.081Zm-.7-1.143c-.181-.264-.371-.523-.571-.767a1.632,1.632,0,0,0-.171-.2c.361.2.1.11.52.6-.442-.608-.215-.418-.139-.437C142.021,131.869,142.556,132.543,142.358,132.507Zm-5.052-3.816.125-.029a2.673,2.673,0,0,1,.7.476c-.418-.151-.483-.305-.418-.327C137.436,128.649,137.467,128.739,137.306,128.69Zm1.16.64-.525-.2C138.149,129.186,138.237,129.118,138.466,129.33Zm-3.216-1.284c.1.029.176.061.139.083-.264-.061-.117-.063-.154-.085Zm-1.253.1c.4-.015.2.007.151.032.061.015.122.022.181.041-.178-.02-.2-.027-.181-.041Zm.276-.042c.222.022.8.093.72.085A2.4,2.4,0,0,1,134.274,128.109Zm-2.754-.146a3.756,3.756,0,0,1-.483.093,1.315,1.315,0,0,0-.171,0C131.08,128.017,131.3,127.99,131.52,127.963Zm-2.754.723c.364-.117,1.045-.364,1.326-.447a.247.247,0,0,1,.107-.046.484.484,0,0,1-.107.046c-.012.017,0,.032.034.039a2.023,2.023,0,0,0-.449.117,3.152,3.152,0,0,0,.371-.039c-.308.122-1.077.164-.813.3C129.1,128.671,128.619,128.771,128.766,128.686Zm5.269,10.555a2.612,2.612,0,0,1,.32-.054c-.076.01.022.039.166.054Zm-6.08.215c-.088,0-.457-.015-.347-.056Zm-.574-.1-.181-.093.171.015Zm-2.029.129c-.518.039-.5-.042-.547-.1-.071-.012-.115-.029-.117-.049a.188.188,0,0,1,.117.049,1.912,1.912,0,0,0,.51.007c-.032-.041-.168-.015-.286-.024a1.988,1.988,0,0,1,.4-.017C125.233,139.424,125.374,139.421,125.352,139.485Zm-.681-.01-.225,0,.022-.085Zm-.547-.234c-.027-.01-.015-.024.073-.037l.171.015a.087.087,0,0,1,.046.022Zm4.373-.386c.335-.046.286.051.6.066C128.678,138.972,128.751,138.865,128.5,138.855Zm1,.1a1.249,1.249,0,0,1-.452.012A1.66,1.66,0,0,1,129.5,138.955Zm8.953.117.222,0c-.361.059-.256-.061-.51-.044l.168-.012c.134-.051-.259-.034-.291-.076.2-.02.654.02.486.029C138.1,138.992,138.727,139.048,138.449,139.072Zm.266-.178a1,1,0,0,1,.588.034C139.037,138.889,138.932,138.982,138.715,138.894Zm2.844.347-.017-.012.112.012Zm-13.116-10.516c.056-.015.115-.032.166-.042a2.52,2.52,0,0,1-.7.317c-.1.027-.2.063-.3.1C127.877,128.964,128.158,128.837,128.443,128.725Zm-4.231,2.964a2.049,2.049,0,0,0,.42-.393l-.1.056c.085-.09.168-.186.256-.271a1.729,1.729,0,0,0,.186-.12,18.16,18.16,0,0,0-1.731,1.995A11.214,11.214,0,0,1,124.212,131.689Zm2.356-3.133-.151.073Zm5.044,25.009-.73-.164C131.068,153.424,131.844,153.558,131.613,153.566Zm.483.078.383.11-.371-.032Zm-10.511-9.691c.027.1.051.205.081.308C121.636,144.16,121.612,144.055,121.585,143.953Zm-.432-3.064.01-.3c.081.566.1,1.514.217,2.447A14.846,14.846,0,0,1,121.153,140.889Zm-.024-.581,0-.022h0Zm17.953-12.135c.208.129.432.3.674.469q-.4-.245-.813-.461A.334.334,0,0,1,139.081,128.173Zm-3.694-1.25c.383.054.491.068.442.11.178.066.479.115.657.181-.735-.144-.671-.212-1.1-.291l-.356-.056C135.187,126.886,135.294,126.9,135.387,126.923Zm-.962-.435a1.576,1.576,0,0,1-.542-.032Zm-1.477.281a3.964,3.964,0,0,0,.586.071c-.154,0-.3-.022-.454-.022-.049,0-.1.007-.147.007C132.846,126.813,132.836,126.793,132.948,126.769Zm-1.458-.251a7.347,7.347,0,0,1,1.155.024,6.717,6.717,0,0,0-.95.056c-.244.046-.413.083-.491.039l.564-.063C131.632,126.544,131.119,126.586,131.49,126.517Zm-5.728,2.2.19-.061-.151.1.654-.364-1.848,1.182C124.959,129.3,125.992,128.683,125.762,128.717Zm-1.69,1.629c-.046.044-.1.083-.139.129l-.037.017C123.951,130.439,124.014,130.4,124.073,130.346Zm-3.14,4.053c-.291.52-.232.791-.483,1.213A3.341,3.341,0,0,1,120.933,134.4Zm-.549,1.638c-.19.918.183-.415.066.188a3.953,3.953,0,0,1,.137-.469c-.188.769-.205.53-.33,1.077l.073-.369c.017-.3-.164.552-.22.613A5.07,5.07,0,0,1,120.383,136.037Zm-.442,4.124a2.011,2.011,0,0,0,0,.325C119.942,140.422,119.929,140.32,119.942,140.161Zm.842,4.893c.068.149.022-.044-.059-.344.1.337.208.671.332.994C121.018,145.677,120.923,145.359,120.784,145.054Zm6.746,7.889c.523.2.593.2.938.352A4.237,4.237,0,0,1,127.53,152.943Zm.811.356c.9.271.713.3,1.26.454A4.318,4.318,0,0,1,128.341,153.3Zm10.528-.574-.349.12c-.1.029-.115.02-.117.01.193-.073.391-.139.579-.22C139.062,152.613,139.057,152.63,138.869,152.726Zm3.57-3.611,0,0,0,0Zm-.1.029a.3.3,0,0,1,.049.024l-.027.027-.034-.037Zm-4.964,2.989c-.125.039-.251.071-.378.107a.924.924,0,0,0-.154.027C137.011,152.232,137.192,152.184,137.372,152.132Zm-1.194.276c-.359.085-.725.137-1.091.193.378-.039.745-.1,1.082-.164a14.769,14.769,0,0,1-2.088.278c-.076-.007-.151-.017-.156-.044C134.364,152.7,135.729,152.442,136.178,152.408Zm-6.434-.232c.388.061.676.151.945.212s.513.11.784.154l-.3-.017c.64.132.933.166,1.145.2-.188-.012-.381-.015-.566-.032l.034,0a9.238,9.238,0,0,1-2.688-.669c.576.156,1.358.427,1.531.444A4.938,4.938,0,0,1,129.745,152.176Zm-2.532-1a3.109,3.109,0,0,0,.305.23,5.161,5.161,0,0,1-.64-.359Zm.566.408a11.7,11.7,0,0,0,1.751.691,11.389,11.389,0,0,1-3.264-1.506c-.049-.037-.1-.068-.149-.11h0c-.09-.078-.178-.164-.276-.242-.186-.173-.417-.317-.662-.544a2.291,2.291,0,0,0,.173.208c-.212-.178-.408-.371-.606-.564-.034-.042-.127-.149-.315-.369A12.225,12.225,0,0,0,127.779,151.581Zm-5.813-6.49.085.164c.044.134.11.264.161.4A4.738,4.738,0,0,1,121.966,145.091Zm-.022-.728c-.042-.127-.085-.278-.1-.354C121.87,144.129,121.907,144.246,121.944,144.363Zm2.3-4.009a9.62,9.62,0,0,0-1.013.012c.129.029.623.024.813.044-.73.073-2.371-.144-1.9.063-.156-.012-.515-.032-.679-.054-.1,0-.217-.039-.232-.012s-.037.007-.017-.049c.332,0,.945,0,1.531-.007s1.133-.024,1.45-.044a1.064,1.064,0,0,1,.251-.02,2.5,2.5,0,0,1-.251.02c-.037.015-.017.032.049.046a1.868,1.868,0,0,1,.278.024A1.4,1.4,0,0,1,124.249,140.354Zm2.049-.044-.286-.024h1.353C127.142,140.308,126.51,140.31,126.3,140.31Zm6.839.249-.339-.027c.884-.032.43,0,.339.027l.408.029C133.141,140.586,133.095,140.571,133.136,140.559Zm.261-.078,1.6-.012A11.728,11.728,0,0,1,133.4,140.481Zm2.432-.132c-.591-.024-.278-.046-.361-.064h.032C135.731,140.3,135.9,140.322,135.829,140.349Zm5.293.01a4.182,4.182,0,0,0-.918.027l.234-.068a17.6,17.6,0,0,1,1.814.164C141.272,140.518,141.005,140.405,141.123,140.359Zm.75.193c-.107.007-.239.012-.405.012l.405-.012a3.615,3.615,0,0,1,1.245-.037Z" transform="translate(36.233 -126.33)" fill="#fff"/><path d="M109.513,141.805l-.062-.047c-.035-1.246.087-.271.074-1.075,0,.308-.007.251-.022.315a11.937,11.937,0,0,0-.05-1.616c-.065.385-.015,1.564-.1,1.2a35.159,35.159,0,0,1,.159-3.905,14.492,14.492,0,0,0-.559-4.322,8,8,0,0,0-2.12-3.488c-.261-.191.139.144.03.079a8.379,8.379,0,0,0-.648-.593c-.281-.184-.573-.4-.866-.554l-.762-.38c-.2-.079-.33-.137-.325-.156a2.458,2.458,0,0,0-.735-.171,9.683,9.683,0,0,0-1.959-.519c.179.02.355.077.531.114h-.06a5.731,5.731,0,0,0-.757-.144l.03,0-.7-.084-.72-.032a12.018,12.018,0,0,0-1.465.017,17.616,17.616,0,0,0-2.741.4c.884-.184-.06.1.166.074a8.354,8.354,0,0,0-1.832.506,15.353,15.353,0,0,0-2.309,1.142c.02.017-.079.1.1.02-.283.144-.564.3-.839.457l.122-.042c-.357.231-.72.477-1.075.72l-.526.37-.782.578.573.8.293.4.139.189c.025.017.042.1.072.06l.082-.06,1.02-.789-.613.42a.358.358,0,0,1-.179.074l.5-.38.357-.261c.238-.176.487-.335.735-.5a17.446,17.446,0,0,1,1.668-.956c-.07.03-.117.045-.122.037a7.886,7.886,0,0,1,1.063-.479l.02-.079a11.981,11.981,0,0,1,2.339-.73,11.275,11.275,0,0,1,2.964-.276c.37.027-.807-.1.233-.06a2.1,2.1,0,0,0,.732.1c.325.037.643.074.673.151.3.012.591.07.889.1.06.037.119.067.176.109a5.618,5.618,0,0,1,2.078.819c-.042-.04-.146-.1-.089-.082.315.171.963.658.425.33a5.655,5.655,0,0,1,1.048.884c.313.323.482.539.231.174.015.07-.5-.549-.784-.767a1.817,1.817,0,0,1,.42.288,3.968,3.968,0,0,0,.477.429,1.509,1.509,0,0,1,.122.2l.107.077a6.65,6.65,0,0,1,1.12,2.818,1.956,1.956,0,0,1,.142.613l-.075.03a9.453,9.453,0,0,1,.1,1.187l.087-.569a11.6,11.6,0,0,1-.007,1.792c-.03.554-.067,1.075-.077,1.639a1.1,1.1,0,0,1,.042.241.28.28,0,0,1,.007.082c-.05,0-.03-.007-.132-.012l-.64-.01a9.812,9.812,0,0,0-1.164.04l.881.035c-1.882-.022-2.18.055-3.935.01,1.49-.042,1.5-.017,3.664-.124-2.175.055-3.759-.072-5.75,0,.132.032.633.052.144.084-.387-.07-1.877,0-1.581-.077-.618.027-.725.1-1.1.109-.7-.02-1.41-.037-2.12,0l.067.01A16.4,16.4,0,0,0,91,140.2a7.968,7.968,0,0,0-2.12,1.584,5.728,5.728,0,0,0-1.346,2.44l.062-.06a4.551,4.551,0,0,0-.238.779c.109-.422-.047.474,0,.529a8.991,8.991,0,0,0,.025,2.408c.045.047.1-.109,0-.688a10.145,10.145,0,0,0,.665,2.562,1.906,1.906,0,0,1-.082-.263c.094.251.218.489.328.735l.042-.032a7.166,7.166,0,0,0,1.209,1.636c.434.469.869.775,1.028.968l-.072-.164a8.308,8.308,0,0,0,1.144.8,5.192,5.192,0,0,1-.66-.454,11.589,11.589,0,0,0,1.115.626,11.824,11.824,0,0,0,1.224.477,8.562,8.562,0,0,0,1.043.283,4.027,4.027,0,0,0,.573.109l-.134-.05c.253.017.447.062.71.1l-.2-.07a11.962,11.962,0,0,0,2.649,0,20.377,20.377,0,0,0,2.805-.452c.675-.181-.38.079-.4.057.181-.065.492-.141.78-.211s.549-.154.645-.174c-.216,0-1.239.333-.474.037.561-.141-.395.057.576-.238l.407-.06c.519-.231.087-.087.9-.464.946-.41-1.09.643.41-.072a16.511,16.511,0,0,0,2.6-2.1c.906-1.033-.578.434.7-.948a6.2,6.2,0,0,1-.434.449,12.332,12.332,0,0,0,.9-1.1c.027-.035.055-.07.079-.1l-.047.06a12.787,12.787,0,0,0,.78-1.2l0,.281c-.032.566,0,1.778.022,2.5l0,.42,0,.117,0,.025.015,1.738-.035-.07c.025.241.042.789.037,1.207a3.878,3.878,0,0,1,.489.03,2.069,2.069,0,0,1-.559.042l0-1.331-.02,1.353,1.321.057.017-.9c0-.278,0-.6-.017-1.018l-.025.313c-.07-1.154.027-2.344.02-3.356.02.286.05.343.062.209-.077-2.234-.04-4.436-.094-6.986Zm-.176,2.162.065.362-.065.387Zm-.067,2.219-.02-3.064a10.078,10.078,0,0,0,.03-1.269c-.012.079-.022.159-.035.241l0-.8c.007-.045.017-.189.037-.5C109.314,142.523,109.3,144.365,109.269,146.187Zm-1.8-13.984-.06-.139c-.052-.122-.1-.243-.159-.36l0-.007.035.045c.072.186.151.367.226.551Zm-9.486-4.342c-.2.017-.415.042-.613.077.824-.248.313-.057,1.733-.191-1.651.094-1.02-.012-.953-.092.171.025.792-.012,1.288,0,.447.032.787.072.626.134-.206-.007-.407-.02-.621-.02A12.774,12.774,0,0,0,97.984,127.86ZM108.2,145.554c-.015.037-.032.072-.047.109a9.678,9.678,0,0,0-.429.958c-.022.045-.047.087-.067.132l-.027.04,0,0c-.109.218-.218.439-.335.645l-.015-.045a1.9,1.9,0,0,1-.365.591c-.04-.079.246-.447.343-.628-.489.757-.591.7-1,1.333l.094-.087a5.194,5.194,0,0,1-.9,1.023c.072-.092.06-.134.015-.1a9.274,9.274,0,0,1-2.157,1.795l-.31.079.012.065c-.425.271-.134-.02-.42.127.112-.05.1-.032.127-.03-.559.181-.271.189-.576.308.169,0,.586-.243.492-.1-.554.206-1.405.539-1.534.415a10.722,10.722,0,0,1-3.275.529c-.122.037.077.015.032.04-.362-.062-1.212.1-1.216.017a.71.71,0,0,0-.3.089c-.231-.047-.5-.067-.792-.119l.209.045-.022.007-.3-.065.01,0a6.462,6.462,0,0,1-2.118-.586c.33.184-.119.055.035.146-.271-.231-1-.526-1.519-.889-.01.022-.065.012-.012.072a2.2,2.2,0,0,1-.271-.256l.017.055a7.737,7.737,0,0,1-1.234-1.306c.156.214.137.231.122.278a4.548,4.548,0,0,1-.742-1.261c.007.03.007.05,0,.055a1.493,1.493,0,0,1-.146-.442l-.067,0a5.016,5.016,0,0,1-.233-.958,5.405,5.405,0,0,1-.092-1.2c.007-.149-.055.328-.072-.092.117-.06.027-.539.169-.561a1.753,1.753,0,0,1-.012-.36l.084-.065c-.092-.325.142-.434.233-.859-.022.017-.04.062-.042.037.045-.137.209-.42.132-.179.055-.1.149-.338.243-.492s.144-.251.017-.122c.045,0-.154.256-.213.385-.055-.047.122-.353.124-.457a.467.467,0,0,0,.072-.065l0-.062a3.5,3.5,0,0,1,.879-.857c0-.025.042-.1.166-.189l.055.057.38-.283-.246.04a1.967,1.967,0,0,1,.616-.343c.2-.089.395-.141.6-.221.045-.181.8-.286,1.137-.5a2.587,2.587,0,0,0-.34.074,8.049,8.049,0,0,1,1.509-.4,6.354,6.354,0,0,0-1.375.472,14.359,14.359,0,0,1,2.219-.482c-.057-.025-.258-.017-.07-.074.161.04.747-.094.638,0,.243-.045.281-.122.432-.144.281,0,.561.027.842.057l-.027-.015c1.428-.211,2.709.114,4.161.03l-.03-.042.367.062c-.288-.042.124-.052.146-.089l.933.092c.022-.037-.035-.122-.263-.1a7.237,7.237,0,0,1,1.033.05l-.107-.037.313.03,0-.052a8.043,8.043,0,0,1,1.346.055l-.062-.084.549.067-.315-.057c.616-.017,1.549.047,1.678.047l-.055-.032a1.11,1.11,0,0,1,.285.015l-.082-.045a1.89,1.89,0,0,0,.546-.027,1.247,1.247,0,0,1,.03.191c.007.206.007.439,0,.74.012.283.012-.154.04-.159a1.989,1.989,0,0,1-.015.593c.072-.082.047-.519.107-.189-.032.236.067-.161.057.253l-.092.164c.017.228.072.045.067.407-.035.417-.109-.507-.117.161a6.341,6.341,0,0,1,.179,1.353c.055.561.141-.3.127.479l.027-.256.007.6,0,.035,0-.035Zm-1.971,3.471c-.037.022-.082.05-.112.03.146-.117.41-.643.591-.745l-.268.38c.149-.176.276-.34.387-.494C106.635,148.486,106.434,148.764,106.228,149.024Zm-2.607,2.339a1.77,1.77,0,0,0-.487.236l.1-.02c-.1.057-.194.117-.293.166a1.545,1.545,0,0,0-.2.055,16.547,16.547,0,0,0,1.936-1.212A10,10,0,0,1,103.622,151.363Zm-1.1,1.591a.637.637,0,0,1-.253.045c-.248.084-.655.223-1.053.365a3,3,0,0,0,.6-.166,8.526,8.526,0,0,1-.819.278c.38-.194.084-.1.112-.176,1.06-.37,1.023-.328,1.159-.3C102.408,152.957,102.5,152.937,102.517,152.954Zm-.02-.144.439-.213,0,.1Zm-10.4-23.977c.367-.2.742-.387,1.125-.564C92.84,128.449,92.46,128.63,92.095,128.834Zm14.7,11.8c-.3.047-.258-.052-.546-.067C106.63,140.519,106.563,140.628,106.794,140.638Zm-.909-.1a1.024,1.024,0,0,1,.412-.012A1.358,1.358,0,0,1,105.886,140.536Zm-4.421-.236c.07-.01-.017-.04-.149-.055h.442C101.74,140.273,101.6,140.263,101.464,140.3Zm-3.724.122-.2.01c.325-.067.231.055.462.035l-.154.015c-.122.052.233.03.263.074-.181.017-.588-.007-.437-.025C98.056,140.5,97.492,140.455,97.74,140.422Zm-.236.189a.823.823,0,0,1-.526-.022C97.216,140.621,97.308,140.524,97.5,140.611Zm-2.567-.124-.1,0,.082-.015Zm-.993.42-.087-.025.07-.025-.3.05a2.042,2.042,0,0,1,.886-.134C94.334,140.795,93.83,140.8,93.944,140.906Zm-2.2,1.053c-.1.02-.407.179-.432.149.276-.114.392-.338.494-.276a1.082,1.082,0,0,0-.2.1C91.668,141.937,91.862,141.875,91.74,141.959Zm-.668.02c-.062-.017-.2.069-.333.174.1-.077.2-.151.3-.223C91.082,141.917,91.1,141.929,91.072,141.979ZM89.4,143.945a.955.955,0,0,0-.206.281c.047-.122.107-.238.164-.357C89.364,143.89,89.384,143.9,89.4,143.945Zm1.922,7.378-.119-.007a1.873,1.873,0,0,1-.439-.623c.308.251.31.412.246.415C91.2,151.318,91.194,151.239,91.318,151.323Zm-.77-.911a3.2,3.2,0,0,0,.372.338C90.764,150.638,90.64,150.7,90.548,150.412Zm1.283,1.3c.01.015.015.027,0,.027Zm1.02.569c.218.112.092.084.119.114l-.012,0C92.872,152.339,92.812,152.291,92.852,152.279Zm1.239.226c-.355-.07-.169-.047-.127-.062l-.149-.074c.154.047.169.065.149.074Zm-.251-.017a4.41,4.41,0,0,1-.623-.2A3.073,3.073,0,0,1,93.84,152.488Zm3.816.449c.3-.092,1,.07.782-.124.129.022.571.012.425.072-.345.037-1,.1-1.266.159a.223.223,0,0,1-.1.025.4.4,0,0,1,.1-.025c.015-.015.007-.032-.022-.045a1.37,1.37,0,0,0,.422-.04C97.939,152.932,97.735,152.957,97.656,152.937Zm1.346-.02a3.026,3.026,0,0,1,.948-.137c-.271.055-.544.1-.824.142Zm1.884-.395.065-.052.174-.042Zm-4.151.566c-.156,0-.308-.01-.462-.017a2.7,2.7,0,0,1,.447-.007l.137.022Zm-7.815-5.72c-.186-.328-.022-.129-.107-.71.037.68-.045.427-.124.4.062-.139,0-.921.141-.792a7.4,7.4,0,0,0,.055.854A1.363,1.363,0,0,0,88.92,147.369Zm1.01-4.4,0-.025c.052-.057.1-.112.154-.169-.047.055-.089.109-.134.164Zm.4-.31c-.119.1-.129.156-.159.107-.065.045-.127.161-.191.206C90.149,142.7,90.183,142.758,90.33,142.654Zm.658-.179a1.162,1.162,0,0,0-.159.129C90.893,142.523,90.938,142.451,90.988,142.475Zm-.261-.313q-.074.06-.141.119Zm17.264-1.939-.156-.015.02-.079A.81.81,0,0,1,107.991,140.224Zm-.385-.141-.318-.055C107.368,140.023,107.705,140.042,107.606,140.082Zm.544,2.569c.007-.027.012-.037.02-.042l0,.253c-.01.025-.022.025-.037-.057ZM96.261,153.972c-.251-.035-.5-.045-.75-.1C95.7,153.905,96.5,153.93,96.261,153.972Zm7.592-2.862.084-.137.169-.032Zm.986-.837a3.062,3.062,0,0,1,.556-.487l-.07.107a3.027,3.027,0,0,1,.395-.278l-.151.161v-.012a3.383,3.383,0,0,1-.921.713c.164-.191.5-.333.526-.412C105.064,150.139,104.88,150.313,104.838,150.273Zm2.1-2.249a.2.2,0,0,0-.06.057c.062-.079.124-.171.184-.258C107.015,147.89,106.976,147.959,106.933,148.024Zm1.331-5.665a.152.152,0,0,1,.05-.107,1.584,1.584,0,0,0,0-.464c-.042.03-.015.154-.025.261a1.977,1.977,0,0,1-.02-.36c.077.174.075.045.137.065.045.472-.035.452-.094.5C108.3,142.316,108.284,142.356,108.264,142.359Zm.141.015.007.2-.087-.017Zm-.325-7.649c.017.184.03.375.04.566-.007.07-.027.074-.057-.03A1.21,1.21,0,0,0,108.08,134.725Zm-.055-.434c-.025-.166-.055-.333-.082-.482C107.976,133.968,108,134.126,108.026,134.29ZM97.154,154.116l-.38,0-.02-.077Zm12.115-18.011,0,.434-.03-.621Zm-.66-4.059c.089.278.181.586.261.909.032.2.067.4.1.606a9.4,9.4,0,0,0-.6-1.907c-.035-.1-.07-.2-.1-.293A5.3,5.3,0,0,1,108.609,132.046Zm-2.478-3.416c.236.228.626.524.777.69a4.356,4.356,0,0,0-.583-.6,3.389,3.389,0,0,1,.526.454l.487.573c.256.38.432.623.375.367.209.256.655,1.259.449.938-.107-.186-.228-.42-.385-.655s-.343-.479-.539-.7-.4-.43-.593-.6l-.5-.4c-.037-.012-.089-.062-.213-.139a1.11,1.11,0,0,1,.213.139c.037.015.032-.012-.01-.067-.087-.092-.181-.146-.214-.191A.751.751,0,0,1,106.131,128.63Zm-2.6-1.321c.278.082.636.241.782.3.045.025.094.06.139.084a9.105,9.105,0,0,0-1.164-.434C103.346,127.265,103.428,127.284,103.53,127.309Zm-6.092-.73.353-.02c-.9.151-.439.06-.353.02-.142,0-.281.022-.42.037C97.428,126.542,97.48,126.565,97.437,126.579Zm-.253.119c-.439.057-1.455.33-1.6.372A7,7,0,0,1,97.184,126.7Zm-2.383.75c.613-.181.246-.032.387-.06l0,0C94.933,127.458,94.739,127.5,94.8,127.448Zm-2.567,1.169-.025-.01C92.234,128.6,92.244,128.6,92.234,128.618ZM90.067,130a5.553,5.553,0,0,0,.75-.559l-.159.191c-.429.263-.653.415-.864.534l-.333.2a5.615,5.615,0,0,0-.529.355,6.455,6.455,0,0,1,.626-.5,2.342,2.342,0,0,1,.325-.2C90.044,129.933,90.1,129.943,90.067,130Zm-.993,1-.146-.186-.072-.092c-.042-.035.04-.052.055-.077l.362-.293.2-.169c.055-.042.114-.092.184-.142l-.385.31c-.137.117-.236.209-.318.29l-.06.06c0,.02.037.047.052.07l.124.139a5.343,5.343,0,0,1,.571.819Zm13.2-2.932.2.045Zm3.225,1.567a2.978,2.978,0,0,0-.621-.531,6.862,6.862,0,0,1,.76.556A.3.3,0,0,1,105.5,129.631Zm2.128,4.759a3.813,3.813,0,0,0-.079-.509A1.012,1.012,0,0,1,107.628,134.39Zm-.025-1.534c-.109-.37-.164-.467-.1-.447-.055-.179-.2-.452-.256-.633a2.983,2.983,0,0,1,.36,1.08l.1.345C107.656,133.051,107.626,132.947,107.6,132.855Zm.228,2.708a8.34,8.34,0,0,1,0,1.432c.01-.256.015-.38.01-.566-.032.132-.079.643-.089.268C107.787,136.438,107.792,135.571,107.832,135.564Zm-3.349,3.4.194.047-.181,0,.752.03a15.664,15.664,0,0,1-2.2-.074C103.487,138.977,104.694,139.089,104.483,138.965Zm-2.344.219h-.209l-.04-.012C101.973,139.174,102.058,139.181,102.139,139.183Zm-5.208-.293c-.6,0-.824.117-1.318.072A4.231,4.231,0,0,1,96.931,138.891ZM95.2,139.1c-.938.164.464.017-.149.132l.489-.074c-.787.179-.581,0-1.135.134.124-.03.246-.065.372-.082.285-.107-.581.07-.658.052A3.621,3.621,0,0,1,95.2,139.1Zm-4.287,1.519.29-.161A2.763,2.763,0,0,0,90.908,140.616Zm-2.9,3.659c-.03.151.03,0,.134-.248a5.967,5.967,0,0,0-.253.958A2.9,2.9,0,0,1,88.009,144.275Zm4.084,9.2c.546.184.6.228.958.372A5.309,5.309,0,0,1,92.092,153.476Zm.829.38c.931.231.735.3,1.3.429C93.463,154.181,93.6,154.066,92.922,153.855Zm10.625-1.251a3.485,3.485,0,0,1-.338.159.243.243,0,0,1-.1.022c.191-.092.38-.191.564-.293C103.731,152.47,103.713,152.493,103.547,152.6Zm4.7,1.547,0-.037v.037h.539a1.557,1.557,0,0,0,.2.02Zm1.095-.348-.012-1.144-.02,1.447-.015-2.413c.015-.089.03-.213.062-.218C109.334,151.919,109.428,153.319,109.346,153.8Zm.05-4.846-.027-.305c-.022.653-.052.956-.079,1.172l0-.566.007.035c0-.936.015-2.314.084-2.833.057.613-.062,1.455-.03,1.631a5.685,5.685,0,0,1,.072-.948A14.956,14.956,0,0,1,109.4,148.957Z" transform="translate(-12.722 -126.212)" fill="#fff"/><path d="M81.524,128.2l.007-1.127,0-.571v-.139c-.01-.035-.079,0-.117-.01l-.266.012a7.044,7.044,0,0,1-1.164.02l.1.072-.879.04.506,0a14.967,14.967,0,0,0-2.639.531h.094a3.026,3.026,0,0,1-.439.139h.139a7.516,7.516,0,0,0-1.544.737c-.216.122-.427.258-.668.427s-.521.357-.852.608c-.348.288.206-.144.228-.127-.179.171-.636.524-.735.6.144-.04.641-.521.29-.122-.3.226.231-.124-.258.31l-.253.107c-.236.281,0,.1-.392.524-.477.462.464-.67-.261.112-.328.43-.536,1-1.07,1.864-.375.794.33-.343-.236.722.04-.077.094-.149.139-.223-.122.241-.238.484-.348.737l-.017.037.015-.027c-.117.271-.226.551-.325.839v-.2c.035-.367.012-1.127,0-1.581v-.266l0-.077,0-.015v-1.112l.032.045a4.553,4.553,0,0,1,0-1.077,5.387,5.387,0,0,1,.035,1.112c.022-1.4.154-1.418.1-2.6l-.027.2a8.038,8.038,0,0,1-.01-.978l.045-1.112-.31,0c.253-.017.343-.047.228-.062l-1.37.03.007,1.912.017,1.81-.082.492.062.03c.025.72-.065.29-.079.573a.155.155,0,0,1,.025-.087c-.072.926.057.514.037,1.035.067-.248.025-1,.114-.77a14.426,14.426,0,0,1-.184,2.495c.062,1.713-.032,3.841-.047,5.283.027.2.022-.124.042-.047-.087.569.062,1.912-.017,1.922a1.59,1.59,0,0,0,.1.464c-.04.367-.057.8-.067,1.269l.02-.34.012.037-.032.484,0-.02c-.022,1.157,0,2.5-.087,3.545.052-.606.094.151.127-.134a17.051,17.051,0,0,0-.114,2.85c.025,0,.047.074.067-.047l-.052.6.032-.082c.022,1.077-.117,2.252-.057,2.962.015-.439.042-.442.082-.487l-.022,2.214.8.017c-.082-.007-.132-.015-.132-.025.285-.01.69.012,1.038.027l.007-.186-.062-.1.012-.554,0-.415c0-.276,0-.561.032-.834-.07-.216.062-1.326.032-1.959.017-.243-.069.526-.067-.151.137-.1,0-.881.149-.933l-.052-.593.072-.129c-.137-.506.062-.767.017-1.517-.015.04-.02.119-.03.079.015-.241.025-.8.062-.365,0-.4.032-1.76-.045-1.152a3.309,3.309,0,0,1-.01.757c-.062-.032-.037-.633-.1-.782,0-.02.017-.1.027-.156l-.04-.087c.07-.75.02-1.514.109-2.058a1.247,1.247,0,0,1-.03-.422l.077-.007v-.8l-.114.37c-.022-.876.107-1.49.124-2.207a2.431,2.431,0,0,1-.037-.852c0-.412.1-.834.06-1.144l-.092.539a14.378,14.378,0,0,1,.36-2.418c-.1.452-.1.69-.149.971a8.419,8.419,0,0,0-.079,1.291,16.423,16.423,0,0,1,.693-3.476c-.057.067-.174.355-.109.06a3.356,3.356,0,0,0,.236-.6c.084-.221.166-.387.164-.29.127-.357.084-.449.166-.668.223-.367.444-.732.7-1.072l-.035.025a6.621,6.621,0,0,1,2.006-2.314,10.717,10.717,0,0,1,2.7-1.425l-.052-.025a4.77,4.77,0,0,1,.529-.114c-.42.07.161-.1.186-.139l.683-.124.693-.062c.027-.042-.067-.112-.4-.042a4.259,4.259,0,0,1,.787-.109c.3,0,.4.015.971-.022l-.318-.015.454-.015.231-.01.117,0c.055.012.017-.06.03-.087ZM70.99,142.983l-.007.343C70.973,143.149,70.94,143.017,70.99,142.983Zm.139-7.065-.052.156.035-.134Zm-.549,16.055c-.149-.544.025-.2-.035-1.115,0,1.058-.089.645-.146.6.079-.2.04-1.4.184-1.2V151.6C70.578,151.721,70.575,151.85,70.58,151.972Zm0-7.386,0,.154-.01-.037.012-.5Zm-1.063-14.62a3.911,3.911,0,0,0-.035.812l.035-.154v.514c-.007.03-.017.119-.04.32-.03-1.107,0-2.331.04-3.488Zm-.027,4.608-.032-.119,0-.278Zm.027,1.5v1.293l-.022.2A5.758,5.758,0,0,1,69.52,136.076Zm0,5.742a6.524,6.524,0,0,1-.025-.693c.01-.065.015-.142.025-.211Zm0,5.268v.02c-.015.151-.037.263-.065.216C69.478,146.937,69.5,147.141,69.52,147.086Zm-.074,3.677a1.74,1.74,0,0,0-.027-.6l.07.151a7.458,7.458,0,0,1-.166,1.179C69.284,150.86,69.4,150.686,69.446,150.763Zm1.137-3.741v-.611c.017.022.037.02.07.082A3.253,3.253,0,0,0,70.583,147.022Zm0-4.253v-.4c.012-.055.03-.065.055.01A1,1,0,0,0,70.583,142.769Zm2.949-12.949a4.135,4.135,0,0,1,.392-.387c-.149.238,0,.1.015.171-.494.514-.531.434-.621.447-.074.065-.129.1-.144.084a.289.289,0,0,1,.144-.084,4.234,4.234,0,0,0,.521-.482C73.78,129.569,73.656,129.718,73.532,129.82Zm2.42-1.82.228-.087.042.067ZM77,127.769c-.114.035-.588.221-.467.124A3.686,3.686,0,0,1,77,127.769Zm-3.741,2.483-.206.233-.045-.082Zm3.535-3.4a3.366,3.366,0,0,1,.638-.134A2.615,2.615,0,0,1,76.794,126.853Zm1.609-.062a3.571,3.571,0,0,1-.864.154A3.186,3.186,0,0,1,78.4,126.791Zm-5.792,3.771a1.839,1.839,0,0,1,.169-.171c.035-.027.05-.035.06-.035-.089.1-.176.206-.263.31C72.544,130.691,72.547,130.672,72.611,130.562Zm-2.028-.218v-.37a.572.572,0,0,0,.02-.122C70.593,130.009,70.588,130.18,70.583,130.344Zm.062-2.413a14.109,14.109,0,0,1-.027,1.482l-.007-.722c-.015.325-.02.638-.027.914v-1.532C70.6,128.013,70.613,127.933,70.645,127.931Zm-1.283-1.281c.273.015.514.042.74.047l-.226.027a4.834,4.834,0,0,1,.72.072l-.012.079v-.067h-.288l.017-.007-.814-.015a7.223,7.223,0,0,1-.087,1.048,9.691,9.691,0,0,1,.042-1.09l.02,0-.025,0c-.022.2-.025.665-.074.658A4.786,4.786,0,0,1,69.361,126.65Zm.015,2.545.067-.248,0,.479Zm.07,8.582c-.012.544.012,1.574.05,1.986a.38.38,0,0,1,.022.161,1.387,1.387,0,0,1-.022-.161c-.012-.025-.03-.012-.045.032a.779.779,0,0,1-.025.179.506.506,0,0,1,.025-.179,4.024,4.024,0,0,0-.012-.66c-.03.084-.025.4-.045.529-.074-.474.146-1.542-.065-1.236C69.354,138.226,69.409,137.538,69.446,137.777Zm-.124,7.964.012,1.04A4.879,4.879,0,0,1,69.322,145.741Zm-.079-.169-.03.263c0-.261.017-.29.03-.263l.027-.221C69.3,145.924,69.27,145.629,69.242,145.572Zm.045,6.487-.037-.809A1.523,1.523,0,0,1,69.287,152.059Zm1.393-8.1c0,.251.007.323-.042.3-.02.119,0,.318-.015.439a2.114,2.114,0,0,1,.057-.735l0-.231A2.2,2.2,0,0,1,70.68,143.961Zm.2-1.765c.057-.484-.089-.829.02-.921a3.18,3.18,0,0,0-.01.362c.03-.084.077-.41.087-.169A4.629,4.629,0,0,1,70.883,142.2ZM71,137.571l-.067.112.012-.114c-.032.156-.077.31-.1.467a5.281,5.281,0,0,1,.31-1.36C71.082,136.945,70.853,137.682,71,137.571Zm1.554-4.436c.2-.305.2-.477.444-.67A2.746,2.746,0,0,1,72.552,133.134Zm.529-.928c.305-.5-.223.186-.032-.149l-.166.258c.236-.444.236-.268.444-.551-.047.065-.1.124-.137.191-.07.179.243-.263.313-.266C73.329,131.9,72.966,132.407,73.08,132.206Zm4.382-3.627c.094-.045-.03-.03-.218.022.206-.079.412-.161.626-.228C77.849,128.41,77.651,128.469,77.462,128.579Z" transform="translate(-39.633 -126.31)" fill="#fff"/><path d="M131.875,127.072c-.037.084-.065.132-.077.129a3.145,3.145,0,0,0-.154.65c-.228.469-.479,1.038-.735,1.646l.2-.439-.007.052-.285.626,0-.027c-.636,1.517-1.326,3.284-1.961,4.635.333-.7.072.05.149-.062a36.189,36.189,0,0,0-1.579,3.644c.025,0,0,.117.087-.037l-.367.775.072-.094c-.551,1.427-1.3,2.919-1.624,3.878.248-.573.273-.566.335-.608-.412,1.015-.8,1.974-1.313,3.145.032-.06.057-.1.067-.1-.114.315-.3.678-.437.991l.04.067c-.271.6-.556,1.393-.894,2.1-.05.308-.762,1.723-1.072,2.567-.141.315.348-.668-.017.226-.087.037-.206.328-.32.611l-.087.206a.265.265,0,0,1-.035.06c-.022.027-.045.03-.07,0a2.446,2.446,0,0,1-.057.283l-.01-.082,0-.1c-.03.109-.072-.037-.074-.114a3.369,3.369,0,0,0-.315-.9c0,.057.045.166.012.119-.114-.325-.4-1.065-.139-.509-.214-.526-.906-2.329-.653-1.5a6.532,6.532,0,0,1,.395,1c-.074-.02-.372-.819-.514-.991l-.057-.216-.082-.1c-.338-1.015-.789-2-1-2.756a2.526,2.526,0,0,1-.253-.544l.067-.045-.427-1.05.094.536c-.489-1.147-.7-2.006-1.063-2.962-.221-.194-.705-1.869-1.144-2.646l.268.755c-.621-1.591-.794-1.815-1.351-3.307.549,1.236.526,1.254,1.363,3.036-.792-1.81-1.211-3.19-1.961-4.839.017.124.169.551-.027.154-.07-.353-.64-1.579-.467-1.36-.236-.509-.34-.574-.479-.886l-.618-1.785.007.06c-.348-.735-.658-1.457-.943-2.172l-.936-2.428-2.281-.035.871,2.212c.2.514.42,1.03.65,1.557l.015-.072.248.767c-.2-.6.151.233.2.266l.7,1.939c.052.03.084-.114-.124-.576.338.708.564,1.49.817,2.123l-.055-.228.233.646.045-.027c.41,1.06.993,2.346,1.075,2.761l.027-.154.395,1.14-.209-.66c.529,1.246,1.249,3.173,1.358,3.441l-.017-.127a5.312,5.312,0,0,1,.226.586l-.025-.181c.762,1.892,1.07,2.368,1.889,4.491.246.571-.117-.323-.1-.343a9.384,9.384,0,0,1,.479,1.219c0-.2-.387-1.075-.055-.422.161.492-.072-.353.261.5l.047.365a5.327,5.327,0,0,1,.4.809c.31.861-.524-1,.025.372.286.683.787,1.355,1.284,2.7.514,1.125-.112-.655.514.933l-.184-.531.487,1.187.042.112-.025-.075.5,1.216h.281c.221.015.531.02.9.02l.482-1.226.164-.4.045-.1,0-.02.6-1.462.007.072a9.065,9.065,0,0,1,.583-1.415,10.808,10.808,0,0,1-.569,1.475c.775-1.832.906-1.8,1.495-3.384l-.132.251c.338-.993.844-1.951,1.192-2.8-.082.246-.074.308-.015.2.71-1.9,1.512-3.731,2.353-5.889l.343-.613-.042-.065c.4-1.058.174-.194.444-.871-.1.258-.094.209-.132.253a9.643,9.643,0,0,0,.521-1.373c-.194.3-.561,1.308-.519.968a28.472,28.472,0,0,1,1.514-3.207c.866-2.277,2.1-5.032,2.887-6.921.055-.164.032-.124-.007-.037-.03.057-.067.137-.055.082.042-.069.156-.325.251-.549l.313-.752-1.964.032Zm-8.555,22.517c-.181.233-.794,1.867-.817,1.532l.717-1.78c.069-.164.141-.333.2-.5-.154.772-.132.258-.561,1.482C123.422,148.933,123.288,149.507,123.321,149.589Zm-4.95-4.985a1.838,1.838,0,0,0,.154.536l-.214-.526C118.293,144.534,118.306,144.517,118.37,144.6Zm1.122,2.927.082.2-.03-.045-.258-.668Zm-3.088-5.246-.214-.665C116.263,141.779,116.526,142.469,116.4,142.285Zm.129.439.052.37-.117-.325Zm2.031,5a.55.55,0,0,1-.042-.231,7.27,7.27,0,0,0-.382-.951,2.6,2.6,0,0,0,.194.539c-.07-.156-.2-.4-.318-.727.216.328.107.067.181.084.432.946.34.933.325,1.055C118.564,147.625,118.581,147.712,118.564,147.722Zm.223.39-.079-.41.176.417Zm10.75-15.193.141-.281c-.273.767-.146.367-.141.281l-.166.338C129.51,132.913,129.539,132.879,129.537,132.918Zm-.015.253-.541,1.375A9.8,9.8,0,0,1,129.522,133.172Zm-.531,1.845-.01.027c-.094.194-.174.333-.174.261C129.033,134.805,128.946,135.083,128.991,135.016Zm-2.018,4.814a3.542,3.542,0,0,0,.29-.794l-.017.226a14.249,14.249,0,0,1-.777,1.492C126.771,139.9,126.97,139.713,126.972,139.83Zm-.439.569a3.119,3.119,0,0,1-.395,1.082ZM120.778,150.7l-.313-.767c.032.022.047.007.107.074A6.022,6.022,0,0,0,120.778,150.7Zm-1.189-3.044a4.278,4.278,0,0,1-.34-.991l-.119-.305c.057.132.092.223.119.305.132.33.179.419.119.4C119.413,147.24,119.542,147.491,119.589,147.66Zm-.4-1.951c-.1-.228-.2-.387-.179-.454Zm-1-2.448a9.1,9.1,0,0,1,.3,1c-.206-.66-.524-1.055-.474-1.219.079.216.117.325.184.479C118.189,143.4,118.057,142.95,118.194,143.261Zm-2.262-5.107.022.179-.067-.151.228.645a13.033,13.033,0,0,1-.68-1.882C115.582,137.32,115.89,138.378,115.932,138.154Zm-1-1.889-.072-.176,0-.04C114.885,136.121,114.907,136.193,114.932,136.265Zm-1.475-4.493a8.4,8.4,0,0,1-.41-1.1A3.883,3.883,0,0,1,113.457,131.771Zm-.623-1.432c-.343-.777.077.41-.156-.1l.171.41c-.325-.648-.134-.5-.34-.966l.137.31c.149.231-.161-.5-.146-.571C112.668,129.785,112.973,130.649,112.834,130.339Zm-1.763-.489c.065.132.027-.037-.065-.3l.36.881C111.327,130.406,111.22,130.12,111.071,129.85Zm3.831,9.935a6.5,6.5,0,0,1-.355-.832A4.813,4.813,0,0,1,114.9,139.785Zm-.084-.079a5.594,5.594,0,0,1,.395,1.139A7.588,7.588,0,0,1,114.818,139.706Zm4,8.979-.117-.32a.266.266,0,0,1-.015-.094l.221.539C118.914,148.864,118.892,148.844,118.815,148.685Zm5.181,1.48.2-.487a.813.813,0,0,0,.084-.154C124.187,149.725,124.09,149.949,124,150.165Zm.534-1.211.382-.953c-.189.425-.36.832-.516,1.192l.824-2.013c.045-.072.1-.169.134-.161C125.175,147.377,124.763,148.6,124.53,148.953Zm2.393-5.541a12.271,12.271,0,0,1-.658,1.512l.082-.268a10.184,10.184,0,0,1-.484.953l.191-.467a.066.066,0,0,1,0,.022,24.564,24.564,0,0,1,1.07-2.341c-.164.536-.566,1.194-.6,1.355A4.566,4.566,0,0,1,126.923,143.412Zm.966-2.366-.2.3.263-.628Zm-.772,1.5,1.055-2.574a8.216,8.216,0,0,0,.472-1.05l-.117.189.278-.678c.02-.032.079-.149.209-.4C128.442,139.5,127.782,141.034,127.116,142.551Zm3.528-8.446-.154.365.191-.534Zm.819-2.152.7-1.7.129-.256A11.693,11.693,0,0,1,131.463,131.953Zm2.093-4.923a9.688,9.688,0,0,0-.37.933,2.222,2.222,0,0,0,.159-.315c.07-.156.149-.34.2-.439a11.452,11.452,0,0,1-.541,1.269c-.174.37-.278.618-.1.459-.132.256-.554,1.137-.462.809.308-.717.832-2.051,1.033-2.649a.7.7,0,0,1,.06-.2,1.438,1.438,0,0,1-.06.2c0,.027.032,0,.077-.067.055-.119.112-.233.146-.293A1.689,1.689,0,0,1,133.556,127.03Zm-1.306-.1-.464,1.152c.055-.2.271-.742.345-.924Z" transform="translate(19.688 -126.332)" fill="#fff"/><path d="M81.353,131.1c.025-.027.06-.052.017-.074l-.129-.139a7.437,7.437,0,0,1-.521-.628,1.9,1.9,0,0,0-.2-.1c-.206-.226-.415-.449-.638-.658-.141.042-1.023-.792-1.231-.75-.871-.564.164,0-.154-.189a16.562,16.562,0,0,0-2.7-1.3,15,15,0,0,0-2.376-.576l-.04-.069c-.367-.05-.8-.072-1.157-.112,0-.01.052-.015.124-.017a14.815,14.815,0,0,0-1.9-.012l-.879.047c-.288.025-.573.079-.864.119.06-.052.06-.079.725-.189a13.875,13.875,0,0,0-4.345,1.219l.1-.082-.809.439c.159-.1.04-.065.032-.089a12.163,12.163,0,0,0-2.068,1.355,7.128,7.128,0,0,0-.8.745,3.482,3.482,0,0,0-.516.616c.268-.35-.531.489.045-.241a14.708,14.708,0,0,0-2.79,4.61l.015-.025-.206.705-.027.05.144-.5c-.107.338-.216.663-.3.978l-.166.891a2.307,2.307,0,0,0-.233.675,6.4,6.4,0,0,1-.149,1.132,10.42,10.42,0,0,0-.055,1.78c-.015.117-.032-.37-.045-.072a15.672,15.672,0,0,0,.551,3.818,15.857,15.857,0,0,0,1.626,3.836,8.706,8.706,0,0,1,.926,1.12c.241.283.524.578.794.876s.593.536.854.765c.206.3-.623-.487-.919-.725.566.549.032.206,1.12,1.1l-.035-.012c.184.129-.107-.2.66.412v.079a5.269,5.269,0,0,0,.66.353,13.691,13.691,0,0,0,6.36,2.115c.132-.007.077-.042-.2-.072a15.579,15.579,0,0,0,1.567.01c.546-.022,1.107-.087,1.663-.124l-.3.06a7.709,7.709,0,0,0,1.81-.35c.4-.134.832-.278,1.549-.573a4.391,4.391,0,0,1-1.187.36c.166-.084,1.182-.415,1.522-.539l-.084,0a13.162,13.162,0,0,0,1.81-.919l-.087.057c.1-.055.221-.129.355-.211l.037-.025c.3-.186.655-.422.978-.67a8.361,8.361,0,0,0,.645-.556l0,0c.06-.06.112-.112.154-.159s.109-.089.159-.137l-.69-.745a13.594,13.594,0,0,1-1.388,1.09c.156-.122.318-.238.469-.367-1.447,1.05.119-.149-.973.534a8.846,8.846,0,0,1-2.848,1.159c-1.442.452.576-.089-.31.223a3.692,3.692,0,0,1-.921.164c-.112.055-.226.114-.343.164-.928.166-.055-.077-.578.037-.755.027.233-.057.4-.171a5.7,5.7,0,0,1-1.331.171c.01-.017.991-.117.36-.067a11.59,11.59,0,0,1-2.584-.03l-1.053-.174-1.286-.323a1.168,1.168,0,0,0,.186,0,3.391,3.391,0,0,1-.608-.184l.127.01a10.4,10.4,0,0,1-1.37-.521,7.229,7.229,0,0,1-1.023-.536,6.685,6.685,0,0,1-.924-.633l.591.37c-.335-.226-.68-.442-1.01-.68a1,1,0,0,0,.154.022,6.9,6.9,0,0,1-.931-.789,13.8,13.8,0,0,1-1.122-1.365l.047-.025a4.744,4.744,0,0,1-.41-.559l.146.186c-.171-.3-.38-.613-.588-.941a10.72,10.72,0,0,1-.5-1.082c.2.474.323.551.338.494a7.007,7.007,0,0,1-.429-.943,9.263,9.263,0,0,1-.35-.983c.025-.06-.171-.953.012-.34-.074-.261-.179-.516-.228-.785l.05.055a17.2,17.2,0,0,1-.1-4.657,10.182,10.182,0,0,1,1.509-4.369l-.015.057a11.166,11.166,0,0,1,.988-1.629c.238-.253.358-.283.755-.683-.243.139.77-.772,1.035-1.01.38-.241.022.05-.055.146a11.662,11.662,0,0,1,4.714-2.2,10.717,10.717,0,0,0-1.859.462c-.4.139-.71.288-1.331.573a8.232,8.232,0,0,1,1.616-.717c.233-.069.464-.159.75-.236l1.043-.253-.782.226a11.427,11.427,0,0,1,2.895-.343,10.638,10.638,0,0,1,3.19.141c-.184-.007-.37.007-.551.012.377.06.75.146,1.12.241l.035-.072a2.093,2.093,0,0,1,.576.2,10.368,10.368,0,0,1,2.728,1.167l.079.1.2.1c.151.164.837.69.827.772-.266-.226-.933-.663-.861-.658-.382-.213-.164-.057.2.2a11.258,11.258,0,0,1,1.043.871c-.209-.228-.169-.206-.045-.1l.231.206.129.117.186.194c.062.082-.082-.067-.166-.134l.472.519.214.226c.015.01.032.05.05.035l.052-.057.1-.112.688-.8.3-.345Zm-1.1.573.077-.082A.415.415,0,0,1,80.256,131.678Zm-1.6-2.555c.065.124-.211-.042-.564-.248a6.569,6.569,0,0,0-1.08-.531c-.042-.062-.524-.467.849.3-1.159-.715-.8-.3-1.462-.784l0,0,.2.092A12.517,12.517,0,0,1,78.657,129.123Zm-2.435-.209-.057-.027c.2.084.392.174.588.263l.042.035C76.607,129.091,76.415,129,76.222,128.915Zm-.281-.119-.067-.03c.03.012.06.027.089.037Zm-17,14.858q-.1-.484-.179-.983c.055.286.107.459.1.305C58.869,143.306,58.96,143.617,58.941,143.654Zm9.4,9.362.032-.075.362.035Zm-1.216-.186.735.119C68.074,153.043,67.3,152.879,67.121,152.829Zm5.355.323.834-.1a3.824,3.824,0,0,0-.6.119,5.12,5.12,0,0,0,1.07-.2.594.594,0,0,1,.228-.1c0,.02-.087.057-.228.1-.1.07-.03.179-1.14.3C72.592,153.212,72.89,153.179,72.476,153.152Zm2.008-.348.067.072-.467.119ZM58.96,146.819c-.042-.087-.079-.176-.119-.266C58.881,146.643,58.918,146.732,58.96,146.819Zm3.3-16.936a1.52,1.52,0,0,1,.179-.179C62.379,129.761,62.322,129.823,62.26,129.883Zm16.656.809a.173.173,0,0,1-.037-.107c.2.164.387.33.573.509A4.018,4.018,0,0,0,78.915,130.692Zm-3.538-2.013a3.11,3.11,0,0,1,.32.119,3.267,3.267,0,0,1,1.02.392c-.171-.065-.427-.206-.6-.266.015.06-.077.007-.422-.127Zm-1.147-.037c.065-.032.238.052.479.132Zm-.824-.591c.144.027.286.055.427.084a.993.993,0,0,0-.375-.022C73.379,128.076,73.367,128.056,73.407,128.051Zm-1.077.154a4.286,4.286,0,0,0-.526-.032c.144-.1.633.072,1.336.132-.017.042-.822-.06-1.065-.035C71.726,128.237,72.2,128.22,72.329,128.2Zm-7.157,1.157c.209-.109.452-.261.755-.427a6.248,6.248,0,0,1,1.135-.417l-.66.263.164-.052-.156.1c.074-.087-.154-.025-.434.107Zm-1.045.37.027-.03c.05-.032.1-.062.154-.094C64.248,129.65,64.186,129.689,64.127,129.731Zm-3.684,4.486a5.114,5.114,0,0,1,.588-1.048A6.627,6.627,0,0,1,60.443,134.217Zm-.626,1.241c-.012-.074.335-.812.174-.581l-.154.318c.233-.469.022-.335.4-.983a3.77,3.77,0,0,0-.2.415c.258-.514-.221.7.161-.094C60.346,134.222,60,135.1,59.817,135.459Zm5.36,16.065a3.376,3.376,0,0,1-.8-.472C64.69,151.213,65.075,151.471,65.177,151.524Zm1.068.358a4.622,4.622,0,0,1-1.144-.447A11.426,11.426,0,0,1,66.244,151.881Zm8.907.539c-.2.07-.395.146-.6.206a.247.247,0,0,1,.087-.05l.335-.124A.642.642,0,0,1,75.152,152.42Zm4.742-1.609.025-.025.01.025-.017.017Zm-5.37,2.934a.745.745,0,0,0,.186-.074c.31-.087.611-.191.909-.3C75.293,153.5,74.881,153.644,74.524,153.745Zm-2.828.492c0-.04.169-.07.251-.089a13.773,13.773,0,0,0,2.527-.42,14.223,14.223,0,0,1-1.651.367c.355-.052.713-.1,1.065-.181A10.061,10.061,0,0,1,71.7,154.237Zm-3.232-.184a9.494,9.494,0,0,1-1.537-.305c.251.027.7.109,1.192.213l1.492.184-.032-.01c.171.015.35.015.524.025l-.223.017a4.282,4.282,0,0,1-.884-.032l.288.067a6.76,6.76,0,0,1-1.728-.271C67.58,153.889,68.158,154.056,68.464,154.053Zm-2.8-.829a12.44,12.44,0,0,1-2.14-1.1c.166.092.328.171.482.248a12.742,12.742,0,0,0,2.664,1.184C66.331,153.46,66,153.351,65.666,153.224Zm-.953-.377.653.3-.365-.1Zm-2.52-1.706c.261.181.375.256.4.271.2.159.4.315.616.462-.072-.037-.142-.074-.211-.114.062.055.122.092.181.137A11.558,11.558,0,0,1,62.193,151.141Zm-2.9-3.612.276.529-.213-.36Zm-1.475-4.21c.022.07.045.146.07.218a14.165,14.165,0,0,0,.516,1.894c-.072-.176-.146-.355-.216-.529A6.829,6.829,0,0,1,57.814,143.319Zm-.2-3.5a.946.946,0,0,1-.032.241,12.436,12.436,0,0,0,.139,2.967c.012.36-.184-.655-.251-.956.246.437-.1-1.144,0-1.864a5.063,5.063,0,0,0,.055.792c0-.211,0-.675.012-.986a1.257,1.257,0,0,1-.015-.273,1.49,1.49,0,0,1,.015.273c.012.065.03.084.045.047A2.039,2.039,0,0,1,57.615,139.816Zm.367-2.8c-.1.439-.181.891-.241,1.353,0-.117.012-.233.02-.343A5.184,5.184,0,0,1,57.982,137.02Zm2.277-5.578-.211.348c.074-.057.36-.4-.174.288l.174-.288C60.013,131.814,60.028,131.767,60.259,131.442Zm1.038-.993c-.109.114-.78.847-1.035,1.177A7.136,7.136,0,0,1,61.3,130.449Zm.5-.2-.025.02c.05-.069-.191.122.216-.288C62.054,129.95,61.947,130.079,61.793,130.245Zm2.388-1.862,0,.03C64.161,128.413,64.164,128.4,64.181,128.383Zm3.27-1.4c-.705.248-.75.325-1.646.685l-.238.012a4.108,4.108,0,0,0,.852-.273C66.3,127.423,66.5,127.162,67.451,126.986Zm.822-.221a4.18,4.18,0,0,1-1.207.241c-.132.032-.263.05-.39.094a2.166,2.166,0,0,1,.39-.094C67.468,126.929,67.866,126.817,68.273,126.765Zm12.4,4.129c-.169-.181-.345-.357-.521-.529.109.1.221.211.328.323Z" transform="translate(-57.25 -126.149)" fill="#fff"/><path d="M110.744,151.63l-.36-.479-.333-.42a6.82,6.82,0,0,1,.4.581.312.312,0,0,1,.057.164l-.569-.765c-.012-.012-.022-.04-.037-.037l-.047.035-.094.07-.189.142c-.114.087-.281.208-.362.261a6.4,6.4,0,0,1-1.132.608c.05-.015.082-.022.087-.015a3.768,3.768,0,0,1-.735.268l-.012.069a6.673,6.673,0,0,1-1.619.333,2.473,2.473,0,0,1-.839.055,7.291,7.291,0,0,1-1.122-.161c-.228-.075.494.2-.161.03-.065-.124-.812-.318-.777-.487a4.252,4.252,0,0,1-.494-.281l-.042-.139c-.447-.233-.469-.564-.844-1.172,0,.04.035.114.01.084-.109-.211-.29-.735-.1-.35-.2-.34-.454-1.693-.395-1.075a5.691,5.691,0,0,1,.206.732c-.077,0-.228-.6-.323-.732,0-.02,0-.1,0-.161l-.057-.079a9.378,9.378,0,0,1-.1-2.133,1.243,1.243,0,0,1-.037-.444l.079-.012,0-.856-.114.4c-.022-.938.107-1.6.127-2.371-.132-.2.05-1.5-.067-2.175l-.035.6c.025-1.288-.055-1.492-.01-2.694.042,1.018.017,1.025.124,2.51-.055-1.492.074-2.577,0-3.94-.03.089-.05.432-.082.1.067-.266,0-1.286.074-1.085-.025-.422-.1-.5-.109-.755l.1-1.423-.017.042a28.116,28.116,0,0,1-.025-3.227l.06-1.579c.012-.367.022-.956.022-1.092l.007-.007-.007-.042c-.03.01.149.02.228.03l.3.032c-.474-.042.206-.052.243-.089l1.554.089c.037-.035-.055-.119-.437-.1.591-.042,1.2.045,1.715.05l-.176-.037.519.03,0-.052a22.13,22.13,0,0,1,2.234.055l-.1-.084.909.067-.519-.057c.449-.007,1,0,1.5.012l1.614.032,0-.243-.03.142c-.017-.305,0-.529.015-.869l-.047.243,0-1.187-1.1.02-.645.022c-.442.012-.931.02-1.646,0-.469.01.258.015.266.04a5.21,5.21,0,0,1-.988-.02c.137.074.861.052.31.109-.39-.035.268.067-.42.055l-.271-.094c-.382.017-.074.072-.68.065-.69-.042.844-.107-.266-.119a17.418,17.418,0,0,1-2.252.164c-.931.05.489.146-.8.122l.425.032h-.968l-.092,0,.06,0H99.234v.211c-.037.395-.012,1.2,0,1.693v.288l0,.079,0,.017v1.192l-.035-.05a5.252,5.252,0,0,1,0,1.157,6.22,6.22,0,0,1-.032-1.192c-.025,1.5-.154,1.519-.1,2.79l.025-.216c.065.792-.042,1.606-.04,2.3-.015-.2-.047-.236-.06-.144.065,1.534.015,3.041.055,4.786l-.082.526.062.032c.025.772-.067.31-.079.616a.179.179,0,0,1,.022-.094c-.07.993.06.551.04,1.107.067-.263.025-1.072.114-.824a16.508,16.508,0,0,1-.184,2.674c.037.923.007,1.939.017,2.949a12.459,12.459,0,0,0,.3,2.768c.072.2-.01-.139.03-.062a4.3,4.3,0,0,0,.4,1.239,6.653,6.653,0,0,1,.367.757,1.559,1.559,0,0,0,.37.385,4.238,4.238,0,0,0,.928,1.085l-.276-.273.04.02a3.157,3.157,0,0,0,.4.37l-.02-.007a6.477,6.477,0,0,0,3.786,1.095c-.678-.03.166-.1-.154-.119a6.551,6.551,0,0,0,3.1-.524c-.012-.022.062-.072-.07-.045.213-.06.422-.134.633-.211l-.094.01a14.867,14.867,0,0,0,1.611-.874l.559-.387.137-.094a.765.765,0,0,0-.084-.129Zm-5.918,1.192a3.188,3.188,0,0,0,.462,0,.72.72,0,0,1-.449.052c-.107-.025-.258-.035-.747-.082,1.13.117.7.134.638.211-.114-.037-.546-.084-.881-.176-.3-.087-.514-.181-.395-.216A4.987,4.987,0,0,0,104.825,152.821Zm-4.312-12.574-.045.132-.007-.124-.03.514a7.141,7.141,0,0,1,.077-1.507C100.5,139.564,100.389,140.391,100.513,140.247Zm-.1,6.643a2.085,2.085,0,0,1,0,.246c.02.266.035.34-.015.315-.01.132.027.34.025.472a2.366,2.366,0,0,1-.01-.787Zm-.114-1.028v-.425c.012-.06.032-.07.057.01A1.054,1.054,0,0,0,100.294,145.863Zm0-7.222V138.5l.012-.027C100.3,138.527,100.3,138.584,100.294,138.641Zm.092,9.332-.015-.037c-.015-.151-.022-.305-.03-.459.012.161.025.325.045.482Zm.079-14.183,0,.338c-.057-.546.062-.39.047-.775l.01.258c.052.2.035-.395.077-.442.022.3-.02.988-.03.735C100.548,133.261,100.493,134.212,100.466,133.79Zm5.655-6.681a4.559,4.559,0,0,1,.6-.015c-.29.072-.079.072-.112.134-.782.04-.75-.04-.829-.1-.1-.012-.171-.03-.174-.05a.308.308,0,0,1,.174.05,4.111,4.111,0,0,0,.772,0A1.593,1.593,0,0,0,106.121,127.109Zm3.282-.1.241.015-.025.079A1.3,1.3,0,0,0,109.4,127.005Zm.333.549a1.569,1.569,0,0,1,.01-.228c.01-.089.025-.171.047-.134Zm-4.5-.328.032-.089.308.084Zm-2.932,24.786c-.092-.072-.181-.146-.266-.223C102.127,151.868,102.216,151.938,102.305,152.012Zm-.362-.315a3.974,3.974,0,0,1-.444-.509A4.527,4.527,0,0,0,101.943,151.7Zm-1.085-1.919a2.879,2.879,0,0,0,.164.586,6.485,6.485,0,0,1-.258-.641C100.789,149.738,100.808,149.728,100.858,149.778Zm-.156-3.694,0,.365C100.684,146.265,100.654,146.123,100.7,146.084Zm-.007-1.624a5.693,5.693,0,0,1-.1.782c.055-.519-.092-.886.017-.986a3.627,3.627,0,0,0-.01.387C100.637,144.552,100.682,144.2,100.694,144.46Zm-.079-9.379a4.591,4.591,0,0,1,.035-.889A2.252,2.252,0,0,1,100.615,135.081Zm.139-6.981c.1-.01-.02-.04-.233-.055h.713C101.206,128.073,100.97,128.063,100.754,128.1Zm7.341.236a2.791,2.791,0,0,1,.683-.012A3.719,3.719,0,0,1,108.095,128.336Zm1.221.114a1.064,1.064,0,0,1-.176-.022,2.169,2.169,0,0,0-.444-.057,1.8,1.8,0,0,1,.549.01l.146.035a2.956,2.956,0,0,0,.355.022C109.527,128.45,109.361,128.452,109.316,128.45Zm-4.454-1.5.256.015c.047.007.062.015.07.022h-.439C104.709,126.97,104.728,126.958,104.862,126.946ZM99.234,139.52a4.657,4.657,0,0,0-.037.869l.037-.164v.551c-.007.03-.02.129-.04.343-.03-1.187,0-2.448.04-3.7Zm0-8.307v.395a.514.514,0,0,0-.022.132C99.222,131.573,99.227,131.389,99.234,131.213Zm-.035,1,0,.775c.015-.35.02-.683.03-.981v1.643c-.015.062-.032.146-.065.149A15.451,15.451,0,0,1,99.2,132.211Zm-.079,3.309.027.211a5.864,5.864,0,0,1,.087-.8v.38l-.01-.015a13.98,13.98,0,0,1-.1,1.941c-.055-.422.07-1,.04-1.117-.027.213-.025.641-.077.648A6.947,6.947,0,0,1,99.12,135.52Zm.032,3.421-.062-.248.067-.266Zm.027,5.089.025.425-.03-.127Zm.055,2.043v.281c0,.4.017.772.042,1.137,0,.057-.007.122-.007.176A4.784,4.784,0,0,1,99.234,146.074Zm.452,3.9c-.02-.02-.032,0-.032.047a1.018,1.018,0,0,1,.032.194.56.56,0,0,1-.032-.194c-.062-.218-.151-.539-.2-.685a3.073,3.073,0,0,0,.1.566,3.9,3.9,0,0,1-.214-.963c-.027-.31-.055-.514-.134-.335-.022-.221-.037-.966.027-.715a7.666,7.666,0,0,0,.452,2.085.5.5,0,0,1,.072.161A1.5,1.5,0,0,1,99.686,149.976Zm.561,1.35c-.02-.05-.04-.114-.06-.169a5.634,5.634,0,0,0,.479.779A3,3,0,0,1,100.247,151.327Zm3.8,2.781-.241-.057c.638.05.308.04.241.057l.29.067C104.048,154.135,104.016,154.117,104.048,154.107Zm.2-.055a10.594,10.594,0,0,0,1.137.012A3.658,3.658,0,0,1,104.244,154.053Zm1.715-.166c-.429.025-.179-.03-.266-.037h.012C105.878,153.849,106.007,153.849,105.96,153.886Zm1.887-.449.017.015C107.846,153.452,107.839,153.447,107.846,153.437Zm1.606-.732a2.809,2.809,0,0,0-.554.33l.117-.134c.638-.3.665-.276,1.2-.534C109.617,152.819,109.413,152.777,109.453,152.7Zm1.239-.628-.243.189-.439.33c.069-.057.109-.1.164-.154l.174-.164a1.657,1.657,0,0,1,.209-.164c.052-.067.318-.112.166-.256a.731.731,0,0,1,.089.124Z" transform="translate(4.557 -125.953)" fill="#fff"/></g></svg>