<svg xmlns="http://www.w3.org/2000/svg" width="298.763" height="85.285" viewBox="0 0 298.763 85.285"><g transform="translate(-36.648 -347.336)" style="isolation:isolate"><path d="M67.762,150.252h5.082L72.755,118.9c-.089-10.509-7.008-16.8-19.312-16.8a33.191,33.191,0,0,0-15.337,3.175,5.446,5.446,0,0,0-2.393,7.674l1.383,2.354c4.759-3.232,9.521-4.848,14.1-4.848,7.547,0,11.407,3.592,11.407,9.61v1.437H48.142c-11.5.089-18.053,5.658-18.053,14.372,0,8.443,6.467,14.821,16.8,14.821,6.914,0,12.393-2.066,15.807-6.288v.77A5.069,5.069,0,0,0,67.762,150.252Zm-5.159-16.8c-.539,5.208-6.2,9.071-13.562,9.071-5.747,0-9.253-2.783-9.253-7.1,0-4.58,3.145-6.378,9.881-6.378H62.6Z" transform="translate(52.84 263.732)" fill="#ffd240"/><path d="M46.777,138.849a19.614,19.614,0,0,1-10.809,2.87c-8.262,0-14.19-6.2-14.19-15.27s5.928-15.268,14.19-15.268a18.032,18.032,0,0,1,13.652,5.387l5.66-6.646c-4.4-5.03-11.139-7.815-19.761-7.815-14.19,0-24.071,9.881-24.071,24.342,0,14.372,9.881,24.163,24.071,24.163,9.071,0,15.99-3.235,20.3-8.893l-2.17-2.17A5.479,5.479,0,0,0,46.777,138.849Z" transform="translate(25.201 263.732)" fill="#ffd240"/><path d="M10.328,2022.5H6.5A6.509,6.509,0,0,1,0,2016v-59.421H5.164a5.17,5.17,0,0,1,5.163,5.164v3.1c3.548-5.642,9.326-8.625,16.708-8.625a26.227,26.227,0,0,1,3.977.3l-9.451,2.634-.467,9.153a.254.254,0,0,1-.022.154c-.03.071.106.236.262.427.223.272.5.611.405.813-.058.123-.241.182-.561.182a5.824,5.824,0,0,1-.973-.108,1.534,1.534,0,0,0,.09.827,1.676,1.676,0,0,1,.106.8c-1.668-.2-4.86-.494-6.821-.494a9.89,9.89,0,0,0-1.175.055,1.991,1.991,0,0,1-.248.015,6.269,6.269,0,0,1-1.472-.261l-.039-.01a6.662,6.662,0,0,0-1.563-.271,1.616,1.616,0,0,0-1.416.689l1.4.149a2.394,2.394,0,0,1-1.2.313,5.616,5.616,0,0,1-1.351-.224,5.589,5.589,0,0,0-1.357-.227,2.605,2.605,0,0,0-.325.02v.006c-.067.656-.1.986-.6,1.263.295.031.638.035,1,.038a5.76,5.76,0,0,1,2.268.309l-.1.988a1.65,1.65,0,0,1-.384.041,5.386,5.386,0,0,1-1.25-.216,5.435,5.435,0,0,0-1.249-.215,1.6,1.6,0,0,0-.432.054l-.256.755c.167.317.21.534.132.664-.063.1-.205.153-.447.153-.146,0-.313-.017-.474-.034l1.856.2-.134,1.316c-.018.185-.166.267-.48.267a4.822,4.822,0,0,1-.485-.036,2.872,2.872,0,0,1-.184.676c-.141.39-.263.727.015.972l1.4.149a3.343,3.343,0,0,0-3.1,2.666.335.335,0,0,1,.163-.051c.138,0,.213.135.287.266s.15.265.288.265a.341.341,0,0,0,.164-.05c-.967.54-2.106,1.306-2.037,1.9.031.27.312.484.835.634,5.02.843,10.5,1.53,16.748,2.1a29.8,29.8,0,0,1-.108,3.368,24.638,24.638,0,0,0-.084,3.9,6.328,6.328,0,0,1,1.067,2.237,9.3,9.3,0,0,1-.648,2.792c-.154.462-.3.9-.4,1.294a2.934,2.934,0,0,1,.817-.122,3.66,3.66,0,0,1,1.854.629l.013.008a3.6,3.6,0,0,0,1.8.623,3.018,3.018,0,0,0,1.2-.274l0,.015c-.165.645-.391,1.527-.152,1.835a.292.292,0,0,0,.243.11.517.517,0,0,0,.066,0,11.869,11.869,0,0,1,1.483-.1c1.914,0,3.11.6,3.656,1.825a.982.982,0,0,1,0,.285c-.651.047-1.314.07-1.971.07a21.6,21.6,0,0,1-9.992-2.224,17.636,17.636,0,0,1-6.894-6.4v26.4Zm20.843-18.067h0a28.112,28.112,0,0,0,.783-7.1,35.908,35.908,0,0,1,.712-7.407,12.1,12.1,0,0,1,.058-2.629c2.571.157,5.18.307,7.7.451l.032,0c2.767.158,5.629.322,8.453.5a24.026,24.026,0,0,1-2.48,6.051,20.867,20.867,0,0,1-3.88,4.833,20.327,20.327,0,0,1-5.135,3.437,22.626,22.626,0,0,1-6.245,1.862Zm18.117-17.823h0a5.974,5.974,0,0,1-2.53-.683.125.125,0,0,1-.1-.055c-.06-.1.027-.314.136-.587.17-.424.382-.951.166-1.336l-1.869-.2a2.175,2.175,0,0,1,.15-1.482,2.175,2.175,0,0,0,.15-1.482c-.2-.573-.871-.687-1.518-.8-.516-.088-1-.171-1.183-.489-.292-.177-.423-.329-.389-.453.088-.314,1.18-.348,1.646-.348a11.476,11.476,0,0,1,1.178.061.131.131,0,0,1-.007-.131c.139-.264,1.286-.368,2.4-.469a11.558,11.558,0,0,0,2.22-.321c.079.922.119,1.867.119,2.81a30.9,30.9,0,0,1-.563,5.96Zm.343-9.756,0,0a9.819,9.819,0,0,0-2.541-1.3,14.694,14.694,0,0,1-2.463-1.179c-.288-.253-.13-.764.023-1.258a4,4,0,0,0,.178-.719c-2.717-.287-5.877-.607-9-.747l.357-3.5.035-.119c.007-.057.014-.115.022-.172s.017-.131.025-.2a21.731,21.731,0,0,0,.641-3.729l-.293-.032-.1-5.834a20.7,20.7,0,0,1,8.87,7.193,24.987,24.987,0,0,1,4.247,11.588Z" transform="translate(128.424 -1590.383)" fill="#ffd240" stroke="rgba(0,0,0,0)" stroke-miterlimit="10" stroke-width="1"/><path d="M137.151,102.107c-14.193.089-24.16,9.881-24.16,24.342,0,14.372,9.7,24.163,24.431,24.163,8.265,0,15.089-2.964,19.761-8.086l-2.843-3.026a4.052,4.052,0,0,0-5.268-.576,18.808,18.808,0,0,1-10.844,3.334,14.548,14.548,0,0,1-14.818-11.946h36.107C160.776,113.065,153.949,102.107,137.151,102.107Zm-13.922,20.66c1.169-7.636,6.467-12.4,14.012-12.4,7.815,0,12.934,4.67,13.294,12.4Z" transform="translate(175.748 263.732)" fill="#ffd240"/><path d="M107.925,100.848V161.3h5.166a5.165,5.165,0,0,0,5.164-5.166V94.654h-4.136A6.194,6.194,0,0,0,107.925,100.848Z" transform="translate(168.237 252.682)" fill="#ffd240"/><path d="M113.974,113.157c-7.455,0-13.2,3.054-16.705,8.624V94.654h-4.5a5.828,5.828,0,0,0-5.829,5.829V161.3H92.1a5.167,5.167,0,0,0,5.166-5.166v-3.1c3.5,5.568,9.25,8.624,16.886,8.624,13.652,0,22.634-9.791,22.634-24.074C136.789,123.037,127.537,113.157,113.974,113.157Zm-2.155,39.7c-8.533,0-14.55-6.378-14.55-15.63,0-8.979,6.018-15.447,14.55-15.447s14.55,6.554,14.55,15.447C126.37,146.391,120.352,152.858,111.819,152.858Z" transform="translate(137.124 252.682)" fill="#ffd240"/><path d="M92.383,102.107c-6.628,0-11,1.1-15.471,3.237a5.318,5.318,0,0,0-2.334,7.487l1.455,2.478c4.762-3.232,9.523-4.848,14.1-4.848,7.545,0,11.4,3.592,11.4,9.61v1.437H87.08c-11.5.089-18.053,5.658-18.053,14.372,0,8.443,6.467,14.821,16.8,14.821,6.916,0,12.4-2.066,15.809-6.288v.77a5.068,5.068,0,0,0,5.067,5.069h5.082l-.089-31.347C111.6,108.4,104.687,102.107,92.383,102.107Zm9.158,31.347c-.536,5.208-6.194,9.071-13.562,9.071-5.747,0-9.25-2.783-9.25-7.1,0-4.58,3.143-6.378,9.881-6.378h12.932Z" transform="translate(110.568 263.732)" fill="#ffd240"/></g></svg>