<?xml version="1.0" encoding="utf-8"?>
<!-- Generator: Adobe Illustrator 23.0.6, SVG Export Plug-In . SVG Version: 6.00 Build 0)  -->
<svg version="1.1" id="Layer_1" xmlns="http://www.w3.org/2000/svg" xmlns:xlink="http://www.w3.org/1999/xlink" x="0px" y="0px"
	 viewBox="0 0 546.9 197.3" style="enable-background:new 0 0 546.9 197.3;" xml:space="preserve">
<style type="text/css">
	.st0{fill:#FFFFFF;}
</style>
<path id="Path_411" class="st0" d="M481.9,6v-42.6c0-0.4,0.2-0.8,0.5-1.1l2.4-2.4c0.6-0.6,0.9-1.4,0.9-2.2c0-0.8-0.3-1.6-0.9-2.2
	c-0.3-0.3-0.7-0.5-1-0.7c-4.8-1.9-9.9-2.7-15-2.6c-5.1-0.1-10.3,0.8-15.1,2.6c-0.8,0.3-1.4,0.9-1.7,1.7c-0.3,0.8-0.3,1.6,0,2.4
	c0.2,0.4,0.4,0.7,0.7,1l2.4,2.4c0.3,0.3,0.5,0.7,0.5,1.1V6h-5.1l-3.1,3.9V42l-4-16.2c-0.1-0.5-1.5-4.9-4.3-5.4
	c-1.5-0.3-3.1,0.6-4.6,2.7c-3,4.1-8.7,36.9-9.4,40.6l0,0.1l9.2,147.7l0,0.5l0.5,0.2c0.4,0.1,0.9,0.2,1.3,0.2c1.8,0,4.9-0.9,7.2-6.2
	c2.5-6.2,1.9-13.2-1.6-18.9l-7.1-120.5c0.6-6.8,2.3-18.1,4.2-20.3c0.2,0.4,0.7,1.8,0.9,5.7l6.8,48.1h0.8l0,445l1.7,9.2h1.5
	c0.8,1.1,3.2,4.9,1.7,8.2h-1.6l7.8,41.8h2.8v19.3h5.1v19.5h0.5v5.2l1.5,3.1l2.5-3v-5.3h0.5v-19.5h5.1v-19.3h2.8l7.8-41.8h-1.6
	c-1.5-3.3,0.9-7.1,1.7-8.2h1.3l1.7-9.3V9.8L487.1,6L481.9,6z M456.2-38.9l-2.4-2.4c-0.1-0.1-0.3-0.3-0.3-0.5c-0.2-0.4-0.2-0.8,0-1.2
	c0.2-0.4,0.5-0.7,0.8-0.8c4.6-1.8,9.5-2.6,14.5-2.5c4.9-0.1,9.8,0.7,14.4,2.5c0.2,0.1,0.4,0.2,0.5,0.3c0.3,0.3,0.5,0.7,0.5,1.1
	c0,0.4-0.2,0.8-0.4,1.1l-2.4,2.4c-0.6,0.6-0.9,1.4-0.9,2.2V6h-23.3v-42.6C457.1-37.5,456.8-38.3,456.2-38.9z M451.2,7.5h35.2l2,2.4
	h-6.6c-0.4,0-0.8,0.2-1,0.5c-0.4,0.5-0.6,1.2-0.5,1.9v31.6h-0.4V12.4c0.1-0.7-0.1-1.4-0.5-1.9c-0.2-0.2-0.5-0.4-0.9-0.5l-7.9,0v0
	c-0.3,0.1-0.6,0.2-0.9,0.5c-0.4,0.5-0.6,1.2-0.5,1.9v31.6h-0.7V12.4c0.1-0.7-0.1-1.4-0.5-1.9c-0.2-0.2-0.5-0.4-0.9-0.5l-0.1,0h-7.7
	v0c-0.3,0.1-0.6,0.2-0.9,0.5c-0.4,0.5-0.6,1.2-0.5,1.9v31.6h-0.4V12.4c0.1-0.7-0.1-1.4-0.5-1.9c-0.3-0.3-0.6-0.5-1-0.5h-6.6
	L451.2,7.5z M448.8,439.3h6.8c0.8,0.1,1.6-0.6,1.7-1.4V100.2h0.4V438c0.1,0.7,0.7,1.3,1.4,1.4l7.9,0v0c0.7-0.1,1.3-0.7,1.4-1.4
	V100.2h0.7V438c0.1,0.7,0.7,1.3,1.4,1.4l7.9,0v0c0.7-0.1,1.3-0.7,1.4-1.4V100.2h0.4V438c0.1,0.8,0.8,1.4,1.7,1.4h6.8v0.8h-39.8
	L448.8,439.3z M448.8,45.5h31.8c1.9,0,3.5,1.7,3.4,3.6l0.4,46.2c0.1,1.1-0.3,2.2-1.1,3c-0.8,0.5-1.7,0.6-2.5,0.4l-32,0L448.8,45.5z
	 M449,10.2h6.8c0.3,0,0.6,0.2,0.8,0.4c0.4,0.5,0.5,1.1,0.5,1.7v31.6h-8.2V10.4L449,10.2z M458.5,10.6c0.2-0.2,0.5-0.4,0.8-0.4h7.6
	c0.3,0,0.6,0.2,0.8,0.4c0.4,0.5,0.5,1.1,0.5,1.7v31.6H458V12.3C458,11.7,458.1,11.1,458.5,10.6L458.5,10.6z M469.8,10.6
	c0.2-0.2,0.5-0.4,0.8-0.4h7.6c0.3,0,0.6,0.2,0.8,0.4c0.4,0.5,0.5,1.1,0.5,1.7v31.6h-10.1V12.3C469.3,11.7,469.5,11.1,469.8,10.6
	L469.8,10.6z M480.9,10.6c0.2-0.2,0.5-0.4,0.8-0.4h6.8l0.1,0.1l0,428.7h-6.8c-0.7,0.1-1.3-0.4-1.4-1.1V100.2h0.1
	c1.3,0.3,2.7,0.1,3.8-0.7c1.1-0.9,1.7-2.3,1.7-4.3l-0.4-46.1c0-2.8-2.2-5.1-5-5.2h-0.2V12.3C480.4,11.7,480.6,11.1,480.9,10.6
	L480.9,10.6z M469.4,100.2h10.1v337.7c-0.1,0.7-0.7,1.2-1.4,1.1h-7.3c-0.7,0.1-1.3-0.4-1.4-1.1V100.2z M458,100.2h10.1v337.7
	c-0.1,0.7-0.7,1.2-1.4,1.1h-7.3c-0.7,0.1-1.3-0.4-1.4-1.1L458,100.2z M488.7,537.9h-1.3l0.9-0.9l0.4,0.4L488.7,537.9z M448.8,533.6
	l0.4-0.4l1.1,1.1l-1.1,1.1l-0.4-0.4L448.8,533.6z M448.8,531l0.4-0.4l1.1,1.1l-1.1,1.1l-0.4-0.4L448.8,531z M448.8,528.5l0.4-0.4
	l1.1,1.1l-1.1,1.1l-0.4-0.4L448.8,528.5z M448.8,526l0.4-0.4l1.1,1.1l-1.1,1.1l-0.4-0.4L448.8,526z M448.8,523.5l0.4-0.4l1.1,1.1
	l-1.1,1.1l-0.4-0.4L448.8,523.5z M448.8,521l0.4-0.4l1.1,1.1l-1.1,1.1l-0.4-0.4L448.8,521z M448.8,518.4l0.4-0.4l1.1,1.1l-1.1,1.1
	l-0.4-0.4L448.8,518.4z M448.8,515.9l0.4-0.4l1.1,1.1l-1.1,1.1l-0.4-0.4L448.8,515.9z M448.8,513.4l0.4-0.4l1.1,1.1l-1.1,1.1
	l-0.4-0.4L448.8,513.4z M448.8,510.9l0.4-0.4l1.1,1.1l-1.1,1.1l-0.4-0.4L448.8,510.9z M448.8,508.4l0.4-0.4l1.1,1.1l-1.1,1.1
	l-0.4-0.4L448.8,508.4z M448.8,505.9l0.4-0.4l1.1,1.1l-1.1,1.1l-0.4-0.4L448.8,505.9z M448.8,503.3l0.4-0.4l1.1,1.1l-1.1,1.1
	l-0.4-0.4L448.8,503.3z M448.8,500.8l0.4-0.4l1.1,1.1l-1.1,1.1l-0.4-0.4L448.8,500.8z M448.8,498.3l0.4-0.4l1.1,1.1l-1.1,1.1
	l-0.4-0.4L448.8,498.3z M448.8,495.8l0.4-0.4l1.1,1.1l-1.1,1.1l-0.4-0.4L448.8,495.8z M448.8,493.3l0.4-0.4l1.1,1.1l-1.1,1.1
	l-0.4-0.4L448.8,493.3z M448.8,490.8l0.4-0.4l1.1,1.1l-1.1,1.1l-0.4-0.4L448.8,490.8z M448.8,488.2l0.4-0.4l1.1,1.1l-1.1,1.1
	l-0.4-0.4L448.8,488.2z M448.8,485.7l0.4-0.4l1.1,1.1l-1.1,1.1l-0.4-0.4L448.8,485.7z M448.8,483.2l0.4-0.4l1.1,1.1l-1.1,1.1
	l-0.4-0.4L448.8,483.2z M448.8,480.7l0.4-0.4l1.1,1.1l-1.1,1.1l-0.4-0.4L448.8,480.7z M448.8,478.2l0.4-0.4l1.1,1.1l-1.1,1.1
	l-0.4-0.4L448.8,478.2z M448.8,475.7l0.4-0.4l1.1,1.1l-1.1,1.1l-0.4-0.4L448.8,475.7z M448.8,473.1l0.4-0.4l1.1,1.1l-1.1,1.1
	l-0.4-0.4L448.8,473.1z M448.8,470.6l0.4-0.4l1.1,1.1l-1.1,1.1l-0.4-0.4L448.8,470.6z M448.8,468.1l0.4-0.4l1.1,1.1l-1.1,1.1
	l-0.4-0.4L448.8,468.1z M448.8,465.6l0.4-0.4l1.1,1.1l-1.1,1.1l-0.4-0.4L448.8,465.6z M448.8,463.1l0.4-0.4l1.1,1.1l-1.1,1.1
	l-0.4-0.4L448.8,463.1z M448.8,460.5l0.4-0.4l1.1,1.1l-1.1,1.1l-0.4-0.4L448.8,460.5z M448.8,458l0.4-0.4l1.1,1.1l-1.1,1.1l-0.4-0.4
	L448.8,458z M448.8,455.5l0.4-0.4l1.1,1.1l-1.1,1.1l-0.4-0.4L448.8,455.5z M448.8,453l0.4-0.4l1.1,1.1l-1.1,1.1l-0.4-0.4L448.8,453z
	 M448.8,450.5l0.4-0.4l1.1,1.1l-1.1,1.1l-0.4-0.4L448.8,450.5z M448.8,448l0.4-0.4l1.1,1.1l-1.1,1.1l-0.4-0.4L448.8,448z M467,495.2
	l1.1-1.1l1.1,1.1l-1.1,1.1L467,495.2z M469.2,497.8l-1.1,1.1l-1.1-1.1l1.1-1.1L469.2,497.8z M467,492.7l1.1-1.1l1.1,1.1l-1.1,1.1
	L467,492.7z M467,490.2l1.1-1.1l1.1,1.1l-1.1,1.1L467,490.2z M467,487.7l1.1-1.1l1.1,1.1l-1.1,1.1L467,487.7z M468.1,486.2l-1.1-1.1
	l1.1-1.1l1.1,1.1L468.1,486.2z M466.8,485l-1.1-1.1l1.1-1.1l1.1,1.1L466.8,485z M467.9,486.4l-1.1,1.1l-1.1-1.1l1.1-1.1L467.9,486.4
	z M467.9,489l-1.1,1.1l-1.1-1.1l1.1-1.1L467.9,489z M467.9,491.5l-1.1,1.1l-1.1-1.1l1.1-1.1L467.9,491.5z M467.9,494l-1.1,1.1
	l-1.1-1.1l1.1-1.1L467.9,494z M467.9,496.5l-1.1,1.1l-1.1-1.1l1.1-1.1L467.9,496.5z M467.9,499l-1.1,1.1l-1.1-1.1l1.1-1.1L467.9,499
	z M467.9,501.5l-1.1,1.1l-1.1-1.1l1.1-1.1L467.9,501.5z M467,500.3l1.1-1.1l1.1,1.1l-1.1,1.1L467,500.3z M469.4,500.5l1.1,1.1
	l-1.1,1.1l-1.1-1.1L469.4,500.5z M468.3,499l1.1-1.1l1.1,1.1l-1.1,1.1L468.3,499z M468.3,496.5l1.1-1.1l1.1,1.1l-1.1,1.1
	L468.3,496.5z M468.3,494l1.1-1.1l1.1,1.1l-1.1,1.1L468.3,494z M468.3,491.5l1.1-1.1l1.1,1.1l-1.1,1.1L468.3,491.5z M468.3,488.9
	l1.1-1.1l1.1,1.1l-1.1,1.1L468.3,488.9z M468.3,486.4l1.1-1.1l1.1,1.1l-1.1,1.1L468.3,486.4z M468.3,483.9l1.1-1.1l1.1,1.1l-1.1,1.1
	L468.3,483.9z M468.3,481.4l1.1-1.1l1.1,1.1l-1.1,1.1L468.3,481.4z M469.2,482.7l-1.1,1.1l-1.1-1.1l1.1-1.1L469.2,482.7z
	 M466.8,482.5l-1.1-1.1l1.1-1.1l1.1,1.1L466.8,482.5z M466.6,482.7l-1.1,1.1l-1.1-1.1l1.1-1.1L466.6,482.7z M466.6,485.2l-1.1,1.1
	l-1.1-1.1l1.1-1.1L466.6,485.2z M466.6,487.7l-1.1,1.1l-1.1-1.1l1.1-1.1L466.6,487.7z M466.6,490.2l-1.1,1.1l-1.1-1.1l1.1-1.1
	L466.6,490.2z M466.6,492.7l-1.1,1.1l-1.1-1.1l1.1-1.1L466.6,492.7z M466.6,495.2l-1.1,1.1l-1.1-1.1l1.1-1.1L466.6,495.2z
	 M466.6,497.8l-1.1,1.1l-1.1-1.1l1.1-1.1L466.6,497.8z M466.6,500.3l-1.1,1.1l-1.1-1.1l1.1-1.1L466.6,500.3z M466.6,502.8l-1.1,1.1
	l-1.1-1.1l1.1-1.1L466.6,502.8z M466.8,503l1.1,1.1l-1.1,1.1l-1.1-1.1L466.8,503z M467,502.8l1.1-1.1l1.1,1.1l-1.1,1.1L467,502.8z
	 M469.4,503l1.1,1.1l-1.1,1.1l-1.1-1.1L469.4,503z M469.6,502.8l1.1-1.1l1.1,1.1l-1.1,1.1L469.6,502.8z M470.6,501.3l-1.1-1.1
	l1.1-1.1l1.1,1.1L470.6,501.3z M469.6,497.8l1.1-1.1l1.1,1.1l-1.1,1.1L469.6,497.8z M469.6,495.2l1.1-1.1l1.1,1.1l-1.1,1.1
	L469.6,495.2z M469.6,492.7l1.1-1.1l1.1,1.1l-1.1,1.1L469.6,492.7z M469.6,490.2l1.1-1.1l1.1,1.1l-1.1,1.1L469.6,490.2z
	 M470.6,488.8l-1.1-1.1l1.1-1.1l1.1,1.1L470.6,488.8z M469.6,485.2l1.1-1.1l1.1,1.1l-1.1,1.1L469.6,485.2z M469.6,482.7l1.1-1.1
	l1.1,1.1l-1.1,1.1L469.6,482.7z M469.6,480.1l1.1-1.1l1.1,1.1l-1.1,1.1L469.6,480.1z M469.4,479.9l-1.1-1.1l1.1-1.1l1.1,1.1
	L469.4,479.9z M469.2,480.1l-1.1,1.1l-1.1-1.1l1.1-1.1L469.2,480.1z M466.8,479.9l-1.1-1.1l1.1-1.1l1.1,1.1L466.8,479.9z
	 M466.6,480.1l-1.1,1.1l-1.1-1.1l1.1-1.1L466.6,480.1z M464.3,479.9l-1.1-1.1l1.1-1.1l1.1,1.1L464.3,479.9z M465.4,481.4l-1.1,1.1
	l-1.1-1.1l1.1-1.1L465.4,481.4z M465.4,483.9l-1.1,1.1l-1.1-1.1l1.1-1.1L465.4,483.9z M465.4,486.4l-1.1,1.1l-1.1-1.1l1.1-1.1
	L465.4,486.4z M465.4,488.9l-1.1,1.1l-1.1-1.1l1.1-1.1L465.4,488.9z M465.4,491.5l-1.1,1.1l-1.1-1.1l1.1-1.1L465.4,491.5z
	 M465.4,494l-1.1,1.1l-1.1-1.1l1.1-1.1L465.4,494z M465.4,496.5l-1.1,1.1l-1.1-1.1l1.1-1.1L465.4,496.5z M465.4,499l-1.1,1.1
	l-1.1-1.1l1.1-1.1L465.4,499z M465.4,501.5l-1.1,1.1l-1.1-1.1l1.1-1.1L465.4,501.5z M465.4,504.1l-1.1,1.1l-1.1-1.1l1.1-1.1
	L465.4,504.1z M465.4,506.6l-1.1,1.1l-1.1-1.1l1.1-1.1L465.4,506.6z M464.5,505.3l1.1-1.1l1.1,1.1l-1.1,1.1L464.5,505.3z
	 M466.8,505.5l1.1,1.1l-1.1,1.1l-1.1-1.1L466.8,505.5z M467,505.3l1.1-1.1l1.1,1.1l-1.1,1.1L467,505.3z M469.4,505.5l1.1,1.1
	l-1.1,1.1l-1.1-1.1L469.4,505.5z M469.6,505.3l1.1-1.1l1.1,1.1l-1.1,1.1L469.6,505.3z M471.9,505.5l1.1,1.1l-1.1,1.1l-1.1-1.1
	L471.9,505.5z M470.8,504.1l1.1-1.1l1.1,1.1l-1.1,1.1L470.8,504.1z M470.8,501.5l1.1-1.1l1.1,1.1l-1.1,1.1L470.8,501.5z M470.8,499
	l1.1-1.1l1.1,1.1l-1.1,1.1L470.8,499z M470.8,496.5l1.1-1.1l1.1,1.1l-1.1,1.1L470.8,496.5z M470.8,494l1.1-1.1l1.1,1.1l-1.1,1.1
	L470.8,494z M470.8,491.5l1.1-1.1l1.1,1.1l-1.1,1.1L470.8,491.5z M470.8,488.9l1.1-1.1l1.1,1.1l-1.1,1.1L470.8,488.9z M470.8,486.4
	l1.1-1.1l1.1,1.1l-1.1,1.1L470.8,486.4z M470.8,483.9l1.1-1.1l1.1,1.1l-1.1,1.1L470.8,483.9z M470.8,481.4l1.1-1.1l1.1,1.1l-1.1,1.1
	L470.8,481.4z M470.8,478.9l1.1-1.1l1.1,1.1l-1.1,1.1L470.8,478.9z M470.8,476.4l1.1-1.1l1.1,1.1l-1.1,1.1L470.8,476.4z
	 M471.7,477.6l-1.1,1.1l-1.1-1.1l1.1-1.1L471.7,477.6z M469.4,477.4l-1.1-1.1l1.1-1.1l1.1,1.1L469.4,477.4z M469.2,477.6l-1.1,1.1
	l-1.1-1.1l1.1-1.1L469.2,477.6z M466.8,477.4l-1.1-1.1l1.1-1.1l1.1,1.1L466.8,477.4z M466.6,477.6l-1.1,1.1l-1.1-1.1l1.1-1.1
	L466.6,477.6z M464.3,477.4l-1.1-1.1l1.1-1.1l1.1,1.1L464.3,477.4z M464.1,477.6l-1.1,1.1l-1.1-1.1l1.1-1.1L464.1,477.6z
	 M464.1,480.1l-1.1,1.1l-1.1-1.1l1.1-1.1L464.1,480.1z M464.1,482.6l-1.1,1.1l-1.1-1.1l1.1-1.1L464.1,482.6z M464.1,485.2l-1.1,1.1
	l-1.1-1.1l1.1-1.1L464.1,485.2z M464.1,487.7l-1.1,1.1l-1.1-1.1l1.1-1.1L464.1,487.7z M464.1,490.2l-1.1,1.1l-1.1-1.1l1.1-1.1
	L464.1,490.2z M464.1,492.7l-1.1,1.1l-1.1-1.1l1.1-1.1L464.1,492.7z M464.1,495.2l-1.1,1.1l-1.1-1.1l1.1-1.1L464.1,495.2z
	 M464.1,497.8l-1.1,1.1l-1.1-1.1l1.1-1.1L464.1,497.8z M464.1,500.3l-1.1,1.1l-1.1-1.1l1.1-1.1L464.1,500.3z M464.1,502.8l-1.1,1.1
	l-1.1-1.1l1.1-1.1L464.1,502.8z M464.1,505.3l-1.1,1.1l-1.1-1.1l1.1-1.1L464.1,505.3z M464.1,507.8l-1.1,1.1l-1.1-1.1l1.1-1.1
	L464.1,507.8z M464.3,508l1.1,1.1l-1.1,1.1l-1.1-1.1L464.3,508z M464.5,507.8l1.1-1.1l1.1,1.1l-1.1,1.1L464.5,507.8z M466.8,508
	l1.1,1.1l-1.1,1.1l-1.1-1.1L466.8,508z M467,507.8l1.1-1.1l1.1,1.1l-1.1,1.1L467,507.8z M469.4,508l1.1,1.1l-1.1,1.1l-1.1-1.1
	L469.4,508z M469.6,507.8l1.1-1.1l1.1,1.1l-1.1,1.1L469.6,507.8z M471.9,508l1.1,1.1l-1.1,1.1l-1.1-1.1L471.9,508z M472.1,507.8
	l1.1-1.1l1.1,1.1l-1.1,1.1L472.1,507.8z M473.1,506.4l-1.1-1.1l1.1-1.1l1.1,1.1L473.1,506.4z M472.1,502.8l1.1-1.1l1.1,1.1l-1.1,1.1
	L472.1,502.8z M472.1,500.3l1.1-1.1l1.1,1.1l-1.1,1.1L472.1,500.3z M472.1,497.8l1.1-1.1l1.1,1.1l-1.1,1.1L472.1,497.8z
	 M472.1,495.2l1.1-1.1l1.1,1.1l-1.1,1.1L472.1,495.2z M472.1,492.7l1.1-1.1l1.1,1.1l-1.1,1.1L472.1,492.7z M472.1,490.2l1.1-1.1
	l1.1,1.1l-1.1,1.1L472.1,490.2z M472.1,487.7l1.1-1.1l1.1,1.1l-1.1,1.1L472.1,487.7z M472.1,485.2l1.1-1.1l1.1,1.1l-1.1,1.1
	L472.1,485.2z M472.1,482.6l1.1-1.1l1.1,1.1l-1.1,1.1L472.1,482.6z M472.1,480.1l1.1-1.1l1.1,1.1l-1.1,1.1L472.1,480.1z
	 M472.1,477.6l1.1-1.1l1.1,1.1l-1.1,1.1L472.1,477.6z M472.1,475.1l1.1-1.1l1.1,1.1l-1.1,1.1L472.1,475.1z M471.9,474.9l-1.1-1.1
	l1.1-1.1l1.1,1.1L471.9,474.9z M471.7,475.1l-1.1,1.1l-1.1-1.1l1.1-1.1L471.7,475.1z M469.4,474.9l-1.1-1.1l1.1-1.1l1.1,1.1
	L469.4,474.9z M469.2,475.1l-1.1,1.1l-1.1-1.1l1.1-1.1L469.2,475.1z M466.8,474.9l-1.1-1.1l1.1-1.1l1.1,1.1L466.8,474.9z
	 M466.6,475.1l-1.1,1.1l-1.1-1.1l1.1-1.1L466.6,475.1z M464.3,474.9l-1.1-1.1l1.1-1.1l1.1,1.1L464.3,474.9z M464.1,475.1l-1.1,1.1
	l-1.1-1.1l1.1-1.1L464.1,475.1z M461.8,474.9l-1.1-1.1l1.1-1.1l1.1,1.1L461.8,474.9z M462.9,476.4l-1.1,1.1l-1.1-1.1l1.1-1.1
	L462.9,476.4z M462.9,478.9l-1.1,1.1l-1.1-1.1l1.1-1.1L462.9,478.9z M462.9,481.4l-1.1,1.1l-1.1-1.1l1.1-1.1L462.9,481.4z
	 M462.9,483.9l-1.1,1.1l-1.1-1.1l1.1-1.1L462.9,483.9z M462.9,486.4l-1.1,1.1l-1.1-1.1l1.1-1.1L462.9,486.4z M462.9,488.9l-1.1,1.1
	l-1.1-1.1l1.1-1.1L462.9,488.9z M462.9,491.5l-1.1,1.1l-1.1-1.1l1.1-1.1L462.9,491.5z M462.9,494l-1.1,1.1l-1.1-1.1l1.1-1.1
	L462.9,494z M462.9,496.5l-1.1,1.1l-1.1-1.1l1.1-1.1L462.9,496.5z M462.9,499l-1.1,1.1l-1.1-1.1l1.1-1.1L462.9,499z M462.9,501.5
	l-1.1,1.1l-1.1-1.1l1.1-1.1L462.9,501.5z M462.9,504l-1.1,1.1l-1.1-1.1l1.1-1.1L462.9,504z M462.9,506.6l-1.1,1.1l-1.1-1.1l1.1-1.1
	L462.9,506.6z M462.9,509.1l-1.1,1.1l-1.1-1.1l1.1-1.1L462.9,509.1z M462.9,511.6l-1.1,1.1l-1.1-1.1l1.1-1.1L462.9,511.6z
	 M462,510.3l1.1-1.1l1.1,1.1l-1.1,1.1L462,510.3z M464.3,510.5l1.1,1.1l-1.1,1.1l-1.1-1.1L464.3,510.5z M464.5,510.3l1.1-1.1
	l1.1,1.1l-1.1,1.1L464.5,510.3z M466.8,510.5l1.1,1.1l-1.1,1.1l-1.1-1.1L466.8,510.5z M467,510.3l1.1-1.1l1.1,1.1l-1.1,1.1
	L467,510.3z M469.4,510.5l1.1,1.1l-1.1,1.1l-1.1-1.1L469.4,510.5z M469.6,510.3l1.1-1.1l1.1,1.1l-1.1,1.1L469.6,510.3z M471.9,510.5
	l1.1,1.1l-1.1,1.1l-1.1-1.1L471.9,510.5z M472.1,510.3l1.1-1.1l1.1,1.1l-1.1,1.1L472.1,510.3z M474.4,510.5l1.1,1.1l-1.1,1.1
	l-1.1-1.1L474.4,510.5z M473.3,509.1l1.1-1.1l1.1,1.1l-1.1,1.1L473.3,509.1z M473.3,506.6l1.1-1.1l1.1,1.1l-1.1,1.1L473.3,506.6z
	 M473.3,504l1.1-1.1l1.1,1.1l-1.1,1.1L473.3,504z M473.3,501.5l1.1-1.1l1.1,1.1l-1.1,1.1L473.3,501.5z M473.3,499l1.1-1.1l1.1,1.1
	l-1.1,1.1L473.3,499z M473.3,496.5l1.1-1.1l1.1,1.1l-1.1,1.1L473.3,496.5z M473.3,494l1.1-1.1l1.1,1.1l-1.1,1.1L473.3,494z
	 M473.3,491.5l1.1-1.1l1.1,1.1l-1.1,1.1L473.3,491.5z M473.3,488.9l1.1-1.1l1.1,1.1l-1.1,1.1L473.3,488.9z M473.3,486.4l1.1-1.1
	l1.1,1.1l-1.1,1.1L473.3,486.4z M473.3,483.9l1.1-1.1l1.1,1.1l-1.1,1.1L473.3,483.9z M473.3,481.4l1.1-1.1l1.1,1.1l-1.1,1.1
	L473.3,481.4z M473.3,478.9l1.1-1.1l1.1,1.1l-1.1,1.1L473.3,478.9z M473.3,476.4l1.1-1.1l1.1,1.1l-1.1,1.1L473.3,476.4z
	 M473.3,473.8l1.1-1.1l1.1,1.1l-1.1,1.1L473.3,473.8z M473.3,471.3l1.1-1.1l1.1,1.1l-1.1,1.1L473.3,471.3z M474.2,472.6l-1.1,1.1
	l-1.1-1.1l1.1-1.1L474.2,472.6z M471.9,472.4l-1.1-1.1l1.1-1.1l1.1,1.1L471.9,472.4z M471.7,472.6l-1.1,1.1l-1.1-1.1l1.1-1.1
	L471.7,472.6z M469.4,472.4l-1.1-1.1l1.1-1.1l1.1,1.1L469.4,472.4z M469.2,472.6l-1.1,1.1l-1.1-1.1l1.1-1.1L469.2,472.6z
	 M466.8,472.4l-1.1-1.1l1.1-1.1l1.1,1.1L466.8,472.4z M466.6,472.6l-1.1,1.1l-1.1-1.1l1.1-1.1L466.6,472.6z M464.3,472.4l-1.1-1.1
	l1.1-1.1l1.1,1.1L464.3,472.4z M464.1,472.6l-1.1,1.1l-1.1-1.1l1.1-1.1L464.1,472.6z M461.8,472.4l-1.1-1.1l1.1-1.1l1.1,1.1
	L461.8,472.4z M461.6,472.6l-1.1,1.1l-1.1-1.1l1.1-1.1L461.6,472.6z M461.6,475.1l-1.1,1.1l-1.1-1.1l1.1-1.1L461.6,475.1z
	 M461.6,477.6l-1.1,1.1l-1.1-1.1l1.1-1.1L461.6,477.6z M461.6,480.1l-1.1,1.1l-1.1-1.1l1.1-1.1L461.6,480.1z M460.5,481.6l1.1,1.1
	l-1.1,1.1l-1.1-1.1L460.5,481.6z M461.6,485.2l-1.1,1.1l-1.1-1.1l1.1-1.1L461.6,485.2z M461.6,487.7l-1.1,1.1l-1.1-1.1l1.1-1.1
	L461.6,487.7z M461.6,490.2l-1.1,1.1l-1.1-1.1l1.1-1.1L461.6,490.2z M461.6,492.7l-1.1,1.1l-1.1-1.1l1.1-1.1L461.6,492.7z
	 M460.5,494.2l1.1,1.1l-1.1,1.1l-1.1-1.1L460.5,494.2z M461.6,497.7l-1.1,1.1l-1.1-1.1l1.1-1.1L461.6,497.7z M461.6,500.3l-1.1,1.1
	l-1.1-1.1l1.1-1.1L461.6,500.3z M461.6,502.8l-1.1,1.1l-1.1-1.1l1.1-1.1L461.6,502.8z M461.6,505.3l-1.1,1.1l-1.1-1.1l1.1-1.1
	L461.6,505.3z M460.5,506.8l1.1,1.1l-1.1,1.1l-1.1-1.1L460.5,506.8z M461.6,510.3l-1.1,1.1l-1.1-1.1l1.1-1.1L461.6,510.3z
	 M461.6,512.9l-1.1,1.1l-1.1-1.1l1.1-1.1L461.6,512.9z M461.8,513.1l1.1,1.1l-1.1,1.1l-1.1-1.1L461.8,513.1z M462,512.9l1.1-1.1
	l1.1,1.1l-1.1,1.1L462,512.9z M464.3,513.1l1.1,1.1l-1.1,1.1l-1.1-1.1L464.3,513.1z M464.5,512.9l1.1-1.1l1.1,1.1l-1.1,1.1
	L464.5,512.9z M466.8,513.1l1.1,1.1l-1.1,1.1l-1.1-1L466.8,513.1z M467,512.9l1.1-1.1l1.1,1.1l-1.1,1.1L467,512.9z M469.4,513.1
	l1.1,1.1l-1.1,1.1l-1.1-1.1L469.4,513.1z M469.6,512.9l1.1-1.1l1.1,1.1l-1.1,1.1L469.6,512.9z M471.9,513.1l1.1,1.1l-1.1,1.1
	l-1.1-1.1L471.9,513.1z M472.1,512.9l1.1-1.1l1.1,1.1l-1.1,1.1L472.1,512.9z M474.4,513.1l1.1,1.1l-1.1,1.1l-1.1-1.1L474.4,513.1z
	 M474.6,512.9l1.1-1.1l1.1,1.1l-1.1,1.1L474.6,512.9z M474.6,510.3l1.1-1.1l1.1,1.1l-1.1,1.1L474.6,510.3z M474.6,507.8l1.1-1.1
	l1.1,1.1l-1.1,1.1L474.6,507.8z M474.6,505.3l1.1-1.1l1.1,1.1l-1.1,1.1L474.6,505.3z M474.6,502.8l1.1-1.1l1.1,1.1l-1.1,1.1
	L474.6,502.8z M474.6,500.3l1.1-1.1l1.1,1.1l-1.1,1.1L474.6,500.3z M474.6,497.7l1.1-1.1l1.1,1.1l-1.1,1.1L474.6,497.7z
	 M474.6,495.2l1.1-1.1l1.1,1.1l-1.1,1.1L474.6,495.2z M474.6,492.7l1.1-1.1l1.1,1.1l-1.1,1.1L474.6,492.7z M474.6,490.2l1.1-1.1
	l1.1,1.1l-1.1,1.1L474.6,490.2z M474.6,487.7l1.1-1.1l1.1,1.1l-1.1,1.1L474.6,487.7z M474.6,485.2l1.1-1.1l1.1,1.1l-1.1,1.1
	L474.6,485.2z M474.6,482.6l1.1-1.1l1.1,1.1l-1.1,1.1L474.6,482.6z M474.6,480.1l1.1-1.1l1.1,1.1l-1.1,1.1L474.6,480.1z
	 M474.6,477.6l1.1-1.1l1.1,1.1l-1.1,1.1L474.6,477.6z M474.6,475.1l1.1-1.1l1.1,1.1l-1.1,1.1L474.6,475.1z M474.6,472.6l1.1-1.1
	l1.1,1.1l-1.1,1.1L474.6,472.6z M474.6,470.1l1.1-1.1l1.1,1.1l-1.1,1.1L474.6,470.1z M474.4,469.9l-1.1-1.1l1.1-1.1l1.1,1.1
	L474.4,469.9z M474.2,470.1l-1.1,1.1l-1.1-1.1l1.1-1.1L474.2,470.1z M471.9,469.9l-1.1-1.1l1.1-1.1l1.1,1.1L471.9,469.9z
	 M471.7,470.1l-1.1,1.1l-1.1-1.1l1.1-1.1L471.7,470.1z M469.4,469.9l-1.1-1.1l1.1-1.1l1.1,1.1L469.4,469.9z M469.2,470.1l-1.1,1.1
	l-1.1-1.1l1.1-1.1L469.2,470.1z M466.8,469.9l-1.1-1.1l1.1-1.1l1.1,1.1L466.8,469.9z M466.6,470.1l-1.1,1.1l-1.1-1.1l1.1-1.1
	L466.6,470.1z M464.3,469.9l-1.1-1.1l1.1-1.1l1.1,1.1L464.3,469.9z M464.1,470.1l-1.1,1.1l-1.1-1.1l1.1-1.1L464.1,470.1z
	 M461.8,469.9l-1.1-1.1l1.1-1.1l1.1,1.1L461.8,469.9z M461.6,470.1l-1.1,1.1l-1.1-1.1l1.1-1.1L461.6,470.1z M459.3,469.9l-1.1-1.1
	l1.1-1.1l1.1,1.1L459.3,469.9z M460.3,471.3l-1.1,1.1l-1.1-1.1l1.1-1.1L460.3,471.3z M460.3,473.8l-1.1,1.1l-1.1-1.1l1.1-1.1
	L460.3,473.8z M460.3,476.4l-1.1,1.1l-1.1-1.1l1.1-1.1L460.3,476.4z M460.3,478.9l-1.1,1.1l-1.1-1.1l1.1-1.1L460.3,478.9z
	 M460.3,481.4l-1.1,1.1l-1.1-1.1l1.1-1.1L460.3,481.4z M460.3,483.9l-1.1,1.1l-1.1-1.1l1.1-1.1L460.3,483.9z M460.3,486.4l-1.1,1.1
	l-1.1-1.1l1.1-1.1L460.3,486.4z M460.3,488.9l-1.1,1.1l-1.1-1.1l1.1-1.1L460.3,488.9z M460.3,491.5l-1.1,1.1l-1.1-1.1l1.1-1.1
	L460.3,491.5z M460.3,494l-1.1,1.1l-1.1-1.1l1.1-1.1L460.3,494z M460.3,496.5l-1.1,1.1l-1.1-1.1l1.1-1.1L460.3,496.5z M460.3,499
	l-1.1,1.1l-1.1-1.1l1.1-1.1L460.3,499z M460.3,501.5l-1.1,1.1l-1.1-1.1l1.1-1.1L460.3,501.5z M460.3,504l-1.1,1.1l-1.1-1.1l1.1-1.1
	L460.3,504z M460.3,506.6l-1.1,1.1l-1.1-1.1l1.1-1.1L460.3,506.6z M460.3,509.1l-1.1,1.1l-1.1-1.1l1.1-1.1L460.3,509.1z
	 M460.3,511.6l-1.1,1.1l-1.1-1.1l1.1-1.1L460.3,511.6z M460.3,514.1l-1.1,1.1l-1.1-1.1l1.1-1.1L460.3,514.1z M460.3,516.6l-1.1,1.1
	l-1.1-1.1l1.1-1.1L460.3,516.6z M459.5,515.4l1.1-1.1l1.1,1.1l-1.1,1.1L459.5,515.4z M461.8,515.6l1.1,1.1l-1.1,1.1l-1.1-1.1
	L461.8,515.6z M462,515.4l1.1-1.1l1.1,1.1l-1.1,1.1L462,515.4z M464.3,515.6l1.1,1.1l-1.1,1.1l-1.1-1.1L464.3,515.6z M464.5,515.4
	l1.1-1.1l1.1,1.1l-1.1,1.1L464.5,515.4z M466.8,515.6l1.1,1.1l-1.1,1.1l-1.1-1.1L466.8,515.6z M467,515.4l1.1-1.1l1.1,1.1l-1.1,1.1
	L467,515.4z M469.4,515.6l1.1,1.1l-1.1,1.1l-1.1-1.1L469.4,515.6z M469.6,515.4l1.1-1.1l1.1,1.1l-1.1,1.1L469.6,515.4z M471.9,515.6
	l1.1,1.1l-1.1,1.1l-1.1-1.1L471.9,515.6z M472.1,515.4l1.1-1.1l1.1,1.1l-1.1,1.1L472.1,515.4z M474.4,515.6l1.1,1.1l-1.1,1.1
	l-1.1-1.1L474.4,515.6z M474.6,515.4l1.1-1.1l1.1,1.1l-1.1,1.1L474.6,515.4z M476.9,515.6l1.1,1.1l-1.1,1.1l-1.1-1.1L476.9,515.6z
	 M475.9,514.1l1.1-1.1l1.1,1.1l-1.1,1.1L475.9,514.1z M475.9,511.6l1.1-1.1l1.1,1.1l-1.1,1.1L475.9,511.6z M475.9,509.1l1.1-1.1
	l1.1,1.1l-1.1,1.1L475.9,509.1z M476.9,507.6l-1.1-1.1l1.1-1.1l1.1,1.1L476.9,507.6z M475.9,504l1.1-1.1l1.1,1.1l-1.1,1.1L475.9,504
	z M475.9,501.5l1.1-1.1l1.1,1.1l-1.1,1.1L475.9,501.5z M475.9,499l1.1-1.1l1.1,1.1l-1.1,1.1L475.9,499z M475.9,496.5l1.1-1.1
	l1.1,1.1l-1.1,1.1L475.9,496.5z M476.9,495l-1.1-1.1l1.1-1.1l1.1,1.1L476.9,495z M475.9,491.5l1.1-1.1l1.1,1.1l-1.1,1.1L475.9,491.5
	z M475.9,488.9l1.1-1.1l1.1,1.1l-1.1,1.1L475.9,488.9z M475.9,486.4l1.1-1.1l1.1,1.1l-1.1,1.1L475.9,486.4z M475.9,483.9l1.1-1.1
	l1.1,1.1l-1.1,1.1L475.9,483.9z M476.9,482.5l-1.1-1.1l1.1-1.1l1.1,1.1L476.9,482.5z M475.9,478.9l1.1-1.1l1.1,1.1l-1.1,1.1
	L475.9,478.9z M475.9,476.4l1.1-1.1l1.1,1.1l-1.1,1.1L475.9,476.4z M475.9,473.8l1.1-1.1l1.1,1.1l-1.1,1.1L475.9,473.8z
	 M475.9,471.3l1.1-1.1l1.1,1.1l-1.1,1.1L475.9,471.3z M476.9,469.9l-1.1-1.1l1.1-1.1l1.1,1.1L476.9,469.9z M475.9,466.3l1.1-1.1
	l1.1,1.1l-1.1,1.1L475.9,466.3z M476.7,467.6l-1.1,1.1l-1.1-1.1l1.1-1.1L476.7,467.6z M474.4,467.4l-1.1-1.1l1.1-1.1l1.1,1.1
	L474.4,467.4z M474.2,467.6l-1.1,1.1l-1.1-1.1l1.1-1.1L474.2,467.6z M471.9,467.4l-1.1-1.1l1.1-1.1l1.1,1.1L471.9,467.4z
	 M471.7,467.6l-1.1,1.1l-1.1-1.1l1.1-1.1L471.7,467.6z M469.4,467.4l-1.1-1.1l1.1-1.1l1.1,1.1L469.4,467.4z M469.2,467.6l-1.1,1.1
	l-1.1-1.1l1.1-1.1L469.2,467.6z M466.8,467.4l-1.1-1.1l1.1-1.1l1.1,1.1L466.8,467.4z M466.6,467.6l-1.1,1.1l-1.1-1.1l1.1-1.1
	L466.6,467.6z M464.3,467.4l-1.1-1.1l1.1-1.1l1.1,1.1L464.3,467.4z M464.1,467.6l-1.1,1.1l-1.1-1.1l1.1-1.1L464.1,467.6z
	 M461.8,467.4l-1.1-1.1l1.1-1.1l1.1,1.1L461.8,467.4z M461.6,467.6l-1.1,1.1l-1.1-1.1l1.1-1.1L461.6,467.6z M459.3,467.4l-1.1-1.1
	l1.1-1.1l1.1,1.1L459.3,467.4z M459.1,467.5l-1.1,1.1l-1.1-1.1l1.1-1.1L459.1,467.5z M459.1,470.1l-1.1,1.1l-1.1-1.1l1.1-1.1
	L459.1,470.1z M459.1,472.6l-1.1,1.1l-1.1-1.1l1.1-1.1L459.1,472.6z M459.1,475.1l-1.1,1.1l-1.1-1.1l1.1-1.1L459.1,475.1z
	 M459.1,477.6l-1.1,1.1l-1.1-1.1l1.1-1.1L459.1,477.6z M459.1,480.1l-1.1,1.1l-1.1-1.1l1.1-1.1L459.1,480.1z M459.1,482.6l-1.1,1.1
	l-1.1-1.1l1.1-1.1L459.1,482.6z M459.1,485.2l-1.1,1.1l-1.1-1.1l1.1-1.1L459.1,485.2z M459.1,487.7l-1.1,1.1l-1.1-1.1l1.1-1.1
	L459.1,487.7z M459.1,490.2l-1.1,1.1l-1.1-1.1l1.1-1.1L459.1,490.2z M459.1,492.7l-1.1,1.1l-1.1-1.1l1.1-1.1L459.1,492.7z
	 M459.1,495.2l-1.1,1.1l-1.1-1.1l1.1-1.1L459.1,495.2z M459.1,497.8l-1.1,1.1l-1.1-1.1l1.1-1.1L459.1,497.8z M459.1,500.3l-1.1,1.1
	l-1.1-1.1l1.1-1.1L459.1,500.3z M459.1,502.8l-1.1,1.1l-1.1-1.1l1.1-1.1L459.1,502.8z M459.1,505.3l-1.1,1.1l-1.1-1.1l1.1-1.1
	L459.1,505.3z M459.1,507.8l-1.1,1.1l-1.1-1.1l1.1-1.1L459.1,507.8z M459.1,510.3l-1.1,1.1l-1.1-1.1l1.1-1.1L459.1,510.3z
	 M459.1,512.9l-1.1,1.1l-1.1-1.1l1.1-1.1L459.1,512.9z M459.1,515.4l-1.1,1.1l-1.1-1.1l1.1-1.1L459.1,515.4z M459.1,517.9L458,519
	l-1.1-1.1l1.1-1.1L459.1,517.9z M459.3,518.1l1.1,1.1l-1.1,1.1l-1.1-1.1L459.3,518.1z M459.5,517.9l1.1-1.1l1.1,1.1l-1.1,1.1
	L459.5,517.9z M461.8,518.1l1.1,1.1l-1.1,1.1l-1.1-1.1L461.8,518.1z M462,517.9l1.1-1.1l1.1,1.1l-1.1,1.1L462,517.9z M464.3,518.1
	l1.1,1.1l-1.1,1.1l-1.1-1.1L464.3,518.1z M464.5,517.9l1.1-1.1l1.1,1.1l-1.1,1.1L464.5,517.9z M466.8,518.1l1.1,1.1l-1.1,1.1
	l-1.1-1.1L466.8,518.1z M467,517.9l1.1-1.1l1.1,1.1l-1.1,1.1L467,517.9z M469.4,518.1l1.1,1.1l-1.1,1.1l-1.1-1.1L469.4,518.1z
	 M469.6,517.9l1.1-1.1l1.1,1.1l-1.1,1.1L469.6,517.9z M471.9,518.1l1.1,1.1l-1.1,1.1l-1.1-1.1L471.9,518.1z M472.1,517.9l1.1-1.1
	l1.1,1.1l-1.1,1.1L472.1,517.9z M474.4,518.1l1.1,1.1l-1.1,1.1l-1.1-1.1L474.4,518.1z M474.6,517.9l1.1-1.1l1.1,1.1l-1.1,1.1
	L474.6,517.9z M476.9,518.1l1.1,1.1l-1.1,1.1l-1.1-1.1L476.9,518.1z M477.1,517.9l1.1-1.1l1.1,1.1l-1.1,1.1L477.1,517.9z
	 M477.1,515.4l1.1-1.1l1.1,1.1l-1.1,1.1L477.1,515.4z M477.1,512.9l1.1-1.1l1.1,1.1l-1.1,1.1L477.1,512.9z M477.1,510.3l1.1-1.1
	l1.1,1.1l-1.1,1.1L477.1,510.3z M477.1,507.8l1.1-1.1l1.1,1.1l-1.1,1.1L477.1,507.8z M477.1,505.3l1.1-1.1l1.1,1.1l-1.1,1.1
	L477.1,505.3z M477.1,502.8l1.1-1.1l1.1,1.1l-1.1,1.1L477.1,502.8z M477.1,500.3l1.1-1.1l1.1,1.1l-1.1,1.1L477.1,500.3z
	 M477.1,497.7l1.1-1.1l1.1,1.1l-1.1,1.1L477.1,497.7z M477.1,495.2l1.1-1.1l1.1,1.1l-1.1,1.1L477.1,495.2z M477.1,492.7l1.1-1.1
	l1.1,1.1l-1.1,1.1L477.1,492.7z M477.1,490.2l1.1-1.1l1.1,1.1l-1.1,1.1L477.1,490.2z M477.1,487.7l1.1-1.1l1.1,1.1l-1.1,1.1
	L477.1,487.7z M477.1,485.2l1.1-1.1l1.1,1.1l-1.1,1.1L477.1,485.2z M477.1,482.6l1.1-1.1l1.1,1.1l-1.1,1.1L477.1,482.6z
	 M477.1,480.1l1.1-1.1l1.1,1.1l-1.1,1.1L477.1,480.1z M477.1,477.6l1.1-1.1l1.1,1.1l-1.1,1.1L477.1,477.6z M477.1,475.1l1.1-1.1
	l1.1,1.1l-1.1,1.1L477.1,475.1z M477.1,472.6l1.1-1.1l1.1,1.1l-1.1,1.1L477.1,472.6z M477.1,470.1l1.1-1.1l1.1,1.1l-1.1,1.1
	L477.1,470.1z M477.1,467.5l1.1-1.1l1.1,1.1l-1.1,1.1L477.1,467.5z M477.1,465l1.1-1.1l1.1,1.1l-1.1,1.1L477.1,465z M476.9,464.8
	l-1.1-1.1l1.1-1.1l1.1,1.1L476.9,464.8z M476.7,465l-1.1,1.1l-1.1-1.1l1.1-1.1L476.7,465z M474.4,464.8l-1.1-1.1l1.1-1.1l1.1,1.1
	L474.4,464.8z M474.2,465l-1.1,1.1l-1.1-1l1.1-1.1L474.2,465z M471.9,464.8l-1.1-1.1l1.1-1.1l1.1,1.1L471.9,464.8z M471.7,465
	l-1.1,1.1l-1.1-1l1.1-1.1L471.7,465z M469.4,464.8l-1.1-1.1l1.1-1.1l1.1,1.1L469.4,464.8z M469.2,465l-1.1,1.1L467,465l1.1-1.1
	L469.2,465z M466.8,464.8l-1.1-1.1l1.1-1.1l1.1,1.1L466.8,464.8z M466.6,465l-1.1,1.1l-1.1-1.1l1.1-1.1L466.6,465z M464.3,464.8
	l-1.1-1.1l1.1-1.1l1.1,1.1L464.3,464.8z M464.1,465l-1.1,1.1L462,465l1.1-1.1L464.1,465z M461.8,464.8l-1.1-1.1l1.1-1.1l1.1,1.1
	L461.8,464.8z M461.6,465l-1.1,1.1l-1.1-1.1l1.1-1.1L461.6,465z M459.3,464.8l-1.1-1.1l1.1-1.1l1.1,1.1L459.3,464.8z M459.1,465
	l-1.1,1.1l-1.1-1.1l1.1-1.1L459.1,465z M456.8,464.8l-1.1-1.1l1.1-1.1l1.1,1.1L456.8,464.8z M457.8,466.3l-1.1,1.1l-1.1-1.1l1.1-1.1
	L457.8,466.3z M457.8,468.8l-1.1,1.1l-1.1-1.1l1.1-1.1L457.8,468.8z M457.8,471.3l-1.1,1.1l-1.1-1.1l1.1-1.1L457.8,471.3z
	 M457.8,473.8l-1.1,1.1l-1.1-1.1l1.1-1.1L457.8,473.8z M457.8,476.4l-1.1,1.1l-1.1-1.1l1.1-1.1L457.8,476.4z M457.8,478.9l-1.1,1.1
	l-1.1-1.1l1.1-1.1L457.8,478.9z M457.8,481.4l-1.1,1.1l-1.1-1.1l1.1-1.1L457.8,481.4z M457.8,483.9l-1.1,1.1l-1.1-1.1l1.1-1.1
	L457.8,483.9z M457.8,486.4l-1.1,1.1l-1.1-1.1l1.1-1.1L457.8,486.4z M457.8,488.9l-1.1,1.1l-1.1-1.1l1.1-1.1L457.8,488.9z
	 M457.8,491.5l-1.1,1.1l-1.1-1.1l1.1-1.1L457.8,491.5z M457.8,494l-1.1,1.1l-1.1-1.1l1.1-1.1L457.8,494z M457.8,496.5l-1.1,1.1
	l-1.1-1.1l1.1-1.1L457.8,496.5z M457.8,499l-1.1,1.1l-1.1-1.1l1.1-1.1L457.8,499z M457.8,501.5l-1.1,1.1l-1.1-1.1l1.1-1.1
	L457.8,501.5z M457.8,504l-1.1,1.1l-1.1-1.1l1.1-1.1L457.8,504z M457.8,506.6l-1.1,1.1l-1.1-1.1l1.1-1.1L457.8,506.6z M457.8,509.1
	l-1.1,1.1l-1.1-1.1l1.1-1.1L457.8,509.1z M457.8,511.6l-1.1,1.1l-1.1-1.1l1.1-1.1L457.8,511.6z M457.8,514.1l-1.1,1.1l-1.1-1.1
	l1.1-1.1L457.8,514.1z M457.8,516.6l-1.1,1.1l-1.1-1.1l1.1-1.1L457.8,516.6z M457.8,519.1l-1.1,1.1l-1.1-1.1l1.1-1.1L457.8,519.1z
	 M457.8,521.7l-1.1,1.1l-1.1-1.1l1.1-1.1L457.8,521.7z M456.9,520.4l1.1-1.1l1.1,1.1l-1.1,1.1L456.9,520.4z M459.3,520.6l1.1,1.1
	l-1.1,1.1l-1.1-1.1L459.3,520.6z M459.5,520.4l1.1-1.1l1.1,1.1l-1.1,1.1L459.5,520.4z M461.8,520.6l1.1,1.1l-1.1,1.1l-1.1-1.1
	L461.8,520.6z M462,520.4l1.1-1.1l1.1,1.1l-1.1,1.1L462,520.4z M464.3,520.6l1.1,1.1l-1.1,1.1l-1.1-1.1L464.3,520.6z M464.5,520.4
	l1.1-1.1l1.1,1.1l-1.1,1.1L464.5,520.4z M466.8,520.6l1.1,1.1l-1.1,1.1l-1.1-1.1L466.8,520.6z M467,520.4l1.1-1.1l1.1,1.1l-1.1,1.1
	L467,520.4z M469.4,520.6l1.1,1.1l-1.1,1.1l-1.1-1.1L469.4,520.6z M469.6,520.4l1.1-1.1l1.1,1.1l-1.1,1.1L469.6,520.4z M471.9,520.6
	l1.1,1.1l-1.1,1.1l-1.1-1.1L471.9,520.6z M472.1,520.4l1.1-1.1l1.1,1.1l-1.1,1.1L472.1,520.4z M474.4,520.6l1.1,1.1l-1.1,1.1
	l-1.1-1.1L474.4,520.6z M474.6,520.4l1.1-1.1l1.1,1.1l-1.1,1.1L474.6,520.4z M476.9,520.6l1.1,1.1l-1.1,1.1l-1.1-1.1L476.9,520.6z
	 M477.1,520.4l1.1-1.1l1.1,1.1l-1.1,1.1L477.1,520.4z M479.4,520.6l1.1,1.1l-1.1,1.1l-1.1-1.1L479.4,520.6z M479.4,520.2l-1.1-1.1
	l1.1-1.1l1.1,1.1L479.4,520.2z M478.4,516.6l1.1-1.1l1.1,1.1l-1.1,1.1L478.4,516.6z M478.4,514.1l1.1-1.1l1.1,1.1l-1.1,1.1
	L478.4,514.1z M478.4,511.6l1.1-1.1l1.1,1.1l-1.1,1.1L478.4,511.6z M478.4,509.1l1.1-1.1l1.1,1.1l-1.1,1.1L478.4,509.1z
	 M478.4,506.6l1.1-1.1l1.1,1.1l-1.1,1.1L478.4,506.6z M478.4,504l1.1-1.1l1.1,1.1l-1.1,1.1L478.4,504z M478.4,501.5l1.1-1.1l1.1,1.1
	l-1.1,1.1L478.4,501.5z M478.4,499l1.1-1.1l1.1,1.1l-1.1,1.1L478.4,499z M478.4,496.5l1.1-1.1l1.1,1.1l-1.1,1.1L478.4,496.5z
	 M478.4,494l1.1-1.1l1.1,1.1l-1.1,1.1L478.4,494z M478.4,491.5l1.1-1.1l1.1,1.1l-1.1,1.1L478.4,491.5z M478.4,488.9l1.1-1.1l1.1,1.1
	l-1.1,1.1L478.4,488.9z M478.4,486.4l1.1-1.1l1.1,1.1l-1.1,1.1L478.4,486.4z M478.4,483.9l1.1-1.1l1.1,1.1l-1.1,1.1L478.4,483.9z
	 M478.4,481.4l1.1-1.1l1.1,1.1l-1.1,1.1L478.4,481.4z M478.4,478.9l1.1-1.1l1.1,1.1l-1.1,1.1L478.4,478.9z M478.4,476.4l1.1-1.1
	l1.1,1.1l-1.1,1.1L478.4,476.4z M478.4,473.8l1.1-1.1l1.1,1.1l-1.1,1.1L478.4,473.8z M478.4,471.3l1.1-1.1l1.1,1.1l-1.1,1.1
	L478.4,471.3z M478.4,468.8l1.1-1.1l1.1,1.1l-1.1,1.1L478.4,468.8z M478.4,466.3l1.1-1.1l1.1,1.1l-1.1,1.1L478.4,466.3z
	 M478.4,463.8l1.1-1.1l1.1,1.1l-1.1,1.1L478.4,463.8z M478.4,461.3l1.1-1.1l1.1,1.1l-1.1,1.1L478.4,461.3z M479.2,462.5l-1.1,1.1
	l-1.1-1.1l1.1-1.1L479.2,462.5z M476.9,462.3l-1.1-1.1l1.1-1.1l1.1,1.1L476.9,462.3z M476.7,462.5l-1.1,1.1l-1.1-1.1l1.1-1.1
	L476.7,462.5z M474.4,462.3l-1.1-1.1l1.1-1.1l1.1,1.1L474.4,462.3z M474.2,462.5l-1.1,1.1l-1.1-1.1l1.1-1.1L474.2,462.5z
	 M471.9,462.3l-1.1-1.1l1.1-1.1l1.1,1.1L471.9,462.3z M471.7,462.5l-1.1,1.1l-1.1-1.1l1.1-1.1L471.7,462.5z M469.4,462.3l-1.1-1.1
	l1.1-1.1l1.1,1.1L469.4,462.3z M469.2,462.5l-1.1,1.1l-1.1-1.1l1.1-1.1L469.2,462.5z M466.8,462.3l-1.1-1.1l1.1-1.1l1.1,1.1
	L466.8,462.3z M466.6,462.5l-1.1,1.1l-1.1-1.1l1.1-1.1L466.6,462.5z M464.3,462.3l-1.1-1.1l1.1-1.1l1.1,1.1L464.3,462.3z
	 M464.1,462.5l-1.1,1.1l-1.1-1.1l1.1-1.1L464.1,462.5z M461.8,462.3l-1.1-1.1l1.1-1.1l1.1,1.1L461.8,462.3z M461.6,462.5l-1.1,1.1
	l-1.1-1.1l1.1-1.1L461.6,462.5z M459.3,462.3l-1.1-1.1l1.1-1.1l1.1,1.1L459.3,462.3z M459.1,462.5l-1.1,1.1l-1.1-1.1l1.1-1.1
	L459.1,462.5z M456.8,462.3l-1.1-1.1l1.1-1.1l1.1,1.1L456.8,462.3z M456.6,462.5l-1.1,1.1l-1.1-1.1l1.1-1.1L456.6,462.5z M456.6,465
	l-1.1,1.1l-1.1-1.1l1.1-1.1L456.6,465z M456.6,467.5l-1.1,1.1l-1.1-1.1l1.1-1.1L456.6,467.5z M456.6,470.1l-1.1,1.1l-1.1-1.1
	l1.1-1.1L456.6,470.1z M456.6,472.6l-1.1,1.1l-1.1-1.1l1.1-1.1L456.6,472.6z M456.6,475.1l-1.1,1.1l-1.1-1.1l1.1-1.1L456.6,475.1z
	 M456.6,477.6l-1.1,1.1l-1.1-1.1l1.1-1.1L456.6,477.6z M456.6,480.1l-1.1,1.1l-1.1-1.1l1.1-1.1L456.6,480.1z M456.6,482.6l-1.1,1.1
	l-1.1-1.1l1.1-1.1L456.6,482.6z M456.6,485.2l-1.1,1.1l-1.1-1.1l1.1-1.1L456.6,485.2z M456.6,487.7l-1.1,1.1l-1.1-1.1l1.1-1.1
	L456.6,487.7z M456.6,490.2l-1.1,1.1l-1.1-1.1l1.1-1.1L456.6,490.2z M456.6,492.7l-1.1,1.1l-1.1-1.1l1.1-1.1L456.6,492.7z
	 M456.6,495.2l-1.1,1.1l-1.1-1.1l1.1-1.1L456.6,495.2z M456.6,497.7l-1.1,1.1l-1.1-1.1l1.1-1.1L456.6,497.7z M456.6,500.3l-1.1,1.1
	l-1.1-1.1l1.1-1.1L456.6,500.3z M456.6,502.8l-1.1,1.1l-1.1-1.1l1.1-1.1L456.6,502.8z M456.6,505.3l-1.1,1.1l-1.1-1.1l1.1-1.1
	L456.6,505.3z M456.6,507.8l-1.1,1.1l-1.1-1.1l1.1-1.1L456.6,507.8z M456.6,510.3l-1.1,1.1l-1.1-1.1l1.1-1.1L456.6,510.3z
	 M456.6,512.9l-1.1,1.1l-1.1-1.1l1.1-1.1L456.6,512.9z M456.6,515.4l-1.1,1.1l-1.1-1.1l1.1-1.1L456.6,515.4z M456.6,517.9l-1.1,1.1
	l-1.1-1.1l1.1-1.1L456.6,517.9z M456.6,520.4l-1.1,1.1l-1.1-1.1l1.1-1.1L456.6,520.4z M456.6,522.9l-1.1,1.1l-1.1-1.1l1.1-1.1
	L456.6,522.9z M456.8,523.1l1.1,1.1l-1.1,1.1l-1.1-1.1L456.8,523.1z M457,522.9l1.1-1.1l1.1,1.1L458,524L457,522.9z M459.3,523.1
	l1.1,1.1l-1.1,1.1l-1.1-1.1L459.3,523.1z M459.5,522.9l1.1-1.1l1.1,1.1l-1.1,1.1L459.5,522.9z M461.8,523.1l1.1,1.1l-1.1,1.1
	l-1.1-1.1L461.8,523.1z M462,522.9l1.1-1.1l1.1,1.1l-1.1,1.1L462,522.9z M464.3,523.1l1.1,1.1l-1.1,1.1l-1.1-1.1L464.3,523.1z
	 M464.5,522.9l1.1-1.1l1.1,1.1l-1.1,1.1L464.5,522.9z M466.8,523.1l1.1,1.1l-1.1,1.1l-1.1-1.1L466.8,523.1z M467,522.9l1.1-1.1
	l1.1,1.1l-1.1,1.1L467,522.9z M469.4,523.1l1.1,1.1l-1.1,1.1l-1.1-1.1L469.4,523.1z M469.6,522.9l1.1-1.1l1.1,1.1l-1.1,1.1
	L469.6,522.9z M471.9,523.1l1.1,1.1l-1.1,1.1l-1.1-1.1L471.9,523.1z M472.1,522.9l1.1-1.1l1.1,1.1l-1.1,1.1L472.1,522.9z
	 M474.4,523.1l1.1,1.1l-1.1,1.1l-1.1-1.1L474.4,523.1z M474.6,522.9l1.1-1.1l1.1,1.1l-1.1,1.1L474.6,522.9z M476.9,523.1l1.1,1.1
	l-1.1,1.1l-1.1-1.1L476.9,523.1z M477.1,522.9l1.1-1.1l1.1,1.1l-1.1,1.1L477.1,522.9z M479.4,523.1l1.1,1.1l-1.1,1.1l-1.1-1.1
	L479.4,523.1z M479.6,522.9l1.1-1.1l1.1,1.1l-1.1,1.1L479.6,522.9z M479.6,520.4l1.1-1.1l1.1,1.1l-1.1,1.1L479.6,520.4z
	 M479.6,517.9l1.1-1.1l1.1,1.1l-1.1,1.1L479.6,517.9z M479.6,515.4l1.1-1.1l1.1,1.1l-1.1,1.1L479.6,515.4z M479.6,512.9l1.1-1.1
	l1.1,1.1l-1.1,1.1L479.6,512.9z M479.6,510.3l1.1-1.1l1.1,1.1l-1.1,1.1L479.6,510.3z M479.6,507.8l1.1-1.1l1.1,1.1l-1.1,1.1
	L479.6,507.8z M479.6,505.3l1.1-1.1l1.1,1.1l-1.1,1.1L479.6,505.3z M479.6,502.8l1.1-1.1l1.1,1.1l-1.1,1.1L479.6,502.8z
	 M479.6,500.3l1.1-1.1l1.1,1.1l-1.1,1.1L479.6,500.3z M479.6,497.7l1.1-1.1l1.1,1.1l-1.1,1.1L479.6,497.7z M479.6,495.2l1.1-1.1
	l1.1,1.1l-1.1,1.1L479.6,495.2z M479.6,492.7l1.1-1.1l1.1,1.1l-1.1,1.1L479.6,492.7z M479.6,490.2l1.1-1.1l1.1,1.1l-1.1,1.1
	L479.6,490.2z M479.6,487.7l1.1-1.1l1.1,1.1l-1.1,1.1L479.6,487.7z M479.6,485.2l1.1-1.1l1.1,1.1l-1.1,1.1L479.6,485.2z
	 M479.6,482.6l1.1-1.1l1.1,1.1l-1.1,1.1L479.6,482.6z M479.6,480.1l1.1-1.1l1.1,1.1l-1.1,1.1L479.6,480.1z M479.6,477.6l1.1-1.1
	l1.1,1.1l-1.1,1.1L479.6,477.6z M479.6,475.1l1.1-1.1l1.1,1.1l-1.1,1.1L479.6,475.1z M479.6,472.6l1.1-1.1l1.1,1.1l-1.1,1.1
	L479.6,472.6z M479.6,470.1l1.1-1.1l1.1,1.1l-1.1,1.1L479.6,470.1z M479.6,467.5l1.1-1.1l1.1,1.1l-1.1,1.1L479.6,467.5z M479.6,465
	l1.1-1.1l1.1,1.1l-1.1,1.1L479.6,465z M479.6,462.5l1.1-1.1l1.1,1.1l-1.1,1.1L479.6,462.5z M479.6,460l1.1-1.1l1.1,1.1l-1.1,1.1
	L479.6,460z M479.4,459.8l-1.1-1.1l1.1-1.1l1.1,1.1L479.4,459.8z M479.2,460l-1.1,1.1l-1.1-1.1l1.1-1.1L479.2,460z M476.9,459.8
	l-1.1-1.1l1.1-1.1l1.1,1.1L476.9,459.8z M476.7,460l-1.1,1.1l-1.1-1.1l1.1-1.1L476.7,460z M474.4,459.8l-1.1-1.1l1.1-1.1l1.1,1.1
	L474.4,459.8z M474.2,460l-1.1,1.1l-1.1-1.1l1.1-1.1L474.2,460z M471.9,459.8l-1.1-1.1l1.1-1.1l1.1,1.1L471.9,459.8z M471.7,460
	l-1.1,1.1l-1.1-1.1l1.1-1.1L471.7,460z M469.4,459.8l-1.1-1.1l1.1-1.1l1.1,1.1L469.4,459.8z M469.2,460l-1.1,1.1L467,460l1.1-1.1
	L469.2,460z M466.8,459.8l-1.1-1.1l1.1-1.1l1.1,1.1L466.8,459.8z M466.6,460l-1.1,1.1l-1.1-1.1l1.1-1.1L466.6,460z M464.3,459.8
	l-1.1-1.1l1.1-1.1l1.1,1.1L464.3,459.8z M464.1,460l-1.1,1.1L462,460l1.1-1.1L464.1,460z M461.8,459.8l-1.1-1.1l1.1-1.1l1.1,1.1
	L461.8,459.8z M461.6,460l-1.1,1.1l-1.1-1.1l1.1-1.1L461.6,460z M459.3,459.8l-1.1-1.1l1.1-1.1l1.1,1.1L459.3,459.8z M459.1,460
	l-1.1,1.1L457,460l1.1-1.1L459.1,460z M456.8,459.8l-1.1-1.1l1.1-1.1l1.1,1.1L456.8,459.8z M456.6,460l-1.1,1.1l-1.1-1.1l1.1-1.1
	L456.6,460z M454.2,459.8l-1.1-1.1l1.1-1.1l1.1,1.1L454.2,459.8z M455.3,461.2l-1.1,1.1l-1.1-1.1l1.1-1.1L455.3,461.2z M454.2,462.7
	l1.1,1.1l-1.1,1.1l-1.1-1.1L454.2,462.7z M455.3,466.3l-1.1,1.1l-1.1-1.1l1.1-1.1L455.3,466.3z M455.3,468.8l-1.1,1.1l-1.1-1.1
	l1.1-1.1L455.3,468.8z M455.3,471.3l-1.1,1.1l-1.1-1.1l1.1-1.1L455.3,471.3z M455.3,473.8l-1.1,1.1l-1.1-1.1l1.1-1.1L455.3,473.8z
	 M454.2,475.3l1.1,1.1l-1.1,1.1l-1.1-1.1L454.2,475.3z M455.3,478.9l-1.1,1.1l-1.1-1.1l1.1-1.1L455.3,478.9z M455.3,481.4l-1.1,1.1
	l-1.1-1.1l1.1-1.1L455.3,481.4z M455.3,483.9l-1.1,1.1l-1.1-1.1l1.1-1.1L455.3,483.9z M455.3,486.4l-1.1,1.1l-1.1-1.1l1.1-1.1
	L455.3,486.4z M454.2,487.9l1.1,1.1l-1.1,1.1l-1.1-1.1L454.2,487.9z M455.3,491.5l-1.1,1.1l-1.1-1.1l1.1-1.1L455.3,491.5z
	 M455.3,494l-1.1,1.1l-1.1-1.1l1.1-1.1L455.3,494z M455.3,496.5l-1.1,1.1l-1.1-1.1l1.1-1.1L455.3,496.5z M455.3,499l-1.1,1.1
	l-1.1-1.1l1.1-1.1L455.3,499z M454.2,500.5l1.1,1.1l-1.1,1.1l-1.1-1.1L454.2,500.5z M455.3,504l-1.1,1.1l-1.1-1.1l1.1-1.1L455.3,504
	z M455.3,506.6l-1.1,1.1l-1.1-1.1l1.1-1.1L455.3,506.6z M455.3,509.1l-1.1,1.1l-1.1-1.1l1.1-1.1L455.3,509.1z M455.3,511.6l-1.1,1.1
	l-1.1-1.1l1.1-1.1L455.3,511.6z M454.2,513.1l1.1,1.1l-1.1,1.1l-1.1-1.1L454.2,513.1z M455.3,516.6l-1.1,1.1l-1.1-1.1l1.1-1.1
	L455.3,516.6z M455.3,519.1l-1.1,1.1l-1.1-1.1l1.1-1.1L455.3,519.1z M455.3,521.7l-1.1,1.1l-1.1-1.1l1.1-1.1L455.3,521.7z
	 M455.3,524.2l-1.1,1.1l-1.1-1.1l1.1-1.1L455.3,524.2z M454.2,525.6l1.1,1.1l-1.1,1.1l-1.1-1.1L454.2,525.6z M454.4,525.4l1.1-1.1
	l1.1,1.1l-1.1,1.1L454.4,525.4z M456.8,525.6l1.1,1.1l-1.1,1.1l-1.1-1.1L456.8,525.6z M457,525.4l1.1-1.1l1.1,1.1l-1.1,1.1
	L457,525.4z M459.3,525.6l1.1,1.1l-1.1,1.1l-1.1-1.1L459.3,525.6z M459.5,525.4l1.1-1.1l1.1,1.1l-1.1,1.1L459.5,525.4z M461.8,525.6
	l1.1,1.1l-1.1,1.1l-1.1-1.1L461.8,525.6z M462,525.4l1.1-1.1l1.1,1.1l-1.1,1.1L462,525.4z M464.3,525.6l1.1,1.1l-1.1,1.1l-1.1-1.1
	L464.3,525.6z M464.5,525.4l1-1.1l1.1,1.1l-1.1,1.1L464.5,525.4z M466.8,525.6l1.1,1.1l-1.1,1.1l-1.1-1.1L466.8,525.6z M467,525.4
	l1.1-1.1l1.1,1.1l-1.1,1.1L467,525.4z M469.4,525.6l1.1,1.1l-1.1,1.1l-1.1-1.1L469.4,525.6z M469.6,525.4l1.1-1.1l1.1,1.1l-1.1,1.1
	L469.6,525.4z M471.9,525.6l1.1,1.1l-1.1,1.1l-1.1-1.1L471.9,525.6z M472.1,525.4l1.1-1.1l1.1,1.1l-1.1,1.1L472.1,525.4z
	 M474.4,525.6l1.1,1.1l-1.1,1.1l-1.1-1.1L474.4,525.6z M474.6,525.4l1.1-1.1l1.1,1.1l-1.1,1.1L474.6,525.4z M476.9,525.6l1.1,1.1
	l-1.1,1.1l-1.1-1.1L476.9,525.6z M477.1,525.4l1.1-1.1l1.1,1.1l-1.1,1.1L477.1,525.4z M479.5,525.6l1.1,1.1l-1.1,1.1l-1.1-1.1
	L479.5,525.6z M479.7,525.4l1.1-1.1l1.1,1.1l-1.1,1.1L479.7,525.4z M482,525.6l1.1,1.1l-1.1,1.1l-1.1-1.1L482,525.6z M482,525.2
	l-1.1-1.1l1.1-1.1l1.1,1.1L482,525.2z M480.9,521.7l1.1-1.1l1.1,1.1l-1.1,1.1L480.9,521.7z M480.9,519.1l1.1-1.1l1.1,1.1l-1.1,1.1
	L480.9,519.1z M480.9,516.6l1.1-1.1l1.1,1.1l-1.1,1.1L480.9,516.6z M480.9,514.1l1.1-1.1l1.1,1.1l-1.1,1.1L480.9,514.1z M482,512.7
	l-1.1-1.1l1.1-1.1l1.1,1.1L482,512.7z M480.9,509.1l1.1-1.1l1.1,1.1l-1.1,1.1L480.9,509.1z M480.9,506.6l1.1-1.1l1.1,1.1l-1.1,1.1
	L480.9,506.6z M480.9,504l1.1-1.1l1.1,1.1l-1.1,1.1L480.9,504z M480.9,501.5l1.1-1.1l1,1.1l-1.1,1.1L480.9,501.5z M480.9,499
	l1.1-1.1l1.1,1.1l-1.1,1.1L480.9,499z M480.9,496.5l1.1-1.1l1.1,1.1l-1.1,1.1L480.9,496.5z M480.9,494l1.1-1.1l1.1,1.1L482,495
	L480.9,494z M480.9,491.5l1.1-1.1l1.1,1.1l-1.1,1.1L480.9,491.5z M480.9,488.9l1.1-1.1l1.1,1.1L482,490L480.9,488.9z M480.9,486.4
	l1.1-1.1l1.1,1.1l-1.1,1.1L480.9,486.4z M480.9,483.9l1.1-1.1l1.1,1.1L482,485L480.9,483.9z M480.9,481.4l1.1-1.1l1.1,1.1l-1.1,1.1
	L480.9,481.4z M480.9,478.9l1.1-1.1l1.1,1.1l-1.1,1.1L480.9,478.9z M480.9,476.4l1.1-1.1l1.1,1.1l-1.1,1.1L480.9,476.4z
	 M480.9,473.8l1.1-1.1l1.1,1.1l-1.1,1.1L480.9,473.8z M482,472.4l-1.1-1.1l1.1-1.1l1.1,1.1L482,472.4z M480.9,468.8l1.1-1.1l1.1,1.1
	l-1.1,1.1L480.9,468.8z M480.9,466.3l1.1-1.1l1.1,1.1l-1.1,1.1L480.9,466.3z M480.9,463.8l1.1-1.1l1.1,1.1l-1.1,1.1L480.9,463.8z
	 M480.9,461.3l1.1-1.1l1.1,1.1l-1.1,1.1L480.9,461.3z M482,459.8l-1.1-1.1l1.1-1.1l1.1,1.1L482,459.8z M480.9,456.2l1.1-1.1l1.1,1.1
	l-1.1,1.1L480.9,456.2z M481.8,457.5l-1.1,1.1l-1.1-1.1l1.1-1.1L481.8,457.5z M479.5,457.3l-1.1-1.1l1.1-1.1l1.1,1.1L479.5,457.3z
	 M479.3,457.5l-1.1,1.1l-1.1-1.1l1.1-1.1L479.3,457.5z M476.9,457.3l-1.1-1.1l1.1-1.1l1.1,1.1L476.9,457.3z M476.7,457.5l-1.1,1.1
	l-1.1-1.1l1.1-1.1L476.7,457.5z M474.4,457.3l-1.1-1.1l1.1-1.1l1.1,1.1L474.4,457.3z M474.2,457.5l-1.1,1.1l-1.1-1.1l1.1-1.1
	L474.2,457.5z M471.9,457.3l-1.1-1.1l1.1-1.1l1.1,1.1L471.9,457.3z M471.7,457.5l-1.1,1.1l-1.1-1.1l1.1-1.1L471.7,457.5z
	 M469.4,457.3l-1.1-1.1l1.1-1.1l1.1,1.1L469.4,457.3z M469.2,457.5l-1.1,1.1l-1.1-1.1l1.1-1.1L469.2,457.5z M466.8,457.3l-1.1-1.1
	l1.1-1.1l1.1,1.1L466.8,457.3z M466.6,457.5l-1.1,1.1l-1.1-1.1l1.1-1.1L466.6,457.5z M464.3,457.3l-1.1-1.1l1.1-1.1l1.1,1.1
	L464.3,457.3z M464.1,457.5l-1.1,1.1l-1.1-1.1l1.1-1.1L464.1,457.5z M461.8,457.3l-1.1-1.1l1.1-1.1l1.1,1.1L461.8,457.3z
	 M461.6,457.5l-1.1,1.1l-1.1-1.1l1.1-1.1L461.6,457.5z M459.3,457.3l-1.1-1.1l1.1-1.1l1.1,1.1L459.3,457.3z M459.1,457.5l-1.1,1.1
	l-1.1-1.1l1.1-1.1L459.1,457.5z M456.8,457.3l-1.1-1.1l1.1-1.1l1.1,1.1L456.8,457.3z M456.6,457.5l-1.1,1.1l-1.1-1.1l1.1-1.1
	L456.6,457.5z M454.2,457.3l-1.1-1.1l1.1-1.1l1.1,1.1L454.2,457.3z M454.1,457.5l-1.1,1.1l-1.1-1.1l1.1-1.1L454.1,457.5z M454.1,460
	l-1.1,1.1l-1.1-1.1l1.1-1.1L454.1,460z M454.1,462.5l-1.1,1.1l-1.1-1.1l1.1-1.1L454.1,462.5z M454.1,465l-1.1,1.1l-1.1-1.1l1.1-1.1
	L454.1,465z M454.1,467.5l-1.1,1.1l-1.1-1.1l1.1-1.1L454.1,467.5z M454.1,470.1l-1.1,1.1l-1.1-1.1l1.1-1.1L454.1,470.1z
	 M454.1,472.6l-1.1,1.1l-1.1-1.1l1.1-1.1L454.1,472.6z M454.1,475.1l-1.1,1.1l-1.1-1.1l1.1-1.1L454.1,475.1z M454.1,477.6l-1.1,1.1
	l-1.1-1.1l1.1-1.1L454.1,477.6z M454.1,480.1l-1.1,1.1l-1.1-1.1l1.1-1.1L454.1,480.1z M454.1,482.6l-1.1,1.1l-1.1-1.1l1.1-1.1
	L454.1,482.6z M454.1,485.2l-1.1,1.1l-1.1-1.1l1.1-1.1L454.1,485.2z M454.1,487.7l-1.1,1.1l-1.1-1.1l1.1-1.1L454.1,487.7z
	 M454.1,490.2l-1.1,1.1l-1.1-1.1l1.1-1.1L454.1,490.2z M454.1,492.7l-1.1,1.1l-1.1-1.1l1.1-1.1L454.1,492.7z M454.1,495.2l-1.1,1.1
	l-1.1-1.1l1.1-1.1L454.1,495.2z M454.1,497.8l-1.1,1.1l-1.1-1.1l1.1-1.1L454.1,497.8z M454.1,500.3l-1.1,1.1l-1.1-1.1l1.1-1.1
	L454.1,500.3z M454.1,502.8l-1.1,1.1l-1.1-1.1l1.1-1.1L454.1,502.8z M454.1,505.3l-1.1,1.1l-1.1-1.1l1.1-1.1L454.1,505.3z
	 M454.1,507.8l-1.1,1.1l-1.1-1.1l1.1-1.1L454.1,507.8z M454.1,510.3l-1.1,1.1l-1.1-1.1l1.1-1.1L454.1,510.3z M454.1,512.9l-1.1,1.1
	l-1.1-1.1l1.1-1.1L454.1,512.9z M454.1,515.4l-1.1,1.1l-1.1-1.1l1.1-1.1L454.1,515.4z M454.1,517.9L453,519l-1.1-1.1l1.1-1.1
	L454.1,517.9z M454.1,520.4l-1.1,1.1l-1.1-1.1l1.1-1.1L454.1,520.4z M454.1,522.9L453,524l-1.1-1.1l1.1-1.1L454.1,522.9z
	 M454.1,525.4l-1.1,1.1l-1.1-1.1l1.1-1.1L454.1,525.4z M454.1,528L453,529l-1.1-1.1l1.1-1.1L454.1,528z M454.3,528.2l1.1,1.1
	l-1.1,1.1l-1.1-1.1L454.3,528.2z M454.5,528l1.1-1.1l1.1,1.1l-1.1,1.1L454.5,528z M456.8,528.2l1.1,1.1l-1.1,1.1l-1.1-1.1
	L456.8,528.2z M457,528l1.1-1.1l1.1,1.1L458,529L457,528z M459.3,528.2l1.1,1.1l-1.1,1.1l-1.1-1.1L459.3,528.2z M459.5,528l1.1-1.1
	l1.1,1.1l-1.1,1.1L459.5,528z M461.8,528.2l1.1,1.1l-1.1,1.1l-1.1-1.1L461.8,528.2z M462,528l1.1-1.1l1.1,1.1l-1.1,1.1L462,528z
	 M464.3,528.2l1.1,1.1l-1.1,1.1l-1.1-1.1L464.3,528.2z M464.5,528l1.1-1.1l1.1,1.1l-1.1,1.1L464.5,528z M466.9,528.2l1.1,1.1
	l-1.1,1.1l-1.1-1.1L466.9,528.2z M467.1,528l1.1-1.1l1.1,1.1l-1.1,1.1L467.1,528z M469.4,528.2l1.1,1.1l-1.1,1.1l-1.1-1.1
	L469.4,528.2z M469.6,528l1.1-1.1l1.1,1.1l-1.1,1.1L469.6,528z M471.9,528.2l1.1,1.1l-1.1,1.1l-1.1-1.1L471.9,528.2z M472.1,528
	l1.1-1.1l1.1,1.1l-1.1,1.1L472.1,528z M474.4,528.2l1.1,1.1l-1.1,1.1l-1.1-1.1L474.4,528.2z M474.6,528l1.1-1.1l1.1,1.1l-1.1,1.1
	L474.6,528z M476.9,528.2l1.1,1.1l-1.1,1.1l-1.1-1.1L476.9,528.2z M477.1,528l1.1-1.1l1.1,1.1l-1.1,1.1L477.1,528z M479.5,528.2
	l1.1,1.1l-1.1,1.1l-1.1-1.1L479.5,528.2z M479.7,528l1.1-1.1l1.1,1.1l-1.1,1.1L479.7,528z M482,528.2l1.1,1.1l-1.1,1.1l-1.1-1.1
	L482,528.2z M482.2,528l1.1-1.1l1.1,1.1l-1.1,1.1L482.2,528z M483.3,526.5l-1.1-1.1l1.1-1.1l1.1,1.1L483.3,526.5z M482.2,522.9
	l1.1-1.1l1.1,1.1l-1.1,1.1L482.2,522.9z M482.2,520.4l1.1-1.1l1.1,1.1l-1.1,1.1L482.2,520.4z M482.2,517.9l1.1-1.1l1.1,1.1l-1.1,1.1
	L482.2,517.9z M482.2,515.4l1.1-1.1l1.1,1.1l-1.1,1.1L482.2,515.4z M483.2,513.9l-1.1-1.1l1.1-1.1l1.1,1.1L483.2,513.9z
	 M482.2,510.3l1.1-1.1l1.1,1.1l-1.1,1.1L482.2,510.3z M482.2,507.8l1.1-1.1l1.1,1.1l-1.1,1.1L482.2,507.8z M482.2,505.3l1.1-1.1
	l1.1,1.1l-1.1,1.1L482.2,505.3z M482.2,502.8l1.1-1.1l1.1,1.1l-1.1,1.1L482.2,502.8z M483.2,501.3l-1.1-1.1l1.1-1.1l1.1,1.1
	L483.2,501.3z M482.2,497.8l1.1-1.1l1.1,1.1l-1.1,1.1L482.2,497.8z M482.2,495.2l1.1-1.1l1.1,1.1l-1.1,1.1L482.2,495.2z
	 M482.2,492.7l1.1-1.1l1.1,1.1l-1.1,1.1L482.2,492.7z M482.2,490.2l1.1-1.1l1.1,1.1l-1.1,1.1L482.2,490.2z M483.2,488.7l-1.1-1.1
	l1.1-1.1l1.1,1.1L483.2,488.7z M482.2,485.2l1.1-1.1l1.1,1.1l-1.1,1.1L482.2,485.2z M482.2,482.6l1.1-1.1l1.1,1.1l-1.1,1.1
	L482.2,482.6z M482.2,480.1l1.1-1.1l1.1,1.1l-1.1,1.1L482.2,480.1z M482.2,477.6l1.1-1.1l1.1,1.1l-1.1,1.1L482.2,477.6z
	 M483.2,476.2l-1.1-1.1l1.1-1.1l1.1,1.1L483.2,476.2z M482.2,472.6l1.1-1.1l1.1,1.1l-1.1,1.1L482.2,472.6z M482.2,470.1l1.1-1.1
	l1.1,1.1l-1.1,1.1L482.2,470.1z M482.2,467.5l1.1-1.1l1.1,1.1l-1.1,1.1L482.2,467.5z M482.2,465l1.1-1.1l1.1,1.1l-1.1,1.1L482.2,465
	z M483.2,463.6l-1.1-1.1l1.1-1.1l1.1,1.1L483.2,463.6z M482.2,460l1.1-1.1l1.1,1.1l-1.1,1.1L482.2,460z M482.2,457.5l1.1-1.1
	l1.1,1.1l-1.1,1.1L482.2,457.5z M482.2,455l1.1-1.1l1.1,1.1l-1.1,1.1L482.2,455z M482,454.8l-1.1-1.1l1.1-1.1l1.1,1.1L482,454.8z
	 M481.8,455l-1.1,1.1l-1.1-1.1l1.1-1.1L481.8,455z M479.5,454.8l-1.1-1.1l1.1-1.1l1.1,1.1L479.5,454.8z M479.3,455l-1.1,1.1
	l-1.1-1.1l1.1-1.1L479.3,455z M476.9,454.8l-1.1-1.1l1.1-1.1l1.1,1.1L476.9,454.8z M476.7,455l-1.1,1.1l-1.1-1.1l1.1-1.1L476.7,455z
	 M474.4,454.8l-1.1-1.1l1.1-1.1l1.1,1.1L474.4,454.8z M474.2,455l-1.1,1.1l-1.1-1.1l1.1-1.1L474.2,455z M471.9,454.8l-1.1-1.1
	l1.1-1.1l1.1,1.1L471.9,454.8z M471.7,455l-1.1,1.1l-1.1-1.1l1.1-1.1L471.7,455z M469.4,454.8l-1.1-1.1l1.1-1.1l1.1,1.1L469.4,454.8
	z M469.2,455l-1.1,1.1l-1.1-1.1l1.1-1.1L469.2,455z M466.9,454.8l-1.1-1.1l1.1-1.1l1.1,1.1L466.9,454.8z M466.7,455l-1.1,1.1
	l-1.1-1.1l1.1-1.1L466.7,455z M464.3,454.8l-1.1-1.1l1.1-1.1l1.1,1.1L464.3,454.8z M464.1,455l-1.1,1.1L462,455l1.1-1.1L464.1,455z
	 M461.8,454.8l-1.1-1.1l1.1-1.1l1.1,1.1L461.8,454.8z M461.6,455l-1.1,1.1l-1.1-1.1l1.1-1.1L461.6,455z M459.3,454.8l-1.1-1.1
	l1.1-1.1l1.1,1.1L459.3,454.8z M459.1,455L458,456L457,455l1.1-1.1L459.1,455z M456.8,454.8l-1.1-1.1l1.1-1.1l1.1,1.1L456.8,454.8z
	 M456.6,455l-1.1,1.1l-1.1-1.1l1.1-1.1L456.6,455z M454.3,454.8l-1.1-1.1l1.1-1.1l1.1,1.1L454.3,454.8z M454.1,455L453,456l-1.1-1.1
	l1.1-1.1L454.1,455z M451.7,454.8l-1.1-1.1l1.1-1.1l1.1,1.1L451.7,454.8z M452.8,456.2l-1.1,1.1l-1.1-1.1l1.1-1.1L452.8,456.2z
	 M452.8,458.7l-1.1,1.1l-1.1-1.1l1.1-1.1L452.8,458.7z M452.8,461.3l-1.1,1.1l-1.1-1.1l1.1-1.1L452.8,461.3z M452.8,463.8l-1.1,1.1
	l-1.1-1.1l1.1-1.1L452.8,463.8z M452.8,466.3l-1.1,1.1l-1.1-1.1l1.1-1.1L452.8,466.3z M452.8,468.8l-1.1,1.1l-1.1-1.1l1.1-1.1
	L452.8,468.8z M452.8,471.3l-1.1,1.1l-1.1-1.1l1.1-1.1L452.8,471.3z M452.8,473.8l-1.1,1.1l-1.1-1.1l1.1-1.1L452.8,473.8z
	 M452.8,476.4l-1.1,1.1l-1.1-1.1l1.1-1.1L452.8,476.4z M452.8,478.9l-1.1,1.1l-1.1-1.1l1.1-1.1L452.8,478.9z M452.8,481.4l-1.1,1.1
	l-1.1-1.1l1.1-1.1L452.8,481.4z M452.8,483.9l-1.1,1.1l-1.1-1.1l1.1-1.1L452.8,483.9z M452.8,486.4l-1.1,1.1l-1.1-1.1l1.1-1.1
	L452.8,486.4z M452.8,489l-1.1,1.1l-1.1-1.1l1.1-1.1L452.8,489z M452.8,491.5l-1.1,1.1l-1.1-1.1l1.1-1.1L452.8,491.5z M452.8,494
	l-1.1,1.1l-1.1-1.1l1.1-1.1L452.8,494z M452.8,496.5l-1.1,1.1l-1.1-1.1l1.1-1.1L452.8,496.5z M452.8,499l-1.1,1.1l-1.1-1.1l1.1-1.1
	L452.8,499z M452.8,501.5l-1.1,1.1l-1.1-1.1l1.1-1.1L452.8,501.5z M452.8,504.1l-1.1,1.1l-1.1-1.1l1.1-1.1L452.8,504.1z
	 M452.8,506.6l-1.1,1.1l-1.1-1.1l1.1-1.1L452.8,506.6z M452.8,509.1l-1.1,1.1l-1.1-1.1l1.1-1.1L452.8,509.1z M452.8,511.6l-1.1,1.1
	l-1.1-1.1l1.1-1.1L452.8,511.6z M452.8,514.1l-1.1,1.1l-1.1-1.1l1.1-1.1L452.8,514.1z M452.8,516.6l-1.1,1.1l-1.1-1.1l1.1-1.1
	L452.8,516.6z M452.8,519.2l-1.1,1.1l-1.1-1.1l1.1-1.1L452.8,519.2z M452.8,521.7l-1.1,1.1l-1.1-1.1l1.1-1.1L452.8,521.7z
	 M452.8,524.2l-1.1,1.1l-1.1-1.1l1.1-1.1L452.8,524.2z M452.8,526.7l-1.1,1.1l-1.1-1.1l1.1-1.1L452.8,526.7z M452.8,529.2l-1.1,1.1
	l-1.1-1.1l1.1-1.1L452.8,529.2z M452.8,531.7l-1.1,1.1l-1.1-1.1l1.1-1.1L452.8,531.7z M451.9,530.5l1.1-1.1l1.1,1.1l-1.1,1.1
	L451.9,530.5z M454.3,530.7l1.1,1.1l-1.1,1.1l-1.1-1.1L454.3,530.7z M454.5,530.5l1.1-1.1l1.1,1.1l-1.1,1.1L454.5,530.5z
	 M456.8,530.7l1.1,1.1l-1.1,1.1l-1.1-1.1L456.8,530.7z M457,530.5l1.1-1.1l1.1,1.1l-1.1,1.1L457,530.5z M459.3,530.7l1.1,1.1
	l-1.1,1.1l-1.1-1.1L459.3,530.7z M459.5,530.5l1.1-1.1l1.1,1.1l-1.1,1.1L459.5,530.5z M461.8,530.7l1.1,1.1l-1.1,1.1l-1.1-1.1
	L461.8,530.7z M462,530.5l1.1-1.1l1.1,1.1l-1.1,1.1L462,530.5z M464.3,530.7l1.1,1.1l-1.1,1.1l-1.1-1.1L464.3,530.7z M464.5,530.5
	l1.1-1.1l1.1,1.1l-1.1,1.1L464.5,530.5z M466.9,530.7l1.1,1.1l-1.1,1.1l-1.1-1.1L466.9,530.7z M467.1,530.5l1.1-1.1l1.1,1.1
	l-1.1,1.1L467.1,530.5z M469.4,530.7l1.1,1.1l-1.1,1.1l-1.1-1.1L469.4,530.7z M469.6,530.5l1.1-1.1l1.1,1.1l-1.1,1.1L469.6,530.5z
	 M471.9,530.7l1.1,1.1l-1.1,1.1l-1.1-1.1L471.9,530.7z M472.1,530.5l1.1-1.1l1.1,1.1l-1.1,1.1L472.1,530.5z M474.4,530.7l1.1,1.1
	l-1.1,1.1l-1.1-1.1L474.4,530.7z M474.6,530.5l1.1-1.1l1.1,1.1l-1.1,1.1L474.6,530.5z M476.9,530.7l1.1,1.1l-1.1,1.1l-1.1-1.1
	L476.9,530.7z M477.1,530.5l1.1-1.1l1.1,1.1l-1.1,1.1L477.1,530.5z M479.5,530.7l1.1,1.1l-1.1,1.1l-1.1-1.1L479.5,530.7z
	 M479.7,530.5l1.1-1.1l1.1,1.1l-1.1,1.1L479.7,530.5z M482,530.7l1.1,1.1l-1.1,1.1l-1.1-1.1L482,530.7z M482.2,530.5l1.1-1.1
	l1.1,1.1l-1.1,1.1L482.2,530.5z M484.5,530.7l1.1,1.1l-1.1,1.1l-1.1-1.1L484.5,530.7z M483.4,529.2l1.1-1.1l1.1,1.1l-1.1,1.1
	L483.4,529.2z M483.4,526.7l1.1-1.1l1.1,1.1l-1.1,1.1L483.4,526.7z M483.4,524.2l1.1-1.1l1.1,1.1l-1.1,1.1L483.4,524.2z
	 M483.4,521.7l1.1-1.1l1.1,1.1l-1.1,1.1L483.4,521.7z M483.4,519.2l1.1-1.1l1.1,1.1l-1.1,1.1L483.4,519.2z M483.4,516.6l1.1-1.1
	l1.1,1.1l-1.1,1.1L483.4,516.6z M483.4,514.1l1.1-1.1l1.1,1.1l-1.1,1.1L483.4,514.1z M483.4,511.6l1.1-1.1l1.1,1.1l-1.1,1.1
	L483.4,511.6z M483.4,509.1l1.1-1.1l1.1,1.1l-1.1,1.1L483.4,509.1z M483.4,506.6l1.1-1.1l1.1,1.1l-1.1,1.1L483.4,506.6z
	 M483.4,504.1l1.1-1.1l1.1,1.1l-1.1,1.1L483.4,504.1z M483.4,501.5l1.1-1.1l1,1.1l-1.1,1.1L483.4,501.5z M483.4,499l1.1-1.1l1.1,1.1
	l-1.1,1.1L483.4,499z M483.4,496.5l1.1-1.1l1.1,1.1l-1.1,1.1L483.4,496.5z M483.4,494l1.1-1.1l1.1,1.1l-1.1,1.1L483.4,494z
	 M483.4,491.5l1.1-1.1l1.1,1.1l-1.1,1.1L483.4,491.5z M483.4,488.9l1.1-1.1l1.1,1.1l-1.1,1.1L483.4,488.9z M483.4,486.4l1.1-1.1
	l1.1,1.1l-1.1,1.1L483.4,486.4z M483.4,483.9l1.1-1.1l1.1,1.1l-1.1,1.1L483.4,483.9z M483.4,481.4l1.1-1.1l1.1,1.1l-1.1,1.1
	L483.4,481.4z M483.4,478.9l1.1-1.1l1.1,1.1l-1.1,1.1L483.4,478.9z M483.4,476.4l1.1-1.1l1.1,1.1l-1.1,1.1L483.4,476.4z
	 M483.4,473.8l1.1-1.1l1.1,1.1l-1.1,1.1L483.4,473.8z M483.4,471.3l1.1-1.1l1.1,1.1l-1.1,1.1L483.4,471.3z M483.4,468.8l1.1-1.1
	l1.1,1.1l-1.1,1.1L483.4,468.8z M483.4,466.3l1.1-1.1l1.1,1.1l-1.1,1.1L483.4,466.3z M483.4,463.8l1.1-1.1l1.1,1.1l-1.1,1.1
	L483.4,463.8z M483.4,461.3l1.1-1.1l1.1,1.1l-1.1,1.1L483.4,461.3z M483.4,458.7l1.1-1.1l1.1,1.1l-1.1,1.1L483.4,458.7z
	 M483.4,456.2l1.1-1.1l1.1,1.1l-1.1,1.1L483.4,456.2z M483.4,453.7l1.1-1.1l1.1,1.1l-1.1,1.1L483.4,453.7z M483.4,451.2l1.1-1.1
	l1.1,1.1l-1.1,1.1L483.4,451.2z M484.3,452.5l-1.1,1.1l-1.1-1.1l1.1-1.1L484.3,452.5z M482,452.3l-1.1-1.1l1.1-1.1l1.1,1.1
	L482,452.3z M481.8,452.5l-1.1,1.1l-1.1-1.1l1.1-1.1L481.8,452.5z M479.5,452.3l-1.1-1.1l1.1-1.1l1.1,1.1L479.5,452.3z M479.3,452.5
	l-1.1,1.1l-1.1-1.1l1.1-1.1L479.3,452.5z M476.9,452.3l-1.1-1.1l1.1-1.1l1.1,1.1L476.9,452.3z M476.7,452.5l-1.1,1.1l-1.1-1.1
	l1.1-1.1L476.7,452.5z M474.4,452.3l-1.1-1.1l1.1-1.1l1.1,1.1L474.4,452.3z M474.2,452.5l-1.1,1.1l-1.1-1.1l1.1-1.1L474.2,452.5z
	 M471.9,452.3l-1.1-1.1l1-1.1l1.1,1.1L471.9,452.3z M471.7,452.5l-1.1,1.1l-1.1-1.1l1.1-1.1L471.7,452.5z M469.4,452.3l-1.1-1.1
	l1.1-1.1l1.1,1.1L469.4,452.3z M469.2,452.5l-1.1,1.1l-1.1-1.1l1.1-1.1L469.2,452.5z M466.9,452.3l-1.1-1.1l1.1-1.1l1.1,1.1
	L466.9,452.3z M466.7,452.5l-1.1,1.1l-1.1-1.1l1.1-1.1L466.7,452.5z M464.3,452.3l-1.1-1.1l1.1-1.1l1.1,1.1L464.3,452.3z
	 M464.1,452.5l-1.1,1.1l-1.1-1.1l1.1-1.1L464.1,452.5z M461.8,452.3l-1.1-1.1l1.1-1.1l1.1,1.1L461.8,452.3z M461.6,452.5l-1.1,1.1
	l-1.1-1.1l1.1-1.1L461.6,452.5z M459.3,452.3l-1.1-1.1l1.1-1.1l1.1,1.1L459.3,452.3z M459.1,452.5l-1.1,1.1l-1.1-1.1l1.1-1.1
	L459.1,452.5z M456.8,452.3l-1.1-1.1l1.1-1.1l1.1,1.1L456.8,452.3z M456.6,452.5l-1.1,1.1l-1.1-1.1l1.1-1.1L456.6,452.5z
	 M454.3,452.3l-1.1-1.1l1.1-1.1l1.1,1.1L454.3,452.3z M454.1,452.5l-1.1,1.1l-1.1-1.1l1.1-1.1L454.1,452.5z M451.7,452.3l-1.1-1.1
	l1.1-1.1l1.1,1.1L451.7,452.3z M451.5,452.4l-1.1,1.1l-1.1-1.1l1.1-1.1L451.5,452.4z M451.5,455l-1.1,1.1l-1.1-1.1l1.1-1.1
	L451.5,455z M451.5,457.5l-1.1,1.1l-1.1-1.1l1.1-1.1L451.5,457.5z M451.5,460l-1.1,1.1l-1.1-1.1l1.1-1.1L451.5,460z M451.5,462.5
	l-1.1,1.1l-1.1-1.1l1.1-1.1L451.5,462.5z M451.5,465l-1.1,1.1l-1.1-1.1l1.1-1.1L451.5,465z M451.5,467.5l-1.1,1.1l-1.1-1.1l1.1-1.1
	L451.5,467.5z M451.5,470.1l-1.1,1.1l-1.1-1.1l1.1-1.1L451.5,470.1z M451.5,472.6l-1.1,1.1l-1.1-1.1l1.1-1.1L451.5,472.6z
	 M451.5,475.1l-1.1,1.1l-1.1-1.1l1.1-1.1L451.5,475.1z M451.5,477.6l-1.1,1.1l-1.1-1.1l1.1-1.1L451.5,477.6z M451.5,480.1l-1.1,1.1
	l-1.1-1.1l1.1-1.1L451.5,480.1z M451.5,482.7l-1.1,1.1l-1.1-1.1l1.1-1.1L451.5,482.7z M451.5,485.2l-1.1,1.1l-1.1-1.1l1.1-1.1
	L451.5,485.2z M451.5,487.7l-1.1,1.1l-1.1-1.1l1.1-1.1L451.5,487.7z M451.5,490.2l-1.1,1.1l-1.1-1.1l1.1-1.1L451.5,490.2z
	 M451.5,492.7l-1.1,1.1l-1.1-1.1l1.1-1.1L451.5,492.7z M451.5,495.2l-1.1,1.1l-1.1-1.1l1.1-1.1L451.5,495.2z M451.5,497.8l-1.1,1.1
	l-1.1-1.1l1.1-1.1L451.5,497.8z M451.5,500.3l-1.1,1.1l-1.1-1.1l1.1-1.1L451.5,500.3z M451.5,502.8l-1.1,1.1l-1.1-1.1l1.1-1.1
	L451.5,502.8z M451.5,505.3l-1.1,1.1l-1.1-1.1l1.1-1.1L451.5,505.3z M451.5,507.8l-1.1,1.1l-1.1-1.1l1.1-1.1L451.5,507.8z
	 M451.5,510.3l-1.1,1.1l-1.1-1.1l1.1-1.1L451.5,510.3z M451.5,512.9l-1.1,1.1l-1.1-1.1l1.1-1.1L451.5,512.9z M451.5,515.4l-1.1,1.1
	l-1.1-1.1l1.1-1.1L451.5,515.4z M451.5,517.9l-1.1,1.1l-1.1-1.1l1.1-1.1L451.5,517.9z M451.5,520.4l-1.1,1.1l-1.1-1.1l1.1-1.1
	L451.5,520.4z M451.5,522.9l-1.1,1.1l-1.1-1.1l1.1-1.1L451.5,522.9z M451.5,525.4l-1.1,1.1l-1.1-1.1l1.1-1.1L451.5,525.4z
	 M451.5,528l-1.1,1.1l-1.1-1.1l1.1-1.1L451.5,528z M451.5,530.5l-1.1,1.1l-1.1-1.1l1.1-1.1L451.5,530.5z M451.5,533l-1.1,1.1
	l-1.1-1.1l1.1-1.1L451.5,533z M451.7,533.2l1.1,1.1l-1.1,1.1l-1.1-1.1L451.7,533.2z M451.9,533l1.1-1.1l1.1,1.1l-1.1,1.1L451.9,533z
	 M454.3,533.2l1.1,1.1l-1.1,1.1l-1.1-1.1L454.3,533.2z M454.5,533l1.1-1.1l1.1,1.1l-1.1,1.1L454.5,533z M456.8,533.2l1.1,1.1
	l-1.1,1.1l-1.1-1.1L456.8,533.2z M457,533l1.1-1.1l1.1,1.1l-1.1,1.1L457,533z M459.3,533.2l1.1,1.1l-1.1,1.1l-1.1-1.1L459.3,533.2z
	 M459.5,533l1.1-1.1l1.1,1.1l-1.1,1.1L459.5,533z M461.8,533.2l1.1,1.1l-1.1,1.1l-1.1-1.1L461.8,533.2z M462,533l1.1-1.1l1.1,1.1
	l-1.1,1.1L462,533z M464.3,533.2l1.1,1.1l-1.1,1.1l-1.1-1.1L464.3,533.2z M464.5,533l1.1-1.1l1.1,1.1l-1.1,1.1L464.5,533z
	 M466.9,533.2l1.1,1.1l-1.1,1.1l-1.1-1.1L466.9,533.2z M467.1,533l1.1-1.1l1.1,1.1l-1.1,1.1L467.1,533z M469.4,533.2l1.1,1.1
	l-1.1,1.1l-1.1-1.1L469.4,533.2z M469.6,533l1.1-1.1l1.1,1.1l-1.1,1.1L469.6,533z M471.9,533.2l1.1,1.1l-1.1,1.1l-1.1-1.1
	L471.9,533.2z M472.1,533l1.1-1.1l1.1,1.1l-1.1,1.1L472.1,533z M474.4,533.2l1.1,1.1l-1.1,1.1l-1.1-1.1L474.4,533.2z M474.6,533
	l1.1-1.1l1.1,1.1l-1.1,1.1L474.6,533z M476.9,533.2l1.1,1.1l-1.1,1.1l-1.1-1.1L476.9,533.2z M477.1,533l1.1-1.1l1.1,1.1l-1.1,1.1
	L477.1,533z M479.5,533.2l1.1,1.1l-1.1,1.1l-1.1-1.1L479.5,533.2z M479.7,533l1.1-1.1l1.1,1.1l-1.1,1.1L479.7,533z M482,533.2
	l1.1,1.1l-1.1,1.1l-1.1-1.1L482,533.2z M482.2,533l1.1-1.1l1.1,1.1l-1.1,1.1L482.2,533z M484.5,533.2l1.1,1.1l-1.1,1.1l-1.1-1.1
	L484.5,533.2z M484.7,533l1.1-1.1l1.1,1.1l-1.1,1.1L484.7,533z M485.8,531.5l-1.1-1.1l1.1-1.1l1.1,1.1L485.8,531.5z M484.7,528
	l1.1-1.1l1.1,1.1l-1.1,1.1L484.7,528z M484.7,525.4l1.1-1.1l1.1,1.1l-1.1,1.1L484.7,525.4z M484.7,522.9l1.1-1.1l1.1,1.1l-1.1,1.1
	L484.7,522.9z M484.7,520.4l1.1-1.1l1.1,1.1l-1.1,1.1L484.7,520.4z M484.7,517.9l1.1-1.1l1.1,1.1l-1.1,1.1L484.7,517.9z
	 M484.7,515.4l1.1-1.1l1.1,1.1l-1.1,1.1L484.7,515.4z M484.7,512.9l1.1-1.1l1.1,1.1l-1.1,1.1L484.7,512.9z M484.7,510.3l1.1-1.1
	l1.1,1.1l-1.1,1.1L484.7,510.3z M484.7,507.8l1.1-1.1l1.1,1.1l-1.1,1.1L484.7,507.8z M484.7,505.3l1.1-1.1l1.1,1.1l-1.1,1.1
	L484.7,505.3z M484.7,502.8l1.1-1.1l1.1,1.1l-1.1,1.1L484.7,502.8z M484.7,500.3l1.1-1.1l1.1,1.1l-1.1,1.1L484.7,500.3z
	 M484.7,497.8l1.1-1.1l1.1,1.1l-1.1,1.1L484.7,497.8z M484.7,495.2l1.1-1.1l1.1,1.1l-1.1,1.1L484.7,495.2z M484.7,492.7l1.1-1.1
	l1.1,1.1l-1.1,1.1L484.7,492.7z M484.7,490.2l1.1-1.1l1.1,1.1l-1.1,1.1L484.7,490.2z M484.7,487.7l1.1-1.1l1.1,1.1l-1.1,1.1
	L484.7,487.7z M484.7,485.2l1.1-1.1l1.1,1.1l-1.1,1.1L484.7,485.2z M484.7,482.7l1.1-1.1l1.1,1.1l-1.1,1.1L484.7,482.7z
	 M484.7,480.1l1.1-1.1l1.1,1.1l-1.1,1.1L484.7,480.1z M484.7,477.6l1.1-1.1l1.1,1.1l-1.1,1.1L484.7,477.6z M484.7,475.1l1.1-1.1
	l1.1,1.1l-1.1,1.1L484.7,475.1z M484.7,472.6l1.1-1.1l1.1,1.1l-1.1,1.1L484.7,472.6z M484.7,470.1l1.1-1.1l1.1,1.1l-1.1,1.1
	L484.7,470.1z M484.7,467.5l1.1-1.1l1.1,1.1l-1.1,1.1L484.7,467.5z M484.7,465l1.1-1.1l1.1,1.1l-1.1,1.1L484.7,465z M484.7,462.5
	l1.1-1.1l1.1,1.1l-1.1,1.1L484.7,462.5z M484.7,460l1.1-1.1l1.1,1.1l-1.1,1.1L484.7,460z M484.7,457.5l1.1-1.1l1.1,1.1l-1.1,1.1
	L484.7,457.5z M484.7,455l1.1-1.1l1.1,1.1l-1.1,1.1L484.7,455z M484.7,452.4l1.1-1.1l1.1,1.1l-1.1,1.1L484.7,452.4z M484.7,449.9
	l1.1-1.1l1.1,1.1l-1.1,1.1L484.7,449.9z M484.5,449.7l-1.1-1.1l1.1-1.1l1.1,1.1L484.5,449.7z M484.3,449.9l-1.1,1.1l-1.1-1.1
	l1.1-1.1L484.3,449.9z M482,449.7l-1.1-1.1l1.1-1.1l1.1,1.1L482,449.7z M481.8,449.9l-1.1,1.1l-1.1-1.1l1.1-1.1L481.8,449.9z
	 M479.5,449.7l-1.1-1.1l1.1-1.1l1.1,1.1L479.5,449.7z M479.3,449.9l-1.1,1.1l-1.1-1.1l1.1-1.1L479.3,449.9z M477,449.7l-1.1-1.1
	l1.1-1.1l1.1,1.1L477,449.7z M476.8,449.9l-1.1,1.1l-1.1-1.1l1.1-1.1L476.8,449.9z M474.4,449.7l-1.1-1.1l1.1-1.1l1.1,1.1
	L474.4,449.7z M474.2,449.9l-1.1,1.1l-1.1-1.1l1.1-1.1L474.2,449.9z M471.9,449.7l-1.1-1.1l1.1-1.1l1.1,1.1L471.9,449.7z
	 M471.7,449.9l-1.1,1.1l-1.1-1.1l1.1-1.1L471.7,449.9z M469.4,449.7l-1.1-1.1l1.1-1.1l1.1,1.1L469.4,449.7z M469.2,449.9l-1.1,1.1
	l-1.1-1.1l1.1-1.1L469.2,449.9z M466.9,449.7l-1.1-1.1l1.1-1.1l1.1,1.1L466.9,449.7z M466.7,449.9l-1.1,1.1l-1.1-1.1l1.1-1.1
	L466.7,449.9z M464.3,449.7l-1.1-1.1l1.1-1.1l1.1,1.1L464.3,449.7z M464.1,449.9l-1.1,1.1l-1.1-1.1l1.1-1.1L464.1,449.9z
	 M461.8,449.7l-1.1-1.1l1.1-1.1l1.1,1.1L461.8,449.7z M461.6,449.9l-1.1,1.1l-1.1-1.1l1.1-1.1L461.6,449.9z M459.3,449.7l-1.1-1.1
	l1.1-1.1l1.1,1.1L459.3,449.7z M459.1,449.9L458,451l-1.1-1.1l1.1-1.1L459.1,449.9z M456.8,449.7l-1.1-1.1l1.1-1.1l1.1,1.1
	L456.8,449.7z M456.6,449.9l-1.1,1.1l-1.1-1.1l1.1-1.1L456.6,449.9z M454.3,449.7l-1.1-1.1l1.1-1.1l1.1,1.1L454.3,449.7z
	 M454.1,449.9L453,451l-1.1-1.1l1.1-1.1L454.1,449.9z M451.7,449.7l-1.1-1.1l1.1-1.1l1.1,1.1L451.7,449.7z M451.5,449.9l-1.1,1.1
	l-1.1-1.1l1.1-1.1L451.5,449.9z M450.5,534.4l1.1,1.1l-1.1,1.1l-1.1-1.1L450.5,534.4z M451.7,535.7l1.1,1.1l-1.1,1.1l-1.1-1.1
	L451.7,535.7z M451.9,535.5l1.1-1.1l1.1,1.1l-1.1,1.1L451.9,535.5z M454.3,535.7l1.1,1.1l-1.1,1.1l-1.1-1.1L454.3,535.7z
	 M454.5,535.5l1.1-1.1l1.1,1.1l-1.1,1.1L454.5,535.5z M456.8,535.7l1.1,1.1l-1.1,1.1l-1.1-1.1L456.8,535.7z M457,535.5l1.1-1.1
	l1.1,1.1l-1.1,1.1L457,535.5z M459.3,535.7l1.1,1.1l-1.1,1.1l-1.1-1.1L459.3,535.7z M459.5,535.5l1.1-1.1l1.1,1.1l-1.1,1.1
	L459.5,535.5z M461.8,535.7l1.1,1.1l-1.1,1.1l-1.1-1.1L461.8,535.7z M462,535.5l1.1-1.1l1.1,1.1l-1.1,1.1L462,535.5z M464.3,535.7
	l1.1,1.1l-1.1,1.1l-1.1-1.1L464.3,535.7z M464.5,535.5l1.1-1.1l1.1,1.1l-1.1,1.1L464.5,535.5z M466.9,535.7l1.1,1.1l-1.1,1.1
	l-1.1-1.1L466.9,535.7z M467.1,535.5l1.1-1.1l1.1,1.1l-1.1,1.1L467.1,535.5z M469.4,535.7l1.1,1.1l-1.1,1.1l-1.1-1.1L469.4,535.7z
	 M469.6,535.5l1.1-1.1l1.1,1.1l-1.1,1.1L469.6,535.5z M471.9,535.7l1.1,1.1l-1.1,1.1l-1.1-1.1L471.9,535.7z M472.1,535.5l1.1-1.1
	l1.1,1.1l-1.1,1.1L472.1,535.5z M474.4,535.7l1.1,1.1l-1.1,1.1l-1.1-1.1L474.4,535.7z M474.6,535.5l1.1-1.1l1.1,1.1l-1.1,1.1
	L474.6,535.5z M476.9,535.7l1.1,1.1l-1.1,1.1l-1.1-1.1L476.9,535.7z M477.1,535.5l1.1-1.1l1.1,1.1l-1.1,1.1L477.1,535.5z
	 M479.5,535.7l1.1,1.1l-1.1,1.1l-1.1-1.1L479.5,535.7z M479.7,535.5l1.1-1.1l1.1,1.1l-1.1,1.1L479.7,535.5z M482,535.7l1.1,1.1
	l-1.1,1.1l-1.1-1.1L482,535.7z M482.2,535.5l1.1-1.1l1.1,1.1l-1.1,1.1L482.2,535.5z M484.5,535.7l1.1,1.1l-1.1,1.1l-1.1-1.1
	L484.5,535.7z M484.7,535.5l1.1-1.1l1.1,1.1l-1.1,1.1L484.7,535.5z M487,535.7l1.1,1.1l-1.1,1.1l-1.1-1.1L487,535.7z M487,535.3
	l-1.1-1.1l1.1-1.1l1.1,1.1L487,535.3z M486,531.7l1.1-1.1l1.1,1.1l-1.1,1.1L486,531.7z M486,529.2l1.1-1.1l1.1,1.1l-1.1,1.1
	L486,529.2z M486,526.7l1.1-1.1l1.1,1.1l-1.1,1.1L486,526.7z M486,524.2l1.1-1.1l1.1,1.1l-1.1,1.1L486,524.2z M486,521.7l1.1-1.1
	l1.1,1.1l-1.1,1.1L486,521.7z M486,519.1l1.1-1.1l1.1,1.1l-1.1,1.1L486,519.1z M486,516.6l1.1-1.1l1.1,1.1l-1.1,1.1L486,516.6z
	 M486,514.1l1.1-1.1l1.1,1.1l-1.1,1.1L486,514.1z M486,511.6l1-1.1l1.1,1.1l-1.1,1.1L486,511.6z M486,509.1l1.1-1.1l1.1,1.1
	l-1.1,1.1L486,509.1z M486,506.6l1.1-1.1l1.1,1.1l-1.1,1.1L486,506.6z M486,504l1.1-1.1l1.1,1.1l-1.1,1.1L486,504z M486,501.5
	l1.1-1.1l1,1.1l-1.1,1.1L486,501.5z M486,499l1.1-1.1l1.1,1.1l-1.1,1.1L486,499z M486,496.5l1-1.1l1.1,1.1l-1.1,1.1L486,496.5z
	 M486,494l1.1-1.1l1.1,1.1L487,495L486,494z M486,491.5l1.1-1.1l1.1,1.1l-1.1,1.1L486,491.5z M486,488.9l1.1-1.1l1.1,1.1L487,490
	L486,488.9z M486,486.4l1.1-1.1l1.1,1.1l-1.1,1.1L486,486.4z M486,483.9l1.1-1.1l1.1,1.1L487,485L486,483.9z M486,481.4l1-1.1
	l1.1,1.1l-1.1,1.1L486,481.4z M486,478.9l1.1-1.1l1.1,1.1l-1.1,1.1L486,478.9z M486,476.4l1.1-1.1l1.1,1.1l-1.1,1.1L486,476.4z
	 M486,473.8l1.1-1.1l1.1,1.1l-1.1,1.1L486,473.8z M486,471.3l1.1-1.1l1.1,1.1l-1.1,1.1L486,471.3z M486,468.8l1.1-1.1l1.1,1.1
	l-1.1,1.1L486,468.8z M486,466.3l1.1-1.1l1.1,1.1l-1.1,1.1L486,466.3z M486,463.8l1.1-1.1l1.1,1.1l-1.1,1.1L486,463.8z M486,461.2
	l1.1-1.1l1.1,1.1l-1.1,1.1L486,461.2z M486,458.7l1.1-1.1l1.1,1.1l-1.1,1.1L486,458.7z M486,456.2l1.1-1.1l1.1,1.1l-1.1,1.1
	L486,456.2z M486,453.7l1.1-1.1l1.1,1.1l-1.1,1.1L486,453.7z M486,451.2l1.1-1.1l1.1,1.1l-1.1,1.1L486,451.2z M486,448.7l1.1-1.1
	l1.1,1.1l-1.1,1.1L486,448.7z M485.8,448.5l-1.1-1.1l1.1-1.1l1.1,1.1L485.8,448.5z M484.5,447.2l-1.1-1.1l1.1-1.1l1.1,1.1
	L484.5,447.2z M484.3,447.4l-1.1,1.1l-1.1-1.1l1.1-1.1L484.3,447.4z M482,447.2l-1.1-1.1l1.1-1.1l1.1,1.1L482,447.2z M481.8,447.4
	l-1.1,1.1l-1.1-1.1l1.1-1.1L481.8,447.4z M479.5,447.2l-1.1-1.1l1.1-1.1l1.1,1.1L479.5,447.2z M479.3,447.4l-1.1,1.1l-1.1-1.1
	l1.1-1.1L479.3,447.4z M476.9,447.2l-1.1-1.1l1.1-1.1l1.1,1.1L476.9,447.2z M476.7,447.4l-1.1,1.1l-1.1-1.1l1.1-1.1L476.7,447.4z
	 M474.4,447.2l-1.1-1.1l1.1-1.1l1.1,1.1L474.4,447.2z M474.2,447.4l-1.1,1.1l-1.1-1.1l1.1-1.1L474.2,447.4z M471.9,447.2l-1.1-1.1
	l1.1-1.1l1.1,1.1L471.9,447.2z M471.7,447.4l-1.1,1.1l-1.1-1.1l1.1-1.1L471.7,447.4z M469.4,447.2l-1.1-1.1l1.1-1.1l1.1,1.1
	L469.4,447.2z M469.2,447.4l-1.1,1.1l-1.1-1.1l1.1-1.1L469.2,447.4z M466.9,447.2l-1.1-1.1l1.1-1.1l1.1,1.1L466.9,447.2z
	 M466.7,447.4l-1.1,1.1l-1.1-1.1l1-1.1L466.7,447.4z M464.3,447.2l-1.1-1.1l1.1-1.1l1.1,1.1L464.3,447.2z M464.1,447.4l-1.1,1.1
	l-1.1-1.1l1.1-1.1L464.1,447.4z M461.8,447.2l-1.1-1.1l1.1-1.1l1.1,1.1L461.8,447.2z M461.6,447.4l-1.1,1.1l-1.1-1.1l1.1-1.1
	L461.6,447.4z M459.3,447.2l-1.1-1.1l1.1-1.1l1.1,1.1L459.3,447.2z M459.1,447.4l-1.1,1.1l-1.1-1.1l1.1-1.1L459.1,447.4z
	 M456.8,447.2l-1.1-1.1l1.1-1.1l1.1,1.1L456.8,447.2z M456.6,447.4l-1.1,1.1l-1.1-1.1l1.1-1.1L456.6,447.4z M454.3,447.2l-1.1-1.1
	l1.1-1.1l1.1,1.1L454.3,447.2z M454.1,447.4l-1.1,1.1l-1.1-1.1l1.1-1.1L454.1,447.4z M451.7,447.2l-1.1-1.1l1.1-1.1l1.1,1.1
	L451.7,447.2z M451.5,447.4l-1.1,1.1l-1.1-1.1l1.1-1.1L451.5,447.4z M449.2,447.2l-0.4-0.4v-1.4l0.4-0.4l1.1,1.1L449.2,447.2z
	 M448.8,447.3l0.2,0.2l-0.2,0.2V447.3z M448.8,449.8l0.2,0.2l-0.2,0.2V449.8z M448.8,452.3l0.2,0.2l-0.2,0.2V452.3z M448.8,454.8
	l0.2,0.2l-0.2,0.2V454.8z M448.8,457.3l0.2,0.2l-0.2,0.2V457.3z M448.8,459.9l0.2,0.2l-0.2,0.2V459.9z M448.8,462.4l0.2,0.2
	l-0.2,0.2V462.4z M448.8,464.9l0.2,0.2l-0.2,0.2V464.9z M448.8,467.4l0.2,0.2l-0.2,0.2V467.4z M448.8,469.9l0.2,0.2l-0.2,0.2V469.9z
	 M448.8,472.4l0.2,0.2l-0.2,0.2V472.4z M448.8,475l0.2,0.2l-0.2,0.2V475z M448.8,477.5l0.2,0.2l-0.2,0.2V477.5z M448.8,480l0.2,0.2
	l-0.2,0.2V480z M448.8,482.5l0.2,0.2l-0.2,0.2V482.5z M448.8,485l0.2,0.2l-0.2,0.2V485z M448.8,487.6l0.2,0.2l-0.2,0.2V487.6z
	 M448.8,490.1l0.2,0.2l-0.2,0.2V490.1z M448.8,492.6l0.2,0.2l-0.2,0.2V492.6z M448.8,495.1l0.2,0.2l-0.2,0.2V495.1z M448.8,497.6
	l0.2,0.2l-0.2,0.2V497.6z M448.8,500.1l0.2,0.2l-0.2,0.2V500.1z M448.8,502.7l0.2,0.2l-0.2,0.2V502.7z M448.8,505.2l0.2,0.2
	l-0.2,0.2V505.2z M448.8,507.7l0.2,0.2l-0.2,0.2V507.7z M448.8,510.2l0.2,0.2l-0.2,0.2V510.2z M448.8,512.7l0.2,0.2l-0.2,0.2V512.7z
	 M448.8,515.3l0.2,0.2l-0.2,0.2V515.3z M448.8,517.8l0.2,0.2l-0.2,0.2V517.8z M448.8,520.3l0.2,0.2l-0.2,0.2V520.3z M448.8,522.8
	l0.2,0.2l-0.2,0.2V522.8z M448.8,525.3l0.2,0.2l-0.2,0.2V525.3z M448.8,527.8l0.2,0.2l-0.2,0.2V527.8z M448.8,530.4l0.2,0.2
	l-0.2,0.2V530.4z M448.8,532.9l0.2,0.2l-0.2,0.2V532.9z M448.8,535.4l0.2,0.2l-0.2,0.2V535.4z M448.8,536.1l0.4-0.4l1.1,1.1
	l-1.1,1.1l-0.4-0.4L448.8,536.1z M450.5,537l0.9,0.9h-1.8L450.5,537z M453,537l0.9,0.9h-1.8L453,537z M455.5,537l0.9,0.9h-1.8
	L455.5,537z M458,537l0.9,0.9h-1.8L458,537z M460.5,537l0.9,0.9h-1.8L460.5,537z M463.1,537l0.9,0.9h-1.8L463.1,537z M465.6,537
	l0.9,0.9h-1.8L465.6,537z M468.1,537l0.9,0.9h-1.8L468.1,537z M470.6,537l0.9,0.9h-1.8L470.6,537z M473.1,537l0.9,0.9h-1.8
	L473.1,537z M475.7,537l0.9,0.9h-1.8L475.7,537z M478.2,537l0.9,0.9h-1.8L478.2,537z M480.7,537l0.9,0.9h-1.8L480.7,537z M483.2,537
	l0.9,0.9h-1.8L483.2,537z M485.7,537l0.9,0.9h-1.8L485.7,537z M488.4,536.8l0.2-0.2v0.5L488.4,536.8z M488.7,536.1l-0.4,0.4
	l-1.1-1.1l1.1-1.1l0.4,0.4V536.1z M488.7,534.5l-0.2-0.2l0.2-0.2V534.5z M488.7,533.6l-0.4,0.4l-1.1-1.1l1.1-1.1l0.4,0.4V533.6z
	 M488.7,531.9l-0.2-0.2l0.2-0.2V531.9z M488.7,531.1l-0.4,0.4l-1.1-1.1l1.1-1.1l0.4,0.4V531.1z M488.7,529.4l-0.2-0.2l0.2-0.2V529.4
	z M488.7,528.6l-0.4,0.4l-1.1-1.1l1.1-1.1l0.4,0.4V528.6z M488.7,526.9l-0.2-0.2l0.2-0.2V526.9z M488.7,526l-0.4,0.4l-1.1-1.1
	l1.1-1.1l0.4,0.4L488.7,526z M488.7,524.4l-0.2-0.2l0.2-0.2V524.4z M488.7,523.5l-0.4,0.4l-1.1-1.1l1.1-1.1l0.4,0.4V523.5z
	 M488.7,521.9l-0.2-0.2l0.2-0.2V521.9z M488.7,521l-0.4,0.4l-1.1-1.1l1.1-1.1l0.4,0.4V521z M488.7,519.4l-0.2-0.2l0.2-0.2V519.4z
	 M488.7,518.5l-0.4,0.4l-1.1-1.1l1.1-1.1l0.4,0.4V518.5z M488.7,516.8l-0.2-0.2l0.2-0.2V516.8z M488.7,515.9l-0.4,0.4l-1.1-1.1
	l1.1-1.1l0.4,0.4V515.9z M488.7,514.3l-0.2-0.2l0.2-0.2V514.3z M488.7,513.4l-0.4,0.4l-1.1-1.1l1.1-1.1l0.4,0.4V513.4z M488.7,511.8
	l-0.2-0.2l0.2-0.2L488.7,511.8z M488.7,510.9l-0.4,0.4l-1.1-1.1l1.1-1.1l0.4,0.4V510.9z M488.7,509.2l-0.2-0.2l0.2-0.2V509.2z
	 M488.7,508.4l-0.4,0.4l-1.1-1.1l1.1-1.1l0.4,0.4V508.4z M488.7,506.7l-0.2-0.2l0.2-0.2V506.7z M488.7,505.8l-0.4,0.4l-1.1-1.1
	l1.1-1.1l0.4,0.4V505.8z M488.7,504.3l-0.2-0.2l0.2-0.2V504.3z M488.7,503.4l-0.4,0.4l-1.1-1.1l1.1-1.1l0.4,0.4V503.4z M488.7,501.8
	l-0.2-0.2l0.2-0.2V501.8z M488.7,500.9l-0.4,0.4l-1.1-1.1l1.1-1.1l0.4,0.4V500.9z M488.7,499.2l-0.2-0.2l0.2-0.2V499.2z
	 M488.7,498.3l-0.4,0.4l-1.1-1.1l1.1-1.1l0.4,0.4V498.3z M488.7,496.7l-0.2-0.2l0.2-0.2V496.7z M488.7,495.8l-0.4,0.4l-1.1-1.1
	l1.1-1.1l0.4,0.4V495.8z M488.7,494.2l-0.2-0.2l0.2-0.2V494.2z M488.7,493.3l-0.4,0.4l-1.1-1.1l1.1-1.1l0.4,0.4V493.3z M488.7,491.7
	l-0.2-0.2l0.2-0.2V491.7z M488.7,490.8l-0.4,0.4l-1.1-1.1l1.1-1.1l0.4,0.4V490.8z M488.7,489.1l-0.2-0.2l0.2-0.2V489.1z
	 M488.7,488.3l-0.4,0.4l-1.1-1.1l1.1-1.1l0.4,0.4V488.3z M488.7,486.7l-0.2-0.2l0.2-0.2V486.7z M488.7,485.8l-0.4,0.4l-1.1-1.1
	l1.1-1.1l0.4,0.4V485.8z M488.7,484.2l-0.2-0.2l0.2-0.2L488.7,484.2z M488.7,483.3l-0.4,0.4l-1.1-1.1l1.1-1.1l0.4,0.4V483.3z
	 M488.7,481.6l-0.2-0.2l0.2-0.2V481.6z M488.7,480.7l-0.4,0.4l-1.1-1.1l1.1-1.1l0.4,0.4L488.7,480.7z M488.7,479.1l-0.2-0.2l0.2-0.2
	V479.1z M488.7,478.2l-0.4,0.4l-1.1-1.1l1.1-1.1l0.4,0.4V478.2z M488.7,476.6l-0.2-0.2l0.2-0.2V476.6z M488.7,475.7l-0.4,0.4
	l-1.1-1.1l1.1-1.1l0.4,0.4V475.7z M488.7,474.1l-0.2-0.2l0.2-0.2V474.1z M488.7,473.2l-0.4,0.4l-1.1-1.1l1.1-1.1l0.4,0.4V473.2z
	 M488.7,471.5l-0.2-0.2l0.2-0.2V471.5z M488.7,470.6l-0.4,0.4l-1.1-1.1l1.1-1.1l0.4,0.4V470.6z M488.7,469l-0.2-0.2l0.2-0.2V469z
	 M488.7,468.1l-0.4,0.4l-1.1-1.1l1.1-1.1l0.4,0.4V468.1z M488.7,466.5l-0.2-0.2l0.2-0.2V466.5z M488.7,465.6l-0.4,0.4l-1.1-1.1
	l1.1-1.1l0.4,0.4V465.6z M488.7,464l-0.2-0.2l0.2-0.2V464z M488.7,463.1l-0.4,0.4l-1.1-1.1l1.1-1.1l0.4,0.4V463.1z M488.7,461.5
	l-0.2-0.2l0.2-0.2V461.5z M488.7,460.6l-0.4,0.4l-1.1-1.1l1.1-1.1l0.4,0.4V460.6z M488.7,459l-0.2-0.2l0.2-0.2V459z M488.7,458.1
	l-0.4,0.4l-1.1-1.1l1.1-1.1l0.4,0.4V458.1z M488.7,456.4l-0.2-0.2l0.2-0.2V456.4z M488.7,455.6l-0.4,0.4l-1.1-1.1l1.1-1.1l0.4,0.4
	V455.6z M488.7,453.9l-0.2-0.2l0.2-0.2V453.9z M488.7,453l-0.4,0.4l-1.1-1.1l1.1-1.1l0.4,0.4V453z M488.7,451.4l-0.2-0.2l0.2-0.2
	V451.4z M488.7,450.5l-0.4,0.4l-1.1-1.1l1.1-1.1l0.4,0.4V450.5z M488.7,448.9l-0.2-0.2l0.2-0.2V448.9z M488.7,446.3l-0.2-0.2
	l0.2-0.2V446.3z M488.7,446.7v1.2l-0.4,0.4l-1.1-1.1l1.1-1.1L488.7,446.7z M487,447.2l-1.1-1.1l1.1-1.1l1.1,1.1L487,447.2z
	 M485.7,446l-1-1h2L485.7,446z M483.2,446l-1-1h2L483.2,446z M480.7,446l-1-1h2L480.7,446z M478.2,446l-1-1h2L478.2,446z M475.6,446
	l-1-1h2L475.6,446z M473.1,446l-1-1h2L473.1,446z M470.6,446l-1-1h2L470.6,446z M468.1,446l-1-1h2L468.1,446z M465.6,446l-1-1h2
	L465.6,446z M463.1,446l-1-1h2L463.1,446z M460.5,446l-1-1h2L460.5,446z M458,446l-1-1h2L458,446z M455.5,446l-1-1h2L455.5,446z
	 M453,446l-1-1h2L453,446z M450.5,446l-1-1h2L450.5,446z M448.9,445.1L448.9,445.1L448.9,445.1L448.9,445.1z M448.9,537.9
	L448.9,537.9L448.9,537.9z M448.9,538.2h39.8v4.2h-39.8L448.9,538.2z M488.7,445.5l-0.4,0.4l-1-1h1.4V445.5z M448.8,444.7v-4.2h39.8
	v4.2H448.8z M441.2,52c-0.3-5.9-1.2-6.9-2.1-7.2c-0.5-0.2-1,0-1.3,0.4c-3.1,2.6-4.7,19.6-4.9,21.6l7.1,120.8l0,0.2l0.1,0.2
	c3.3,5.3,3.9,11.8,1.6,17.6c-2.2,5-5,5.3-6.1,5.2l-9.2-146.9c1.7-10.1,6.7-36.7,9.1-39.8c0.8-1.1,2-2.3,3.1-2.1
	c1.6,0.3,2.8,3.3,3.1,4.3l4.8,19.3h0.8v12.8L439.7,31c0-0.1-0.6-1.3-1.6-1.3c0,0-0.1,0-0.1,0c-0.9,0.1-1.7,1.4-2.4,3.8
	c-1.1,3.8-6.7,31.2-6.7,31.5v0l9.2,142.4l0.3,0l-9.2-142.4c0.2-0.9,5.7-27.7,6.7-31.4c0.8-2.9,1.6-3.5,2.1-3.6
	c0.7-0.1,1.3,1.1,1.3,1l7.9,28.4v35.4L441.2,52z M457.1,100.2v337.7c-0.1,0.7-0.7,1.2-1.4,1.1h-6.8V100.2H457.1z M470.2,648.4
	l-1.8,2.1l-1-2.1v-5.1h2.8V648.4z M470.7,642.7h-3.8v-18.9h3.8V642.7z M475.3,622.7h-13v-18.2h13V622.7z M477.9,602.8h-18.3
	l-7.2-38.7h32.7L477.9,602.8z M483.8,562.6h-29.9c1.1-3.2-0.5-6.5-1.5-8.2l33,0C484.2,556.1,482.7,559.4,483.8,562.6L483.8,562.6z
	 M487.2,552.8l-36.9,0l-1.5-7.7v-2.3h39.8v2.2L487.2,552.8z"/>
</svg>
