<?xml version="1.0" encoding="utf-8"?>
<!-- Generator: Adobe Illustrator 23.0.6, SVG Export Plug-In . SVG Version: 6.00 Build 0)  -->
<svg version="1.1" id="Layer_1" xmlns="http://www.w3.org/2000/svg" xmlns:xlink="http://www.w3.org/1999/xlink" x="0px" y="0px"
	 viewBox="0 0 546.9 197.3" style="enable-background:new 0 0 546.9 197.3;" xml:space="preserve">
<style type="text/css">
	.st0{fill:#FFFFFF;}
</style>
<path id="Path_415" class="st0" d="M475.5,26.3l-0.3-0.3c-0.3-0.2-6.5-5.7-9-7.3c-3.6-2.4-5.4-2.4-5.5-2.4h-5.3l-0.3,0.1
	c-6.2,2.2-14.8,12.9-15.1,13.4l-0.2,0.3v6.6h-0.9v18.8c0,1,0.5,1.9,1.4,2.4c-1,1-1.6,2.4-1.6,3.8v5.1c0,1.6,0.7,3.1,1.9,4.1
	c-1.8,1-2.5,3.3-1.4,5.1c0.2,0.4,0.5,0.8,0.9,1.1c-1.6,1.3-1.8,3.7-0.5,5.3c0,0.1,0.1,0.1,0.2,0.2c-0.5,0.5-0.8,1.2-0.8,1.9V103h0.5
	v397.5L456,585c0.2,1.2,1.2,2.1,2.4,2.3c0.2,0,0.3,0,0.5,0c1.4,0,2.6-1,2.9-2.4l14.5-84l0-397.9h0.5V84.2c0-0.8-0.4-1.6-1-2.1
	c1.3-1.6,1.1-3.9-0.4-5.3c0,0,0,0,0,0c1.6-1.3,1.8-3.7,0.5-5.3c-0.3-0.4-0.7-0.7-1.1-0.9c1.2-1,1.9-2.5,1.9-4.1v-5.1
	c0-1.4-0.5-2.7-1.5-3.7c1-0.5,1.6-1.4,1.6-2.5V36.5h-1.3L475.5,26.3z M441.6,30.6c1.3-1.6,8.8-10.5,13.9-12.5h5.1
	c0,0,1.5,0.1,4.5,2.1c2.1,1.4,7.2,5.8,8.5,6.9v9.4h-32.1L441.6,30.6z M473.9,57.5h-32.2c-0.1,0-0.2,0-0.3-0.1
	c-0.8-0.6-0.8-2.1-0.8-2.1v-1.9l0-1.5V38.4H475l0,16.9c0,0.2,0,0.4-0.1,0.6C474.8,56.5,474.4,57.1,473.9,57.5
	C473.9,57.5,473.9,57.5,473.9,57.5L473.9,57.5z M463.9,326.4l-2.7,2l0,0.1c0,0,0.3,2.9,0.3,4.1c0,0.1,0,0.2-0.1,0.3
	c-0.6,0.5-2.6,0.5-3.6,0.4l-0.6-5.2l-1.8-4.8l2.4-4.6l4.5,3.5l0.2-0.3l-4.9-3.8l-2.6,5.1l0,0.1l1.9,5l0.6,5.3l0,0.2l0.2,0
	c0.1,0,0.7,0.1,1.5,0.1c0.9,0.1,1.8-0.1,2.6-0.5c0.2-0.1,0.3-0.3,0.3-0.6c0-1.1-0.2-3.4-0.3-4l2.3-1.7v119.4l-2.3-1.7
	c0.1-0.6,0.3-2.9,0.3-4c0-0.2-0.1-0.4-0.3-0.6c-0.8-0.8-3.7-0.5-4-0.5l-0.2,0l-0.6,5.4l-1.9,4.9l0,0.1l2.7,5.2l4.9-3.8l-0.2-0.3
	l-4.5,3.5l-2.4-4.6l1.9-4.9l0.6-5.2c0.9-0.1,3-0.1,3.6,0.4c0.1,0.1,0.1,0.2,0.1,0.3c0,1.2-0.3,4-0.3,4.1l0,0.1l2.7,2v50.7l-0.1,0.4
	c-2.1,4.2-4.2,6.4-6.1,6.4c-0.1,0-0.2,0-0.2,0c-3.2-0.3-5.2-6.3-5.4-6.7V103h11.8V326.4z M450.3,103v394.5c0,0.1-1.5,6.6-4.1,6.9
	c-0.1,0-0.1,0-0.2,0c-1.5,0-3.1-2-4.8-5.8V103H450.3z M459.8,584.6c-0.1,0.6-0.6,0.9-1.2,0.8c0,0,0,0,0,0c-0.4-0.1-0.7-0.4-0.8-0.8
	l-4.3-21.7c1.7-4.7,5.7-14.7,8.1-14.7c0.1,0,0.1,0,0.2,0c1.7,0.4,2.4,5,2.8,9L459.8,584.6z M464.7,556.3c-0.4-3.8-1.2-7.9-2.9-8.3
	c-0.1,0-0.2,0-0.2,0c-2.8,0-6.9,10.9-8.2,14.4l-12.2-61.9v-1c1.6,3.5,3.3,5.3,4.8,5.3c0.1,0,0.1,0,0.2,0c2.9-0.3,4.4-6.9,4.4-7.2
	V103h1.1v394.6l0,0c0.1,0.3,2.1,6.7,5.6,7c0.1,0,0.2,0,0.2,0c2.1,0,4.3-2.2,6.4-6.5l0.2-0.5v-50.7l0.1-0.2l-0.1-0.1V326.7l0.1-0.1
	l-0.1-0.2V103h0.6v394.6c0.1,0.3,1.6,6.8,4.6,7.1c0.1,0,0.1,0,0.2,0c1.5,0,3.1-1.6,4.7-4.7v0.7L464.7,556.3z M474.4,499.3
	c-1.7,3.4-3.2,5.2-4.7,5.2c-0.1,0-0.1,0-0.2,0c-2.8-0.3-4.3-6.8-4.3-6.9V103h9.2L474.4,499.3z M475.3,100.8h-35V84.3
	c0-0.7,0.4-1.4,1.1-1.7h33c0.5,0.1,0.9,0.6,0.9,1.1L475.3,100.8z M474.9,74c0,0.2,0,0.4-0.1,0.6c-0.2,1.2-1.1,2.2-2.3,2.6h-11.3v0.3
	h11.4c0.4,0.1,0.8,0.3,1.1,0.5c0.9,0.3,1.4,1.2,1.2,2c0,1-0.6,1.9-1.5,2.2h-31c-0.8-0.3-1.4-0.9-1.7-1.7c0-0.1-0.1-0.2-0.1-0.3
	c0-0.1,0-0.2-0.1-0.4c0-0.7,0.4-1.3,0.9-1.6c0.4-0.4,0.8-0.6,1.3-0.7h11.8v-0.3h-11.8c-1.3-0.4-2.2-1.6-2.2-3h0c0-0.1,0-0.1,0-0.2
	c0.1-1.4,0.9-2.6,2.2-3h29.8c1.1,0.3,1.9,1.2,2.2,2.2C474.8,73.5,474.9,73.7,474.9,74L474.9,74z M474.9,66.6c0,0.3,0,0.6-0.1,0.8
	c-0.1,0.8-0.6,2.6-2,3.2h-30.4c-1.8-0.8-2-3.6-2-3.6h0.1c0-0.1,0-0.2,0-0.4v-4.8l0-0.3c-0.1-1.4,0.5-2.7,1.6-3.6h31.7
	c0.9,0.9,1.3,2.2,1.2,3.5l0,3.1L474.9,66.6z"/>
</svg>
