<?xml version="1.0" encoding="utf-8"?>
<!-- Generator: Adobe Illustrator 23.0.6, SVG Export Plug-In . SVG Version: 6.00 Build 0)  -->
<svg version="1.1" id="Layer_1" xmlns="http://www.w3.org/2000/svg" xmlns:xlink="http://www.w3.org/1999/xlink" x="0px" y="0px"
	 viewBox="0 0 1200 792" style="enable-background:new 0 0 1200 792;" xml:space="preserve">
<style type="text/css">
	.st0{fill:#F78E1E;}
</style>
<path id="Path_442" class="st0" d="M617,399.3c-1.2-0.1-2.5,0-3.3-0.6c-0.3,0,0.4-0.8,0.1-1.3l-1.2-0.1c-0.2-0.7,0.4-1.3,0.2-1.9
	c-0.2-0.7-1.5-0.4-1.8-0.8c-0.9-0.5,0.7-0.6,1.6-0.5c-0.3-0.5,3.1-0.3,3.2-0.7c0.1-0.9-2.4-1.3-3.5-2.1c-0.3-0.2,0.1-0.9,0.1-1.3
	c-1.9-0.2-3.9-0.4-5.9-0.5l0.2-2.3l0-0.1c0-0.1,0-0.2,0-0.2c0.2-0.8,0.3-1.6,0.4-2.4l-0.2,0l-0.1-5.8l-9.7,2.7l-0.3,6
	c0,0,0,0.1,0,0.1c-0.1,0.2,1.4,1.2-0.6,0.9c-0.1,0.5,0.2,0.6,0.1,1.1c-1.7-0.2-3.5-0.3-5.2-0.3c-0.9,0.1-2.4-0.9-3.1,0.1l0.9,0.1
	c-1,0.6-1.8-0.2-2.8-0.1c0,0.4-0.1,0.6-0.4,0.8c0.7,0,1.4,0,2.1,0.2l-0.1,0.6c-0.6,0.2-1.5-0.4-2.2-0.2l-0.2,0.5
	c0.3,0.6-0.1,0.6-0.5,0.5l1.2,0.1l-0.1,0.9c0,0.2-0.3,0.2-0.6,0.2c0,0.4-0.4,0.8-0.1,1.1l0.9,0.1c-1,0.1-1.8,0.8-2,1.7
	c0.3-0.2,0.3,0.5,0.6,0.3c-1,0.5-2,1.3-0.8,1.7c3.6,0.6,7.3,1,10.9,1.4c0.1,0.8-0.3,4-0.1,4.7c0.3,0.4,0.6,0.9,0.7,1.5
	c-0.1,0.9-0.4,1.8-0.7,2.7c1.6-0.5,2,1.3,3.7,0.6c-0.1,0.5-0.3,1.3,0.1,1.3c1.3-0.2,2.8-0.1,3.4,1.1c0.1,0.5-0.6,1.5-0.4,1.6
	c0.4,0.2,1.1-0.9,1.5-0.7c1.3-4.2,0.3-5.9,1.2-10.3c0-0.6,0-1.1,0-1.7c4.1,0.2,8.1,0.5,12.1,0.7C617.2,400.2,616.9,399.8,617,399.3z
	"/>
</svg>
