<?xml version="1.0" encoding="utf-8"?>
<!-- Generator: Adobe Illustrator 23.0.6, SVG Export Plug-In . SVG Version: 6.00 Build 0)  -->
<svg version="1.1" id="Layer_1" xmlns="http://www.w3.org/2000/svg" xmlns:xlink="http://www.w3.org/1999/xlink" x="0px" y="0px"
	 viewBox="0 0 546.9 197.3" style="enable-background:new 0 0 546.9 197.3;" xml:space="preserve">
<style type="text/css">
	.st0{fill:#FFFFFF;}
</style>
<g>
	<path id="Path_427" class="st0" d="M486.1,524.6l-1.4-293.9l-1.4-1.4l0.5-1l0.1-0.3c1.1-28.2-7.3-267.9-7.4-270.3l0-0.3l-4.1-4.1
		c-2.1-22.8-10.6-27.8-14-28.9V-76h-0.8c-0.1,0-0.2,0-0.3,0c-0.1,0-0.2,0-0.2,0l-0.8,0v0.2c-3.4,1.1-11.8,6.1-14,28.9l-4.1,4.1
		l0,0.3c-0.1,2.4-8.5,242.1-7.4,270.3l0.8,1.6l-1.1,1.1l-1.4,293.9c0,0.5-1.2,45.9-5.8,57.5l-0.1,0.3l28,81.7
		c0.4,1.5,1.1,2.9,2.2,4.1h0.4l1.1,8.6c0.1,0.3,0.8,2.8,2.7,2.8s2.7-2.5,2.8-2.9l1.1-8.4l0-0.1h0.4c1-1.1,1.8-2.5,2.1-4l28.1-81.8
		l-0.1-0.3C487.3,570.6,486.1,525.4,486.1,524.6z M457.2-74.3L457.2-74.3h0.2c1.8,0.4,11,3.8,13.3,27.1h-26.8
		C446.3-70.5,455.4-73.9,457.2-74.3z M439.8-42l3.6-3.6h27.9l3.6,3.6c0.4,9.9,8.5,241.3,7.4,269.7l-0.8,1.6h-48.2l-0.8-1.6
		C431.3,199.3,439.4-32.1,439.8-42z M443.7,637.8h27.7l-1.1,3.2h-25.5L443.7,637.8z M443.6,637.5L432,603.6h51.2l-11.6,33.9
		L443.6,637.5z M431.9,603.2L431.9,603.2l-1.5-4.2h54.3l-1.4,4.2H431.9z M458.8,676.3c-0.1,0.4-0.6,1.6-1.2,1.6
		c-0.6,0-1.1-1.1-1.2-1.6l-1-7.5h4.4L458.8,676.3z M462.5,663.7c-0.3,1.4-1,2.6-2.1,3.6h-5.7c-1.1-1-1.8-2.3-2.1-3.7l-7.7-22.4h25.3
		L462.5,663.7z M484.9,598.5h-54.6l-5.5-16.1c4.7-12.1,5.8-55.8,5.8-57.7l1.4-293.3l0.4-0.4h50.1l0.1-0.3l0.6,0.6l1.4,293.3v0
		c0,1.9,1.2,45.6,5.8,57.7L484.9,598.5z"/>
	<rect id="Rectangle_49" x="432.6" y="582.2" class="st0" width="49.9" height="0.3"/>
	<rect id="Rectangle_50" x="440.6" y="-40.2" class="st0" width="33.9" height="0.2"/>
	<path id="Path_428" class="st0" d="M457.2,530.6c7.6,0,13.7-6.2,13.7-13.7V363.8c0-7.6-6.2-13.7-13.7-13.7s-13.7,6.2-13.7,13.7
		v153.1C443.5,524.5,449.6,530.6,457.2,530.6z M444.1,363.8c0.1-7.2,6-13.1,13.2-13c7.2,0.1,12.9,5.8,13,13v153.1
		c-0.1,7.2-6,13.1-13.2,13c-7.2-0.1-12.9-5.8-13-13V363.8z"/>
	<path id="Path_429" class="st0" d="M457.1,525.2c4.7,0,8.4-3.8,8.4-8.4V413c0.1-4.7-3.7-8.5-8.3-8.5s-8.5,3.7-8.5,8.3
		c0,0.1,0,0.1,0,0.2v103.8C448.7,521.4,452.5,525.2,457.1,525.2z M462.6,479.9h-11v-66.5c0-3,2.5-5.5,5.5-5.5c3,0,5.5,2.5,5.5,5.5
		L462.6,479.9z M462.6,480.1v1.6h-11v-1.6H462.6z M451.6,483.7h11v32.7c0,3-2.5,5.5-5.5,5.5c-3,0-5.5-2.5-5.5-5.5V483.7z
		 M451.6,483.4V482h11v1.4H451.6z M451.4,483.4H449V482h2.4L451.4,483.4z M451.4,481.7H449v-1.6h2.4L451.4,481.7z M449,483.7h2.4
		v32.7c0,3.2,2.6,5.7,5.7,5.7c3.2,0,5.7-2.6,5.7-5.7l0,0v-32.7h2.1v-0.2h-2.1V482h2.1v-0.2h-2.1v-1.6h2.1v-0.2h-2.1v-66.5
		c0-3.2-2.6-5.7-5.7-5.7c-3.2,0-5.7,2.6-5.7,5.7v66.5H449V413c0-4.5,3.6-8.1,8.1-8.1s8.1,3.6,8.1,8.1v103.8c0,4.5-3.6,8.1-8.1,8.1
		s-8.1-3.6-8.1-8.1l0,0L449,483.7z"/>
	<path id="Path_430" class="st0" d="M454.4,362.1c0.3,0,0.6-0.3,0.6-0.6s-0.3-0.6-0.6-0.6c-0.2,0-0.3,0.1-0.4,0.2
		c-0.1,0.1-0.2,0.3-0.2,0.4C453.8,361.8,454.1,362.1,454.4,362.1L454.4,362.1z M454.1,361.2c0.1-0.1,0.2-0.2,0.4-0.2
		c0.3,0,0.5,0.2,0.5,0.5c0,0.1-0.1,0.3-0.2,0.4c-0.1,0.1-0.2,0.2-0.4,0.1c-0.1,0-0.3-0.1-0.4-0.2l0,0
		C453.9,361.7,453.9,361.4,454.1,361.2C454,361.2,454.1,361.2,454.1,361.2L454.1,361.2z"/>
	<path id="Path_431" class="st0" d="M454.8,361.6h-0.3v-0.1c0,0,0-0.1,0-0.1c0,0,0.1-0.1,0.2-0.1h0.1v-0.1h0c0,0,0,0,0,0h-0.1
		c0,0-0.1,0-0.1,0c0,0-0.1,0.1-0.1,0.1c0,0,0-0.1,0-0.1c0,0-0.1-0.1-0.1-0.1c-0.1,0-0.1,0-0.2,0.1c0,0.1,0,0.1,0,0.2l0,0.2
		L454.8,361.6L454.8,361.6z M454.4,361.6h-0.2v-0.1c0,0,0-0.1,0-0.1l0,0c0-0.1,0.1-0.1,0.2,0c0,0,0,0,0,0c0,0,0,0.1,0,0.1
		L454.4,361.6z"/>
	<path id="Path_432" class="st0" d="M458.1,395.2h-4.3v0.8h4.4c1,0,1.8-0.8,1.8-1.8c0-0.1,0-0.2,0-0.2c0.1-0.7-0.2-1.3-0.7-1.7
		c0.5-0.4,0.8-1.1,0.7-1.7c0.1-1-0.6-1.9-1.6-2c-0.1,0-0.2,0-0.2,0h-4.4v0.8h4.3c0.8,0,1.1,0.4,1.1,1.3c0,0.8-0.4,1.3-1,1.3h-4.3
		v0.8h4.3c0.7,0,1,0.5,1,1.3C459.2,394.8,458.9,395.2,458.1,395.2z"/>
	<path id="Path_433" class="st0" d="M453.8,374.5c-0.1,1,0.6,2,1.7,2.1c0,0,0,0,0,0c0.1,0,0.1,0,0.2,0h2.5c1,0,1.9-0.9,1.9-1.9
		c0,0,0,0,0,0c0-0.1,0-0.1,0-0.2v-1c0.1-1-0.6-2-1.7-2.1c-0.1,0-0.1,0-0.2,0h-2.5c-1,0-1.9,0.9-1.9,1.9c0,0.1,0,0.1,0,0.2
		L453.8,374.5z M454.6,373.5c0-0.9,0.4-1.3,1.2-1.3h2.3c0.8,0,1.2,0.5,1.2,1.3v1c0,0.9-0.4,1.3-1.2,1.3h-2.3c-0.8,0-1.2-0.5-1.2-1.3
		V373.5z"/>
	<path id="Path_434" class="st0" d="M454.5,366.7c-0.5,0.4-0.8,1.1-0.7,1.7c-0.1,1,0.6,1.9,1.5,2c0,0,0,0,0,0c0.1,0,0.2,0,0.2,0h4.4
		v-0.8h-4.3c-0.8,0-1.1-0.4-1.1-1.3c0-0.8,0.4-1.3,1-1.3h4.3v-0.8h-4.3c-0.7,0-1-0.5-1-1.3c0-0.9,0.4-1.3,1.1-1.3h4.3v-0.8h-4.4
		c-1,0-1.8,0.8-1.8,1.8c0,0,0,0,0,0c0,0.1,0,0.2,0,0.2C453.7,365.6,454,366.3,454.5,366.7z"/>
	<path id="Path_435" class="st0" d="M454.8,377.6L454.8,377.6l-0.6-0.5l0,0c-0.3,0.5-0.4,1-0.4,1.6l0,0.9c-0.1,1,0.6,2,1.7,2.1
		c0.1,0,0.1,0,0.2,0h2.5c1,0,1.9-0.9,1.9-1.9c0,0,0,0,0,0c0-0.1,0-0.1,0-0.2v-0.9c0-0.6-0.1-1.1-0.4-1.6l0,0l-0.7,0.4l0,0
		c0.2,0.4,0.3,0.8,0.2,1.3v0.8c0,0.9-0.4,1.3-1.2,1.3h-2.3c-0.8,0-1.2-0.5-1.2-1.3v-0.8C454.5,378.4,454.6,378,454.8,377.6z"/>
	<path id="Path_436" class="st0" d="M460,384.7c0.1-1-0.6-2-1.7-2.1c-0.1,0-0.1,0-0.2,0h-2.5c-1,0-1.9,0.9-1.9,1.9
		c0,0.1,0,0.1,0,0.2v0.7c0,0.5,0,0.9,0.2,1.4l0,0.1l0.7-0.4l0,0c-0.1-0.4-0.2-0.7-0.1-1.1v-0.6c0-0.9,0.4-1.3,1.2-1.3h2.3
		c0.8,0,1.2,0.5,1.2,1.3v1c0,0.9-0.4,1.3-1.1,1.3s-1.1-0.4-1.1-1.3v-1.3h-0.8v1.4c0,1.3,0.7,2.1,1.9,2.1c1,0,1.8-0.8,1.9-1.8
		c0,0,0,0,0,0c0-0.1,0-0.2,0-0.3L460,384.7z"/>
</g>
</svg>
